<svg width="455" height="292" viewBox="0 0 455 292" fill="none" xmlns="http://www.w3.org/2000/svg">
    <path d="M6.66162 1.54102H449.016V212C449.016 255.355 413.87 290.5 370.516 290.5H85.1616C41.8072 290.5 6.66162 255.355 6.66162 212V1.54102Z" stroke="#B6EAFF" stroke-opacity="0.2" stroke-width="3"/>
    <mask id="mask0_1836_15239" style="mask-type:alpha" maskUnits="userSpaceOnUse" x="5" y="0" width="446" height="292">
        <path d="M5.16162 0.0410156H450.516V212C450.516 256.183 414.699 292 370.516 292H85.1616C40.9788 292 5.16162 256.183 5.16162 212V0.0410156Z" fill="white"/>
        <path d="M6.66162 1.54102H449.016V212C449.016 255.355 413.87 290.5 370.516 290.5H85.1616C41.8072 290.5 6.66162 255.355 6.66162 212V1.54102Z" stroke="#B6EAFF" stroke-opacity="0.2" stroke-width="3"/>
    </mask>
    <g mask="url(#mask0_1836_15239)">
        <path d="M164.654 5.05867C166.687 36.9719 193.311 62.2617 226.236 62.2617C258.958 62.2617 285.786 36.972 287.818 5.05869L288.021 5.05869C288.021 3.45299 287.818 1.64658 287.615 0.0408783L282.534 0.0408778C281.721 1.64658 280.908 3.05156 281.721 5.05868L282.94 5.05868C280.908 34.3627 256.316 57.6453 226.033 57.6453C195.953 57.6453 171.158 34.3627 169.125 5.05867L170.142 5.05868C170.955 2.65013 168.313 1.84728 167.703 0.0408678L165.061 0.0408676C164.451 1.64657 164.044 3.45298 164.044 5.05867L164.654 5.05867Z" fill="#B6EAFF" fill-opacity="0.2"/>
        <path d="M40.1176 197.833C40.1176 198.64 40.9299 199.446 41.7422 199.446H51.4893C54.1292 222.23 73.6236 239.972 97.1793 239.972C120.735 239.972 140.229 222.23 142.869 199.446H155.256C156.069 199.446 156.881 198.64 156.881 197.833C156.881 197.027 156.069 196.22 155.256 196.22H143.072C143.072 195.414 143.275 194.809 143.275 194.003C143.275 192.994 143.275 192.188 143.072 191.18H155.256C156.069 191.18 156.881 190.373 156.881 189.567C156.881 188.76 156.069 187.954 155.256 187.954H142.869C139.823 165.574 120.532 148.234 97.1793 148.234C73.8267 148.234 54.5353 165.574 51.4893 187.954H41.5391C40.7268 187.954 39.9146 188.76 39.9146 189.567C39.9146 190.373 40.7268 191.18 41.5391 191.18H51.0832C51.0832 192.188 50.8801 192.994 50.8801 194.003C50.8801 194.809 50.8801 195.414 51.0832 196.22H41.5391C40.7268 196.422 40.1176 197.027 40.1176 197.833ZM97.1793 151.864C120.735 151.864 139.823 170.816 139.823 194.204C139.823 217.592 120.735 236.545 97.1793 236.545C73.6236 236.545 54.5353 217.592 54.5353 194.204C54.7384 170.816 73.8267 151.864 97.1793 151.864Z" fill="#FFAEC1" fill-opacity="0.2"/>
        <path d="M296.388 197.833C296.388 198.64 297.2 199.446 298.012 199.446H307.759C310.399 222.23 329.894 239.972 353.449 239.972C377.005 239.972 396.499 222.23 399.139 199.446H411.526C412.339 199.446 413.151 198.64 413.151 197.833C413.151 197.027 412.339 196.22 411.526 196.22H399.342C399.342 195.414 399.545 194.809 399.545 194.003C399.545 192.994 399.545 192.188 399.342 191.18H411.526C412.339 191.18 413.151 190.373 413.151 189.567C413.151 188.76 412.339 187.954 411.526 187.954H398.936C395.89 165.574 376.599 148.234 353.246 148.234C329.894 148.234 310.602 165.574 307.556 187.954H297.606C296.794 187.954 295.981 188.76 295.981 189.567C295.981 190.373 296.794 191.18 297.606 191.18H307.15C307.15 192.188 306.947 192.994 306.947 194.003C306.947 194.809 306.947 195.414 307.15 196.22H297.606C296.997 196.422 296.388 197.027 296.388 197.833ZM353.449 151.864C377.005 151.864 396.093 170.816 396.093 194.204C396.093 217.592 377.005 236.545 353.449 236.545C329.894 236.545 310.805 217.592 310.805 194.204C311.008 170.816 330.097 151.864 353.449 151.864Z" fill="#FFAEC1" fill-opacity="0.2"/>
        <path d="M97.1802 199.041C99.8201 199.041 102.054 196.823 102.054 194.202C102.054 191.581 99.8201 189.363 97.1802 189.363C94.5404 189.363 92.3066 191.581 92.3066 194.202C92.3066 196.823 94.5404 199.041 97.1802 199.041Z" fill="#FFAEC1" fill-opacity="0.2"/>
        <path d="M353.449 199.041C356.089 199.041 358.322 196.823 358.322 194.202C358.322 191.581 356.089 189.363 353.449 189.363C350.809 189.363 348.575 191.581 348.575 194.202C348.575 196.823 350.809 199.041 353.449 199.041Z" fill="#FFAEC1" fill-opacity="0.2"/>
    </g>
    <path d="M219.586 2.43359C219.414 2.76863 219.414 3.27118 219.414 3.77374C219.414 7.62664 222.681 10.8095 226.636 10.8095C230.591 10.8095 233.858 7.62664 233.858 3.77374C233.858 3.27118 233.858 2.93615 233.686 2.43359H219.586V2.43359Z" fill="#FF4B6B"/>
    <rect x="0.34668" y="0.0410156" width="453.78" height="4.78622" rx="2.39311" fill="#FF4B6B"/>
    <rect x="22.0137" y="120.893" width="410.448" height="4.78622" rx="2.39311" fill="#B6EAFF" fill-opacity="0.2"/>
    <path d="M390.333 264.48H288.022V264.361H287.42C285.374 233.011 259.375 208.242 226.996 208.242C194.859 208.242 168.619 233.011 166.573 264.361H166.452V264.48H64.1412C62.8172 264.48 61.7339 265.557 61.7339 266.873C61.7339 268.19 62.8172 269.266 64.1412 269.266H166.813H171.748H284.411H287.059H390.333C391.657 269.266 392.74 268.19 392.74 266.873C392.74 265.557 391.657 264.48 390.333 264.48ZM172.591 264.361H171.387C173.434 235.643 197.507 212.789 227.237 212.789C256.727 212.789 281.041 235.643 283.087 264.361H282.004V264.48H172.711L172.591 264.361Z" fill="#B6EAFF" fill-opacity="0.2"/>
    <circle cx="227" cy="230" r="32" fill="white" fill-opacity="0.2"/>
    <circle cx="93" cy="61" r="32" fill="white" fill-opacity="0.2"/>
    <circle cx="227" cy="61" r="32" fill="white" fill-opacity="0.2"/>
    <circle cx="294" cy="154" r="32" fill="white" fill-opacity="0.2"/>
    <circle cx="160" cy="154" r="32" fill="white" fill-opacity="0.2"/>
    <circle cx="354" cy="61" r="32" fill="white" fill-opacity="0.2"/>
    <circle cx="228" cy="230" r="20" fill="white" fill-opacity="0.2"/>
    <circle cx="93" cy="61" r="20" fill="white" fill-opacity="0.2"/>
    <circle cx="227" cy="61" r="20" fill="white" fill-opacity="0.2"/>
    <circle cx="294" cy="154" r="20" fill="white" fill-opacity="0.2"/>
    <circle cx="160" cy="153" r="20" fill="white" fill-opacity="0.2"/>
    <circle cx="354" cy="61" r="20" fill="white" fill-opacity="0.2"/>
</svg>
