<svg width="392" height="392" viewBox="0 0 392 392" fill="none" xmlns="http://www.w3.org/2000/svg">
    <mask id="mask0_4642_30902" style="mask-type:alpha" maskUnits="userSpaceOnUse" x="0" y="0" width="392" height="392">
        <rect width="392" height="392" rx="12" fill="#333876"/>
    </mask>
    <g mask="url(#mask0_4642_30902)">
        <path d="M194.197 200.258V200.275L194.248 200.292L194.197 200.258Z" fill="white" fill-opacity="0.05"/>
        <path d="M194.422 200.551L194.336 200.637H194.542L194.422 200.551Z" fill="white" fill-opacity="0.05"/>
        <path d="M194.559 200.637H194.679L194.593 200.603L194.559 200.637Z" fill="white" fill-opacity="0.05"/>
        <path d="M194.163 200.585L194.146 200.464L193.578 200.31L194.077 200.619L194.163 200.585Z" fill="white" fill-opacity="0.05"/>
        <path d="M194.18 200.481L194.163 200.567L194.232 200.533L194.18 200.481Z" fill="white" fill-opacity="0.05"/>
        <path d="M194.662 200.517L194.628 200.551L194.662 200.567V200.517Z" fill="white" fill-opacity="0.05"/>
        <path d="M194.557 200.585H194.524L194.541 200.618L194.557 200.585Z" fill="white" fill-opacity="0.05"/>
        <path d="M194.249 200.515L194.265 200.499H194.232L194.249 200.515Z" fill="white" fill-opacity="0.05"/>
        <path d="M194.611 200.481L194.542 200.499L194.594 200.533L194.611 200.481Z" fill="white" fill-opacity="0.05"/>
        <path d="M171.66 39.3779L194.404 198.813L216.942 39.3435C217.063 39.3607 217.183 39.3779 217.303 39.3951L247.463 -175.456C230.551 -177.778 213.295 -179 195.729 -179C176.855 -179 158.326 -177.589 140.192 -174.923L171.006 39.4639C171.229 39.4467 171.453 39.4123 171.66 39.3779Z" fill="white" fill-opacity="0.05"/>
        <path d="M261.932 52.5393L194.766 200.138L442.202 -87.2136C415.036 -110.732 384.481 -130.414 351.362 -145.451L261.571 52.3672C261.691 52.4361 261.812 52.4877 261.932 52.5393Z" fill="white" fill-opacity="0.05"/>
        <path d="M38.5994 154.924L193.183 200.189H192.581L194.077 200.619L194.06 200.636L194.095 200.619L194.163 200.567V200.585L194.267 200.55L194.249 200.516L194.267 200.55L194.301 200.533L194.284 200.567L194.318 200.619L194.404 200.516L194.525 200.602H194.318L194.421 200.688L194.507 200.619L194.49 200.671L194.559 200.654V200.636L194.645 200.602V200.636L194.714 200.585L194.748 200.602L194.645 200.671L195.264 200.946L194.748 200.619L350.243 246.142C350.209 246.263 350.175 246.366 350.14 246.487L556.32 307.098C566.574 273.223 572.2 237.334 572.424 200.172H356.833C356.833 200.258 356.833 200.361 356.833 200.447L194.817 200.619H194.765H194.783L194.714 200.567L194.731 200.43L195.436 200.223L194.852 200.602L196.297 200.172H195.591L557.731 92.9011C547.528 57.6145 532.32 24.4613 512.896 -5.75L195.505 200.189H194.955L195.178 199.914L194.765 200.189V200.155L194.731 200.189L194.886 199.312L194.593 199.965L194.628 200.189L194.439 200.327L194.37 200.189H194.232L194.267 199.965L194.008 199.398L194.112 200.12L194.163 200.189H194.112V200.206L193.785 200L193.957 200.189H193.424L-122.831 -3.44458C-141.911 26.6807 -156.828 59.6963 -166.789 94.8109L38.5994 154.924ZM194.697 200.636L194.748 200.654L194.697 200.636ZM194.559 200.636L194.593 200.602L194.679 200.654L194.559 200.636ZM194.662 200.516V200.567L194.628 200.55L194.662 200.516ZM194.611 200.481L194.593 200.533L194.542 200.499L194.611 200.481ZM194.559 200.585L194.542 200.619L194.525 200.567L194.559 200.585ZM194.249 200.516L194.232 200.481L194.284 200.499L194.249 200.516ZM194.198 200.258L194.232 200.292L194.198 200.258ZM194.181 200.481L194.232 200.533L194.163 200.585L194.181 200.481ZM194.146 200.464L194.163 200.567L194.095 200.619L193.596 200.292L194.146 200.464Z" fill="white" fill-opacity="0.05"/>
        <path d="M87.9421 77.6408L194.026 200.052L126.738 52.6254C126.756 52.6081 126.773 52.6081 126.79 52.6081L36.8444 -143.92C4.00084 -128.625 -26.2793 -108.719 -53.1528 -85.063L87.9248 77.658L87.9421 77.6408Z" fill="white" fill-opacity="0.05"/>
        <path d="M510.693 404.597L331.06 288.638C331.026 288.69 330.991 288.724 330.974 288.776L195.075 201.273L301.038 323.512C300.952 323.581 300.866 323.667 300.78 323.736L439.965 484.65C467.166 461.493 490.994 434.533 510.693 404.597Z" fill="white" fill-opacity="0.05"/>
        <path d="M194.643 200.997V200.98L194.61 200.964L194.643 200.997Z" fill="white" fill-opacity="0.05"/>
        <path d="M194.249 200.688L194.232 200.723L194.18 200.688L194.198 200.809V200.792V200.809L194.301 200.774L194.249 200.74L194.284 200.688L194.318 200.706L194.301 200.671L194.335 200.637H194.163L194.249 200.688Z" fill="white" fill-opacity="0.05"/>
        <path d="M193.475 201.015L194.128 200.826L194.146 200.671L194.111 200.637L193.475 201.015Z" fill="white" fill-opacity="0.05"/>
        <path d="M193.75 201.325L58.1954 289.275C58.0921 289.103 57.9889 288.948 57.8857 288.776L-119.786 403.754C-100.276 433.57 -76.6714 460.478 -49.729 483.618L108.674 300.131L193.75 201.325Z" fill="white" fill-opacity="0.05"/>
        <path d="M38.7027 246.659L194.06 200.637L-181 201.05C-180.69 237.799 -175.116 273.275 -165 306.806L38.7027 246.693C38.7027 246.676 38.7027 246.676 38.7027 246.659Z" fill="white" fill-opacity="0.05"/>
        <path d="M39.752 540.84C71.6493 555.361 105.921 565.563 141.844 570.707L193.991 201.875L39.752 540.84Z" fill="white" fill-opacity="0.05"/>
        <path d="M194.662 200.791L194.68 200.723L194.628 200.757L194.662 200.791Z" fill="white" fill-opacity="0.05"/>
        <path d="M247.515 571C283.524 566.045 317.916 556.032 349.934 541.649L194.852 201.841L247.515 571Z" fill="white" fill-opacity="0.05"/>
        <path d="M194.267 201.256L194.439 202.478L194.593 201.308L194.421 200.912L194.267 201.256Z" fill="white" fill-opacity="0.05"/>
        <path d="M194.61 200.774H194.594L194.626 200.791L194.61 200.774Z" fill="white" fill-opacity="0.05"/>
    </g>
</svg>
