<svg width="316" height="192" viewBox="0 0 316 192" fill="none" xmlns="http://www.w3.org/2000/svg">
    <ellipse cx="150.619" cy="101.834" rx="84.6" ry="86.1666" fill="#36427D"/>
    <path d="M72.9879 104.922C72.6076 104.219 71.819 103.891 71.0035 103.641C68.031 102.735 64.9616 102.628 61.8982 102.727C58.1412 102.849 54.3929 103.19 50.6355 103.344C46.1037 103.53 42.3588 101.852 39.3561 98.2742C42.4728 100.14 45.7945 100.186 49.1101 99.82C52.0904 99.491 55.0372 98.8611 58.0023 98.3856C62.6851 97.6354 67.3738 97.1881 72.0794 98.2257C76.9588 99.3013 80.9157 101.859 83.9893 105.765C86.9512 109.529 88.7369 113.87 89.9935 118.449C91.2943 123.192 91.9942 128.036 92.3161 132.934C92.389 134.047 92.215 135.176 92.0688 136.299C91.2949 133.26 90.2261 130.363 88.704 127.644C85.3018 121.571 80.4442 117.345 73.529 115.76C70.5625 115.08 67.5606 115.137 64.5443 115.29C58.5061 115.599 52.4668 116.025 46.4137 115.68C43.3101 115.503 40.2823 114.978 37.4925 113.492C32.3182 110.733 29.8516 106.219 29.2552 100.575C28.8587 96.8291 29.6958 93.2475 31.108 89.7879C31.1728 89.6297 31.2571 89.4791 31.3852 89.3372C31.1485 91.8107 31.146 94.2611 31.6357 96.6937C32.1016 99.0192 32.9527 101.184 34.5186 102.987C36.3213 105.062 38.6631 106.209 41.35 106.704C44.4419 107.274 47.5022 106.889 50.5697 106.489C55.9693 105.785 61.3734 105.104 66.7796 104.446C67.6514 104.341 68.549 104.321 69.4233 104.399C70.6199 104.503 71.8047 104.741 72.9879 104.922Z" fill="#B9CBE5"/>
    <path d="M230.885 110.451C231.307 109.727 232.145 109.408 233.008 109.174C236.155 108.321 239.378 108.311 242.588 108.515C246.524 108.768 250.443 109.249 254.379 109.535C259.125 109.88 263.108 108.243 266.376 104.59C263.045 106.444 259.56 106.383 256.095 105.889C252.98 105.446 249.911 104.688 246.817 104.091C241.93 103.15 237.028 102.526 232.059 103.459C226.906 104.426 222.671 106.977 219.319 110.972C216.088 114.822 214.072 119.315 212.603 124.076C211.082 129.008 210.188 134.064 209.689 139.191C209.576 140.356 209.721 141.546 209.837 142.728C210.749 139.567 211.966 136.563 213.652 133.762C217.421 127.505 222.654 123.234 229.959 121.8C233.093 121.185 236.239 121.344 239.397 121.604C245.72 122.127 252.039 122.773 258.399 122.612C261.66 122.529 264.853 122.078 267.827 120.612C273.345 117.889 276.081 113.237 276.893 107.337C277.433 103.421 276.673 99.6375 275.306 95.9626C275.243 95.7945 275.16 95.6338 275.03 95.4807C275.197 98.0826 275.119 100.653 274.525 103.188C273.959 105.611 272.995 107.853 271.293 109.693C269.334 111.809 266.84 112.935 264.006 113.366C260.745 113.861 257.548 113.356 254.344 112.835C248.704 111.918 243.059 111.026 237.411 110.158C236.5 110.018 235.56 109.968 234.64 110.02C233.382 110.091 232.131 110.301 230.885 110.451Z" fill="#B9CBE5"/>
    <path d="M150.374 3.50219C151.126 2.0477 153.212 2.06389 153.941 3.52987L181.615 59.1503C181.911 59.7437 182.481 60.1523 183.137 60.2413L246.668 68.8449C248.346 69.0721 249 71.1513 247.754 72.2982L201.664 114.735C201.157 115.201 200.926 115.895 201.052 116.572L212.444 177.754C212.747 179.383 211.052 180.653 209.574 179.904L153.089 151.295C152.52 151.007 151.849 151.007 151.281 151.295L94.6815 179.962C93.2246 180.7 91.5454 179.475 91.8028 177.863L101.595 116.522C101.699 115.872 101.477 115.213 101.001 114.759L56.4843 72.2783C55.273 71.1224 55.9334 69.0786 57.5921 68.8501L120.082 60.2406C120.726 60.1519 121.287 59.7555 121.586 59.1779L150.374 3.50219Z" fill="#2ABAF3"/>
    <path d="M153.046 3.97533L180.72 59.5958C181.163 60.4859 182.018 61.0988 183.003 61.2322L246.534 69.8359C247.373 69.9495 247.7 70.9891 247.077 71.5625L200.986 113.999C200.227 114.699 199.88 115.74 200.069 116.755L211.461 177.937C211.612 178.752 210.765 179.387 210.026 179.012L153.54 150.402C152.688 149.971 151.681 149.971 150.829 150.402L94.2296 179.07C93.5012 179.439 92.6616 178.827 92.7903 178.02L102.583 116.679C102.738 115.705 102.405 114.717 101.692 114.036L57.1747 71.5548C56.5691 70.9769 56.8993 69.955 57.7286 69.8407L120.219 61.2312C121.185 61.0981 122.026 60.5036 122.474 59.6372L151.262 3.96149C151.638 3.23425 152.681 3.24234 153.046 3.97533Z" stroke="white" stroke-opacity="0.5" stroke-width="2"/>
    <path d="M141.152 127.196C139.925 126.132 138.723 125.09 137.522 124.048C137.453 123.988 137.384 123.926 137.323 123.858C136.087 122.473 134.662 121.285 133.289 120.04C132.532 119.355 131.851 118.564 131.25 117.74C129.436 115.253 127.305 113.059 125.041 110.982C121.409 107.651 117.499 104.653 113.599 101.641C109.656 98.5946 105.72 95.538 101.811 92.4481C99.4936 90.6162 97.4108 88.5441 95.6643 86.1589C93.0923 82.646 91.3715 78.7796 90.7863 74.4669C90.1245 69.5853 90.8354 64.9405 93.5075 60.705C95.4357 57.6491 98.1016 55.4904 101.68 54.5625C104.571 53.8134 107.409 54.1211 110.193 55.0988C112.401 55.8738 114.402 57.0276 116.277 58.4037C116.398 58.4917 116.519 58.5783 116.64 58.6643C116.648 58.6705 116.662 58.6691 116.673 58.6711C118.228 57.1285 120.162 56.2191 122.189 55.474C124.959 54.4561 127.832 53.8298 130.742 53.3672C138.464 52.1391 146.246 51.858 154.048 52.0593C157.43 52.1466 160.813 52.3138 164.186 52.5621C169.535 52.9551 174.855 53.593 180.078 54.8641C181.619 55.2393 183.14 55.6855 184.574 56.3753C185.566 56.8522 186.064 57.2602 186.488 57.9384C186.608 57.8592 186.727 57.7808 186.846 57.701C189.027 56.2443 191.344 55.0674 193.936 54.5291C199.793 53.3126 204.5 55.1588 208.048 59.8733C209.956 62.4086 210.988 65.3164 211.37 68.435C212.191 75.1206 210.234 81.0535 206.264 86.4202C204.374 88.976 202.052 91.1163 199.56 93.0744C195.615 96.1739 191.637 99.2332 187.667 102.301C183.714 105.357 179.769 108.422 176.143 111.862C174.089 113.811 172.169 115.876 170.558 118.209C169.819 119.28 168.82 120.116 167.826 120.946C166.753 121.843 165.713 122.766 164.782 123.815C163.704 125.03 162.492 126.117 161.178 127.076C161.598 128.086 161.426 128.819 160.456 129.299C158.644 130.194 158.39 131.734 158.569 133.45C158.768 135.36 159.696 136.931 161.074 138.26C161.461 138.633 161.85 139.008 162.192 139.419C162.407 139.677 162.558 139.994 162.701 140.301C162.836 140.593 162.723 140.905 162.423 141.099C162.267 141.2 162.235 141.289 162.246 141.477C162.435 144.548 163.617 147.297 165.068 149.953C166.343 152.284 167.849 154.459 169.82 156.279C170.38 156.797 171.038 157.209 171.636 157.688C172.44 158.329 173.27 158.946 174.014 159.651C174.665 160.267 175.09 161.038 175.045 161.988C175.041 162.064 175.143 162.176 175.224 162.219C175.598 162.417 175.903 162.693 175.968 163.106C176.01 163.375 175.908 163.666 175.861 164.022C176.31 164.464 176.401 165.167 176.528 165.837C176.833 167.45 176.984 169.076 176.843 170.722C176.777 171.484 176.498 172.05 175.798 172.474C174.023 173.547 172.104 174.254 170.116 174.808C167.32 175.586 164.465 176.058 161.582 176.392C156.632 176.965 151.665 177.119 146.688 176.913C141.933 176.717 137.208 176.251 132.582 175.081C130.594 174.579 128.675 173.909 126.868 172.916C125.906 172.387 125.46 171.674 125.437 170.602C125.396 168.718 125.51 166.852 125.942 165.015C126.013 164.712 126.184 164.433 126.306 164.141C126.326 164.096 126.346 164.04 126.338 163.995C126.212 163.26 126.395 162.816 127.024 162.462C127.216 162.354 127.287 162.235 127.325 162.024C127.517 160.958 128.082 160.071 128.82 159.307C129.405 158.701 130.018 158.093 130.714 157.625C133.772 155.566 136.039 152.828 137.841 149.683C138.815 147.984 139.58 146.196 139.889 144.253C139.993 143.595 139.982 142.919 140.026 142.251C140.046 141.948 140.074 141.645 140.091 141.341C140.095 141.272 140.091 141.188 140.055 141.135C139.785 140.752 139.789 140.347 140.138 140.005C140.513 139.638 140.909 139.286 141.327 138.968C142.988 137.708 143.637 135.961 143.799 133.986C143.881 132.984 143.815 131.987 143.474 131.024C143.213 130.289 142.821 129.672 142.041 129.377C141.936 129.337 141.839 129.269 141.743 129.207C140.902 128.663 140.729 128.058 141.152 127.196ZM130.969 115.432C130.92 115.325 130.905 115.285 130.884 115.248C127.532 109.471 124.91 103.377 122.836 97.0486C120.86 91.0255 119.258 84.9036 118.065 78.6847C117.515 75.8192 117.102 72.9243 116.731 70.0302C116.505 68.2638 116.477 66.4722 116.363 64.6921C116.35 64.4868 116.351 64.3128 116.11 64.192C114.342 63.3099 112.538 62.5116 110.651 61.9119C108.101 61.1014 105.507 60.5808 102.808 60.9363C100.568 61.231 98.6453 62.1377 97.1925 63.8898C95.8101 65.5566 95.189 67.5222 94.9687 69.629C94.7269 71.9398 94.9866 74.2131 95.5669 76.4544C96.8118 81.261 99.1945 85.4767 102.479 89.1964C106.843 94.1401 111.677 98.5919 117.015 102.505C120.72 105.221 124.244 108.142 127.379 111.498C128.57 112.777 129.736 114.08 130.969 115.432ZM170.614 116.031C170.63 116.041 170.646 116.052 170.661 116.062C170.748 115.963 170.832 115.861 170.921 115.765C172.732 113.797 174.501 111.789 176.364 109.87C179.105 107.047 182.216 104.639 185.381 102.303C190.771 98.3251 195.67 93.8215 200.015 88.755C203.829 84.3066 206.397 79.2449 207.122 73.3842C207.379 71.3019 207.299 69.2285 206.675 67.2049C205.804 64.3797 204.07 62.3233 201.176 61.3579C199.023 60.6395 196.826 60.7145 194.626 61.1123C191.762 61.6308 189.092 62.6965 186.492 63.9546C186.29 64.0528 186.249 64.1866 186.232 64.3824C186.117 65.7415 186.013 67.1019 185.864 68.4569C185.458 72.1397 184.888 75.7981 184.164 79.4338C182.837 86.0962 181.024 92.6255 178.671 99.0053C176.517 104.843 173.959 110.498 170.711 115.832C170.674 115.895 170.646 115.965 170.614 116.031Z" fill="white"/>
    <path d="M139.858 74H141.786V67.072H144.674V65.36H136.97V67.072H139.858V74ZM149.85 74.24C150.714 74.24 151.469 74.048 152.114 73.664C152.759 73.2747 153.261 72.7387 153.618 72.056C153.981 71.368 154.162 70.576 154.162 69.68C154.162 68.7893 153.983 68.0027 153.626 67.32C153.269 66.632 152.767 66.0933 152.122 65.704C151.477 65.3147 150.719 65.12 149.85 65.12C149.002 65.12 148.255 65.312 147.61 65.696C146.965 66.08 146.461 66.6133 146.098 67.296C145.735 67.9787 145.554 68.7733 145.554 69.68C145.554 70.5707 145.73 71.36 146.082 72.048C146.439 72.7307 146.941 73.2667 147.586 73.656C148.231 74.0453 148.986 74.24 149.85 74.24ZM149.85 72.432C149.109 72.432 148.546 72.184 148.162 71.688C147.783 71.1867 147.594 70.5173 147.594 69.68C147.594 68.864 147.775 68.2027 148.138 67.696C148.506 67.184 149.077 66.928 149.85 66.928C150.607 66.928 151.175 67.1787 151.554 67.68C151.933 68.176 152.122 68.8427 152.122 69.68C152.122 70.4907 151.933 71.152 151.554 71.664C151.181 72.176 150.613 72.432 149.85 72.432ZM155.909 74H157.837V67.168H161.485V74H163.413V65.36H155.909V74ZM144.664 114V88.28C144.664 87.4 144.398 86.6667 143.864 86.08C143.331 85.4933 142.598 85.2 141.664 85.2H135.184C134.411 85.2 133.744 85.4667 133.184 86C132.651 86.5333 132.384 87.1867 132.384 87.96C132.384 88.7333 132.664 89.4 133.224 89.96C133.784 90.4933 134.451 90.76 135.224 90.76H138.304V114H144.664ZM146.929 99.6C146.929 100.72 147.023 101.88 147.209 103.08C147.396 104.28 147.703 105.453 148.129 106.6C148.556 107.72 149.103 108.773 149.769 109.76C150.436 110.747 151.236 111.6 152.169 112.32C152.996 112.933 153.889 113.427 154.849 113.8C155.809 114.173 156.849 114.36 157.969 114.36C159.116 114.36 160.169 114.173 161.129 113.8C162.116 113.427 163.023 112.933 163.849 112.32C164.783 111.6 165.583 110.747 166.249 109.76C166.916 108.747 167.449 107.667 167.849 106.52C168.276 105.373 168.583 104.2 168.769 103C168.956 101.773 169.049 100.587 169.049 99.44C169.049 98.32 168.943 97.16 168.729 95.96C168.543 94.76 168.236 93.6 167.809 92.48C167.383 91.3333 166.836 90.2667 166.169 89.28C165.503 88.2933 164.703 87.4533 163.769 86.76C162.943 86.1467 162.049 85.6667 161.089 85.32C160.129 84.9733 159.089 84.8 157.969 84.8C156.849 84.8 155.809 84.9867 154.849 85.36C153.889 85.7067 152.996 86.1867 152.169 86.8C151.209 87.52 150.396 88.3867 149.729 89.4C149.063 90.3867 148.516 91.4533 148.089 92.6C147.689 93.72 147.383 94.88 147.169 96.08C146.983 97.28 146.889 98.4533 146.889 99.6H146.929ZM162.969 99.56C162.969 100.333 162.903 101.267 162.769 102.36C162.636 103.427 162.383 104.453 162.009 105.44C161.663 106.427 161.156 107.267 160.489 107.96C159.849 108.653 159.009 109 157.969 109C156.929 109 156.076 108.653 155.409 107.96C154.769 107.267 154.263 106.44 153.889 105.48C153.543 104.493 153.303 103.467 153.169 102.4C153.063 101.307 153.009 100.373 153.009 99.6C153.009 98.8533 153.076 97.96 153.209 96.92C153.343 95.8533 153.596 94.8267 153.969 93.84C154.343 92.8533 154.849 92.0133 155.489 91.32C156.129 90.6267 156.956 90.28 157.969 90.28C159.009 90.28 159.849 90.6267 160.489 91.32C161.129 92.0133 161.636 92.8533 162.009 93.84C162.383 94.8 162.636 95.8133 162.769 96.88C162.903 97.92 162.969 98.8133 162.969 99.56Z" fill="#464EA3"/>
    <path d="M11.5303 65.5392C11.5303 65.7092 12.7603 65.8392 14.2803 65.8392C15.8003 65.8392 17.0303 65.6992 17.0303 65.5392C17.0303 65.3692 15.8003 65.2393 14.2803 65.2393C12.7603 65.2393 11.5303 65.3692 11.5303 65.5392Z" fill="#B9CBE5"/>
    <path d="M8.61006 58.0596C8.44006 58.0596 8.31006 59.3096 8.31006 60.8496C8.31006 62.3896 8.45006 63.6396 8.61006 63.6396C8.78006 63.6396 8.91006 62.3896 8.91006 60.8496C8.91006 59.3096 8.78006 58.0596 8.61006 58.0596Z" fill="#B9CBE5"/>
    <path d="M5.5 65.3596C5.5 65.1896 4.27 65.0596 2.75 65.0596C1.23 65.0596 0 65.1996 0 65.3596C0 65.5296 1.23 65.6596 2.75 65.6596C4.27 65.6696 5.5 65.5296 5.5 65.3596Z" fill="#B9CBE5"/>
    <path d="M8.41965 72.8398C8.58965 72.8398 8.71965 71.5898 8.71965 70.0498C8.71965 68.5098 8.57965 67.2598 8.41965 67.2598C8.24965 67.2598 8.11965 68.5098 8.11965 70.0498C8.10965 71.5898 8.24965 72.8398 8.41965 72.8398Z" fill="#B9CBE5"/>
    <path d="M3.96994 69.6296C4.09994 69.7396 4.63994 69.2995 5.17994 68.6495C5.71994 67.9995 6.04994 67.3896 5.91994 67.2796C5.78994 67.1696 5.24994 67.6095 4.70994 68.2595C4.17994 68.9095 3.84994 69.5196 3.96994 69.6296Z" fill="#B9CBE5"/>
    <path d="M4.23011 61.1496C4.11011 61.2696 4.47011 61.8196 5.03011 62.3896C5.59011 62.9596 6.14011 63.3196 6.26011 63.1996C6.38011 63.0796 6.02011 62.5296 5.46011 61.9596C4.90011 61.3996 4.35011 61.0296 4.23011 61.1496Z" fill="#B9CBE5"/>
    <path d="M10.5301 63.3096C10.6401 63.4396 11.1601 63.1796 11.6901 62.7396C12.2201 62.2996 12.5701 61.8296 12.4601 61.6996C12.3501 61.5696 11.8301 61.8296 11.3001 62.2696C10.7701 62.7196 10.4301 63.1796 10.5301 63.3096Z" fill="#B9CBE5"/>
    <path d="M10.7797 67.05C10.6597 67.16 10.9697 67.71 11.4797 68.27C11.9897 68.83 12.4997 69.19 12.6297 69.08C12.7497 68.97 12.4397 68.42 11.9297 67.86C11.4197 67.3 10.8997 66.94 10.7797 67.05Z" fill="#B9CBE5"/>
    <path d="M265.529 21.4802C265.529 21.6502 266.759 21.7802 268.279 21.7802C269.799 21.7802 271.029 21.6402 271.029 21.4802C271.029 21.3102 269.799 21.1802 268.279 21.1802C266.759 21.1702 265.529 21.3102 265.529 21.4802Z" fill="#B9CBE5"/>
    <path d="M262.61 14C262.44 14 262.31 15.25 262.31 16.79C262.31 18.33 262.45 19.58 262.61 19.58C262.78 19.58 262.91 18.33 262.91 16.79C262.91 15.25 262.78 14 262.61 14Z" fill="#B9CBE5"/>
    <path d="M259.5 21.3C259.5 21.13 258.27 21 256.75 21C255.23 21 254 21.14 254 21.3C254 21.46 255.23 21.6 256.75 21.6C258.27 21.6 259.5 21.47 259.5 21.3Z" fill="#B9CBE5"/>
    <path d="M262.42 28.7802C262.59 28.7802 262.72 27.5302 262.72 25.9902C262.72 24.4502 262.58 23.2002 262.42 23.2002C262.25 23.2002 262.12 24.4502 262.12 25.9902C262.11 27.5302 262.25 28.7802 262.42 28.7802Z" fill="#B9CBE5"/>
    <path d="M257.97 25.57C258.1 25.68 258.64 25.24 259.18 24.59C259.72 23.94 260.05 23.33 259.92 23.22C259.79 23.11 259.25 23.55 258.71 24.2C258.18 24.85 257.85 25.46 257.97 25.57Z" fill="#B9CBE5"/>
    <path d="M258.23 17.0904C258.11 17.2104 258.47 17.7604 259.03 18.3304C259.59 18.9004 260.14 19.2604 260.26 19.1404C260.38 19.0204 260.02 18.4705 259.46 17.9005C258.9 17.3305 258.35 16.9704 258.23 17.0904Z" fill="#B9CBE5"/>
    <path d="M264.53 19.25C264.64 19.38 265.16 19.12 265.69 18.68C266.22 18.24 266.57 17.77 266.46 17.64C266.35 17.51 265.83 17.77 265.3 18.21C264.77 18.65 264.43 19.12 264.53 19.25Z" fill="#B9CBE5"/>
    <path d="M264.78 22.9899C264.66 23.0999 264.97 23.6499 265.48 24.2099C265.99 24.7699 266.5 25.1299 266.63 25.0199C266.75 24.9099 266.44 24.3599 265.93 23.7999C265.42 23.2299 264.9 22.8699 264.78 22.9899Z" fill="#B9CBE5"/>
    <path d="M47.5303 157.48C47.5303 157.65 48.7603 157.78 50.2803 157.78C51.8003 157.78 53.0303 157.64 53.0303 157.48C53.0303 157.31 51.8003 157.18 50.2803 157.18C48.7603 157.18 47.5303 157.31 47.5303 157.48Z" fill="#B9CBE5"/>
    <path d="M44.6101 150C44.4401 150 44.3101 151.25 44.3101 152.79C44.3101 154.33 44.4501 155.58 44.6101 155.58C44.7701 155.58 44.9101 154.33 44.9101 152.79C44.9201 151.25 44.7801 150 44.6101 150Z" fill="#B9CBE5"/>
    <path d="M41.5 157.3C41.5 157.13 40.27 157 38.75 157C37.23 157 36 157.14 36 157.3C36 157.47 37.23 157.6 38.75 157.6C40.27 157.6 41.5 157.47 41.5 157.3Z" fill="#B9CBE5"/>
    <path d="M44.4201 164.78C44.5901 164.78 44.7201 163.53 44.7201 161.99C44.7201 160.45 44.5801 159.2 44.4201 159.2C44.2501 159.2 44.1201 160.45 44.1201 161.99C44.1201 163.53 44.2501 164.78 44.4201 164.78Z" fill="#B9CBE5"/>
    <path d="M39.98 161.57C40.11 161.68 40.65 161.24 41.19 160.59C41.73 159.94 42.06 159.33 41.93 159.22C41.8 159.11 41.26 159.55 40.72 160.2C40.18 160.85 39.85 161.46 39.98 161.57Z" fill="#B9CBE5"/>
    <path d="M40.2399 153.09C40.1199 153.21 40.4799 153.76 41.0399 154.33C41.5999 154.9 42.1499 155.26 42.2699 155.14C42.3899 155.02 42.0299 154.47 41.4699 153.9C40.9099 153.33 40.3599 152.97 40.2399 153.09Z" fill="#B9CBE5"/>
    <path d="M46.5398 155.25C46.6498 155.38 47.1698 155.12 47.6998 154.68C48.2298 154.24 48.5798 153.77 48.4698 153.64C48.3598 153.51 47.8398 153.77 47.3098 154.21C46.7798 154.66 46.4298 155.12 46.5398 155.25Z" fill="#B9CBE5"/>
    <path d="M46.7899 158.99C46.6699 159.1 46.9799 159.65 47.4899 160.21C47.9999 160.77 48.5099 161.13 48.6399 161.02C48.7599 160.91 48.4499 160.36 47.9399 159.8C47.4199 159.24 46.9099 158.88 46.7899 158.99Z" fill="#B9CBE5"/>
    <path d="M49.58 25.0098L49.26 25.7698C48.71 27.0898 47.65 28.1398 46.32 28.6798L45.5 29.0098L46.29 29.3298C47.64 29.8798 48.71 30.9498 49.25 32.2998L49.47 32.8498L49.8 32.1598C50.41 30.8998 51.48 29.9198 52.8 29.4398L53.52 29.1798L52.58 28.7298C51.4 28.1598 50.47 27.1698 49.96 25.9598L49.58 25.0098Z" fill="#B9CBE5"/>
    <path d="M14.31 11.7803L14.15 12.1603C13.87 12.8203 13.35 13.3503 12.68 13.6203L12.27 13.7903L12.67 13.9503C13.34 14.2203 13.88 14.7603 14.15 15.4303L14.26 15.7103L14.43 15.3603C14.73 14.7303 15.27 14.2403 15.93 14.0003L16.29 13.8703L15.82 13.6403C15.23 13.3503 14.76 12.8603 14.51 12.2603L14.31 11.7803Z" fill="#B9CBE5"/>
    <path d="M245.899 43.4502L245.739 43.8302C245.459 44.4902 244.939 45.0202 244.269 45.2902L243.859 45.4602L244.259 45.6202C244.929 45.8902 245.469 46.4302 245.739 47.1002L245.849 47.3802L246.019 47.0302C246.319 46.4002 246.859 45.9102 247.519 45.6702L247.879 45.5402L247.409 45.3102C246.819 45.0202 246.349 44.5302 246.099 43.9302L245.899 43.4502Z" fill="#B9CBE5"/>
    <path d="M272.86 161.04L272.7 161.42C272.42 162.08 271.9 162.61 271.23 162.88L270.82 163.05L271.22 163.21C271.89 163.48 272.43 164.02 272.7 164.69L272.81 164.97L272.98 164.62C273.28 163.99 273.82 163.5 274.48 163.26L274.84 163.13L274.37 162.9C273.78 162.61 273.31 162.12 273.06 161.52L272.86 161.04Z" fill="#B9CBE5"/>
    <path d="M9.04 132L8.88 132.38C8.6 133.04 8.08 133.57 7.41 133.84L7 134.01L7.4 134.17C8.07 134.44 8.61 134.98 8.88 135.65L8.99 135.93L9.16 135.58C9.46 134.95 10 134.46 10.66 134.22L11.02 134.09L10.55 133.86C9.96 133.57 9.49 133.08 9.24 132.48L9.04 132Z" fill="#B9CBE5"/>
    <path d="M178.48 4L178.32 4.38C178.04 5.04 177.52 5.57 176.85 5.84L176.44 6L176.84 6.16C177.51 6.43 178.05 6.97 178.32 7.64L178.43 7.92L178.6 7.57C178.9 6.94 179.44 6.45 180.1 6.21L180.46 6.08L179.99 5.85C179.4 5.56 178.93 5.07 178.68 4.47L178.48 4Z" fill="#B9CBE5"/>
    <path d="M244.37 184.07L244.05 184.83C243.5 186.15 242.44 187.2 241.11 187.74L240.29 188.07L241.08 188.39C242.43 188.94 243.5 190.01 244.04 191.36L244.26 191.91L244.59 191.22C245.2 189.96 246.27 188.98 247.59 188.5L248.31 188.24L247.37 187.79C246.19 187.22 245.26 186.23 244.75 185.02L244.37 184.07Z" fill="#B9CBE5"/>
    <path d="M306.301 72.1699C306.301 72.4699 308.471 72.7099 311.141 72.7099C313.811 72.7099 315.981 72.4699 315.981 72.1699C315.981 71.8699 313.811 71.6299 311.141 71.6299C308.461 71.6399 306.301 71.8799 306.301 72.1699Z" fill="#B9CBE5"/>
    <path d="M301.15 59C300.85 59 300.61 61.2 300.61 63.91C300.61 66.62 300.85 68.82 301.15 68.82C301.45 68.82 301.69 66.62 301.69 63.91C301.69 61.2 301.45 59 301.15 59Z" fill="#B9CBE5"/>
    <path d="M295.68 71.8603C295.68 71.5603 293.51 71.3203 290.84 71.3203C288.17 71.3203 286 71.5603 286 71.8603C286 72.1603 288.17 72.4003 290.84 72.4003C293.51 72.3903 295.68 72.1503 295.68 71.8603Z" fill="#B9CBE5"/>
    <path d="M300.82 85.03C301.12 85.03 301.36 82.83 301.36 80.12C301.36 77.41 301.12 75.21 300.82 75.21C300.52 75.21 300.28 77.41 300.28 80.12C300.28 82.83 300.52 85.03 300.82 85.03Z" fill="#B9CBE5"/>
    <path d="M292.99 79.3802C293.22 79.5702 294.17 78.8002 295.12 77.6602C296.07 76.5202 296.66 75.4402 296.43 75.2602C296.2 75.0702 295.25 75.8402 294.3 76.9802C293.35 78.1102 292.77 79.1902 292.99 79.3802Z" fill="#B9CBE5"/>
    <path d="M293.451 64.4403C293.241 64.6503 293.871 65.6203 294.861 66.6203C295.851 67.6203 296.821 68.2503 297.031 68.0503C297.241 67.8403 296.611 66.8703 295.621 65.8703C294.631 64.8703 293.661 64.2303 293.451 64.4403Z" fill="#B9CBE5"/>
    <path d="M304.54 68.2495C304.73 68.4795 305.64 68.0295 306.58 67.2495C307.52 66.4695 308.13 65.6495 307.94 65.4195C307.75 65.1895 306.84 65.6395 305.9 66.4195C304.96 67.1995 304.36 68.0195 304.54 68.2495Z" fill="#B9CBE5"/>
    <path d="M304.98 74.8296C304.76 75.0296 305.31 75.9896 306.21 76.9696C307.11 77.9496 308.01 78.5896 308.23 78.3896C308.45 78.1896 307.9 77.2296 307 76.2496C306.1 75.2696 305.2 74.6296 304.98 74.8296Z" fill="#B9CBE5"/>
</svg>
