<svg width="155" height="126" viewBox="0 0 155 126" fill="none" xmlns="http://www.w3.org/2000/svg">
    <circle cx="78" cy="62" r="61" fill="#ECF6FF" stroke="#899BC9" stroke-width="2"/>
    <path d="M72.8535 73.3126C72.1538 72.6999 71.4683 72.0998 70.7832 71.4994C70.7438 71.4648 70.7045 71.4294 70.6698 71.3901C69.965 70.5924 69.1523 69.9082 68.3691 69.191C67.9377 68.796 67.5493 68.3406 67.2066 67.8658C66.1721 66.4338 64.9571 65.1696 63.6657 63.9734C61.5947 62.0548 59.365 60.328 57.1411 58.593C54.8925 56.8384 52.6481 55.0778 50.4192 53.298C49.0975 52.2428 47.9097 51.0493 46.9138 49.6755C45.4471 47.652 44.4658 45.4249 44.1321 42.9409C43.7547 40.1291 44.1601 37.4537 45.6839 35.014C46.7834 33.2539 48.3036 32.0105 50.3443 31.476C51.9926 31.0445 53.6109 31.2218 55.1986 31.7849C56.458 32.2313 57.5989 32.8959 58.6685 33.6885C58.737 33.7392 58.806 33.7891 58.8753 33.8386C58.88 33.8422 58.8879 33.8414 58.8942 33.8426C59.781 32.954 60.8837 32.4302 62.0395 32.001C63.6193 31.4147 65.2573 31.0539 66.917 30.7875C71.3206 30.0801 75.7581 29.9182 80.2073 30.0342C82.1357 30.0845 84.0649 30.1807 85.9885 30.3238C89.0389 30.5501 92.0727 30.9176 95.0506 31.6497C95.9299 31.8658 96.797 32.1229 97.6148 32.5202C98.1801 32.7949 98.4642 33.0299 98.7061 33.4205C98.7746 33.3749 98.8428 33.3297 98.9105 33.2837C100.154 32.4447 101.475 31.7668 102.953 31.4568C106.293 30.7561 108.978 31.8195 111.001 34.535C112.089 35.9953 112.677 37.6702 112.895 39.4665C113.363 43.3174 112.247 46.7348 109.984 49.826C108.906 51.2981 107.581 52.5309 106.16 53.6587C103.911 55.444 101.643 57.2062 99.3785 58.9734C97.1243 60.7332 94.8745 62.4989 92.807 64.4803C91.6354 65.6031 90.5406 66.7922 89.6223 68.1362C89.2008 68.7532 88.6312 69.2346 88.0643 69.7129C87.4525 70.2293 86.8592 70.761 86.3285 71.365C85.7136 72.0653 85.0226 72.6909 84.2729 73.2434C84.5124 73.8254 84.4147 74.2475 83.8616 74.5238C82.8283 75.0398 82.6833 75.9267 82.7853 76.9151C82.8988 78.015 83.4279 78.9201 84.2138 79.6856C84.4344 79.9002 84.6562 80.1163 84.8516 80.3529C84.9741 80.5014 85.06 80.6842 85.1416 80.8614C85.2188 81.0292 85.1542 81.2088 84.9828 81.3208C84.8942 81.379 84.8756 81.4304 84.8823 81.5385C84.9899 83.3073 85.6639 84.8911 86.4916 86.4205C87.2185 87.7634 88.0773 89.0158 89.2012 90.0647C89.5207 90.3626 89.8958 90.6003 90.2369 90.8758C90.6951 91.2452 91.1686 91.6005 91.5929 92.0064C91.964 92.3613 92.2067 92.8057 92.1807 93.3528C92.1787 93.3964 92.2366 93.4608 92.2831 93.4856C92.4962 93.6 92.67 93.7587 92.707 93.9969C92.731 94.1517 92.6731 94.3191 92.6463 94.5243C92.9024 94.7789 92.954 95.1841 93.0265 95.57C93.2006 96.499 93.2865 97.4355 93.2061 98.3833C93.1687 98.8223 93.0091 99.1485 92.6101 99.3925C91.598 100.011 90.5036 100.418 89.3702 100.737C87.7755 101.185 86.1473 101.457 84.5037 101.649C81.6807 101.98 78.8482 102.068 76.0102 101.95C73.2986 101.836 70.6044 101.568 67.9661 100.895C66.8327 100.605 65.7379 100.219 64.7077 99.6472C64.159 99.3426 63.9049 98.9319 63.8915 98.3142C63.8682 97.2291 63.9332 96.1543 64.1798 95.096C64.2204 94.9216 64.3177 94.7608 64.3875 94.593C64.3985 94.5667 64.4099 94.5349 64.4056 94.5085C64.3335 94.0853 64.4383 93.8295 64.7968 93.6259C64.9063 93.5638 64.9469 93.495 64.9685 93.3736C65.0781 92.7598 65.4003 92.2485 65.8207 91.8083C66.1543 91.4594 66.5038 91.1092 66.9009 90.8396C68.6445 89.6536 69.9374 88.0766 70.9652 86.2653C71.5207 85.2868 71.9568 84.2568 72.1329 83.1376C72.1924 82.7583 72.1861 82.3693 72.2109 81.9846C72.2223 81.8097 72.2385 81.6352 72.2483 81.4603C72.2507 81.4206 72.2483 81.3719 72.2275 81.3416C72.0738 81.1212 72.0762 80.8873 72.2747 80.6909C72.4887 80.479 72.7144 80.2766 72.9531 80.0935C73.9002 79.3677 74.2701 78.3613 74.3627 77.2236C74.4096 76.6463 74.3717 76.0725 74.1771 75.5176C74.0286 75.094 73.8052 74.7387 73.3605 74.569C73.3002 74.5458 73.245 74.5069 73.1903 74.4711C72.7108 74.1579 72.612 73.8089 72.8535 73.3126ZM67.0462 66.5364C67.0183 66.4751 67.0096 66.4519 66.9978 66.4307C65.0863 63.1029 63.5913 59.5928 62.4082 55.9479C61.2819 52.4786 60.3684 48.9524 59.688 45.3703C59.3744 43.7198 59.1385 42.0524 58.9273 40.3853C58.7985 39.3679 58.7823 38.3359 58.7173 37.3106C58.7098 37.1923 58.7106 37.0921 58.5727 37.0226C57.5646 36.5144 56.536 36.0547 55.4601 35.7092C54.0057 35.2424 52.5268 34.9425 50.9876 35.1473C49.71 35.317 48.6137 35.8393 47.7852 36.8485C46.9969 37.8085 46.6427 38.9407 46.5171 40.1543C46.3792 41.4853 46.5273 42.7947 46.8582 44.0857C47.5681 46.8542 48.9269 49.2825 50.7997 51.425C53.2887 54.2726 56.0452 56.8368 59.0892 59.0909C61.2016 60.655 63.2115 62.3374 64.9989 64.2708C65.678 65.0073 66.343 65.7579 67.0462 66.5364ZM89.6539 66.8818C89.6629 66.8877 89.672 66.8936 89.681 66.8995C89.7303 66.8425 89.7784 66.784 89.8292 66.7286C90.8617 65.5948 91.8706 64.4383 92.9331 63.3328C94.4959 61.7066 96.2699 60.3198 98.075 58.9742C101.149 56.6831 103.942 54.089 106.42 51.1707C108.595 48.6085 110.059 45.693 110.473 42.3172C110.62 41.1179 110.574 39.9236 110.218 38.758C109.721 37.1306 108.732 35.9462 107.082 35.3901C105.854 34.9763 104.602 35.0195 103.347 35.2486C101.713 35.5473 100.191 36.1612 98.7084 36.8858C98.593 36.9424 98.5698 37.0194 98.5603 37.1322C98.4945 37.915 98.4354 38.6986 98.3503 39.4791C98.1191 41.6004 97.7941 43.7076 97.3808 45.8018C96.624 49.6393 95.5903 53.4001 94.2485 57.0749C93.0202 60.4377 91.5618 63.6947 89.7094 66.7671C89.6881 66.8036 89.6724 66.8437 89.6539 66.8818Z" fill="#899BC9"/>
    <path opacity="0.2" d="M78 123C111.689 123 139 95.6894 139 62C139 51.7053 136.45 42.0062 131.947 33.5C131.947 33.5 115.5 42.5 78 33.5C40.5 24.5 24.0533 33.5 24.0533 33.5C19.5502 42.0062 17 51.7053 17 62C17 95.6894 44.3106 123 78 123Z" fill="#525BBA"/>
    <path d="M74.593 44.6C74.593 44.2587 74.465 43.992 74.209 43.8C73.9636 43.5973 73.681 43.496 73.361 43.496L66.369 43.48V45.72H71.585L67.585 53.32C67.5423 53.4053 67.505 53.5013 67.473 53.608C67.441 53.704 67.425 53.8053 67.425 53.912C67.425 54.2533 67.5476 54.5413 67.793 54.776C68.0383 55 68.3316 55.112 68.673 55.112C68.9183 55.112 69.1476 55.0533 69.361 54.936C69.5743 54.808 69.7396 54.632 69.857 54.408L74.465 45.096C74.5503 44.9467 74.593 44.7813 74.593 44.6ZM82.8304 51.4C82.8304 51.112 82.793 50.824 82.7184 50.536C82.6437 50.248 82.5317 49.9813 82.3824 49.736C82.233 49.48 82.0464 49.2613 81.8224 49.08C81.5984 48.888 81.337 48.744 81.0384 48.648C81.401 48.392 81.689 48.0613 81.9024 47.656C82.1264 47.2507 82.2384 46.824 82.2384 46.376C82.2384 46.024 82.1797 45.6933 82.0624 45.384C81.945 45.064 81.785 44.776 81.5824 44.52C81.2517 44.0933 80.8304 43.784 80.3184 43.592C79.817 43.4 79.2944 43.304 78.7504 43.304C78.185 43.304 77.641 43.4 77.1184 43.592C76.5957 43.784 76.1637 44.0987 75.8224 44.536C75.6197 44.792 75.4597 45.08 75.3424 45.4C75.225 45.7093 75.1664 46.0347 75.1664 46.376C75.1664 46.8453 75.273 47.272 75.4864 47.656C75.7104 48.04 76.0037 48.3707 76.3664 48.648C76.0784 48.744 75.8224 48.888 75.5984 49.08C75.3744 49.2613 75.1877 49.48 75.0384 49.736C74.889 49.9813 74.777 50.248 74.7024 50.536C74.6277 50.824 74.5904 51.112 74.5904 51.4C74.5904 51.9867 74.697 52.5147 74.9104 52.984C75.1344 53.4427 75.433 53.832 75.8064 54.152C76.1904 54.472 76.6277 54.7173 77.1184 54.888C77.6197 55.0587 78.1477 55.144 78.7024 55.144C79.257 55.144 79.7797 55.0587 80.2704 54.888C80.7717 54.7173 81.209 54.472 81.5824 54.152C81.9664 53.832 82.2704 53.4427 82.4944 52.984C82.7184 52.5147 82.8304 51.9867 82.8304 51.4ZM77.5024 46.52C77.5024 46.1893 77.6144 45.9067 77.8384 45.672C78.073 45.4373 78.361 45.32 78.7024 45.32C79.033 45.32 79.3157 45.4373 79.5504 45.672C79.7957 45.896 79.9184 46.1787 79.9184 46.52C79.9184 46.8507 79.801 47.144 79.5664 47.4C79.3424 47.6453 79.0597 47.768 78.7184 47.768C78.377 47.768 78.089 47.6453 77.8544 47.4C77.6197 47.1547 77.5024 46.8613 77.5024 46.52ZM78.7024 49.544C78.9264 49.544 79.1344 49.5867 79.3264 49.672C79.5184 49.7573 79.6837 49.8747 79.8224 50.024C79.9717 50.1627 80.0837 50.3333 80.1584 50.536C80.2437 50.728 80.2864 50.936 80.2864 51.16C80.2864 51.384 80.249 51.6027 80.1744 51.816C80.0997 52.0187 79.993 52.2 79.8544 52.36C79.7157 52.52 79.545 52.648 79.3424 52.744C79.1504 52.84 78.937 52.888 78.7024 52.888C78.4677 52.888 78.2544 52.84 78.0624 52.744C77.8704 52.648 77.705 52.52 77.5664 52.36C77.4277 52.2 77.321 52.0187 77.2464 51.816C77.1717 51.6133 77.1344 51.4 77.1344 51.176C77.1344 50.728 77.2784 50.344 77.5664 50.024C77.8544 49.704 78.233 49.544 78.7024 49.544ZM85.8016 51.625C86.0986 51.625 86.3686 51.553 86.6116 51.409C86.8576 51.262 87.0541 51.067 87.2011 50.824C87.3481 50.578 87.4216 50.305 87.4216 50.005C87.4216 49.705 87.3481 49.4335 87.2011 49.1905C87.0541 48.9445 86.8576 48.7495 86.6116 48.6055C86.3686 48.4585 86.0986 48.385 85.8016 48.385C85.5136 48.385 85.2466 48.4585 85.0006 48.6055C84.7546 48.7525 84.5566 48.949 84.4066 49.195C84.2566 49.441 84.1816 49.711 84.1816 50.005C84.1816 50.305 84.2551 50.578 84.4021 50.824C84.5491 51.067 84.7441 51.262 84.9871 51.409C85.2331 51.553 85.5046 51.625 85.8016 51.625ZM84.9016 55L90.9451 48.9655L90.4951 48.52L84.4516 54.55L84.9016 55ZM85.8016 51.0265C85.6186 51.0265 85.4491 50.98 85.2931 50.887C85.1371 50.794 85.0126 50.6695 84.9196 50.5135C84.8266 50.3575 84.7801 50.188 84.7801 50.005C84.7801 49.819 84.8266 49.6495 84.9196 49.4965C85.0126 49.3405 85.1371 49.216 85.2931 49.123C85.4491 49.03 85.6186 48.9835 85.8016 48.9835C85.9876 48.9835 86.1571 49.03 86.3101 49.123C86.4661 49.216 86.5906 49.3405 86.6836 49.4965C86.7766 49.6495 86.8231 49.819 86.8231 50.005C86.8231 50.188 86.7766 50.3575 86.6836 50.5135C86.5906 50.6695 86.4661 50.794 86.3101 50.887C86.1571 50.98 85.9876 51.0265 85.8016 51.0265ZM89.5951 55.135C89.8921 55.135 90.1621 55.063 90.4051 54.919C90.6511 54.772 90.8476 54.577 90.9946 54.334C91.1416 54.088 91.2151 53.815 91.2151 53.515C91.2151 53.215 91.1416 52.9435 90.9946 52.7005C90.8476 52.4545 90.6511 52.2595 90.4051 52.1155C90.1621 51.9685 89.8921 51.895 89.5951 51.895C89.3071 51.895 89.0401 51.9685 88.7941 52.1155C88.5481 52.2625 88.3501 52.459 88.2001 52.705C88.0501 52.951 87.9751 53.221 87.9751 53.515C87.9751 53.815 88.0471 54.088 88.1911 54.334C88.3381 54.577 88.5346 54.772 88.7806 54.919C89.0266 55.063 89.2981 55.135 89.5951 55.135ZM89.5951 54.5365C89.4121 54.5365 89.2426 54.49 89.0866 54.397C88.9306 54.304 88.8061 54.1795 88.7131 54.0235C88.6201 53.8675 88.5736 53.698 88.5736 53.515C88.5736 53.329 88.6201 53.1595 88.7131 53.0065C88.8061 52.8505 88.9306 52.726 89.0866 52.633C89.2426 52.54 89.4121 52.4935 89.5951 52.4935C89.7811 52.4935 89.9506 52.54 90.1036 52.633C90.2596 52.726 90.3841 52.8505 90.4771 53.0065C90.5701 53.1595 90.6166 53.329 90.6166 53.515C90.6166 53.698 90.5701 53.8675 90.4771 54.0235C90.3841 54.1795 90.2596 54.304 90.1036 54.397C89.9506 54.49 89.7811 54.5365 89.5951 54.5365Z" fill="white"/>
    <g clip-path="url(#clip0_4642_30731)">
        <path d="M4.08105 89.8096C6.41419 89.7799 8.52995 89.8343 10.5594 90.6656C11.6522 91.1142 12.4979 91.8927 12.8523 93.1644C12.9267 93.4299 12.8404 93.8818 12.6706 94.0765C11.6775 95.2112 10.4655 95.4685 9.12999 94.9506C6.85194 94.0666 5.43597 92.1418 4.08105 89.8096Z" fill="#464EA3"/>
        <path d="M1.60498 81.5361C4.09446 81.9864 6.46482 82.2404 8.48529 83.8238C9.20444 84.3862 9.68089 85.1548 9.81341 86.1131C9.85509 86.4133 9.70471 86.8768 9.49478 87.0665C8.56271 87.9159 7.45346 88.1188 6.35166 87.6207C3.90983 86.5205 2.63383 84.2592 1.60498 81.5361Z" fill="#464EA3"/>
        <path d="M0.225098 73.0166C2.61333 73.7786 4.84522 74.4565 6.6081 76.2757C6.85675 76.533 7.08456 76.853 7.22452 77.1928C8.10596 79.3304 7.74415 79.8285 5.72517 80.132C5.18321 80.2128 4.51617 80 4.03227 79.685C1.7974 78.2368 0.889157 75.8238 0.225098 73.0166Z" fill="#464EA3"/>
        <path d="M7.66357 97.5577C10.1605 97.2048 12.507 96.7924 14.7657 97.7953C15.4879 98.1152 16.0447 98.9317 16.6343 99.5716C16.9753 99.9411 16.8383 100.345 16.5465 100.731C15.7559 101.78 14.7345 102.173 13.5582 101.952C11.0672 101.483 9.32521 99.7563 7.66357 97.5577Z" fill="#464EA3"/>
        <path d="M0 64.3975C1.99664 65.3838 3.79824 66.3437 5.22463 67.9799C5.96313 68.826 6.33983 69.8404 6.36663 71.0213C6.37854 71.5244 6.2088 71.8213 5.76213 72.001C4.41614 72.5387 3.26223 72.1924 2.29889 71.084C0.720638 69.2664 0.205471 66.9853 0 64.3975Z" fill="#464EA3"/>
        <path d="M12.1855 104.62C14.4294 104.012 16.487 103.423 18.6519 103.817C19.6763 104.004 20.4952 104.559 21.1548 105.448C21.4749 105.879 21.4779 106.229 21.201 106.69C20.318 108.157 19.0242 108.333 17.641 108.038C15.5565 107.593 13.865 106.323 12.1855 104.62Z" fill="#464EA3"/>
        <path d="M16.7695 83.8994C17.2192 86.1178 17.371 88.1284 16.8276 90.1291C16.4256 91.6085 15.6186 92.7103 14.2041 93.0847C13.9674 93.1474 13.5713 92.999 13.4105 92.7928C12.7554 91.9533 12.5633 90.9422 12.8075 89.8652C13.3837 87.335 15.0111 85.6692 16.7695 83.8994Z" fill="#464EA3"/>
        <path d="M14.7121 77.5811C14.9786 79.783 14.9086 81.7853 14.1538 83.6985C13.6163 85.0609 12.711 85.9615 11.362 86.2699C10.8945 86.3755 10.5818 86.2831 10.3421 85.7635C9.76591 84.5199 9.87907 83.3159 10.4553 82.1481C11.4186 80.187 12.9626 78.8775 14.7121 77.5811Z" fill="#464EA3"/>
        <path d="M0.906614 55.915C2.49678 57.0729 3.94104 58.1714 5.02646 59.7482C5.74859 60.7988 6.08806 61.9583 5.9749 63.2894C5.93024 63.8205 5.69647 64.0613 5.25873 64.1751C4.07206 64.4835 2.98068 64.0217 2.20495 62.8358C1.13591 61.2046 0.903637 59.3094 0.847058 57.3681C0.833657 56.9393 0.881303 56.5072 0.906614 55.915Z" fill="#464EA3"/>
        <path d="M13.2738 71.0029C13.3393 73.2164 13.1011 75.1808 12.1586 76.9687C11.4618 78.2882 10.4404 79.0518 9.01846 79.1046C8.57029 79.1211 8.35738 78.9248 8.19955 78.4779C7.78563 77.3019 7.94197 76.205 8.53307 75.1791C9.65423 73.2329 11.359 72.0981 13.2738 71.0029Z" fill="#464EA3"/>
        <path d="M19.4303 90.0039C20.1524 92.4433 20.62 94.7425 19.941 97.1341C19.6373 98.2046 18.9836 98.9666 18.0456 99.43C17.6838 99.6098 17.4262 99.5834 17.1359 99.2453C16.4584 98.4619 16.1189 97.5366 16.2217 96.4777C16.4703 93.8898 17.8416 91.9716 19.4303 90.0039Z" fill="#464EA3"/>
        <path d="M17.5483 110.854C19.749 109.99 21.7143 109.171 23.8837 109.397C24.8679 109.5 25.663 110.004 26.3702 110.733C26.6844 111.057 26.7439 111.382 26.5548 111.827C26.0784 112.953 25.2356 113.455 24.18 113.488C21.7486 113.565 19.6954 112.431 17.5483 110.854Z" fill="#464EA3"/>
        <path d="M12.4489 64.2441C12.3254 66.5351 11.9323 68.544 10.7024 70.2396C9.95946 71.2638 8.98719 71.7636 7.77819 71.696C7.24962 71.6663 6.99651 71.442 6.8893 70.8515C6.66746 69.626 6.94142 68.5622 7.63377 67.622C8.86808 65.9496 10.5491 65.0556 12.4489 64.2441Z" fill="#464EA3"/>
        <path d="M22.6478 95.752C23.6186 98.1105 24.3675 100.349 23.9953 102.848C23.8419 103.875 23.3342 104.652 22.5257 105.203C22.1758 105.442 21.9227 105.401 21.6041 105.117C20.6259 104.249 20.2432 103.11 20.343 101.775C20.5112 99.5521 21.4805 97.6949 22.6478 95.752Z" fill="#464EA3"/>
        <path d="M12.2684 57.3379C11.9825 59.3468 11.5448 61.105 10.5085 62.6076C9.72237 63.7473 8.71437 64.3856 7.35647 64.1828C6.7609 64.0937 6.50034 63.7754 6.47205 63.1222C6.42292 61.9578 6.75346 60.9516 7.47558 60.1204C8.75606 58.6425 10.3968 57.9152 12.2684 57.3379Z" fill="#464EA3"/>
        <path d="M2.93642 47.6865C4.32112 49.1132 5.48099 50.5234 6.19567 52.3146C6.63192 53.4065 6.73466 54.5462 6.39965 55.6843C6.32371 55.9416 6.00509 56.2335 5.75941 56.2847C4.67697 56.5139 3.80595 56.0158 3.23867 54.8761C2.34234 53.0733 2.41232 51.1304 2.64459 49.1792C2.69968 48.7256 2.81879 48.2803 2.93642 47.6865Z" fill="#464EA3"/>
        <path d="M23.6768 116.13C25.5588 115.085 27.3038 114.204 29.29 114.146C30.3501 114.116 31.2747 114.514 32.1249 115.2C32.4867 115.492 32.5492 115.81 32.4197 116.261C32.1547 117.188 31.5323 117.62 30.7342 117.796C28.9654 118.189 27.2889 117.699 25.6406 117.064C25.0168 116.825 24.4242 116.49 23.6768 116.13Z" fill="#464EA3"/>
        <path d="M26.4432 101.172C27.5405 103.27 28.5485 105.259 28.6498 107.636C28.6959 108.713 28.4234 109.663 27.5926 110.286C27.3886 110.44 26.9643 110.466 26.7514 110.332C25.4486 109.521 24.9632 108.185 25.0317 106.6C25.1121 104.721 25.5766 102.952 26.4432 101.172Z" fill="#464EA3"/>
        <path d="M12.708 50.3516C12.2762 52.3506 11.7327 54.1072 10.5714 55.5322C9.7733 56.5119 8.80997 57.0216 7.57864 56.5977C7.10367 56.4344 6.89522 56.1507 6.93244 55.5834C7.00838 54.47 7.34785 53.4936 8.07296 52.7135C9.32812 51.3643 10.9049 50.782 12.708 50.3516Z" fill="#464EA3"/>
        <path d="M30.7536 106.163C32.1071 108.131 33.3637 109.985 33.8163 112.332C33.9846 113.201 33.8953 114.057 33.2193 114.657C33.0391 114.817 32.6639 114.896 32.4555 114.802C31.3328 114.296 30.5824 113.368 30.2906 112.06C29.8528 110.103 30.1372 108.203 30.7536 106.163Z" fill="#464EA3"/>
        <path d="M6.16999 40.1331C7.32539 42.2476 8.50164 44.3538 8.08028 47.0209C8.07134 47.0753 8.0773 47.1347 8.05794 47.1825C7.84801 47.6987 7.95521 48.4459 7.26286 48.6158C6.58391 48.784 5.83201 48.3898 5.42851 47.6526C4.7972 46.4997 4.80614 45.2131 4.99821 43.9679C5.2007 42.6566 5.58038 41.3784 5.88263 40.0869C5.97792 40.1051 6.07321 40.1183 6.16999 40.1331Z" fill="#464EA3"/>
        <path d="M30.4053 120.247C32.4823 118.935 34.3807 117.657 36.7436 118.152C37.2454 118.257 37.7382 118.49 38.1998 118.741C38.9085 119.127 39.0291 119.958 38.3963 120.494C37.966 120.86 37.3972 121.142 36.8612 121.22C34.7083 121.536 32.6267 121.109 30.4053 120.247Z" fill="#464EA3"/>
        <path d="M13.798 43.3467C13.1578 45.4645 12.5101 47.4041 10.9824 48.7797C10.2975 49.3965 9.50395 49.6093 8.70738 49.0799C8.47808 48.9281 8.21603 48.43 8.28452 48.2107C8.55253 47.348 8.81458 46.4161 9.31932 45.7267C10.4152 44.2258 12.0068 43.698 13.798 43.3467Z" fill="#464EA3"/>
        <path d="M35.6732 110.837C37.1428 112.552 38.7121 114.182 39.5355 116.455C39.6412 116.747 39.668 117.103 39.6412 117.421C39.5652 118.343 39.0962 118.647 38.322 118.328C36.5665 117.606 35.7283 116.093 35.5228 114.139C35.4126 113.087 35.5035 112.01 35.5035 110.942C35.5585 110.908 35.6166 110.872 35.6732 110.837Z" fill="#464EA3"/>
        <path d="M10.1872 33.0332C10.8319 35.6425 11.2205 38.039 10.1782 40.4174C10.0323 40.7522 9.6869 41.153 9.39507 41.1959C8.85608 41.2767 8.32007 40.937 8.22627 40.302C8.11013 39.5086 8.0342 38.6625 8.16076 37.8823C8.4377 36.1653 9.17918 34.6446 10.1872 33.0332Z" fill="#464EA3"/>
        <path d="M37.7915 123.146C39.471 121.142 42.8881 120.379 45.0634 121.55C45.245 121.647 45.4669 121.957 45.4475 122.142C45.4192 122.427 45.2569 122.833 45.05 122.934C44.4902 123.206 43.8812 123.493 43.2856 123.507C41.4617 123.557 39.6348 123.483 37.8094 123.455C37.8034 123.352 37.7975 123.249 37.7915 123.146Z" fill="#464EA3"/>
        <path d="M15.5251 36.374C14.8908 38.1438 14.255 39.8146 13.0817 41.1143C12.6723 41.5679 12.0767 41.9555 11.5169 42.0726C10.6369 42.2557 10.2051 41.5514 10.488 40.6244C11.1342 38.4968 13.0728 36.8259 15.5251 36.374Z" fill="#464EA3"/>
        <path d="M40.9839 114.895C42.5949 116.329 44.2774 117.677 45.5802 119.5C45.7291 119.707 45.8438 119.973 45.8959 120.232C46.0284 120.9 45.6725 121.278 45.0725 121.149C42.9299 120.69 41.5021 119.048 41.0256 116.471C40.9363 115.99 40.8946 115.498 40.8306 115.012C40.8812 114.974 40.9318 114.934 40.9839 114.895Z" fill="#464EA3"/>
        <path d="M15.2333 27.084C14.8299 29.5432 14.41 31.7616 13.204 33.6666C13.0342 33.9354 12.5682 34.229 12.3553 34.1466C12.1081 34.0493 11.8699 33.5627 11.8431 33.2229C11.8073 32.7825 11.9324 32.3009 12.0783 31.8754C12.7141 30.0297 13.8621 28.5981 15.2333 27.084Z" fill="#464EA3"/>
        <path d="M18.0202 29.6903C17.1492 31.1714 16.3095 32.6757 15.3863 34.1172C15.1198 34.5345 14.6523 34.8578 14.216 35.0606C13.686 35.3064 13.1187 34.7555 13.3167 34.2211C14.1803 31.9005 15.8851 30.5678 17.782 29.4775C17.8624 29.5485 17.9413 29.6194 18.0202 29.6903Z" fill="#464EA3"/>
        <path d="M45.1709 124.644C47.2316 122.844 49.5453 122.544 52.0244 123.266C52.1658 123.308 52.276 123.477 52.4011 123.588C52.282 123.741 52.1867 123.99 52.0423 124.03C51.1817 124.264 50.3166 124.533 49.4396 124.632C48.0281 124.794 46.6047 124.833 45.1873 124.926C45.1813 124.832 45.1754 124.738 45.1709 124.644Z" fill="#464EA3"/>
        <path d="M46.8267 118.416C48.6104 119.637 50.3971 120.849 52.1674 122.092C52.3386 122.213 52.4012 122.523 52.5143 122.744C52.3133 122.808 52.1123 122.934 51.9128 122.927C49.4353 122.851 47.4252 121.162 46.8267 118.416Z" fill="#464EA3"/>
        <path d="M52.6514 124.869C53.9586 123.98 55.4252 123.804 56.929 123.71C55.4386 123.4 54.051 122.908 52.9908 121.498C54.9964 122.308 56.9275 123.086 58.9986 123.924C56.8323 124.295 54.7641 124.652 52.696 125.001C52.6886 125.001 52.6692 124.924 52.6514 124.869Z" fill="#464EA3"/>
        <path d="M18.0295 26.1847C18.8365 25.3616 19.6435 24.537 20.2346 23.9316C19.5736 25.9356 17.9938 28.248 16.8667 28.408C17.1421 27.7615 17.37 27.2254 17.5978 26.6894C17.7422 26.5211 17.8851 26.3529 18.0295 26.1847Z" fill="#464EA3"/>
        <path d="M18.0295 26.1849C17.885 26.3532 17.7421 26.5214 17.5992 26.6896C17.3431 27.0212 17.1049 27.3741 16.822 27.6743C16.7267 27.7749 16.5063 27.7881 16.3663 27.7469C16.3068 27.7287 16.2443 27.4368 16.2904 27.3197C16.4467 26.9222 16.5867 26.4785 16.8488 26.175C17.7778 25.0897 18.7546 24.0539 19.7134 23C19.7566 23.0478 19.7998 23.094 19.843 23.1418C19.237 24.1562 18.634 25.1706 18.0295 26.1849Z" fill="#464EA3"/>
    </g>
    <g clip-path="url(#clip1_4642_30731)">
        <path d="M153.385 82.0986C152.44 84.6776 151.227 86.8124 149.048 88.0386C147.848 88.7125 146.659 88.591 145.53 87.7325C145.136 87.433 145.055 87.0852 145.169 86.5994C145.428 85.4929 146.017 84.6593 146.878 84.0886C148.845 82.7891 151.052 82.4747 153.385 82.0986Z" fill="#464EA3"/>
        <path d="M150.957 90.4335C149.29 93.0291 147.738 95.3818 144.841 95.8061C143.789 95.9608 142.892 95.5016 142.21 94.6064C142.079 94.4334 142.067 94.0424 142.137 93.7995C142.507 92.5199 143.351 91.7346 144.445 91.287C146.476 90.4551 148.591 90.3852 150.957 90.4335Z" fill="#464EA3"/>
        <path d="M154.744 73.5996C154.209 76.0538 153.361 78.1935 151.628 79.7626C150.404 80.8707 148.961 81.0155 147.768 80.1519C147.556 79.9988 147.369 79.5962 147.372 79.3117C147.384 78.0654 147.965 77.1237 148.8 76.3483C149.997 75.2418 152.959 73.8492 154.744 73.5996Z" fill="#464EA3"/>
        <path d="M147.258 98.357C145.579 100.523 143.794 102.367 141.136 102.708C139.926 102.863 139.016 102.264 138.354 101.189C138.229 100.986 138.231 100.557 138.338 100.327C138.914 99.0941 139.878 98.382 141.078 98.144C143.045 97.753 145.019 97.8429 146.984 98.2089C147.048 98.2206 147.105 98.2722 147.258 98.357Z" fill="#464EA3"/>
        <path d="M155 64.791C154.799 67.405 154.279 69.7061 152.7 71.538C151.737 72.6545 150.583 73.0039 149.236 72.4581C148.789 72.2768 148.622 71.9723 148.632 71.4681C148.656 70.2768 149.036 69.2518 149.777 68.4016C151.207 66.761 153.004 65.781 155 64.791Z" fill="#464EA3"/>
        <path d="M142.807 105.378C140.782 107.365 138.767 108.936 136.072 108.907C134.965 108.896 134.213 108.215 133.681 107.215C133.576 107.019 133.611 106.608 133.73 106.406C134.369 105.337 135.318 104.753 136.431 104.555C138.563 104.175 140.604 104.746 142.807 105.378Z" fill="#464EA3"/>
        <path d="M138.261 84.5127C139.989 86.2365 141.573 87.9269 142.173 90.431C142.418 91.4477 142.23 92.3861 141.723 93.2796C141.409 93.8336 141.053 93.9019 140.539 93.6905C139.088 93.0932 138.374 91.8304 138.027 90.2497C137.683 88.6723 137.779 86.3363 138.261 84.5127Z" fill="#464EA3"/>
        <path d="M140.271 78.0889C142.087 79.4416 143.695 80.8043 144.636 82.9058C145.15 84.0538 145.199 85.2285 144.624 86.4032C144.408 86.8458 144.14 86.9606 143.721 86.8741C142.433 86.6062 141.516 85.8009 140.949 84.4981C140.078 82.5098 140.02 80.4066 140.271 78.0889Z" fill="#464EA3"/>
        <path d="M154.107 56.2031C154.235 58.9069 154.089 61.3561 152.623 63.4576C151.945 64.4293 151.016 64.7887 149.912 64.6007C149.345 64.5042 149.045 64.2329 149.01 63.5391C148.949 62.3228 149.225 61.2413 149.867 60.268C150.959 58.6124 152.407 57.4244 154.107 56.2031Z" fill="#464EA3"/>
        <path d="M141.711 71.4551C143.751 72.6331 145.591 73.8477 146.665 76.0773C147.123 77.0257 147.193 78.0523 146.752 79.0306C146.631 79.2985 146.268 79.5781 146.005 79.593C144.865 79.6529 143.916 79.1105 143.234 78.1122C141.92 76.1888 141.667 73.9442 141.711 71.4551Z" fill="#464EA3"/>
        <path d="M135.559 90.625C136.976 92.3571 138.132 94.0642 138.637 96.2123C138.959 97.58 138.786 98.8345 137.885 99.9177C137.575 100.289 137.3 100.319 136.912 100.119C135.759 99.525 135.12 98.4968 134.875 97.144C134.482 94.956 134.895 92.8679 135.559 90.625Z" fill="#464EA3"/>
        <path d="M137.426 111.648C135.237 113.295 133.122 114.469 130.601 114.291C129.629 114.223 128.872 113.686 128.433 112.659C128.245 112.222 128.242 111.821 128.612 111.564C129.294 111.09 129.972 110.45 130.723 110.285C133.025 109.774 135.129 110.746 137.426 111.648Z" fill="#464EA3"/>
        <path d="M142.543 64.6426C144.411 65.4246 146.043 66.3248 147.279 67.9171C148.03 68.8854 148.346 70.0052 148.109 71.3097C148.001 71.9087 147.74 72.135 147.217 72.1599C145.784 72.2298 144.736 71.5044 143.975 70.2215C143.003 68.586 142.644 66.7424 142.543 64.6426Z" fill="#464EA3"/>
        <path d="M132.337 96.4492C133.47 98.2712 134.344 100.055 134.624 102.123C134.799 103.419 134.521 104.591 133.698 105.566C133.123 106.248 132.849 106.276 132.174 105.732C131.222 104.963 130.906 103.847 130.888 102.619C130.857 100.477 131.446 98.5024 132.337 96.4492Z" fill="#464EA3"/>
        <path d="M142.711 57.6631C144.582 58.2538 146.205 58.9725 147.48 60.4268C148.271 61.3286 148.619 62.4151 148.51 63.6846C148.465 64.2037 148.233 64.4633 147.778 64.5515C146.503 64.7994 145.484 64.3036 144.669 63.2337C143.484 61.678 143.048 59.7928 142.711 57.6631Z" fill="#464EA3"/>
        <path d="M152.056 47.9277C152.543 50.0475 152.693 52.0142 152.218 53.9892C151.771 55.8461 150.739 56.7728 149.362 56.658C148.901 56.6198 148.568 56.4517 148.563 55.9093C148.556 54.9825 148.437 54.0008 148.66 53.139C149.208 51.0292 150.575 49.5151 152.056 47.9277Z" fill="#464EA3"/>
        <path d="M131.301 116.967C129.02 118.179 126.839 119.094 124.397 118.676C123.994 118.608 123.573 118.423 123.239 118.165C122.233 117.388 122.233 116.325 123.308 115.748C124.065 115.34 124.944 115.036 125.773 115.019C127.73 114.977 129.452 115.944 131.301 116.967Z" fill="#464EA3"/>
        <path d="M128.551 101.872C129.527 104.1 130.255 106.248 129.871 108.654C129.696 109.739 129.126 110.592 128.256 111.112C128.025 111.25 127.576 111.213 127.356 111.045C126.548 110.433 126.29 109.491 126.334 108.438C126.431 106.033 127.411 104.003 128.551 101.872Z" fill="#464EA3"/>
        <path d="M142.273 50.6152C144.131 51.0728 145.755 51.6685 147.02 53.1144C147.708 53.903 148.012 54.8797 148.067 55.9695C148.093 56.4571 147.914 56.7299 147.501 56.8947C146.431 57.3206 145.324 56.9729 144.429 55.8597C143.265 54.4155 142.735 52.6402 142.273 50.6152Z" fill="#464EA3"/>
        <path d="M124.237 106.959C124.866 109.112 125.191 111.149 124.584 113.24C124.254 114.383 123.537 115.183 122.548 115.626C122.324 115.726 121.919 115.633 121.728 115.453C120.985 114.754 120.982 113.779 121.207 112.847C121.743 110.646 122.892 108.819 124.237 106.959Z" fill="#464EA3"/>
        <path d="M148.989 40.313C149.767 42.2181 150.239 44.1964 150.037 46.3179C149.892 47.8303 149.228 48.7305 148.212 48.8852C147.683 48.9668 147.334 48.817 147.137 48.1864C146.774 47.025 146.647 45.8287 147.005 44.6906C147.481 43.1715 148.122 41.7156 148.693 40.2314C148.79 40.2597 148.889 40.2864 148.989 40.313Z" fill="#464EA3"/>
        <path d="M124.556 121.155C122.19 122.023 119.931 122.557 117.576 121.985C117.187 121.89 116.788 121.62 116.497 121.309C115.982 120.757 116.114 120.005 116.734 119.629C117.84 118.958 118.996 118.719 120.252 119.02C121.779 119.388 123.133 120.145 124.556 121.155Z" fill="#464EA3"/>
        <path d="M141.229 43.6816C143.708 43.6067 146.293 45.7714 146.719 48.1773C146.844 48.8828 146.644 49.2638 146.045 49.4885C145.189 49.8096 144.477 49.5101 143.852 48.8928C142.447 47.5001 141.811 45.625 141.229 43.6816Z" fill="#464EA3"/>
        <path d="M119.441 111.479C119.635 113.411 119.656 115.058 119.061 116.646C118.583 117.92 117.747 118.766 116.588 119.226C115.928 119.489 115.517 119.291 115.383 118.528C115.31 118.117 115.332 117.621 115.471 117.235C116.291 114.977 117.851 113.355 119.441 111.479Z" fill="#464EA3"/>
        <path d="M144.816 33.1729C146.038 35.1811 146.942 37.1229 146.972 39.4223C146.983 40.2027 146.837 40.9964 146.04 41.3275C145.539 41.5354 145.166 41.4689 144.885 40.8466C143.982 38.845 144.073 36.7751 144.451 34.6753C144.533 34.2261 144.666 33.7901 144.816 33.1729Z" fill="#464EA3"/>
        <path d="M117.424 124.101C115.018 124.591 112.842 124.765 110.657 124.201C110.418 124.14 110.143 124.063 109.979 123.885C109.769 123.659 109.542 123.324 109.535 123.032C109.53 122.817 109.834 122.499 110.064 122.391C112.074 121.444 113.997 121.804 115.842 122.97C116.326 123.276 116.78 123.639 117.424 124.101Z" fill="#464EA3"/>
        <path d="M139.479 36.5801C141.649 36.7282 143.899 38.6799 144.527 40.9028C144.758 41.7214 144.389 42.3803 143.608 42.2755C143.064 42.2023 142.455 41.8895 142.056 41.4702C140.789 40.1391 140.135 38.3754 139.479 36.5801Z" fill="#464EA3"/>
        <path d="M114.064 115.809C114.22 118.834 112.495 121.442 109.953 122.026C109.272 122.183 108.909 121.764 109.092 121.017C109.137 120.833 109.222 120.657 109.314 120.496C109.906 119.449 113.008 116.394 114.064 115.809Z" fill="#464EA3"/>
        <path d="M139.774 27.1875C141.173 28.7532 142.362 30.2274 142.972 32.1541C143.109 32.5867 143.189 33.0826 143.145 33.5318C143.116 33.818 142.848 34.219 142.617 34.2905C142.404 34.3571 141.999 34.1358 141.85 33.9029C140.907 32.442 140.426 30.7582 140.098 29.0144C139.996 28.4787 139.907 27.9379 139.774 27.1875Z" fill="#464EA3"/>
        <path d="M137.079 29.6641C138.883 30.6374 140.557 31.7872 141.497 33.8603C141.671 34.2464 141.954 34.7505 141.468 35.0117C141.16 35.1765 140.536 35.1914 140.357 34.9685C139.509 33.9136 138.733 32.7788 137.998 31.6208C137.62 31.0251 137.38 30.3196 137.079 29.6641Z" fill="#464EA3"/>
        <path d="M109.788 125.68C107.523 125.829 105.29 125.742 103.108 125.03C102.901 124.962 102.74 124.719 102.557 124.557C102.74 124.413 102.907 124.19 103.111 124.135C105.546 123.459 107.808 123.802 109.788 125.68Z" fill="#464EA3"/>
        <path d="M108.255 119.261C107.599 122.742 103.93 124.36 102.224 123.51C104.113 121.783 106.218 120.688 108.255 119.261Z" fill="#464EA3"/>
        <path d="M102.286 126.001C100.217 125.613 98.1455 125.225 96 124.824C98.0189 124.006 99.9543 123.22 101.9 122.432C101.082 123.583 100.374 123.982 98.0412 124.648C99.5416 124.733 101.026 124.892 102.286 126.001Z" fill="#464EA3"/>
        <path d="M137.511 26.9533C137.697 27.4275 137.882 27.9034 138.068 28.3776C137.994 28.4491 137.919 28.5207 137.845 28.5922C137.566 28.3759 137.256 28.1946 137.015 27.935C136.733 27.6305 136.48 27.2778 136.273 26.9067C135.686 25.8552 135.127 24.7836 134.558 23.7204C134.606 23.6755 134.652 23.6289 134.7 23.584C135.498 24.5008 136.298 25.4159 137.097 26.331C137.236 26.539 137.374 26.747 137.511 26.9533Z" fill="#464EA3"/>
        <path d="M137.511 26.9533C137.374 26.7454 137.235 26.539 137.098 26.3311C136.438 25.2828 135.777 24.2363 134.998 23C136.452 24.1764 137.684 25.2911 138.523 26.8585C138.611 27.0216 138.682 27.2112 138.706 27.3959C138.724 27.539 138.679 27.8102 138.62 27.8269C138.478 27.8635 138.271 27.8385 138.167 27.7387C137.925 27.5091 137.727 27.2196 137.511 26.9533Z" fill="#464EA3"/>
    </g>
    <defs>
        <clipPath id="clip0_4642_30731">
            <rect width="59" height="102" fill="white" transform="translate(0 23)"/>
        </clipPath>
        <clipPath id="clip1_4642_30731">
            <rect width="59" height="103" fill="white" transform="translate(96 23)"/>
        </clipPath>
    </defs>
</svg>
