<svg width="15" height="17" fill="none" xmlns="http://www.w3.org/2000/svg"><path d="M7.21 16.498c-1.817 0-3.634.002-5.451 0-1.145-.002-1.757-.62-1.758-1.77V3.87c0-1.147.618-1.766 1.76-1.768.939-.002 1.878-.007 2.816.003.229.003.372-.04.489-.269C5.51.969 6.226.496 7.213.5 8.2.504 8.889 1 9.367 1.847c.072.127.285.24.436.243.968.021 1.936.008 2.905.013 1.053.004 1.688.642 1.69 1.702.002 3.664.002 7.329 0 10.992-.002 1.065-.631 1.698-1.692 1.7-1.832.005-3.664.001-5.496.001ZM1.623 3.707v11.158h11.145V3.687H7.55c.486-.538.556-.972.242-1.324-.266-.3-.767-.387-1.04-.105a1.115 1.115 0 0 0-.3.73c.006.238.212.47.337.719H1.623Z" fill="#fff"/><path d="M3.198 13.301c0-.511-.008-.956.005-1.4a.51.51 0 0 1 .123-.316c1.58-1.594 3.169-3.182 4.76-4.774l1.551 1.627c-.055.06-.158.179-.269.29-1.388 1.392-2.785 2.775-4.16 4.178-.283.288-.563.445-.972.402-.322-.034-.65-.007-1.038-.007Zm5.527-7.198c.218-.196.46-.467.756-.653.144-.09.453-.1.576-.005.361.283.669.633.992.962.219.224.188.447-.02.667-.224.237-.443.482-.644.701l-1.66-1.672Z" fill="#fff"/></svg>