<svg width="60" height="52" viewBox="0 0 60 52" fill="none" xmlns="http://www.w3.org/2000/svg">
<path d="M8.91342 7.6104C9.80282 6.95538 9.99282 5.70339 9.3378 4.81399C8.68279 3.9246 7.43079 3.73459 6.54139 4.38961L8.91342 7.6104ZM0.0927184 15.501C-0.0712763 16.5934 0.681286 17.6118 1.77361 17.7758C2.86594 17.9398 3.88439 17.1872 4.04839 16.0949L0.0927184 15.501ZM6.54139 4.38961C3.81843 6.395 0.793209 10.8352 0.0927184 15.501L4.04839 16.0949C4.58712 12.5065 7.02492 9.00123 8.91342 7.6104L6.54139 4.38961Z" fill="white"/>
<path d="M50.8846 7.6104C49.9952 6.95538 49.8052 5.70339 50.4602 4.81399C51.1152 3.9246 52.3672 3.73459 53.2566 4.38961L50.8846 7.6104ZM59.7053 15.501C59.8692 16.5934 59.1167 17.6118 58.0244 17.7758C56.932 17.9398 55.9136 17.1872 55.7496 16.0949L59.7053 15.501ZM53.2566 4.38961C55.9795 6.395 59.0048 10.8352 59.7053 15.501L55.7496 16.0949C55.2109 12.5065 52.7731 9.00123 50.8846 7.6104L53.2566 4.38961Z" fill="white"/>
<circle cx="30" cy="24" r="22" stroke="white" stroke-width="4"/>
<path d="M17.9058 15.9554L25.093 18.7894L14.7372 25.5456L19.6422 28.3438" stroke="white" stroke-width="4" stroke-linecap="round" stroke-linejoin="round"/>
<path d="M26.4151 27.1503L31.4151 24.1502L30.4151 33.6502L34.4151 32.6502" stroke="white" stroke-width="4" stroke-linecap="round" stroke-linejoin="round"/>
<path d="M38.2556 26.6221L40.6351 24.9622L42.1381 30.7668L44.5615 28.3637" stroke="white" stroke-width="4" stroke-linecap="round" stroke-linejoin="round"/>
<path d="M41 45L45 50" stroke="white" stroke-width="4" stroke-linecap="round" stroke-linejoin="round"/>
<path d="M19 45L15 50" stroke="white" stroke-width="4" stroke-linecap="round" stroke-linejoin="round"/>
</svg>
