<svg width="58" height="59" viewBox="0 0 58 59" fill="none" xmlns="http://www.w3.org/2000/svg">
<path d="M17.6423 3.89405C18.6884 3.5393 19.2488 2.40372 18.894 1.35767C18.5393 0.311618 17.4037 -0.248795 16.3577 0.105953L17.6423 3.89405ZM0.213024 14.1018C-0.283024 15.0887 0.114906 16.2909 1.10183 16.787C2.08875 17.283 3.29093 16.8851 3.78698 15.8982L0.213024 14.1018ZM16.3577 0.105953C13.5833 1.04684 10.4048 2.87974 7.52243 5.26299C4.63694 7.64881 1.93182 10.6822 0.213024 14.1018L3.78698 15.8982C5.19318 13.1004 7.48806 10.4816 10.0713 8.34571C12.6577 6.20721 15.4167 4.64881 17.6423 3.89405L16.3577 0.105953Z" fill="white"/>
<path d="M40.3577 3.89405C39.3116 3.5393 38.7512 2.40372 39.106 1.35767C39.4607 0.311618 40.5963 -0.248795 41.6423 0.105953L40.3577 3.89405ZM57.787 14.1018C58.283 15.0887 57.8851 16.2909 56.8982 16.787C55.9113 17.283 54.7091 16.8851 54.213 15.8982L57.787 14.1018ZM41.6423 0.105953C44.4167 1.04684 47.5952 2.87974 50.4776 5.26299C53.3631 7.64881 56.0682 10.6822 57.787 14.1018L54.213 15.8982C52.8068 13.1004 50.5119 10.4816 47.9287 8.34571C45.3423 6.20721 42.5833 4.64881 40.3577 3.89405L41.6423 0.105953Z" fill="white"/>
<circle cx="29" cy="31" r="22" stroke="white" stroke-width="4"/>
<path d="M29 21V32" stroke="white" stroke-width="4" stroke-linecap="round" stroke-linejoin="round"/>
<path d="M40 52L44 57" stroke="white" stroke-width="4" stroke-linecap="round" stroke-linejoin="round"/>
<path d="M18 52L14 57" stroke="white" stroke-width="4" stroke-linecap="round" stroke-linejoin="round"/>
<circle cx="29" cy="38" r="2" fill="white"/>
</svg>
