<svg width="52" height="55" viewBox="0 0 52 55" fill="none" xmlns="http://www.w3.org/2000/svg">
<path d="M10.7288 3.86249C11.7574 3.45998 12.265 2.29982 11.8625 1.2712C11.46 0.242579 10.2998 -0.26499 9.2712 0.137514L10.7288 3.86249ZM0.166412 9.20128C-0.274709 10.2139 0.188616 11.3925 1.20128 11.8336C2.21394 12.2747 3.39247 11.8114 3.83359 10.7987L0.166412 9.20128ZM9.2712 0.137514C6.12199 1.36982 2.05063 4.87577 0.166412 9.20128L3.83359 10.7987C5.2827 7.47206 8.54468 4.71714 10.7288 3.86249L9.2712 0.137514Z" fill="white"/>
<path d="M41.2712 3.86249C40.2426 3.45998 39.735 2.29982 40.1375 1.2712C40.54 0.242579 41.7002 -0.26499 42.7288 0.137514L41.2712 3.86249ZM51.8336 9.20128C52.2747 10.2139 51.8114 11.3925 50.7987 11.8336C49.7861 12.2747 48.6075 11.8114 48.1664 10.7987L51.8336 9.20128ZM42.7288 0.137514C45.878 1.36982 49.9494 4.87577 51.8336 9.20128L48.1664 10.7987C46.7173 7.47206 43.4553 4.71714 41.2712 3.86249L42.7288 0.137514Z" fill="white"/>
<circle cx="26" cy="27" r="22" stroke="white" stroke-width="4"/>
<path d="M26 17V28H35.5" stroke="white" stroke-width="4" stroke-linecap="round" stroke-linejoin="round"/>
<path d="M37 48L41 53" stroke="white" stroke-width="4" stroke-linecap="round" stroke-linejoin="round"/>
<path d="M15 48L11 53" stroke="white" stroke-width="4" stroke-linecap="round" stroke-linejoin="round"/>
</svg>
