<svg width="21" height="30" viewBox="0 0 21 30" fill="none" xmlns="http://www.w3.org/2000/svg"><path d="M19.36 7.665s-6.684 1.553-8.923 1.553c-2.207 0-8.797-1.553-8.797-1.553-.915 0-1.64.727-1.64 1.652v2.214c0 .925.725 1.652 1.64 1.652h17.72c.915 0 1.64-.727 1.64-1.652V9.317c0-.925-.725-1.652-1.64-1.652ZM5.045 11.696c0 .1-.095.165-.19.165H2.713c-.536 0-1.104-.231-1.104-.495V9.714c0-.265.536-.232 1.104.033l2.144 1.057c.126.066.189.165.189.264v.628Zm14.6-.33c0 .264-.537.495-1.104.495h-2.145c-.126 0-.189-.066-.189-.165v-.595c0-.099.095-.231.19-.264L18.54 9.78c.536-.265 1.103-.33 1.103-.033v1.619ZM2.112 7.004h.031c.063 0 6.275 1.553 8.325 1.553 2.08 0 8.355-1.52 8.418-1.553h.064c.094 0 .189 0 .283.033-1.04-3.204-2.9-5.748-5.203-7.037a.824.824 0 0 1-.662.33H7.631A.779.779 0 0 1 7 .033c-2.302 1.289-4.162 3.8-5.171 7.004.063 0 .157-.033.252-.033h.032Zm10.783-3.7c0-.264.221-.463.442-.463h1.513c.063 0 .095.1.095.199v.793c0 .099-.032.23-.095.264l-1.513 1.19c-.22.165-.442.131-.442-.133v-1.85ZM6.18 3.04c0-.1.032-.199.095-.199h1.513c.221 0 .442.199.442.463v1.85c0 .264-.221.298-.442.132L6.275 4.13c-.063-.033-.095-.165-.095-.264V3.04Zm6.716-1.85c0-.1.221-.133.442-.067l1.513.496c.063.033.095.066.095.132v.364c0 .033-.032.099-.095.099h-1.513c-.22 0-.442-.1-.442-.199V1.19ZM6.18 1.75c0-.033.032-.099.095-.132l1.513-.496c.221-.066.442-.066.442.066v.793c0 .1-.221.199-.442.199H6.275c-.063 0-.095-.033-.095-.1v-.33ZM20.15 13.546h-1.735c-.189 0-.315.463-.315.958v3.635h-.158c-.189 0-.315.462-.283.958l.22 4.923c0 .066.032.132.063.165-1.198 2.94-3.972 4.989-7.189 4.989-3.216 0-5.99-2.048-7.189-4.956.063-.033.095-.1.095-.198l.22-4.923c.032-.496-.094-.958-.283-.958h-.127v-3.635c0-.495-.157-.958-.315-.958H1.387c-.189 0-.22.463-.126.958l.82 3.635H1.83c-.19 0-.252.462-.158.958l.883 4.923c.032.099.063.165.126.198C3.91 27.588 7.032 30 10.72 30c3.658 0 6.78-2.412 8.041-5.782.063 0 .158-.1.158-.198l.883-4.923c.094-.496.031-.958-.158-.958h-.22l.82-3.635c.125-.495.094-.958-.095-.958Zm-18.194 4.89h.22l.221.991c.032.1.095.199.19.199h.756c.063 0 .126-.1.126-.199v-.99H3.5c.032.098.095.33.095.627l-.221 4.724h-.536l-.883-4.757c-.032-.264-.032-.463 0-.595Zm17.626 0c.032.1.032.33-.031.595l-.852 4.758h-.536l-.189-4.692c0-.297.032-.529.095-.628h.063v.991c0 .1.063.199.126.199h.756c.064 0 .158-.1.19-.199l.22-.99h.158v-.034Zm-15.23-.562c-.252 0-.441-.132-.441-.297v-3.535c0-.165.19-.297.441-.297h12.77c.253 0 .442.132.442.297v3.568c0 .165-.19.297-.441.297h-.158c-1.198-.693-3.532-1.189-6.212-1.189-2.68 0-5.045.496-6.211 1.19h-.19v-.034Z" fill="#fff"/></svg>