<svg width="22" height="30" viewBox="0 0 22 30" fill="none" xmlns="http://www.w3.org/2000/svg"><path d="M10.588 0C4.728 0 0 4.681 0 10.483 0 16.287 3.463 30 10.588 30c6.693 0 10.589-13.747 10.589-19.517C21.177 4.714 16.415 0 10.588 0ZM6.926 3.56c.066.297-.2.627-.633.726-.433.099-.832-.066-.932-.363-.1-.297.2-.626.632-.725.466-.1.866.066.933.362ZM5.893 1.912c.433-.132.8-.132.866.066.067.165-.233.462-.632.593-.433.165-.8.132-.866-.066-.067-.164.2-.428.632-.593Zm-4.828 11.67c-.2 0-.332-.362-.332-.79 0-.43.166-.792.366-.792.2 0 .333.363.333.791 0 .429-.167.791-.367.791Zm.067-2.835c-.166-.066-.2-.461-.033-.857.166-.395.433-.692.6-.626.166.066.199.461.032.857-.133.396-.4.692-.599.626Zm1.265 5.374c-.166.066-.466-.165-.666-.56-.2-.396-.2-.792-.033-.858.167-.066.466.165.666.56.2.396.2.759.033.858Zm.733-2.868c-.033.428-.333.758-.666.725-.3-.033-.533-.428-.466-.857.033-.429.333-.758.666-.725.333.033.532.395.466.857Zm.333-2.506c-.167.429-.533.66-.8.56-.299-.098-.399-.527-.266-.955.167-.429.533-.66.8-.56.3.131.432.527.266.955Zm.666-6.461c-.3.33-.666.461-.8.33-.133-.132 0-.495.3-.825.3-.33.666-.461.8-.33.133.165 0 .528-.3.825ZM5.627 23.9c-.233.066-.466-.198-.566-.56-.1-.363.033-.693.233-.759.233-.066.466.198.566.56.1.364 0 .693-.233.76Zm-1.065-7.088c0-.857 1.398-.89 2.597-.626 1.165.23 2.064.428 2.064 1.285 0 .858-.999 1.583-2.197 1.583-1.266-.033-2.464-.791-2.464-2.242Zm2.464 5.143c.233-.033.432.23.499.593s-.067.693-.3.726c-.233.033-.433-.231-.5-.594-.066-.362.067-.692.3-.725Zm.432 3.264c-.233.033-.432-.231-.5-.594-.066-.362.068-.692.3-.725.234-.033.433.23.5.593s-.067.693-.3.726Zm1.465 1.912c-.233.033-.432-.264-.466-.627-.033-.362.1-.692.333-.692.233-.033.433.264.466.627.034.362-.1.659-.333.692Zm0-2.308c-.233.033-.432-.264-.466-.626-.033-.363.1-.692.333-.692.233-.034.433.263.466.626.034.362-.1.692-.333.692Zm0-2.01c-.233.032-.432-.265-.466-.627-.033-.363.1-.693.333-.693.233-.032.433.264.466.627.034.363-.1.66-.333.692Zm-.166-12.232a.75.75 0 0 1-.766-.758.75.75 0 0 1 .766-.758.75.75 0 0 1 .766.758.75.75 0 0 1-.766.758Zm0-2.406c-.433 0-.8-.33-.8-.725 0-.396.367-.726.8-.726.433 0 .8.33.8.726 0 .395-.334.725-.8.725Zm0-2.044c-.433 0-.8-.33-.8-.725 0-.396.367-.726.8-.726.433 0 .8.33.8.726 0 .395-.334.725-.8.725Zm0-2.374c-.433 0-.8-.263-.8-.56 0-.297.367-.56.8-.56.433 0 .8.263.8.56 0 .297-.334.56-.8.56Zm0-1.813c-.433 0-.8-.165-.8-.33 0-.197.367-.33.8-.33.433 0 .8.166.8.33 0 .165-.334.33-.8.33Zm5.194.033c.067-.165.466-.198.866-.066.433.165.7.429.633.593-.067.165-.467.198-.866.066-.433-.164-.7-.428-.633-.593Zm-.166 1.582c.066-.296.5-.461.932-.362.433.099.732.428.633.725-.1.297-.5.462-.933.363-.432-.1-.732-.396-.632-.726Zm-1.832-2.307c.433 0 .8.165.8.33 0 .197-.367.33-.8.33-.432 0-.799-.166-.799-.33 0-.198.367-.33.8-.33Zm0 1.351c.433 0 .8.264.8.56 0 .298-.367.561-.8.561-.432 0-.799-.263-.799-.56 0-.297.367-.56.8-.56Zm0 2.077c.433 0 .8.33.8.726 0 .395-.367.725-.8.725-.432 0-.799-.33-.799-.725 0-.396.367-.726.8-.726Zm0 2.077c.433 0 .8.33.8.726 0 .395-.367.725-.8.725-.432 0-.799-.33-.799-.725 0-.43.367-.726.8-.726Zm-.799 3.066a.75.75 0 0 1 .766-.758.75.75 0 0 1 .766.758.75.75 0 0 1-.766.758.77.77 0 0 1-.766-.758Zm1.598 16.681c-.033.363-.233.66-.466.627-.233-.033-.366-.33-.333-.692.034-.363.234-.66.466-.627.2 0 .367.297.333.693Zm0-2.307c-.033.362-.233.66-.466.626-.233-.033-.366-.33-.333-.692.034-.363.234-.66.466-.627.2 0 .367.33.333.693Zm0-2.011c-.033.362-.233.66-.466.626-.233-.033-.366-.33-.333-.692.034-.363.234-.66.466-.627.2 0 .367.297.333.693Zm1.499 2.406c-.067.363-.266.627-.5.594-.233-.033-.366-.363-.3-.726.067-.362.267-.626.5-.593.233.033.366.363.3.725Zm.233-1.912c-.067.363-.267.627-.5.594-.233-.033-.366-.363-.3-.726.067-.362.267-.626.5-.593.233.033.367.363.3.725Zm1.665.66c-.1.362-.333.626-.566.56-.233-.066-.333-.395-.233-.758s.333-.627.566-.56c.233.065.333.395.233.758Zm-1.998-4.319c-1.232 0-2.198-.692-2.198-1.582 0-.858.9-1.055 2.065-1.286 1.198-.23 2.597-.23 2.597.626-.033 1.484-1.232 2.242-2.464 2.242Zm3.263-14.407c-.133.132-.5 0-.8-.33-.299-.329-.465-.692-.299-.823.133-.132.5 0 .8.33.299.329.432.692.299.823Zm.266 6.132c-.166-.428-.033-.824.267-.956.3-.099.666.132.799.56.166.43.033.825-.266.957-.3.099-.666-.165-.8-.56Zm.3 2.506c-.033-.429.166-.824.466-.857.3-.033.6.296.666.725.033.428-.166.824-.466.857-.333.033-.6-.297-.666-.725Zm1.398 2.274c-.2.396-.499.66-.666.56-.166-.065-.166-.46.034-.856.2-.396.5-.66.666-.56.2.098.166.46-.034.857Zm0-5.406c-.166-.429-.133-.791.034-.857.166-.066.466.198.6.626.166.429.132.791-.034.857-.167.066-.433-.23-.6-.626Zm.666 3.461c-.2 0-.366-.362-.366-.79 0-.43.167-.792.333-.792.2 0 .366.363.366.791.034.429-.133.791-.333.791Z" fill="#fff"/></svg>