<svg width="72" height="72" viewBox="0 0 72 72" fill="none" xmlns="http://www.w3.org/2000/svg">
<mask id="mask0_1046_34561" style="mask-type:alpha" maskUnits="userSpaceOnUse" x="0" y="0" width="72" height="72">
<circle cx="36" cy="36" r="35" fill="#6E65AE" stroke="#ACA3DD" stroke-width="2"/>
</mask>
<g mask="url(#mask0_1046_34561)">
<path d="M8.00019 71.9985C7.97082 65.2429 11.3145 60.9328 17.0746 58.26C19.3526 57.2036 21.6013 56.0713 23.9296 55.1495C27.4579 53.7563 27.6802 49.1978 26.2035 46.1968C24.5044 42.7453 22.8682 39.256 21.4544 35.6824C21.1104 34.8154 21.7397 33.5653 21.8865 32.4877C21.9662 31.9111 22.0711 31.3008 21.9788 30.7367C21.3412 26.9275 20.758 23.1309 21.8152 19.2964C23.2039 14.2202 27.2397 10.853 32.4167 10.2132C36.2218 9.74177 39.792 9.80912 42.6321 12.8986C42.8042 13.0838 43.1188 13.1638 43.3831 13.2311C48.1657 14.4265 50.041 18.9934 49.9655 22.8236C49.9151 25.467 49.4369 28.0976 49.1768 30.7367C49.118 31.3344 48.9712 32.0289 49.1977 32.5256C50.2843 34.8995 49.6089 37.0336 48.4846 39.1255C47.054 41.794 45.4975 44.3953 44.1634 47.1101C43.0643 49.3494 44.2515 53.428 46.4331 54.636C49.7096 56.4501 53.2378 57.8307 56.4472 59.7501C60.9277 62.4312 63.017 66.6109 62.996 71.9985C44.6669 71.9985 26.3881 71.9985 8.00019 71.9985Z" fill="#B9CBE5"/>
</g>
</svg>
