<svg width="40" height="36" viewBox="0 0 40 36" fill="none" xmlns="http://www.w3.org/2000/svg">
<path d="M8.14978 34.3963C8.46063 34.1066 8.77148 33.8198 9.08234 33.5272C9.51574 33.1205 9.94914 32.7108 10.3825 32.3041C11.2314 31.5082 12.0833 30.7123 12.9321 29.9193C13.4193 29.4629 13.9095 29.0064 14.3967 28.5499C15.2456 27.754 16.0974 26.9581 16.9463 26.1651C17.4335 25.7086 17.9237 25.2522 18.4139 24.7957C19.0954 24.1578 19.7798 23.517 20.4613 22.8791C20.9455 22.4255 21.4327 21.972 21.9199 21.5185C22.6014 20.8806 23.2859 20.2397 23.9674 19.6018C24.4456 19.1542 24.9238 18.7094 25.4021 18.2617C26.0955 17.615 26.9175 17.2024 27.8471 16.9888C28.4359 16.8542 29.0277 16.8396 29.6135 17.0093C29.6584 17.0239 29.7092 17.0327 29.751 17.0561C29.8676 17.1264 29.9274 17.0766 29.9991 16.98C30.6507 16.1403 31.4488 15.4643 32.3813 14.9376C32.6294 14.7972 32.9044 14.844 33.1286 15.0488C33.4065 15.3063 33.556 15.634 33.6576 15.9822C33.7204 16.2017 33.7592 16.427 33.81 16.6582C34.1418 16.5265 34.4497 16.3509 34.7366 16.1403C35.5735 15.5228 36.1295 14.7006 36.527 13.7672C36.8528 13.0005 37.065 12.2017 37.1786 11.3824C37.2533 10.8411 37.3071 10.2968 37.3579 9.75254C37.4147 9.15269 37.4655 8.55283 37.5104 7.95298C37.5492 7.45554 37.5731 6.95517 37.606 6.45481C37.6389 5.94274 37.6748 5.42774 37.7136 4.91567C37.7435 4.50309 37.7674 4.09343 37.8093 3.68378C37.893 2.86446 37.9826 2.04515 38.3204 1.27851C38.5565 0.745957 38.9271 0.330449 39.4472 0.0466153C39.6266 -0.0499465 39.8418 0.0085758 39.9434 0.175364C40.045 0.342153 40.0062 0.564538 39.8358 0.658173C39.2679 0.974194 38.978 1.48041 38.8136 2.07441C38.6791 2.56015 38.6073 3.05759 38.5625 3.55795C38.5177 4.06417 38.4728 4.56746 38.434 5.07368C38.4041 5.47749 38.3861 5.88129 38.3592 6.28802C38.3353 6.67427 38.3054 7.06051 38.2785 7.44676C38.2546 7.80375 38.2277 8.16073 38.2008 8.51772C38.1679 8.93908 38.1321 9.36044 38.0962 9.7818C38.0753 10.0393 38.0574 10.2997 38.0245 10.5543C37.9677 11.002 37.9199 11.4526 37.8392 11.8945C37.6837 12.743 37.4386 13.5653 37.062 14.3465C36.7063 15.0868 36.249 15.7569 35.6393 16.3187C35.1401 16.7781 34.5722 17.1381 33.9266 17.3692C33.81 17.4102 33.7772 17.4746 33.7652 17.577C33.7144 18.0422 33.5679 18.4782 33.3408 18.8908C33.1495 19.2361 32.8894 19.5228 32.6025 19.792C32.4411 19.9442 32.2767 20.0934 32.1213 20.2514C32.0914 20.2836 32.0854 20.3509 32.0884 20.3977C32.1153 20.7898 32.1721 21.1819 32.1721 21.574C32.1661 24.0349 31.4248 26.2705 29.9782 28.2778C29.1831 29.3839 28.2177 30.3144 27.0221 31.0078C26.3167 31.4175 25.5695 31.713 24.7565 31.8301C23.6416 31.991 22.6014 31.8037 21.6539 31.1776C21.5344 31.0986 21.373 31.0722 21.2235 31.0488C20.285 30.9025 19.3793 31.0664 18.4856 31.3414C17.3618 31.6896 16.3186 32.2105 15.3113 32.7986C14.056 33.5331 12.8753 34.3758 11.7425 35.28C11.4616 35.5053 11.1925 35.7423 10.9176 35.9676C10.8936 35.9881 10.8309 35.9998 10.807 35.9852C9.92523 35.4614 9.04348 34.9376 8.16473 34.4109C8.16174 34.4138 8.15875 34.408 8.14978 34.3963ZM33.1614 17.6033C32.9671 17.6238 32.7848 17.6531 32.6055 17.6618C32.3873 17.6735 32.2139 17.5097 32.2079 17.3019C32.202 17.0825 32.3604 16.9332 32.5965 16.9245C32.7699 16.9186 32.9402 16.8952 33.1345 16.8776C33.0897 16.7898 33.0598 16.7225 33.0209 16.6611C32.7788 16.2895 32.3843 16.2895 32.1392 16.6582C32.0256 16.8279 31.9718 17.0181 31.9629 17.2171C31.9479 17.5243 32.0107 17.814 32.2319 18.0481C32.4381 18.2646 32.7071 18.2675 32.9193 18.0627C33.0478 17.934 33.1166 17.7818 33.1614 17.6033Z" fill="white"/>
<path d="M28.4477 14.7533C28.1966 14.3144 27.9306 13.8784 27.6885 13.4248C27.2222 12.5411 26.8725 11.6165 26.6723 10.6392C26.5348 9.96617 26.4899 9.29023 26.5467 8.60552C26.6424 7.47019 27.0549 6.45775 27.7722 5.56236C28.1638 5.0737 28.63 4.66112 29.1262 4.2778C29.8944 3.68379 30.7104 3.16295 31.5981 2.75329C32.4858 2.34071 33.4213 2.07151 34.3838 1.89009C34.7993 1.81108 35.2147 1.72622 35.6272 1.62966C36.222 1.49213 36.5508 1.10881 36.6614 0.529443C36.6913 0.380211 36.757 0.257314 36.9095 0.204644C37.1755 0.111008 37.4445 0.315836 37.3997 0.590891C37.2622 1.39557 36.8557 2.00128 36.0307 2.25585C35.6003 2.38753 35.1549 2.48701 34.7096 2.56309C33.1075 2.8323 31.6339 3.40289 30.3068 4.32169C29.727 4.72257 29.1621 5.141 28.6749 5.65015C27.9814 6.37582 27.5331 7.22439 27.3538 8.20757C27.1834 9.12052 27.2641 10.0247 27.4942 10.9172C27.8051 12.1256 28.3491 13.2346 29.0395 14.2793C29.0545 14.2997 29.0694 14.3173 29.0874 14.3378C29.2488 14.2617 29.4012 14.1827 29.5626 14.1154C30.0887 13.8901 30.6147 13.855 31.1527 14.0861C31.4516 14.2149 31.7595 14.3232 32.0614 14.446C32.1361 14.4753 32.2018 14.5221 32.2706 14.5602C31.8103 14.8937 31.356 15.2098 30.9196 15.5463C30.4802 15.8857 30.0707 16.2602 29.7658 16.7226C29.5925 16.6699 29.4281 16.6114 29.2607 16.5733C28.7944 16.468 28.3282 16.5031 27.8679 16.6084C26.9831 16.8133 26.2 17.2229 25.4767 17.7496C25.2704 17.8989 25.1001 18.092 24.9118 18.2676C24.0659 19.0576 23.223 19.8477 22.3771 20.6377C21.8899 21.0942 21.3997 21.5507 20.9125 22.0071C20.2311 22.6421 19.5526 23.28 18.8711 23.915C18.3719 24.3831 17.8728 24.8484 17.3736 25.3166C16.8655 25.7906 16.3603 26.2676 15.8522 26.7416C15.3531 27.2098 14.8539 27.675 14.3547 28.1432C13.8526 28.6114 13.3505 29.0825 12.8483 29.5507C12.3462 30.0188 11.844 30.4899 11.3419 30.9581C10.6723 31.5843 10.0028 32.2105 9.33329 32.8367C8.85804 33.2815 8.3828 33.7233 7.89859 34.1739C5.60306 32.9888 3.30455 31.8008 0.99707 30.6099C1.2332 30.3495 1.46335 30.0949 1.69051 29.8403C2.19564 29.2815 2.69779 28.7226 3.20293 28.1666C3.63035 27.6926 4.06076 27.2215 4.48818 26.7504C5.01125 26.1739 5.53133 25.5975 6.0544 25.024C6.43997 24.5997 6.83153 24.1754 7.2171 23.7482C7.80892 23.0986 8.39775 22.449 8.98657 21.7994C9.3841 21.3634 9.78462 20.9303 10.1822 20.4943C10.7471 19.8769 11.312 19.2595 11.8769 18.6421C12.2416 18.2441 12.6062 17.8491 12.9738 17.457C13.5597 16.825 14.1425 16.1871 14.7373 15.5638C15.652 14.6041 16.6622 13.7672 17.9236 13.261C18.6559 12.9654 19.421 12.825 20.2131 12.8513C21.0082 12.8806 21.7704 13.0678 22.5116 13.3458C23.6116 13.7555 24.6577 14.2793 25.7068 14.7972C26.2688 15.0752 26.8247 15.3619 27.3836 15.6458C27.4315 15.6692 27.4643 15.6926 27.5181 15.6428C27.832 15.3356 28.1428 15.043 28.4477 14.7533ZM13.1113 18.4343C15.2963 19.4204 17.4692 20.4007 19.6303 21.3751C20.9633 19.8418 22.4369 18.4665 23.8836 17.0474C23.6385 16.9332 23.4113 16.8279 23.1841 16.7196C21.334 15.8477 19.4808 14.9757 17.6336 14.1008C17.532 14.0539 17.4663 14.0598 17.3856 14.1271C16.985 14.487 16.5636 14.8294 16.184 15.2098C15.3441 16.0583 14.5281 16.9245 13.7032 17.7877C13.5029 17.9984 13.3146 18.212 13.1113 18.4343Z" fill="white"/>
</svg>
