<svg width="19" height="25" viewBox="0 0 19 25" fill="none" xmlns="http://www.w3.org/2000/svg"><path d="M11.743 17.633c-.375-.165-.573-.232-.753-.333-.305-.174-.622-.34-.893-.558-.698-.558-1.373-.617-2.096-.043-.273.216-.598.368-.906.536-.692.377-1.27.252-1.443-.492-.4-1.714-1.408-2.418-3.138-2.357-.767.029-1.045-.476-.895-1.25.062-.322.1-.657.22-.958.372-.933.04-1.564-.691-2.192-1.53-1.31-1.53-1.446 0-2.683.77-.624 1.014-1.245.78-2.236-.474-2.018-.4-2.09 1.705-2.198.915-.047 1.507-.352 1.761-1.265.106-.378.301-.738.496-1.083.306-.541.756-.662 1.306-.356.368.206.756.384 1.092.632.629.464 1.22.49 1.862.022.298-.218.657-.356.986-.533.73-.395 1.16-.263 1.518.498.189.402.362.815.505 1.235.194.576.546.893 1.176.917.491.02.98.089 1.466.163.713.112.97.477.845 1.176-.053.3-.087.612-.2.89-.405 1.001-.143 1.768.743 2.354.155.103.284.244.424.37.796.723.806 1.137.016 1.836-1.83 1.622-1.553 1.084-1.136 3.377.198 1.089-.05 1.515-1.154 1.463-1.557-.073-2.432.556-2.827 2.044-.098.385-.505.688-.77 1.024Z" fill="#464EA3"/><path d="M3.351 17.48c.279.653.561 1.305.836 1.959.464 1.104 1.261 1.405 2.302.844.702-.377 1.373-.813 2.092-1.152.24-.113.634-.103.874.02.728.37 1.412.832 2.122 1.241.868.501 1.72.241 2.172-.666.21-.42.373-.86.567-1.286.193-.422.398-.838.678-1.425.053.317.098.456.098.594.005 2.11.009 4.22 0 6.331-.004 1.01-.488 1.291-1.409.834-1.363-.678-2.716-1.381-4.093-2.027a1.198 1.198 0 0 0-.9-.001c-1.378.646-2.73 1.347-4.095 2.024-.951.473-1.414.183-1.418-.892-.006-1.97-.002-3.939-.002-5.91 0-.15.013-.3.02-.45l.156-.037Z" fill="#464EA3"/></svg>