<svg width="22" height="20" viewBox="0 0 22 20" fill="none" xmlns="http://www.w3.org/2000/svg"><path d="M15.403 12.472c-.633.931-1.212 1.845-1.866 2.702-.174.228-.576.38-.881.393a43.943 43.943 0 0 1-3.396.002c-.286-.011-.665-.154-.829-.368-.653-.86-1.24-1.773-1.868-2.69.042-.013-.021-.013-.032.01-.239.55-.615.923-1.253.81-.657-.115-.815-.612-.98-1.213-.236-.864-.572-1.734-1.034-2.5C2.144 7.756.784 6.026.27 3.854.16 3.39.058 2.918.01 2.444-.11 1.21.807.13 2.044.014c.086-.008.174-.01.261-.01 5.772 0 11.542-.009 17.313.005 1.54.003 2.502 1.137 2.278 2.67-.097.664-.18 1.374-.477 1.956-.871 1.697-1.875 3.326-2.768 5.013-.412.776-.77 1.603-1 2.447-.16.595-.3 1.108-.959 1.233-.675.126-1.055-.27-1.288-.855ZM5.264 8.552c-.245-2.165-.478-4.21-.715-6.285H2.22c.27 2.465 1.724 4.277 3.045 6.285Zm11.424-.017c1.329-2.008 2.784-3.819 3.031-6.278h-2.327l-.704 6.278ZM10.979 19.996c-1.414 0-2.827.008-4.24-.003-.834-.006-1.277-.38-1.297-1.048-.02-.682.479-1.156 1.286-1.159 2.827-.01 5.654-.013 8.48.001 1.014.006 1.581.84 1.167 1.65-.232.453-.63.56-1.09.559-1.436-.002-2.872 0-4.306 0Z" fill="#464EA3"/></svg>