<svg width="21" height="22" viewBox="0 0 21 22" fill="none" xmlns="http://www.w3.org/2000/svg"><path d="M2.201 5.524c-.406 0-.728.016-1.047-.004-.7-.042-1.12-.457-1.139-1.153-.014-.538-.041-1.088.047-1.614C.335 1.138 1.552.04 3.203.027A909.2 909.2 0 0 1 17.64.03c1.854.017 3.184 1.426 3.193 3.314.026 5.048.012 10.099.005 15.147-.001.819-.442 1.321-1.107 1.322-.675.002-1.076-.479-1.076-1.327-.004-4.899-.001-9.796-.003-14.694 0-.217.017-.435-.018-.647a1.124 1.124 0 0 0-1.15-.933c-.532.03-.967.436-1.021.994-.031.321-.008.646-.013.97-.016.93-.417 1.344-1.35 1.346-3.28.006-6.56.002-9.84.002H4.44V17.6c1.026 0 2.054.005 3.082-.003.55-.003.978.195 1.185.72a1.078 1.078 0 0 1-.983 1.475c-1.488.034-2.978.03-4.466.002-.682-.013-1.054-.499-1.055-1.289-.005-2.93-.002-5.866-.003-8.8v-4.18Z" fill="#464EA3"/><path d="M13.162 21.4c-.143.117-.268.231-.404.332-.753.556-1.654.174-1.78-.756a2.55 2.55 0 0 1-.014-.517c.061-.873-.09-1.622-.642-2.395-.75-1.052-.602-2.264.096-3.349.764-1.188 1.89-1.683 3.276-1.47 1.348.21 2.184 1.069 2.601 2.329.333 1.006.183 1.981-.497 2.803-.36.437-.495.878-.45 1.42.027.32.003.646.003.97 0 .519-.196.923-.691 1.139-.48.21-.88.05-1.237-.286-.077-.074-.163-.139-.261-.22Zm-.021-5.978a1.083 1.083 0 0 0-1.073 1.072 1.082 1.082 0 0 0 1.107 1.105 1.087 1.087 0 0 0 1.074-1.138 1.093 1.093 0 0 0-1.108-1.039ZM11.526 10.98c-1.208 0-2.417.006-3.623-.003-.849-.007-1.326-.412-1.313-1.09.011-.68.496-1.093 1.32-1.096 2.393-.006 4.788-.006 7.182 0 .857.003 1.363.439 1.352 1.134-.01.654-.51 1.047-1.359 1.052-1.187.008-2.373.002-3.56.002ZM8.757 14.324c-.013.633-.502 1.107-1.121 1.084a1.098 1.098 0 0 1-1.046-1.163c.027-.607.483-1.041 1.092-1.038.636.003 1.088.473 1.075 1.117Z" fill="#464EA3"/></svg>