<svg width="21" height="20" viewBox="0 0 21 20" fill="none" xmlns="http://www.w3.org/2000/svg"><path d="M13.502 14.433c-.038-.002-.078.002-.113-.01-.73-.227-1.259.021-1.802.56-.826.819-2 .753-2.86-.11-.43-.433-.828-.578-1.445-.49-1.38.196-2.219-.453-2.442-1.851-.083-.522-.266-.824-.761-1.065-1.27-.62-1.627-1.707-1.006-2.999.248-.515.242-.932-.016-1.438-.612-1.2-.252-2.288.965-2.92.482-.25.73-.542.814-1.106.213-1.429 1.157-2.096 2.602-1.867.512.081.844-.056 1.197-.414.95-.966 2.228-.964 3.184.005.355.359.69.488 1.198.408 1.465-.23 2.392.458 2.608 1.932.071.49.273.763.707.99 1.346.7 1.688 1.737 1.005 3.08-.238.47-.182.837.026 1.281.645 1.383.277 2.455-1.094 3.111-.42.201-.574.457-.637.894-.194 1.324-.973 2.037-2.13 2.009Z" fill="#464EA3"/><path d="M12.64 15.774c.298.016.596.06.89.04.634-.04 1.31.009 1.888-.203.824-.302 1.207-1.06 1.36-1.915l.18-1.013c.14.103.25.164.334.248.944.941 1.89 1.883 2.826 2.831.504.511.424.83-.253 1.07-.107.04-.216.075-.324.112-1.63.562-1.63.562-2.152 2.233-.046.146-.08.296-.14.435-.174.402-.51.517-.81.22-1.296-1.279-2.57-2.58-3.852-3.873.018-.062.035-.124.054-.185ZM3.478 12.64l.17.95c.282 1.624 1.425 2.473 3.053 2.266.246-.031.49-.084.735-.094.13-.006.261.055.391.086l.111.204c-1.07 1.02-2.142 2.038-3.21 3.06-.22.21-.416.445-.64.653-.391.364-.728.29-.91-.212-.208-.571-.371-1.16-.597-1.724a.887.887 0 0 0-.442-.446c-.562-.23-1.152-.392-1.722-.607-.439-.166-.553-.522-.239-.844 1.058-1.085 2.144-2.145 3.3-3.291Z" fill="#464EA3"/></svg>