<svg width="24" height="17" viewBox="0 0 24 17" fill="none" xmlns="http://www.w3.org/2000/svg"><path d="M0 15.908c.23-.307.462-.601.677-.907.752-1.07 1.275-2.237 1.49-3.534.025-.153.016-.252-.133-.36-.684-.495-.61-1.54.131-1.945.115-.062.149-.131.15-.255.003-.6.039-1.198.215-1.78a3.59 3.59 0 0 1 .842-1.435l.145-.156-1.054-.36c-.482-.165-.967-.323-1.446-.497A1.53 1.53 0 0 1 .6 4.453c-.17-.132-.167-.31.005-.442.121-.093.263-.168.406-.217C3.92 2.8 6.83 1.812 9.739.822c.748-.254 1.495-.509 2.24-.772a.816.816 0 0 1 .567.002c3.599 1.246 7.198 2.487 10.797 3.733.164.057.33.124.474.217.244.158.243.377.004.541-.118.08-.253.143-.389.19-2.857.988-5.716 1.973-8.574 2.96-.737.253-1.475.505-2.209.767a.85.85 0 0 1-.595-.004c-2.415-.83-4.833-1.653-7.249-2.48-.086-.03-.142-.02-.215.038-.678.545-1.005 1.28-1.145 2.112-.053.315-.071.636-.093.954-.004.056.036.133.081.17.582.473.61 1.289.063 1.803a.295.295 0 0 0-.078.204c.027.664.073 1.328.09 1.992.017.622-.038 1.24-.22 1.84-.235.776-.701 1.36-1.436 1.72a.335.335 0 0 1-.282.02c-.585-.201-1.088-.54-1.569-.92Z" fill="#fff"/><path d="m4.861 7.715 1.23.417c1.854.63 3.708 1.262 5.562 1.894.138.047.276.09.41.148.2.087.39.075.595.004 2.517-.873 5.035-1.74 7.553-2.61.037-.012.075-.021.135-.039v.188c0 1.686-.01 3.371.006 5.057.006.502-.189.877-.55 1.191-.546.476-1.198.753-1.874.98-1.14.382-2.317.575-3.51.677-1.35.116-2.7.107-4.045-.04-1.316-.143-2.611-.388-3.833-.926-.52-.229-1.012-.504-1.383-.952a1.249 1.249 0 0 1-.298-.828c.005-1.655.002-3.31.002-4.966v-.195Z" fill="#fff"/></svg>