<svg width="24" height="22" viewBox="0 0 24 22" fill="none" xmlns="http://www.w3.org/2000/svg"><path d="M11.38 2.574 8.375 4.281c-.838.475-1.666.383-2.028-.224-.371-.625-.039-1.337.851-1.833C8.341 1.58 9.492.949 10.625.288c.691-.401 1.31-.41 1.925.145 1.359 1.225 2.915 2.289 4.046 3.693 1.07 1.327 1.744 2.983 2.495 4.54.26.542.54.71 1.096.688.857-.034 1.717-.018 2.574-.003.758.013 1.236.398 1.24 1.165.005.788-.505 1.133-1.255 1.139-1.318.01-2.64.064-3.951-.033-.44-.033-.944-.385-1.25-.736-.639-.73-1.165-1.559-1.805-2.442l-2.993 1.977c.673 1.2 1.31 2.358 1.97 3.507.753 1.31.304 2.11-1.213 2.114-2.085.005-4.168.018-6.253-.008-1.11-.014-1.732-.952-1.124-1.74.247-.317.817-.507 1.254-.538 1.065-.077 2.139-.026 3.516-.026-.456-.427-.726-.671-.987-.927-.48-.47-.979-.926-1.43-1.42-1.124-1.236-1.005-2.667.297-3.704 1.307-1.041 2.624-2.07 3.99-3.148-.458-.65-.877-1.24-1.386-1.957ZM19.572 4.902c-1.318.007-2.396-1.056-2.39-2.354.005-1.221 1.116-2.278 2.386-2.273 1.361.008 2.376 1.02 2.36 2.355-.017 1.295-1.02 2.264-2.356 2.272ZM13.23 17.261c-.907 1.192-1.67 2.233-2.475 3.24-.45.565-1.06.749-1.68.282-.62-.47-.582-1.088-.187-1.69.298-.454.592-.928.978-1.299.27-.26.686-.466 1.058-.508.69-.083 1.395-.025 2.306-.025Z" fill="#fff"/><path d="M4.37 6.696c-.611 0-1.233.06-1.83-.027-.276-.04-.51-.372-.762-.573.232-.188.458-.528.7-.539a46.453 46.453 0 0 1 3.938-.01c.222.008.428.384.641.593-.224.186-.432.505-.674.533-.664.073-1.34.023-2.014.023ZM2.666 9.62c-.608 0-1.23.065-1.824-.028C.54 9.544.28 9.214 0 9.012c.257-.19.506-.534.77-.547a38.255 38.255 0 0 1 3.746-.002c.265.013.513.386.769.594-.263.188-.51.496-.793.537-.597.083-1.215.025-1.826.025ZM3.16 12.542c-.61 0-1.227.05-1.83-.024-.267-.033-.5-.321-.749-.493.21-.204.41-.577.629-.588a48.586 48.586 0 0 1 4.027-.038c.226.007.44.39.658.599-.239.18-.465.489-.72.518-.663.075-1.341.026-2.014.026Z" fill="#fff"/></svg>