<svg width="19" height="20" viewBox="0 0 19 20" fill="none" xmlns="http://www.w3.org/2000/svg"><path d="M.53 12.42c-.413-.62-.546-1.304-.52-2.028.01-.323.01-.65.062-.969A3.268 3.268 0 0 1 .91 7.701c.823-.897 1.63-1.81 2.445-2.714.897-.997 1.795-1.992 2.691-2.989.513-.57 1.026-1.14 1.536-1.713a.778.778 0 0 1 .801-.261c1.596.36 3.191.723 4.786 1.084L17.11 2c.277.063.555.125.832.19.546.128.748.74.383 1.172l-3.212 3.792c-1.265 1.493-2.531 2.985-3.792 4.482-.233.276-.506.357-.846.253A3115.684 3115.684 0 0 0 2.502 9.47c-.275-.083-.74.135-.852.401a1.03 1.03 0 0 0-.078.284c-.041.4-.04.797.095 1.183l.013.033c.084.184.182.327.414.373.309.06.606.176.908.269l4.973 1.529c.967.297 1.934.594 2.9.893.087.028.138.019.2-.058.733-.916 1.472-1.83 2.21-2.743l2.959-3.662c.188-.234.38-.465.566-.701a.228.228 0 0 0 .041-.155 3.067 3.067 0 0 1 .216-1.592.735.735 0 0 1 .916-.41.766.766 0 0 1 .512.891c-.037.173-.086.345-.118.52a.69.69 0 0 0 .066.47c.113.21.099.437.019.655-.216.587-.359 1.188-.356 1.817.002.524.096 1.027.335 1.501.148.295.105.587-.105.844-.706.863-1.415 1.723-2.123 2.585l-2.511 3.064-1.822 2.219c-.25.304-.545.388-.92.267l-4.954-1.59c-1.336-.43-2.668-.867-4.008-1.282-.62-.192-1.135-.512-1.488-1.064a3.293 3.293 0 0 1-.477-1.378c-.106-.836.04-1.503.497-2.213Zm16.057-2.428-.028-.013c-.006.015-.01.032-.02.044l-2.204 2.733c-.834 1.033-1.668 2.067-2.504 3.1a.76.76 0 0 1-.834.247c-.174-.053-.347-.108-.52-.162l-3.703-1.148c-1.604-.497-3.208-.993-4.81-1.494-.104-.032-.154-.013-.209.08-.303.516-.252 1.05-.063 1.579.109.306.319.515.659.62 1.556.48 3.104.983 4.655 1.477 1.291.412 2.583.82 3.874 1.235.089.029.136.018.196-.056.721-.887 1.446-1.77 2.17-2.654 1.199-1.462 2.396-2.924 3.596-4.384.046-.056.05-.102.029-.17-.08-.248-.153-.498-.223-.75-.027-.092-.041-.189-.061-.284ZM12.169 5.16c.294-.01.502-.072.655-.265.152-.193.309-.381.463-.572.152-.186.112-.343-.113-.435a.863.863 0 0 0-.124-.038c-.656-.16-1.313-.318-1.97-.477-.982-.238-1.964-.48-2.947-.714-.277-.066-.546-.022-.747.189-.195.205-.364.437-.54.66-.106.136-.08.27.067.36a.644.644 0 0 0 .175.07c.287.073.575.142.863.211 1.202.292 2.403.584 3.605.874.222.053.446.1.613.137Z" fill="#fff"/></svg>