<svg width="24" height="22" viewBox="0 0 24 22" fill="none" xmlns="http://www.w3.org/2000/svg"><path d="M11.38 2.574 8.374 4.281c-.839.475-1.666.383-2.028-.224-.372-.625-.039-1.337.851-1.833C8.341 1.58 9.492.949 10.625.288c.691-.401 1.309-.41 1.925.145 1.359 1.225 2.914 2.289 4.045 3.693 1.07 1.327 1.745 2.983 2.495 4.54.262.542.541.71 1.096.688.857-.034 1.718-.018 2.575-.003.757.013 1.235.398 1.239 1.165.006.788-.504 1.133-1.254 1.139-1.318.01-2.64.064-3.952-.033-.44-.033-.943-.385-1.25-.736-.638-.73-1.164-1.559-1.804-2.442l-2.993 1.977c.673 1.2 1.31 2.358 1.969 3.507.754 1.31.305 2.11-1.212 2.114-2.085.005-4.168.018-6.254-.008-1.11-.014-1.732-.952-1.123-1.74.246-.317.816-.507 1.254-.538 1.065-.077 2.139-.026 3.516-.026-.456-.427-.726-.671-.988-.927-.48-.47-.978-.926-1.428-1.42-1.126-1.236-1.006-2.667.296-3.704 1.307-1.041 2.624-2.07 3.99-3.148-.458-.65-.877-1.24-1.387-1.957ZM19.572 4.902c-1.318.007-2.396-1.056-2.39-2.354.005-1.221 1.116-2.278 2.387-2.273 1.36.008 2.375 1.02 2.359 2.355-.017 1.295-1.02 2.264-2.356 2.272ZM13.23 17.261c-.907 1.192-1.67 2.233-2.475 3.24-.45.565-1.06.75-1.68.282-.62-.47-.582-1.088-.187-1.689.298-.454.592-.93.979-1.3.27-.259.685-.465 1.057-.507.69-.084 1.396-.026 2.306-.026Z" fill="#fff"/><path d="M4.369 6.696c-.61 0-1.232.06-1.83-.027-.276-.04-.51-.373-.761-.573.232-.188.458-.528.699-.539a46.457 46.457 0 0 1 3.938-.011c.223.01.429.385.642.593-.224.187-.432.506-.675.533-.664.073-1.34.024-2.013.024ZM2.666 9.62c-.608 0-1.23.065-1.824-.028C.54 9.544.28 9.214 0 9.012c.257-.19.506-.534.77-.546a38.255 38.255 0 0 1 3.746-.002c.265.012.513.385.769.593-.263.188-.51.497-.793.537-.597.084-1.215.025-1.826.025ZM3.16 12.542c-.61 0-1.228.05-1.83-.024-.267-.033-.5-.321-.75-.493.21-.204.41-.577.63-.588a48.586 48.586 0 0 1 4.027-.038c.226.007.44.39.658.599-.24.18-.465.489-.72.518-.663.075-1.341.026-2.014.026Z" fill="#fff"/></svg>