<svg width="73" height="50" viewBox="0 0 73 50" fill="none" xmlns="http://www.w3.org/2000/svg"><rect x="11.211" y=".002" width="49.329" height="49.329" rx="8" fill="#DCE5F2"/><path d="M24.902 41.5c2.117-1.804 3.813-3.247 5.63-4.8-2.95-.624-2.95-.624-2.572-3.531-.979 1.678-2.175 2.463-3.962 1.904-1.254-.393-1.617-1.079-.986-2.304.439-.85.755-1.764.972-2.712-2.718 3.231-5.705 3.681-8.525 1.071 2.422-.965 4.835-1.893 6.245-4.493-7.122 3.374-12.138 2.391-14.275-2.843 2.253.246 4.42.703 6.575.659 2.155-.044 4.295-.587 6.379-1.314-2.114.103-4.262.474-6.338.236-2.15-.246-4.434-.724-6.29-1.76-1.841-1.031-3.578-2.659-4.713-4.44-1.131-1.781-1.471-4.084-2.161-6.159.14-.112.279-.221.415-.334.574.365 1.179.686 1.712 1.102 3.415 2.655 6.939 5.132 11.18 6.265 1.811.484 3.69.72 5.539 1.067l.102-.42c-1.516-.545-3.049-1.05-4.544-1.644-4.621-1.832-8.913-4.186-12.154-8.11C1.43 6.886.29 4.559.01 1.89-.05 1.31.144.485.538.14.84-.123 1.748.017 2.206.287c1.308.778 2.59 1.63 3.762 2.603 4.543 3.774 9.08 7.548 14.802 9.441 1.284.427 2.596.761 3.897 1.14 1.744.508 2.3 1.392 1.903 3.146-.36 1.604-.825 3.183-1.165 4.794-1.067 5.009.995 8.769 5.943 10.584-2.453-5.186-3.962-10.284-.282-15.682 1.774 2.218 5.138 2.047 5.732 5.388.83-3.228 4.01-3.276 5.91-5.17 3.724 5.146 2.46 10.175-.163 15.263 2.83-.898 5.168-3.839 5.171-6.913.004-2.12-.502-4.245-.815-6.36-.092-.614-.343-1.201-.449-1.816-.424-2.453-.047-2.999 2.342-3.548 5.403-1.239 10.119-3.821 14.404-7.298a140.199 140.199 0 0 1 7.01-5.364c.547-.389 1.438-.29 2.168-.416.109.733.394 1.49.3 2.197-.531 3.87-2.702 6.793-5.577 9.25-3.86 3.3-8.417 5.261-13.181 6.81-.347.113-.676.27-1.475.594 7.86-.037 13.467-4.06 19.094-8.516-.466 8.758-6.565 14.774-19.505 12.563 4.424 2.317 8.787 1.453 13.201.727-1.665 4.47-7.7 7.53-13.905 2.948.51 1.736 1.125 2.21 5.838 4.503-2.507 2.58-6.014 2.126-8.427-.986.194.615.377 1.232.585 1.843.299.89 1.4 1.743.22 2.712-1.043.857-2.99.683-3.917-.296-.269-.283-.463-.635-.867-.898l.697 2.19c-1.02.287-2.005.567-3.293.929 1.849 1.57 3.554 3.02 5.433 4.613-.482.389-.852.894-1.325 1.027-3.326.931-6.633 2.133-10.027 2.528-1.896.219-3.952-.945-5.937-1.484-.523-.143-1.063-.232-1.576-.41-1.173-.416-2.328-.863-3.83-1.422Z" fill="#36427D"/><path d="M39.676 15.273c.296.017.585.034.89.05-.764 2.014-.958 2.1-2.565 1.045-1.128-.74-2.188-.706-3.3.034-1.573 1.048-1.97.84-2.493-1.317.305.027.577.048.968.082-.387-1.273-1.08-2.484.5-3.419 1.529-.904 3.887-.996 5.304-.007 1.135.795 1.247 1.362.696 3.532Z" fill="#36427D"/></svg>