<svg width="50" height="61" viewBox="0 0 50 61" fill="none" xmlns="http://www.w3.org/2000/svg"><rect y="4.486" width="49.329" height="49.329" rx="8" fill="#ECF6FF"/><path d="M37.798 49.391c-1.465 0-2.93-.038-4.395.026-.404.018-.84.217-1.198.544-2.499 2.282-4.56 5.302-5.634 9.957-.19.826-.583.825-.895.025-.485-1.24-.942-2.513-1.422-3.761-1.139-2.97-2.863-4.756-4.585-6.53-.24-.246-.59-.24-.89-.243-2.977-.017-5.955.004-8.932-.03-.299-.004-.784-.183-.85-.488-.092-.433.052-1.145.223-1.59 2.536-6.567 5.1-13.103 7.637-19.667.28-.721.595-1.032 1.098-1.031 5.364.02 10.728.02 16.094 0 .505-.001.817.305 1.095 1.034 2.544 6.655 5.112 13.283 7.658 19.934.155.405.196.94.29 1.414-.276.135-.55.381-.826.388-1.49.038-2.98.018-4.468.018ZM25.774 25.52c-2.672 0-5.343.01-8.015-.016-.25-.003-.604-.18-.727-.384-.8-1.303-1.56-2.632-2.311-3.963-.295-.522-.081-.865.53-.84.66.027 1.315.152 1.975.171a14.3 14.3 0 0 0 1.978-.067c2.12-.234 3.307-1.398 3.755-3.442.448-2.043.268-1.778 2.29-1.308 1.162.27 2.363.392 3.554.515 1.159.12 1.95-.516 2.64-1.344.315-.379.72-.688 1.082-1.03.29.365.53.783.88 1.08.389.332.845.66 1.33.795.6.165 1.26.154 1.896.17.698.019.828.143.634.761-.886 2.816-1.79 5.626-2.654 8.447-.148.482-.471.44-.82.44-2.672.002-5.344 0-8.016 0l-.001.016Z" fill="#36427D"/><path d="M22.705 14.3c-.248.811-.496 1.53-.688 2.261-.522 1.996-1.88 2.967-3.938 3.023-.82.024-1.652-.038-2.466-.149-1.334-.181-2.128-1.038-2.578-2.207-.371-.968-.723-1.95-.982-2.95-.076-.297.084-.804.322-1.002a437.471 437.471 0 0 1 7.52-6.097c.198-.157.625-.227.858-.131a859.549 859.549 0 0 1 10.63 4.49c.15.064.334.405.28.518-.36.746-.724 1.5-1.192 2.18-.506.739-1.298 1.102-2.21.982-1.61-.212-3.208-.49-4.811-.745-.229-.036-.453-.104-.745-.173ZM36.875 4.008c2.598.184 3.863 1.631 3.227 3.977-.615 2.274-1.712 4.373-3.033 6.348-.099.15-.25.286-.408.375-1.053.593-3.05-.15-3.344-1.279-.12-.457-.067-.959-.085-1.44-.094-2.325.437-4.528 1.411-6.633.488-1.053 1.02-1.346 2.232-1.348ZM16.308.323c.451.325.99.527 1.216.906.918 1.537 1.227 3.265 1.376 5.014.016.18-.17.43-.335.563a264.302 264.302 0 0 1-4.19 3.285c-.527.405-.81.313-1.073-.294a19.16 19.16 0 0 1-1.494-5.86c-.11-1.188.247-2.108 1.419-2.57.971-.383 1.983-.674 3.081-1.044ZM26.883 6.313c.12-1.069.189-1.918.318-2.758.165-1.074.9-1.652 1.935-1.844 1.134-.21 2.25-.083 3.334.335.753.29 1.2.818 1.107 1.58-.178 1.43-.44 2.852-.718 4.268-.128.65-.383 1.278-.574 1.918-.147.495-.438.691-.953.466-1.312-.575-2.624-1.15-3.938-1.722-.395-.172-.546-.452-.52-.878.035-.525.01-1.056.01-1.365ZM20.215 3.132C20.211.485 20.706 0 23.068 0c1.86 0 2.477.52 2.85 2.278.357 1.675.257 3.336-.03 5.002-.084.487-.345.615-.804.42-1.362-.578-2.733-1.133-4.081-1.739-.233-.105-.49-.392-.53-.629-.147-.836-.202-1.687-.258-2.2Z" fill="#36427D"/></svg>