<svg width="55" height="54" viewBox="0 0 55 54" fill="none" xmlns="http://www.w3.org/2000/svg"><rect x="3.121" y="4.244" width="49.329" height="49.329" rx="8" fill="#ECF6FF"/><path d="M28.383 20.555v-8.49c.83-.306 1.623-.493 2.29-.89.274-.164.279-.78.406-1.19-.419-.072-.928-.331-1.239-.18-.664.32-1.19.396-1.852.003-.276-.165-.81-.148-1.1.013-.664.367-1.196.334-1.85-.038-.272-.154-.768.084-1.16.143.094.414.052 1.041.306 1.2.681.427 1.488.651 2.36 1v8.422c-1.103 0-2.184.011-3.267-.011-.147-.002-.32-.14-.434-.262-.767-.816-1.466-1.707-2.293-2.458-3.49-3.162-4.384-8.48-2.065-12.571A10.324 10.324 0 0 1 30.506.458c4.523 1.395 7.557 5.86 7.167 10.538-.254 3.058-1.62 5.496-4.018 7.41-.584.467-1.01 1.13-1.53 1.682-.177.187-.413.434-.633.445-1.015.048-2.033.022-3.11.022ZM26.537 47.54c-2.318-1.023-4.481-2.1-6.73-2.94-3.167-1.182-6.455-1.716-9.834-1.019-.818.17-1.587.561-2.401.757-.38.09-.91.09-1.189-.119-.2-.15-.21-.744-.103-1.078 1.614-5.092 3.244-10.18 4.928-15.25.128-.384.675-.875 1.054-.899 4.012-.264 8.001-.174 11.86 1.157.139.049.271.113.406.17 2.013.856 2.011.856 2.011 3.05-.002 5.389-.002 10.775-.002 16.17ZM16.353 33.67c2.596.139 5.23.134 7.233 2.243.177.184.854.165 1.056-.022.206-.188.219-.742.109-1.063-.106-.31-.448-.572-.737-.786-2.876-2.121-6.192-2.21-9.555-1.989-.263.018-.739.59-.684.775.102.334.49.728.83.81.553.13 1.162.032 1.748.032Zm-.474 3.136-.073.238c-.732.037-1.477.004-2.19.147-.29.06-.714.508-.7.764.012.281.42.598.725.79.183.116.498.02.754.026 2.966.066 5.985-.1 8.344 2.27.186.188.856.091 1.15-.103.16-.105.154-.849-.038-1.032-.655-.62-1.35-1.349-2.166-1.617-1.89-.627-3.863-1.006-5.806-1.483ZM28.326 47.817c0-6.065-.013-11.931.03-17.797.003-.361.382-.848.72-1.059 1.878-1.177 4.015-1.64 6.174-1.824 2.3-.198 4.622-.154 6.933-.216.887-.024 1.37.346 1.654 1.248 1.537 4.89 3.156 9.755 4.702 14.642.145.458-.016 1.014-.035 1.523-.483-.036-1.013.048-1.438-.122-3.53-1.41-7.099-1.166-10.574-.01-2.49.827-4.845 2.061-7.255 3.12-.26.112-.499.268-.911.495Zm11.341-9.18.016.143c.33 0 .661-.014.992.002.604.03 1.268.105 1.352-.72.092-.915-.668-1-1.27-.979-1.756.068-3.524.119-5.255.385-1.608.247-3.094.913-4.252 2.143-.426.452-.677 1.026-.12 1.41.272.188.925-.023 1.328-.215 1.013-.48 1.926-1.24 2.98-1.54 1.358-.387 2.813-.436 4.23-.63Zm-1.166-5.114c.006.053.013.105.022.158.514 0 1.054.1 1.532-.028.417-.113 1.02-.42 1.094-.744.163-.7-.47-.898-1.056-.929-2.397-.125-4.792-.033-7.04.867-.99.396-1.882 1.096-2.716 1.783-.234.191-.104.825-.141 1.254.452-.042.963.033 1.347-.152.942-.453 1.771-1.215 2.748-1.505 1.354-.403 2.803-.486 4.21-.704Z" fill="#36427D"/><path d="M23.385 48.207h-.955c-6.942 0-13.886 0-20.828-.002-1.647 0-1.912-.38-1.301-1.904 1.905-4.757 3.82-9.51 5.731-14.265.629-1.562.626-1.565 2.47-1.397-.117.385-.218.75-.335 1.11-1.15 3.552-2.29 7.106-3.46 10.651-.386 1.166-.413 2.236.542 3.142.933.885 1.954.762 3.066.322 4.06-1.611 8.005-.826 11.892.675 1.092.422 2.148.937 3.22 1.41l-.042.258ZM46.522 30.672c1.746-.26 1.821-.22 2.428 1.311 1.9 4.793 3.801 9.588 5.698 14.382.584 1.475.33 1.84-1.253 1.84-7.228.002-14.457 0-21.979 0 .441-.277.642-.44.871-.546 3.623-1.676 7.324-3.072 11.425-2.554.966.12 1.928.442 2.836.805 1.114.444 2.14.533 3.079-.304.941-.836 1.01-1.883.648-3.019-1.153-3.624-2.298-7.25-3.444-10.877-.11-.338-.206-.686-.31-1.038ZM27.44 26.129c-.659.002-1.318-.011-1.978.004-1.192.027-2.198-.187-2.458-1.61-.033-.183-.452-.269-.618-.463-.218-.255-.52-.587-.496-.862.022-.262.375-.608.657-.709a4.878 4.878 0 0 1 1.58-.28c2.268-.028 4.54-.023 6.809-.001.423.004.875.072 1.261.237.36.154.862.445.907.735.041.277-.426.632-.675.949-.161.206-.42.383-.483.613-.267.969-.94 1.354-1.87 1.38-.878.024-1.758.005-2.635.007Z" fill="#36427D"/></svg>