<svg width="52" height="63" viewBox="0 0 52 63" fill="none" xmlns="http://www.w3.org/2000/svg"><path fill-rule="evenodd" clip-rule="evenodd" d="M47.081 15.71s4.54 3.3 4.19 4.87c-.35 1.57-5.85 2.65-5.85 2.65s-1.73 5.34-3.33 5.49c-1.6.16-4.33-4.75-4.33-4.75s-5.61 0-6.25-1.47c-.64-1.47 3.18-5.58 3.18-5.58s-1.73-5.34-.53-6.4c1.2-1.07 6.29 1.3 6.29 1.3s4.54-3.3 5.92-2.49c1.38.8.71 6.38.71 6.38Z" fill="url(#a)"/><path fill-rule="evenodd" clip-rule="evenodd" d="M45.852 16.24s3.73 2.71 3.44 3.99c-.28 1.29-4.8 2.18-4.8 2.18s-1.42 4.38-2.74 4.51c-1.31.13-3.55-3.9-3.55-3.9s-4.61 0-5.13-1.21c-.53-1.21 2.61-4.58 2.61-4.58s-1.42-4.38-.44-5.26c.99-.87 5.17 1.06 5.17 1.06s3.73-2.71 4.86-2.04c1.13.68.58 5.25.58 5.25Z" fill="url(#b)"/><path fill-rule="evenodd" clip-rule="evenodd" d="M45.611 16.34s3.57 2.59 3.3 3.82-4.6 2.08-4.6 2.08-1.36 4.19-2.62 4.32c-1.26.12-3.4-3.73-3.4-3.73s-4.41 0-4.92-1.16c-.5-1.16 2.5-4.39 2.5-4.39s-1.36-4.19-.42-5.03c.94-.84 4.95 1.02 4.95 1.02s3.57-2.59 4.66-1.95c1.08.64.55 5.02.55 5.02Z" fill="url(#c)"/><path opacity=".5" fill-rule="evenodd" clip-rule="evenodd" d="M35.731 18.45s-1.8 1.96-1.53 2.78c.27.82 4.46.85 4.46.85s2.04 2.53 3.04 2.59c1 .06 2.19-3.29 2.19-3.29s3.79-.3 4.52-1.09c0 0-1.45 1.75-4.19 1.73 0 0-1.42 4.19-2.58 4.31-1.16.12-3.26-3.75-3.26-3.75s-3.92.64-4.76-.88c-.59-1.05 2.11-3.25 2.11-3.25Z" fill="#fff"/><path fill-rule="evenodd" clip-rule="evenodd" d="M40.971 14.95c-.17.3-.55.42-.85.25a.628.628 0 0 1-.25-.85c.17-.3.55-.42.85-.25.3.16.41.55.25.85Z" fill="#fff"/><path fill-rule="evenodd" clip-rule="evenodd" d="M10.312 11.34s4.93-2.67 6.2-1.68c1.27.99-.14 6.42-.14 6.42s4.07 3.87 3.52 5.38c-.55 1.51-6.15 1.86-6.15 1.86s-2.42 5.06-4.03 5.01c-1.61-.06-3.67-5.28-3.67-5.28s-5.56-.74-6.01-2.28c-.44-1.54 3.88-5.12 3.88-5.12s-1-5.53.33-6.43c1.33-.89 6.07 2.12 6.07 2.12Z" fill="url(#d)"/><path fill-rule="evenodd" clip-rule="evenodd" d="M10.261 12.67s4.05-2.19 5.09-1.38-.11 5.27-.11 5.27 3.34 3.17 2.89 4.41c-.45 1.24-5.05 1.52-5.05 1.52s-1.99 4.16-3.31 4.11c-1.32-.05-3.01-4.33-3.01-4.33s-4.57-.61-4.93-1.87c-.36-1.27 3.19-4.2 3.19-4.2s-.83-4.53.26-5.27c1.1-.73 4.98 1.74 4.98 1.74Z" fill="url(#e)"/><path fill-rule="evenodd" clip-rule="evenodd" d="M10.252 12.93s3.88-2.1 4.87-1.32c.99.78-.11 5.05-.11 5.05s3.2 3.04 2.76 4.23c-.43 1.19-4.83 1.46-4.83 1.46s-1.9 3.98-3.17 3.93c-1.26-.04-2.88-4.15-2.88-4.15s-4.37-.58-4.72-1.79c-.35-1.21 3.05-4.02 3.05-4.02s-.8-4.34.25-5.04c1.06-.72 4.78 1.65 4.78 1.65Z" fill="url(#f)"/><path opacity=".5" fill-rule="evenodd" clip-rule="evenodd" d="M7.891 22.76s.99 2.47 1.85 2.58c.86.11 2.7-3.65 2.7-3.65s3.17-.75 3.64-1.62c.48-.88-2.02-3.4-2.02-3.4s1.37-3.54.97-4.55c0 0 .95 2.07-.24 4.52 0 0 3.17 3.09 2.78 4.19-.39 1.1-4.79 1.32-4.79 1.32s-1.12 3.81-2.85 3.92c-1.22.07-2.04-3.31-2.04-3.31Z" fill="#fff"/><path fill-rule="evenodd" clip-rule="evenodd" d="M6.992 16.52c.2.28.14.67-.14.88-.28.2-.67.14-.88-.14-.2-.28-.14-.67.14-.88.29-.2.68-.14.88.14Z" fill="#fff"/><path fill-rule="evenodd" clip-rule="evenodd" d="M30.372 6.13s6.5.83 7.03 2.63c.53 1.8-4.5 6-4.5 6s1.22 6.44-.33 7.5c-1.55 1.06-7.1-2.43-7.1-2.43s-5.75 3.15-7.23 2.01c-1.48-1.15.11-7.5.11-7.5s-4.78-4.49-4.14-6.26c.63-1.77 7.17-2.21 7.17-2.21s2.8-5.93 4.67-5.87c1.88.05 4.32 6.13 4.32 6.13Z" fill="url(#g)"/><path fill-rule="evenodd" clip-rule="evenodd" d="M29.422 7.36s5.34.68 5.77 2.16c.43 1.48-3.7 4.93-3.7 4.93s1 5.29-.27 6.15c-1.27.87-5.83-1.99-5.83-1.99s-4.72 2.59-5.94 1.65c-1.22-.94.09-6.16.09-6.16s-3.92-3.69-3.4-5.14c.52-1.45 5.89-1.81 5.89-1.81s2.29-4.87 3.83-4.82c1.55.04 3.56 5.03 3.56 5.03Z" fill="url(#h)"/><path fill-rule="evenodd" clip-rule="evenodd" d="M29.232 7.6s5.11.65 5.53 2.06c.41 1.42-3.54 4.72-3.54 4.72s.96 5.06-.26 5.89c-1.22.83-5.58-1.91-5.58-1.91s-4.52 2.48-5.68 1.58c-1.17-.9.09-5.9.09-5.9s-3.75-3.53-3.26-4.92c.5-1.39 5.64-1.74 5.64-1.74s2.2-4.66 3.67-4.62c1.47.06 3.39 4.84 3.39 4.84Z" fill="url(#i)"/><path opacity=".5" fill-rule="evenodd" clip-rule="evenodd" d="M20.292 15.32s-.74 3.02 0 3.71 5.05-1.63 5.05-1.63 3.51 1.45 4.56.94c1.05-.51.4-4.6.4-4.6s3.71-2.43 4.02-3.66c0 0-.51 2.61-3.31 4.13 0 0 .91 5.09-.22 5.87-1.12.78-5.45-2.01-5.45-2.01s-3.66 2.86-5.37 1.77c-1.2-.75.32-4.52.32-4.52Z" fill="#fff"/><path fill-rule="evenodd" clip-rule="evenodd" d="M23.691 8.79c0 .4-.33.73-.73.73-.4 0-.73-.33-.73-.73 0-.4.33-.73.73-.73.4-.01.73.32.73.73Z" fill="#fff"/><path fill-rule="evenodd" clip-rule="evenodd" d="M46.31 41.3c0 11.81-9.23 19.87-20.66 19.87S4.91 53.11 4.91 41.3s9.27-21.39 20.7-21.39 20.7 9.57 20.7 21.39Z" fill="url(#j)"/><path d="M25.61 19.91c11.43 0 20.7 9.58 20.7 21.39s-9.23 19.87-20.66 19.87S4.91 53.11 4.91 41.3c0-11.82 9.27-21.39 20.7-21.39Zm0-.91C13.69 19 4 29 4 41.3c0 11.84 9.31 20.78 21.65 20.78 12.3 0 21.57-8.93 21.57-20.78C47.22 29 37.53 19 25.61 19Z" fill="#fff"/><path fill-rule="evenodd" clip-rule="evenodd" d="M44.17 41c0 10.12-8.27 16.37-18.52 16.37S7.05 51.13 7.05 41s8.31-18.32 18.56-18.32c10.25 0 18.56 8.2 18.56 18.32Z" fill="url(#k)"/><path fill-rule="evenodd" clip-rule="evenodd" d="M28.91 55.91c-9.39 1.93-18.2-2.23-20.1-11.5-.14-.7-.24-1.41-.3-2.1v-.01c-.67-8.49 5.17-16.38 13.84-18.16 7.6-1.56 15.06 2.05 18.62 8.4a17.038 17.038 0 0 1 1.82 4.89c1.9 9.27-4.5 16.55-13.88 18.48Z" fill="url(#l)"/><path opacity=".2" fill-rule="evenodd" clip-rule="evenodd" d="M28.91 55.91c-9.39 1.93-18.2-2.23-20.1-11.5-.14-.7-.24-1.41-.3-2.1.37.79.94 5.27 5.67 7.4 8.84 3.98 21.13-.03 25.28-5.63 4.01-5.45 1.61-11.24 1.52-11.52.83 1.49 1.45 3.12 1.81 4.87 1.9 9.27-4.5 16.55-13.88 18.48Z" fill="url(#m)"/><path fill-rule="evenodd" clip-rule="evenodd" d="M15.86 33.14a1.71 1.71 0 1 1-3.419.002 1.71 1.71 0 0 1 3.419-.002ZM38.45 50.36c-1.96 1.78-4.06 2.66-4.7 1.96-.64-.7.44-2.71 2.4-4.49 1.96-1.78 4.06-2.66 4.7-1.96.63.69-.44 2.71-2.4 4.49Z" fill="#fff"/><path d="M30.7 42.54c0-.773-.207-1.447-.62-2.02a4.224 4.224 0 0 0-1.66-1.38 3.475 3.475 0 0 0 1.08-1.32c.253-.533.38-1.087.38-1.66a3.36 3.36 0 0 0-.36-1.56 3.49 3.49 0 0 0-.92-1.18 4.223 4.223 0 0 0-1.34-.74 4.848 4.848 0 0 0-1.58-.26c-.987 0-1.84.213-2.56.64a8.465 8.465 0 0 0-1.96 1.6l.02.02c.013.013.02.027.02.04.013 0 .033.027.06.08a1.309 1.309 0 0 1 .22.3c.04.053.067.08.08.08a11.946 11.946 0 0 1 .58.8c.133.187.253.36.36.52.12.147.187.22.2.22l.02.02c.093-.147.26-.307.5-.48.24-.187.5-.353.78-.5.28-.16.553-.287.82-.38.28-.107.513-.16.7-.16.373 0 .687.133.94.4.267.253.4.567.4.94a.75.75 0 0 1-.08.34c-.053.093-.1.173-.14.24a2.134 2.134 0 0 1-.84.66c-.333.147-.653.287-.96.42a2.36 2.36 0 0 0-.72.44c-.187.173-.24.427-.16.76-.027.027-.033.073-.02.14a.467.467 0 0 0 .08.12c.04.227.12.393.24.5.12.107.253.207.4.3.293.187.6.333.92.44.333.093.64.207.92.34.28.12.513.28.7.48.187.2.28.487.28.86 0 .547-.193.98-.58 1.3-.373.32-.82.48-1.34.48-.493 0-.893-.113-1.2-.34a4.686 4.686 0 0 1-.78-.76 9.753 9.753 0 0 0-.68-.76 1.076 1.076 0 0 0-.82-.34c-.4 0-.74.147-1.02.44-.28.293-.42.633-.42 1.02 0 .173.02.347.06.52.053.16.113.313.18.46.187.413.447.78.78 1.1.347.32.727.593 1.14.82.427.213.867.373 1.32.48.467.12.913.18 1.34.18.653 0 1.293-.113 1.92-.34a5.749 5.749 0 0 0 1.68-.94 4.71 4.71 0 0 0 1.18-1.48c.307-.573.46-1.207.46-1.9Z" fill="#fff"/><defs><linearGradient id="a" x1="41.523" y1="28.731" x2="41.101" y2="9.294" gradientUnits="userSpaceOnUse"><stop stop-color="#C1BDF1"/><stop offset="1" stop-color="#FBF9FE"/></linearGradient><linearGradient id="b" x1="34.14" y1="13.896" x2="48.486" y2="21.768" gradientUnits="userSpaceOnUse"><stop stop-color="#C44C25"/><stop offset="1" stop-color="#FF5E42"/></linearGradient><linearGradient id="d" x1="19.662" y1="21.971" x2="1.947" y2="13.962" gradientUnits="userSpaceOnUse"><stop stop-color="#C1BDF1"/><stop offset="1" stop-color="#FBF9FE"/></linearGradient><linearGradient id="e" x1="3.093" y1="22.226" x2="16.386" y2="12.684" gradientUnits="userSpaceOnUse"><stop stop-color="#C44C25"/><stop offset="1" stop-color="#FF5E42"/></linearGradient><linearGradient id="g" x1="32.003" y1="22.589" x2="20.648" y2="2.921" gradientUnits="userSpaceOnUse"><stop stop-color="#C1BDF1"/><stop offset="1" stop-color="#FBF9FE"/></linearGradient><linearGradient id="h" x1="16.106" y1="11.545" x2="35.221" y2="11.545" gradientUnits="userSpaceOnUse"><stop stop-color="#C44C25"/><stop offset="1" stop-color="#FF5E42"/></linearGradient><linearGradient id="j" x1="25.61" y1="61.164" x2="25.61" y2="19.909" gradientUnits="userSpaceOnUse"><stop stop-color="#C1BDF1"/><stop offset="1" stop-color="#FBF9FE"/></linearGradient><linearGradient id="k" x1="25.612" y1="57.378" x2="25.612" y2="22.679" gradientUnits="userSpaceOnUse"><stop stop-color="#C44C25"/><stop offset="1" stop-color="#FF5E42"/></linearGradient><linearGradient id="m" x1="8.512" y1="44.466" x2="43.123" y2="44.466" gradientUnits="userSpaceOnUse"><stop stop-color="#C77CBD"/><stop offset="1" stop-color="#974577"/></linearGradient><radialGradient id="c" cx="0" cy="0" r="1" gradientUnits="userSpaceOnUse" gradientTransform="rotate(28.756 -7.567 87.552) scale(7.69753)"><stop stop-color="#FFC62D"/><stop offset=".997" stop-color="#FF9200"/></radialGradient><radialGradient id="f" cx="0" cy="0" r="1" gradientUnits="userSpaceOnUse" gradientTransform="rotate(-35.674 28.336 -2.24) scale(7.69755)"><stop stop-color="#FFC62D"/><stop offset=".997" stop-color="#FF9200"/></radialGradient><radialGradient id="i" cx="0" cy="0" r="1" gradientUnits="userSpaceOnUse" gradientTransform="translate(23.627 8.14) scale(8.9921)"><stop stop-color="#FFC62D"/><stop offset=".997" stop-color="#FF9200"/></radialGradient><radialGradient id="l" cx="0" cy="0" r="1" gradientUnits="userSpaceOnUse" gradientTransform="translate(18.727 34.28) scale(16.8153)"><stop stop-color="#FFC62D"/><stop offset=".997" stop-color="#FF9200"/></radialGradient></defs></svg>