<svg width="52" height="63" viewBox="0 0 52 63" fill="none" xmlns="http://www.w3.org/2000/svg"><g clip-path="url(#a)"><path fill-rule="evenodd" clip-rule="evenodd" d="M47.07 15.72s4.54 3.3 4.19 4.87c-.35 1.57-5.85 2.65-5.85 2.65s-1.73 5.34-3.33 5.49c-1.6.16-4.33-4.75-4.33-4.75s-5.61 0-6.25-1.47c-.64-1.47 3.18-5.58 3.18-5.58s-1.73-5.34-.53-6.4c1.2-1.07 6.29 1.3 6.29 1.3s4.54-3.3 5.92-2.49c1.38.8.71 6.38.71 6.38Z" fill="url(#b)"/><path fill-rule="evenodd" clip-rule="evenodd" d="M45.84 16.25s3.73 2.71 3.44 3.99c-.28 1.29-4.8 2.18-4.8 2.18s-1.42 4.38-2.74 4.51c-1.31.13-3.55-3.9-3.55-3.9s-4.61 0-5.13-1.21c-.53-1.21 2.61-4.58 2.61-4.58s-1.42-4.38-.44-5.26c.99-.87 5.17 1.06 5.17 1.06s3.73-2.71 4.86-2.04c1.13.68.58 5.25.58 5.25Z" fill="#C4C4C4"/><path fill-rule="evenodd" clip-rule="evenodd" d="M48.9 20.18c-.27 1.24-4.6 2.08-4.6 2.08s-1.36 4.2-2.62 4.32c-1.22.13-3.27-3.49-3.39-3.72l-.01-.01s-4.41 0-4.92-1.15c-.5-1.16 2.5-4.39 2.5-4.39s-1.36-4.19-.42-5.04c.95-.84 4.95 1.02 4.95 1.02s3.56-2.59 4.66-1.95c1.09.64.55 5.02.55 5.02s3.57 2.59 3.3 3.82Z" fill="#464EA3"/><path fill-rule="evenodd" clip-rule="evenodd" d="M10.3 11.35s4.93-2.67 6.2-1.68c1.27.99-.13 6.42-.13 6.42s4.07 3.87 3.52 5.38c-.55 1.51-6.15 1.86-6.15 1.86s-2.42 5.06-4.03 5.01c-1.61-.06-3.67-5.28-3.67-5.28S.48 22.32.03 20.78c-.45-1.54 3.88-5.12 3.88-5.12s-1.01-5.53.32-6.43c1.33-.89 6.07 2.12 6.07 2.12Z" fill="#fff"/><path fill-rule="evenodd" clip-rule="evenodd" d="M10.25 12.68s4.05-2.19 5.09-1.38-.11 5.27-.11 5.27 3.34 3.17 2.89 4.41c-.45 1.24-5.05 1.52-5.05 1.52s-1.99 4.16-3.31 4.11c-1.32-.05-3.01-4.33-3.01-4.33s-4.57-.61-4.93-1.87c-.36-1.27 3.19-4.2 3.19-4.2s-.83-4.53.26-5.27c1.1-.73 4.98 1.74 4.98 1.74Z" fill="url(#c)"/><path fill-rule="evenodd" clip-rule="evenodd" d="M10.24 12.94s3.88-2.1 4.87-1.32c.99.78-.11 5.05-.11 5.05s3.2 3.04 2.76 4.23c-.43 1.19-4.83 1.46-4.83 1.46s-1.9 3.98-3.17 3.93c-1.26-.04-2.88-4.15-2.88-4.15s-4.37-.58-4.72-1.79c-.35-1.21 3.05-4.02 3.05-4.02s-.8-4.34.25-5.04c1.06-.72 4.78 1.65 4.78 1.65Z" fill="url(#d)"/><path opacity=".5" fill-rule="evenodd" clip-rule="evenodd" d="M7.88 22.77s.99 2.47 1.85 2.58c.86.11 2.7-3.65 2.7-3.65s3.17-.75 3.64-1.62c.48-.88-2.02-3.4-2.02-3.4s1.37-3.54.97-4.55c0 0 .95 2.07-.24 4.52 0 0 3.17 3.09 2.78 4.19-.39 1.1-4.79 1.32-4.79 1.32s-1.12 3.81-2.85 3.92c-1.22.07-2.04-3.31-2.04-3.31Z" fill="#fff"/><path fill-rule="evenodd" clip-rule="evenodd" d="M6.98 16.53c.2.28.14.67-.14.88-.28.2-.67.14-.88-.14-.2-.28-.14-.67.14-.88.29-.2.68-.14.88.14Z" fill="#fff"/><path fill-rule="evenodd" clip-rule="evenodd" d="M30.36 6.14s6.5.83 7.03 2.63c.53 1.8-4.5 6-4.5 6s1.22 6.44-.33 7.5c-1.55 1.06-7.1-2.43-7.1-2.43s-5.75 3.15-7.23 2.01c-1.48-1.15.11-7.5.11-7.5s-4.78-4.49-4.14-6.26c.64-1.77 7.17-2.21 7.17-2.21s2.8-5.93 4.67-5.87c1.88.05 4.32 6.13 4.32 6.13Z" fill="url(#e)"/><path fill-rule="evenodd" clip-rule="evenodd" d="M29.41 7.37s5.34.68 5.77 2.16c.43 1.48-3.7 4.93-3.7 4.93s1 5.29-.27 6.15c-1.27.87-5.83-1.99-5.83-1.99s-4.72 2.59-5.94 1.65c-1.22-.94.09-6.16.09-6.16s-3.92-3.69-3.4-5.14c.52-1.45 5.89-1.81 5.89-1.81s2.29-4.87 3.83-4.82c1.55.04 3.56 5.03 3.56 5.03Z" fill="url(#f)"/><path fill-rule="evenodd" clip-rule="evenodd" d="M29.22 7.61s5.11.65 5.53 2.06c.41 1.42-3.54 4.72-3.54 4.72s.96 5.06-.26 5.89c-1.22.83-5.58-1.91-5.58-1.91s-4.52 2.48-5.68 1.58c-1.17-.9.09-5.9.09-5.9s-3.75-3.53-3.26-4.92c.5-1.39 5.64-1.74 5.64-1.74s2.2-4.66 3.67-4.62c1.47.06 3.39 4.84 3.39 4.84Z" fill="url(#g)"/><path opacity=".5" fill-rule="evenodd" clip-rule="evenodd" d="M20.28 15.33s-.74 3.02 0 3.71 5.05-1.63 5.05-1.63 3.51 1.45 4.56.94c1.05-.51.4-4.6.4-4.6s3.71-2.43 4.02-3.66c0 0-.51 2.61-3.31 4.13 0 0 .91 5.09-.22 5.87-1.13.78-5.45-2.01-5.45-2.01s-3.66 2.86-5.37 1.77c-1.2-.75.32-4.52.32-4.52Z" fill="#fff"/><path fill-rule="evenodd" clip-rule="evenodd" d="M23.68 8.8c0 .4-.33.73-.73.73-.4 0-.73-.33-.73-.73 0-.4.33-.73.73-.73.4-.01.73.32.73.73Z" fill="#fff"/><path fill-rule="evenodd" clip-rule="evenodd" d="M45.91 42.06c0 11.81-9.23 19.87-20.66 19.87S4.51 53.87 4.51 42.06s9.27-21.39 20.7-21.39 20.7 9.58 20.7 21.39Z" fill="url(#h)"/><path d="M25.21 20.67c11.43 0 20.7 9.58 20.7 21.39s-9.23 19.87-20.66 19.87S4.51 53.87 4.51 42.06s9.27-21.39 20.7-21.39Zm0-.91c-11.92 0-21.61 10-21.61 22.3 0 11.85 9.31 20.78 21.65 20.78 12.3 0 21.57-8.93 21.57-20.78 0-12.3-9.69-22.3-21.61-22.3Z" fill="#fff"/><path fill-rule="evenodd" clip-rule="evenodd" d="M43.77 41.77c0 10.12-8.27 16.37-18.52 16.37s-18.6-6.25-18.6-16.37c0-10.12 8.31-18.33 18.56-18.33 10.25 0 18.56 8.2 18.56 18.33Z" fill="url(#i)"/><path fill-rule="evenodd" clip-rule="evenodd" d="M28.51 56.67c-9.39 1.93-18.2-2.23-20.1-11.5-.14-.7-.24-1.41-.3-2.1v-.01c-.67-8.49 5.17-16.38 13.84-18.16 7.6-1.56 15.06 2.05 18.62 8.4a17.038 17.038 0 0 1 1.82 4.89c1.9 9.28-4.5 16.55-13.88 18.48Z" fill="url(#j)"/><path opacity=".2" fill-rule="evenodd" clip-rule="evenodd" d="M28.51 56.67c-9.39 1.93-18.2-2.23-20.1-11.5-.14-.7-.24-1.41-.3-2.1.37.79.94 5.27 5.67 7.4 8.84 3.98 21.13-.03 25.28-5.63 4.01-5.45 1.61-11.24 1.52-11.52.83 1.49 1.45 3.12 1.81 4.87 1.9 9.28-4.5 16.55-13.88 18.48Z" fill="url(#k)"/><path d="M13.74 35.61a1.71 1.71 0 1 0 0-3.42 1.71 1.71 0 0 0 0 3.42Z" fill="#fff"/><path fill-rule="evenodd" clip-rule="evenodd" d="M38.05 51.12c-1.96 1.78-4.06 2.66-4.7 1.96-.64-.7.44-2.71 2.4-4.49 1.96-1.78 4.06-2.66 4.7-1.96.63.7-.44 2.71-2.4 4.49Z" fill="#fff"/><path d="M29.6 46v-2.8h-5.08c.387-.427.773-.873 1.16-1.34.4-.467.793-.953 1.18-1.46.267-.347.547-.72.84-1.12.293-.4.56-.807.8-1.22.24-.427.44-.853.6-1.28.16-.44.24-.88.24-1.32 0-.64-.133-1.213-.4-1.72a3.746 3.746 0 0 0-1.06-1.26 4.562 4.562 0 0 0-1.52-.78 5.404 5.404 0 0 0-1.72-.28c-1.413 0-2.627.46-3.64 1.38-.387.36-.72.793-1 1.3-.28.493-.42 1.04-.42 1.64 0 .44.127.813.38 1.12.253.307.613.46 1.08.46.253 0 .48-.087.68-.26a.675.675 0 0 0 .16-.18c.04-.08.087-.153.14-.22.16-.28.313-.567.46-.86.147-.293.313-.56.5-.8.2-.24.427-.433.68-.58.267-.16.593-.24.98-.24s.727.127 1.02.38c.307.24.46.56.46.96 0 .24-.087.533-.26.88-.16.333-.367.687-.62 1.06-.24.36-.5.713-.78 1.06-.28.347-.533.653-.76.92l-.3.36c-.12.16-.267.347-.44.56-.16.213-.333.433-.52.66-.173.213-.333.413-.48.6a69.574 69.574 0 0 1-.54.68 17.9 17.9 0 0 0-.68.72l-.68.72c-.107.133-.2.28-.28.44-.067.147-.1.313-.1.5 0 .453.167.787.5 1a2.1 2.1 0 0 0 1.12.32h8.3Z" fill="#fff"/></g><defs><linearGradient id="b" x1="41.511" y1="28.741" x2="41.089" y2="9.304" gradientUnits="userSpaceOnUse"><stop stop-color="#C1BDF1"/><stop offset="1" stop-color="#FBF9FE"/></linearGradient><linearGradient id="c" x1="3.082" y1="22.236" x2="16.375" y2="12.693" gradientUnits="userSpaceOnUse"><stop stop-color="#C44C25"/><stop offset="1" stop-color="#FF5E42"/></linearGradient><linearGradient id="e" x1="31.992" y1="22.599" x2="20.636" y2="2.93" gradientUnits="userSpaceOnUse"><stop stop-color="#C1BDF1"/><stop offset="1" stop-color="#FBF9FE"/></linearGradient><linearGradient id="f" x1="16.095" y1="11.555" x2="35.21" y2="11.555" gradientUnits="userSpaceOnUse"><stop stop-color="#C44C25"/><stop offset="1" stop-color="#FF5E42"/></linearGradient><linearGradient id="h" x1="25.211" y1="61.925" x2="25.211" y2="20.67" gradientUnits="userSpaceOnUse"><stop stop-color="#C1BDF1"/><stop offset="1" stop-color="#FBF9FE"/></linearGradient><linearGradient id="i" x1="25.213" y1="58.139" x2="25.213" y2="23.44" gradientUnits="userSpaceOnUse"><stop stop-color="#C44C25"/><stop offset="1" stop-color="#FF5E42"/></linearGradient><linearGradient id="k" x1="8.112" y1="45.227" x2="42.724" y2="45.227" gradientUnits="userSpaceOnUse"><stop stop-color="#C77CBD"/><stop offset="1" stop-color="#974577"/></linearGradient><radialGradient id="d" cx="0" cy="0" r="1" gradientUnits="userSpaceOnUse" gradientTransform="rotate(-35.674 28.345 -2.218) scale(7.69755)"><stop stop-color="#FFC62D"/><stop offset=".997" stop-color="#FF9200"/></radialGradient><radialGradient id="g" cx="0" cy="0" r="1" gradientUnits="userSpaceOnUse" gradientTransform="translate(23.615 8.15) scale(8.9921)"><stop stop-color="#FFC62D"/><stop offset=".997" stop-color="#FF9200"/></radialGradient><radialGradient id="j" cx="0" cy="0" r="1" gradientUnits="userSpaceOnUse" gradientTransform="translate(18.327 35.04) scale(16.8153)"><stop stop-color="#FFC62D"/><stop offset=".997" stop-color="#FF9200"/></radialGradient><clipPath id="a"><path fill="#fff" d="M0 0h51.28v62.83H0z"/></clipPath></defs></svg>