<svg width="64" height="64" viewBox="0 0 64 64" fill="none" xmlns="http://www.w3.org/2000/svg"><path d="M31.997 61.57C15.694 61.57 2.43 48.3 2.43 32.003c0-16.31 13.264-29.566 29.567-29.566 16.31 0 29.573 13.257 29.573 29.566 0 16.297-13.264 29.567-29.573 29.567Zm0-54.938c-13.986 0-25.365 11.373-25.365 25.365 0 13.992 11.385 25.371 25.365 25.371 13.992 0 25.378-11.386 25.378-25.371C57.368 18.01 45.989 6.632 31.997 6.632Z" fill="#B9CBE5"/><path d="M62.097 29.9h-8.842a21.345 21.345 0 0 0-19.16-19.149V1.903A1.902 1.902 0 0 0 32.19 0h-.383a1.902 1.902 0 0 0-1.902 1.903v8.842c-10.136.999-18.143 9.006-19.155 19.148H1.903A1.915 1.915 0 0 0 0 31.803v.388c0 1.05.854 1.903 1.903 1.903h8.842c1.011 10.143 9.018 18.15 19.154 19.148v8.843c0 1.055.854 1.902 1.903 1.902h.383a1.902 1.902 0 0 0 1.903-1.902v-8.836A21.345 21.345 0 0 0 53.255 34.1h8.842A1.902 1.902 0 0 0 64 32.198v-.39c0-1.055-.854-1.909-1.903-1.909Zm-13.044 0H34.094V14.952a17.157 17.157 0 0 1 14.96 14.946ZM29.9 14.952v14.946H14.946c.968-7.83 7.128-13.992 14.953-14.946ZM14.946 34.1H29.9v14.953c-7.825-.961-13.985-7.128-14.953-14.953Zm19.148 14.953V34.1h14.96a17.176 17.176 0 0 1-14.96 14.953Z" fill="#B9CBE5"/><path d="M42.422 32.003A10.42 10.42 0 0 1 31.99 42.428c-5.753 0-10.425-4.666-10.425-10.425s4.678-10.431 10.425-10.431c5.77-.006 10.43 4.672 10.43 10.431Z" fill="#FFC700"/><path d="M62.097 29.9h-8.842a21.343 21.343 0 0 0-6.16-13.013l-2.959 2.945A17.151 17.151 0 0 1 49.06 29.9H34.094v-.075l-2.87 2.857 2.87 2.87v-1.45h14.96a17.161 17.161 0 0 1-5.659 10.745l2.964 2.964a21.29 21.29 0 0 0 6.896-13.71h8.842A1.902 1.902 0 0 0 64 32.199v-.39c0-1.055-.854-1.909-1.903-1.909Z" fill="#899BC9"/><path d="M38.61 40.06a10.397 10.397 0 0 0 3.818-8.063c0-2.895-1.18-5.514-3.077-7.404l-8.127 8.088 7.386 7.38Z" fill="#FFA217"/><path d="M57.368 32.003c0 7.367-3.159 13.998-8.183 18.64l2.965 2.963c5.79-5.4 9.42-13.087 9.42-21.603 0-2.355-.283-4.64-.81-6.839l-8.843-8.848a25.233 25.233 0 0 1 5.451 15.687Z" fill="#899BC9"/><path d="m48.118 19.914 3.064.88 2.751-2.751-5.325-1.482-7.624 7.617 5.325 1.482 4.114-4.107-2.305-1.639ZM42.478 17.477l-.879-3.064 4.352-4.352 1.482 5.325-7.624 7.624-1.482-5.332 2.512-2.505 1.64 2.304Z" fill="#2ABAF3"/><path d="M32.901 32.732a1.167 1.167 0 0 1-1.645 0 1.167 1.167 0 0 1 0-1.646l16.893-16.893a1.167 1.167 0 0 1 1.646 0 1.167 1.167 0 0 1 0 1.645L32.9 32.732Z" fill="#464EA3"/></svg>