<svg width="16" height="15" viewBox="0 0 16 15" fill="none" xmlns="http://www.w3.org/2000/svg"><circle cx="5.675" cy="2.837" r="2.837" fill="#fff"/><circle cx="12.059" cy="3.547" r="2.128" fill="#fff"/><path fill-rule="evenodd" clip-rule="evenodd" d="m8.868 8.474.039.038c1.064 1.064 2.127 2.837 2.128 4.256 0-1.419-1.064-3.192-2.128-4.256a6.823 6.823 0 0 0-.04-.038ZM9.93 7.53c.626.63 1.233 1.445 1.693 2.313.454.859.83 1.893.83 2.924C15.096 12.761 16 12.68 16 11.633c0-1.134-.798-2.553-1.596-3.404-.798-.852-1.596-1.135-2.66-1.135-.694 0-1.271.117-1.813.437Z" fill="#fff"/><path d="M9.222 8.512C8.158 7.448 7.094 7.094 5.675 7.094s-2.472.343-3.547 1.418C1.053 9.588 0 11.35 0 12.77c0 1.418 1.419 1.419 5.675 1.418 4.256 0 5.675 0 5.675-1.418 0-1.42-1.064-3.193-2.128-4.257Z" fill="#fff"/></svg>
