<svg width="16" height="17" viewBox="0 0 16 17" fill="none" xmlns="http://www.w3.org/2000/svg"><path d="M11.354 1.576c-.444 1.216-.656 2.418.293 3.435 1.004 1.073 2.26.895 3.517.513 1.188 2.349 1.27 4.65-.812 6.555-2.486 2.274-5.436 3.729-8.625 4.72-.437.136-.86.054-1.264-.11-1.611-.67-2.977-1.646-3.926-3.141-.56-.888-.704-1.79-.328-2.814 1.086-2.95 2.52-5.675 4.623-8.017.813-.895 1.762-1.564 2.984-1.776 1.25-.218 2.41.062 3.538.635ZM5.508 5.271c-.218.335-.43.724-.696 1.065-.267.342-.26.635-.069 1.01.458.889.95 1.75 1.653 2.507.505-.533.997-1.051 1.448-1.53-.765-.99-1.544-2.014-2.336-3.052Zm5.948 5.825c-1.031-.744-2.035-1.475-3.073-2.226-.457.485-.942 1.01-1.448 1.55.827.799 1.837 1.386 3.04 1.618.068.014.156-.02.211-.061.43-.294.86-.594 1.27-.881Zm-2.99-3.244c.566-.6 1.105-1.174 1.659-1.768-.752-.71-1.585-1.394-2.657-1.68-.485-.13-.983-.144-1.448.177.656 1.202 1.469 2.26 2.445 3.271Zm3.68 2.732c.28-.28.382-.54.341-.902-.157-1.277-.99-2.144-1.823-3.073-.574.615-1.106 1.182-1.66 1.77.93.853 1.98 1.61 3.142 2.205Zm-8.12-2.957c-.607.765-.703 1.017-.505 1.693.232.806.69 1.482 1.216 2.117l1.051-1.051c-.594-.929-1.174-1.844-1.762-2.76Zm1.223 4.35c.607.505 1.25.908 1.994 1.113.744.212 1.427.11 2.014-.498-1.12-.342-2.062-.943-2.902-1.728-.382.375-.73.73-1.106 1.113Z" fill="#fff"/><path d="M14.844 4.854c-.942.438-2.151.3-2.684-.286-.56-.608-.635-1.77-.157-2.616 1.161.751 2.11 1.694 2.84 2.902Z" fill="#fff"/></svg>
