<svg width="16" height="16" viewBox="0 0 16 16" fill="none" xmlns="http://www.w3.org/2000/svg"><path d="M0 5.775c.354-.5.816-.59 1.38-.436.335.09.682.129 1.024.18.348.051.399-.032.506-.353.171-.5.374-.987.608-1.462.088-.18.278-.314.442-.442.31-.238.298-.488-.056-.648-.469-.212-.943-.417-1.437-.635.488-.738 1.14-1.212 1.924-1.52C5.517.023 6.694-.06 7.877.036c.847.07 1.683.23 2.524.353.05.006.101.038.152.044.341.058.417.244.341.584a113.868 113.868 0 0 0-.696 3.245c-.05.244-.164.32-.41.314-.804-.019-1.601 0-2.405-.006-.942-.007-1.638.385-2.037 1.276-.474 1.02-.949 2.033-1.41 3.046-.165.366-.051.552.34.564.444.007.88 0 1.361 0-.17.693-.323 1.354-.506 2.008-.044.16-.203.282-.266.365.24.622.475 1.225.702 1.821.14.366.361.687.728.796.424.122.886.25 1.322.211 1.031-.096 1.6-.756 1.683-1.815.02-.243 0-.487 0-.77-.158 0-.31-.005-.468 0-.31.027-.456-.108-.494-.429-.082-.776-.183-1.545-.284-2.315-.063-.474-.127-.52-.614-.52H4.726c.019-.076.019-.134.044-.185.393-.86.791-1.719 1.19-2.578.265-.565.727-.815 1.322-.815 2.417 0 4.827.007 7.244.013.797 0 1.348.385 1.455 1.084.05.308-.013.635-.044.95-.044.377-.127.756-.171 1.134-.032.295-.17.398-.462.391-1.278-.006-2.55-.006-3.828-.006-.48 0-.55.064-.55.551v2.18c0 .456-.082.54-.531.54h-.386c-.05.397-.07.782-.146 1.154-.284 1.481-1.328 2.25-2.802 2.103-1.184-.121-1.936-.673-2.24-1.892-.101-.404-.33-.77-.513-1.199-.221.16-.373.27-.518.385-.178.135-.342.135-.513-.02-.816-.724-1.638-1.442-2.442-2.18-.107-.096-.158-.288-.19-.442C.614 9.79.633 9.59.64 9.399c.013-.372.057-.738-.367-.956C.146 8.38.089 8.167 0 8.026v-2.25Z" fill="#fff"/><path d="M10.842 4.55c.266-1.064.526-2.116.798-3.2.873.392 1.828.7 2.587 1.38.133.121.24.307.285.48.107.43.177.872.266 1.34h-3.936ZM.689 4.582c.1-.872.423-1.565 1.145-2.033a.295.295 0 0 1 .234-.019c.38.154.753.32 1.075.468L2.22 4.832c-.443-.07-.962-.154-1.531-.25Z" fill="#fff"/></svg>
