<svg width="64" height="48" viewBox="0 0 64 48" fill="none" xmlns="http://www.w3.org/2000/svg">
    <path d="M63.3856 35.4399C61.2229 33.2812 57.9611 32.1946 54.4343 31.3818C50.4199 30.456 46.2423 30.058 42.0173 29.8074C37.0005 29.5103 31.9719 29.6355 26.95 29.5746C21.2911 29.5058 15.6628 29.2164 10.1483 28.3338C7.37063 27.8892 4.64396 27.3249 2.36068 26.1241C1.1426 25.4832 0.262587 24.6993 0.0145528 23.6537C-0.0415097 23.4198 0.0638199 23.3122 0.340735 23.1947C1.61658 22.6547 2.87884 22.1026 4.19376 21.5338C2.89753 18.6033 1.60639 15.6762 0.313553 12.749C2.49659 14.9211 5.78899 16.0143 9.3634 16.8315C13.3421 17.7418 17.4772 18.141 21.6598 18.3915C26.3843 18.6732 31.1191 18.5933 35.8521 18.6177C41.0115 18.6454 46.1421 18.8894 51.2132 19.5269C54.1013 19.8895 56.9469 20.364 59.558 21.2932C61.0428 21.821 62.39 22.4618 63.1596 23.4819C63.4298 23.8411 63.5759 24.2458 63.705 24.6405C63.7406 24.7503 63.5555 24.9344 63.3907 25.0209C62.2898 25.603 61.1805 26.1817 60.0422 26.7317C59.643 26.9246 59.5631 27.0898 59.7092 27.4036C60.9307 30.0292 62.1216 32.6625 63.321 35.2925C63.3431 35.3413 63.3635 35.3911 63.3856 35.4399Z" fill="#B9CBE5"/>
    <path d="M52.3623 16.1988C52.3623 18.7356 52.3623 21.2732 52.3623 23.8101C52.3637 35.4177 44.3986 45.3237 32.9847 47.922C32.5033 48.0318 32.0478 48.023 31.5693 47.9125C21.7583 45.6494 14.3824 38.0124 12.6178 28.2148C12.3727 26.8534 12.2508 25.4525 12.2412 24.0692C12.1999 18.276 12.2235 12.482 12.2235 6.6881C12.2235 6.12232 12.3704 5.93861 12.9139 5.83833C17.7101 4.95782 22.414 3.73916 26.9828 2.03743C28.5813 1.44237 30.1562 0.783638 31.7303 0.127099C32.126 -0.0383168 32.4575 -0.046368 32.8511 0.127099C37.1976 2.03816 41.6764 3.57594 46.2983 4.68628C48.077 5.11372 49.8763 5.45846 51.6675 5.83614C52.2153 5.95178 52.3623 6.11866 52.3623 6.68517C52.3623 9.85589 52.3623 13.0273 52.3623 16.1988Z" fill="#2ABAF3"/>
    <path d="M51.3623 23.8102V23.8101V23.7952V23.7804V23.7655V23.7506V23.7358V23.7209V23.706V23.6912V23.6763V23.6614V23.6466V23.6317V23.6169V23.602V23.5871V23.5723V23.5574V23.5425V23.5277V23.5128V23.4979V23.4831V23.4682V23.4533V23.4385V23.4236V23.4087V23.3939V23.379V23.3642V23.3493V23.3344V23.3196V23.3047V23.2898V23.275V23.2601V23.2452V23.2304V23.2155V23.2006V23.1858V23.1709V23.156V23.1412V23.1263V23.1114V23.0966V23.0817V23.0669V23.052V23.0371V23.0223V23.0074V22.9925V22.9777V22.9628V22.9479V22.9331V22.9182V22.9033V22.8885V22.8736V22.8587V22.8439V22.829V22.8141V22.7993V22.7844V22.7695V22.7547V22.7398V22.7249V22.7101V22.6952V22.6804V22.6655V22.6506V22.6358V22.6209V22.606V22.5912V22.5763V22.5614V22.5466V22.5317V22.5168V22.502V22.4871V22.4722V22.4574V22.4425V22.4276V22.4128V22.3979V22.383V22.3682V22.3533V22.3384V22.3236V22.3087V22.2938V22.279V22.2641V22.2492V22.2344V22.2195V22.2047V22.1898V22.1749V22.1601V22.1452V22.1303V22.1155V22.1006V22.0857V22.0709V22.056V22.0411V22.0263V22.0114V21.9965V21.9817V21.9668V21.9519V21.9371V21.9222V21.9073V21.8925V21.8776V21.8627V21.8479V21.833V21.8181V21.8033V21.7884V21.7735V21.7587V21.7438V21.7289V21.7141V21.6992V21.6843V21.6695V21.6546V21.6397V21.6249V21.61V21.5951V21.5803V21.5654V21.5505V21.5357V21.5208V21.5059V21.4911V21.4762V21.4613V21.4465V21.4316V21.4167V21.4019V21.387V21.3721V21.3573V21.3424V21.3276V21.3127V21.2978V21.283V21.2681V21.2532V21.2384V21.2235V21.2086V21.1938V21.1789V21.164V21.1492V21.1343V21.1194V21.1046V21.0897V21.0748V21.06V21.0451V21.0302V21.0154V21.0005V20.9856V20.9708V20.9559V20.941V20.9262V20.9113V20.8964V20.8816V20.8667V20.8518V20.837V20.8221V20.8072V20.7924V20.7775V20.7626V20.7478V20.7329V20.718V20.7032V20.6883V20.6734V20.6586V20.6437V20.6288V20.614V20.5991V20.5842V20.5694V20.5545V20.5396V20.5248V20.5099V20.495V20.4802V20.4653V20.4504V20.4356V20.4207V20.4058V20.391V20.3761V20.3612V20.3464V20.3315V20.3166V20.3018V20.2869V20.272V20.2572V20.2423V20.2274V20.2126V20.1977V20.1828V20.168V20.1531V20.1382V20.1234V20.1085V20.0936V20.0788V20.0639V20.049V20.0342V20.0193V20.0044V19.9896V19.9747V19.9598V19.945V19.9301V19.9152V19.9004V19.8855V19.8706V19.8558V19.8409V19.826V19.8112V19.7963V19.7814V19.7666V19.7517V19.7368V19.722V19.7071V19.6922V19.6774V19.6625V19.6476V19.6328V19.6179V19.603V19.5882V19.5733V19.5584V19.5436V19.5287V19.5138V19.499V19.4841V19.4692V19.4544V19.4395V19.4246V19.4098V19.3949V19.38V19.3652V19.3503V19.3354V19.3206V19.3057V19.2908V19.276V19.2611V19.2462V19.2314V19.2165V19.2016V19.1868V19.1719V19.157V19.1422V19.1273V19.1124V19.0976V19.0827V19.0678V19.053V19.0381V19.0232V19.0084V18.9935V18.9786V18.9638V18.9489V18.934V18.9192V18.9043V18.8894V18.8746V18.8597V18.8448V18.83V18.8151V18.8002V18.7854V18.7705V18.7556V18.7408V18.7259V18.7111V18.6962V18.6813V18.6665V18.6516V18.6367V18.6219V18.607V18.5921V18.5773V18.5624V18.5475V18.5327V18.5178V18.5029V18.4881V18.4732V18.4583V18.4435V18.4286V18.4137V18.3989V18.384V18.3691V18.3543V18.3394V18.3245V18.3097V18.2948V18.2799V18.2651V18.2502V18.2353V18.2205V18.2056V18.1907V18.1759V18.161V18.1461V18.1313V18.1164V18.1015V18.0867V18.0718V18.0569V18.0421V18.0272V18.0123V17.9975V17.9826V17.9677V17.9529V17.938V17.9231V17.9083V17.8934V17.8785V17.8637V17.8488V17.8339V17.8191V17.8042V17.7894V17.7745V17.7596V17.7448V17.7299V17.715V17.7002V17.6853V17.6704V17.6556V17.6407V17.6258V17.611V17.5961V17.5812V17.5664V17.5515V17.5366V17.5218V17.5069V17.492V17.4772V17.4623V17.4474V17.4326V17.4177V17.4028V17.388V17.3731V17.3582V17.3434V17.3285V17.3136V17.2988V17.2839V17.2691V17.2542V17.2393V17.2245V17.2096V17.1947V17.1799V17.165V17.1501V17.1353V17.1204V17.1055V17.0907V17.0758V17.0609V17.0461V17.0312V17.0163V17.0015V16.9866V16.9717V16.9569V16.942V16.9272V16.9123V16.8974V16.8826V16.8677V16.8528V16.838V16.8231V16.8082V16.7934V16.7785V16.7636V16.7488V16.7339V16.719V16.7042V16.6893V16.6744V16.6596V16.6447V16.6299V16.615V16.6001V16.5853V16.5704V16.5555V16.5407V16.5258V16.5109V16.4961V16.4812V16.4663V16.4515V16.4366V16.4217V16.4069V16.392V16.3771V16.3623V16.3474V16.3326V16.3177V16.3028V16.288V16.2731V16.2582V16.2434V16.2285V16.2136V16.1988V16.1802V16.1616V16.143V16.1244V16.1059V16.0873V16.0687V16.0501V16.0315V16.0129V15.9944V15.9758V15.9572V15.9386V15.92V15.9015V15.8829V15.8643V15.8457V15.8271V15.8085V15.79V15.7714V15.7528V15.7342V15.7156V15.697V15.6785V15.6599V15.6413V15.6227V15.6041V15.5855V15.567V15.5484V15.5298V15.5112V15.4926V15.4741V15.4555V15.4369V15.4183V15.3997V15.3811V15.3626V15.344V15.3254V15.3068V15.2882V15.2696V15.2511V15.2325V15.2139V15.1953V15.1767V15.1581V15.1396V15.121V15.1024V15.0838V15.0652V15.0466V15.0281V15.0095V14.9909V14.9723V14.9537V14.9352V14.9166V14.898V14.8794V14.8608V14.8422V14.8237V14.8051V14.7865V14.7679V14.7493V14.7307V14.7122V14.6936V14.675V14.6564V14.6378V14.6193V14.6007V14.5821V14.5635V14.5449V14.5263V14.5078V14.4892V14.4706V14.452V14.4334V14.4148V14.3963V14.3777V14.3591V14.3405V14.3219V14.3033V14.2848V14.2662V14.2476V14.229V14.2104V14.1919V14.1733V14.1547V14.1361V14.1175V14.0989V14.0804V14.0618V14.0432V14.0246V14.006V13.9874V13.9689V13.9503V13.9317V13.9131V13.8945V13.8759V13.8574V13.8388V13.8202V13.8016V13.783V13.7645V13.7459V13.7273V13.7087V13.6901V13.6715V13.653V13.6344V13.6158V13.5972V13.5786V13.56V13.5415V13.5229V13.5043V13.4857V13.4671V13.4486V13.43V13.4114V13.3928V13.3742V13.3556V13.3371V13.3185V13.2999V13.2813V13.2627V13.2442V13.2256V13.207V13.1884V13.1698V13.1512V13.1327V13.1141V13.0955V13.0769V13.0583V13.0397V13.0212V13.0026V12.984V12.9654V12.9468V12.9283V12.9097V12.8911V12.8725V12.8539V12.8353V12.8168V12.7982V12.7796V12.761V12.7424V12.7238V12.7053V12.6867V12.6681V12.6495V12.6309V12.6124V12.5938V12.5752V12.5566V12.538V12.5194V12.5009V12.4823V12.4637V12.4451V12.4265V12.408V12.3894V12.3708V12.3522V12.3336V12.315V12.2965V12.2779V12.2593V12.2407V12.2221V12.2036V12.185V12.1664V12.1478V12.1292V12.1106V12.0921V12.0735V12.0549V12.0363V12.0177V11.9992V11.9806V11.962V11.9434V11.9248V11.9062V11.8877V11.8691V11.8505V11.8319V11.8133V11.7948V11.7762V11.7576V11.739V11.7204V11.7018V11.6833V11.6647V11.6461V11.6275V11.6089V11.5904V11.5718V11.5532V11.5346V11.516V11.4974V11.4789V11.4603V11.4417V11.4231V11.4045V11.386V11.3674V11.3488V11.3302V11.3116V11.293V11.2745V11.2559V11.2373V11.2187V11.2001V11.1816V11.163V11.1444V11.1258V11.1072V11.0887V11.0701V11.0515V11.0329V11.0143V10.9957V10.9772V10.9586V10.94V10.9214V10.9028V10.8843V10.8657V10.8471V10.8285V10.8099V10.7913V10.7728V10.7542V10.7356V10.717V10.6984V10.6799V10.6613V10.6427V10.6241V10.6055V10.587V10.5684V10.5498V10.5312V10.5126V10.494V10.4755V10.4569V10.4383V10.4197V10.4011V10.3826V10.364V10.3454V10.3268V10.3082V10.2897V10.2711V10.2525V10.2339V10.2153V10.1968V10.1782V10.1596V10.141V10.1224V10.1038V10.0853V10.0667V10.0481V10.0295V10.0109V9.99236V9.97378V9.9552V9.93662V9.91804V9.89946V9.88088V9.8623V9.84372V9.82514V9.80655V9.78797V9.76939V9.75081V9.73223V9.71365V9.69507V9.67649V9.65791V9.63933V9.62075V9.60217V9.58359V9.56501V9.54642V9.52784V9.50926V9.49068V9.4721V9.45352V9.43494V9.41636V9.39778V9.3792V9.36062V9.34204V9.32346V9.30488V9.2863V9.26772V9.24914V9.23056V9.21198V9.1934V9.17482V9.15624V9.13766V9.11907V9.10049V9.08191V9.06333V9.04475V9.02617V9.00759V8.98901V8.97043V8.95185V8.93327V8.91469V8.89611V8.87753V8.85895V8.84037V8.82179V8.80321V8.78463V8.76605V8.74747V8.72889V8.71031V8.69173V8.67315V8.65457V8.63599V8.61741V8.59883V8.58025V8.56167V8.54309V8.52451V8.50593V8.48735V8.46877V8.45019V8.43161V8.41303V8.39445V8.37587V8.35729V8.33871V8.32013V8.30155V8.28297V8.26439V8.24582V8.22723V8.20866V8.19008V8.1715V8.15292V8.13434V8.11576V8.09718V8.0786V8.06002V8.04144V8.02286V8.00428V7.9857V7.96712V7.94854V7.92996V7.91138V7.8928V7.87422V7.85564V7.83707V7.81849V7.79991V7.78133V7.76275V7.74417V7.72559V7.70701V7.68843V7.66985V7.65127V7.63269V7.61411V7.59553V7.57696V7.55838V7.5398V7.52122V7.50264V7.48406V7.46548V7.4469V7.42832V7.40974V7.39116V7.37259V7.35401V7.33543V7.31685V7.29827V7.27969V7.26111V7.24253V7.22395V7.20538V7.1868V7.16822V7.14964V7.13106V7.11248V7.0939V7.07532V7.05675V7.03817V7.01959V7.00101V6.98243V6.96385V6.94527V6.92669V6.90812V6.88954V6.87096V6.85238V6.8338V6.81522V6.79664V6.7938C50.896 6.69581 50.4252 6.59914 49.9518 6.50193C48.6627 6.2372 47.3543 5.96852 46.0647 5.65862C41.3812 4.5335 36.8461 2.97599 32.4486 1.04252L32.4477 1.04215C32.3553 1.00143 32.3134 0.999912 32.297 1C32.2776 1.00011 32.2264 1.00359 32.1159 1.04974L32.1152 1.05004L31.99 1.10226C30.4604 1.74029 28.9087 2.38751 27.3318 2.97454L51.3623 23.8102ZM51.3623 23.8102C51.3637 34.9449 43.7275 44.4508 32.7627 46.9469L32.7624 46.947M51.3623 23.8102L32.7624 46.947M32.7624 46.947C32.4392 47.0207 32.137 47.0173 31.7944 46.9381L31.7941 46.9381M32.7624 46.947L31.7941 46.9381M31.7941 46.9381C22.3643 44.7629 15.2941 37.4329 13.602 28.0376L31.7941 46.9381ZM13.2412 24.0621L13.2412 24.0623C13.2504 25.3925 13.3676 26.7362 13.602 28.0376L13.2412 24.0621ZM13.2412 24.0621C13.2109 19.8182 13.2155 15.5755 13.2202 11.328M13.2412 24.0621L13.2202 11.328M13.2202 11.328C13.2218 9.81876 13.2234 8.30888 13.2235 6.79811M13.2202 11.328L13.2235 6.79811M13.2235 6.79811C18.0219 5.91087 22.7401 4.68481 27.3317 2.9746L13.2235 6.79811Z" stroke="white" stroke-opacity="0.5" stroke-width="2"/>
    <path d="M41.8121 8.38574C41.8511 8.42596 41.8835 8.48828 41.9303 8.50278C42.2854 8.61158 42.546 9.12689 42.4524 9.44274C42.3882 9.65869 42.2746 9.86409 42.1594 10.0599C41.8743 10.5436 41.5771 11.02 41.2812 11.4971C41.0976 11.7931 40.9048 12.0836 40.7215 12.38C40.4721 12.7829 40.2295 13.1897 39.9804 13.5929C39.6508 14.1257 39.3157 14.6552 38.9874 15.1886C38.7445 15.5833 38.5121 15.9845 38.2682 16.3782C38.0244 16.7715 37.7694 17.1579 37.5246 17.5506C37.2994 17.9116 37.082 18.2772 36.8598 18.6402C36.575 19.1054 36.2879 19.5689 36.0035 20.0341C35.7537 20.4423 35.5089 20.8537 35.2562 21.2599C35.0117 21.6529 34.7567 22.0393 34.5119 22.4317C34.2867 22.7923 34.0697 23.1583 33.8474 23.521C33.563 23.9855 33.2762 24.4487 32.9918 24.9136C32.7417 25.3227 32.4966 25.7352 32.2439 26.1427C31.9192 26.6662 31.5853 27.1839 31.2619 27.7081C31.0187 28.1021 30.7886 28.5043 30.5467 28.8993C30.3618 29.2012 30.1647 29.4953 29.9781 29.7963C29.7317 30.194 29.4967 30.5991 29.2449 30.9935C28.9078 31.5216 28.5834 32.0607 28.2077 32.5598C27.9393 32.9162 27.5537 33.1454 27.1409 33.3356C26.6313 33.5703 26.1043 33.6205 25.5655 33.567C25.3177 33.5423 25.0582 33.4711 24.8385 33.3547C24.2562 33.0461 23.688 32.7092 23.1227 32.3689C22.5515 32.0251 21.9905 31.6641 21.4256 31.3093C20.9581 31.0155 20.4914 30.7215 20.0279 30.4218C19.9938 30.3997 19.9608 30.312 19.9768 30.2859C20.2861 29.7799 20.605 29.28 20.9172 28.7759C21.1666 28.3734 21.4105 27.9675 21.6563 27.5627C21.7257 27.4479 21.8187 27.4875 21.8966 27.5363C22.2776 27.7753 22.6533 28.0223 23.0334 28.2629C23.5227 28.5729 24.0107 28.8851 24.5063 29.1854C25.0061 29.4881 25.5501 29.678 26.1347 29.6747C26.4781 29.6727 26.8215 29.6318 27.1599 29.5115C27.6486 29.3374 28.0826 29.0888 28.4234 28.7057C28.6715 28.4268 28.8757 28.1063 29.0832 27.7931C29.2904 27.4799 29.476 27.1525 29.6731 26.8324C29.9163 26.4381 30.1621 26.0454 30.4056 25.6514C30.6004 25.3363 30.7945 25.0204 30.9876 24.7039C31.24 24.2905 31.4878 23.8741 31.7434 23.4629C32.0278 23.005 32.3228 22.5536 32.6062 22.095C32.8929 21.6312 33.1689 21.161 33.4533 20.6958C33.6353 20.3981 33.8271 20.1067 34.0101 19.8093C34.2585 19.4057 34.5004 18.9982 34.7489 18.595C35.069 18.0751 35.394 17.5581 35.7138 17.0382C35.9649 16.6297 36.2087 16.2166 36.4604 15.8088C36.6375 15.5216 36.8257 15.2411 37.0035 14.9539C37.2584 14.5418 37.5069 14.1254 37.7615 13.7126C38.0849 13.1884 38.4139 12.6675 38.737 12.1429C38.9851 11.7397 39.2247 11.3309 39.4734 10.928C39.6567 10.6313 39.8521 10.3425 40.0361 10.0461C40.2803 9.65242 40.5065 9.2469 40.766 8.86413C40.8642 8.71939 41.0351 8.6251 41.1712 8.50608C41.2131 8.46948 41.2498 8.42662 41.2888 8.38673C41.4629 8.38574 41.6374 8.38574 41.8121 8.38574Z" fill="white"/>
    <path d="M22.8278 8.38574C22.852 8.4197 22.87 8.47575 22.9011 8.48432C23.1875 8.56312 23.3191 8.80181 23.4615 9.02667C23.7234 9.44043 23.9813 9.85716 24.2373 10.2752C24.5505 10.7862 24.8579 11.3009 25.1718 11.8119C25.4225 12.2201 25.6814 12.623 25.9325 13.0311C26.2552 13.5557 26.5707 14.0851 26.8948 14.6087C27.1435 15.0109 27.4041 15.4056 27.6532 15.8075C27.8371 16.1039 28.0077 16.4088 28.19 16.7062C28.4352 17.1055 28.6875 17.5004 28.934 17.899C29.1202 18.2 29.2993 18.5057 29.4865 18.8064C29.7425 19.2178 30.0063 19.6247 30.2613 20.0368C30.568 20.5326 30.8727 21.0298 31.168 21.5326C31.2007 21.5883 31.1958 21.6997 31.1614 21.7564C30.8891 22.2088 30.6053 22.6539 30.3258 23.1019C30.3087 23.1293 30.3015 23.1629 30.2881 23.1926C30.2364 23.3086 30.1513 23.3241 30.0829 23.219C29.931 22.9859 29.7896 22.7462 29.6423 22.5101C29.3916 22.1082 29.1379 21.708 28.8885 21.3054C28.7019 21.0044 28.5222 20.6995 28.336 20.3981C28.0843 19.9906 27.8273 19.5857 27.5763 19.1779C27.3016 18.7318 27.0326 18.2821 26.7576 17.8361C26.5118 17.4371 26.2598 17.0422 26.014 16.6436C25.6965 16.1292 25.3842 15.6116 25.0667 15.0973C24.7714 14.6192 24.4706 14.1448 24.176 13.6664C23.9816 13.3506 23.798 13.0282 23.6026 12.7133C23.3587 12.3203 23.1054 11.9332 22.8609 11.5409C22.6763 11.2448 22.4992 10.9438 22.3182 10.6451C22.1653 10.3932 22.0174 10.1384 21.8573 9.89112C21.5408 9.40219 21.5797 8.95809 22.0396 8.57202C22.0753 8.54202 22.1309 8.53707 22.1692 8.50938C22.2183 8.4741 22.2592 8.42761 22.3038 8.38607C22.4786 8.38574 22.653 8.38574 22.8278 8.38574Z" fill="white"/>
    <path d="M29.8652 38.0589C29.8095 38.0203 29.7585 37.9626 29.6969 37.9464C29.2773 37.8353 29.0168 37.5558 28.8246 37.1769C28.6495 36.8308 28.6469 36.4655 28.7336 36.1196C28.8485 35.6627 29.15 35.3366 29.5922 35.1342C29.8393 35.0211 30.0848 35.0161 30.3395 35.0161C31.5172 35.0151 32.6952 35.0247 33.8729 35.0118C34.4611 35.0053 34.8971 35.2575 35.2136 35.7329C35.3979 36.0098 35.4391 36.3296 35.4175 36.6616C35.3806 37.2346 35.0834 37.6273 34.597 37.8911C34.4758 37.9567 34.3449 38.0038 34.2182 38.0592C32.7672 38.0589 31.3162 38.0589 29.8652 38.0589Z" fill="white"/>
    <path d="M38.1443 33.5822C37.7446 33.6046 37.377 33.4889 37.0091 33.3455C36.2766 33.0599 35.7934 32.515 35.4049 31.8566C35.1614 31.4441 34.8979 31.0435 34.6472 30.6354C34.4105 30.2503 34.1817 29.8603 33.9444 29.4755C33.7045 29.0861 33.4586 28.7004 33.2145 28.3133C33.1189 28.1617 33.0132 28.0156 32.9277 27.8584C32.9019 27.8112 32.9051 27.7212 32.9336 27.6751C33.2161 27.2165 33.5051 26.7615 33.7961 26.3085C33.9522 26.0655 33.9552 26.0681 34.1218 26.3306C34.4079 26.7809 34.692 27.2329 34.9827 27.6803C35.202 28.0179 35.4095 28.3664 35.6602 28.679C35.9113 28.9915 36.2559 29.1946 36.6153 29.375C37.0199 29.5777 37.4487 29.6727 37.888 29.6707C38.2087 29.6694 38.5377 29.6084 38.848 29.5204C39.4699 29.3446 39.9763 28.9417 40.5121 28.5982C40.8126 28.4057 41.1216 28.2263 41.4253 28.0387C41.6787 27.8821 41.932 27.7258 42.1811 27.5623C42.3415 27.4568 42.3916 27.4726 42.494 27.6408C42.6895 27.9619 42.8993 28.2738 43.0976 28.5929C43.279 28.8847 43.4501 29.1831 43.6305 29.4755C43.7958 29.7436 43.9703 30.0063 44.1323 30.2763C44.1506 30.3067 44.129 30.3967 44.0989 30.4158C43.6695 30.6878 43.2331 30.9496 42.8024 31.2199C42.2741 31.5513 41.7507 31.8902 41.2227 32.2215C40.8427 32.4602 40.4607 32.696 40.0748 32.9251C39.7871 33.0959 39.5069 33.2953 39.1969 33.4074C38.8654 33.5274 38.5027 33.5604 38.1534 33.6313C38.1505 33.6148 38.1475 33.5983 38.1443 33.5822Z" fill="white"/>
    <path d="M19.2999 25.9668C19.4367 26.0367 19.6314 26.1264 19.8164 26.2325C20.0085 26.343 20.1872 26.4768 20.38 26.586C20.5031 26.6559 20.5335 26.7389 20.4622 26.854C20.1777 27.3129 19.8871 27.7676 19.6039 28.2275C19.3614 28.6218 19.1231 29.0191 18.8891 29.4184C18.7843 29.5971 18.7414 29.6102 18.5653 29.4972C18.2829 29.3155 17.9961 29.1404 17.713 28.9598C17.4682 28.8035 17.3749 28.4233 17.5268 28.1728C17.8348 27.6647 18.1487 27.1606 18.4616 26.6555C18.5562 26.5029 18.6527 26.3516 18.7532 26.2029C18.8658 26.0367 19.0439 26.0041 19.2999 25.9668Z" fill="white"/>
    <path d="M46.6816 28.4515C46.6731 28.7819 46.4529 28.9355 46.2247 29.0832C45.9753 29.2447 45.7275 29.4089 45.4728 29.5619C45.4378 29.583 45.3413 29.5629 45.318 29.5299C45.1933 29.3516 45.0833 29.163 44.9675 28.9784C44.7125 28.5725 44.4552 28.1683 44.2025 27.7611C44.0159 27.4598 43.8336 27.1558 43.6529 26.8512C43.5894 26.7443 43.6087 26.6599 43.7253 26.592C43.9731 26.4473 44.2185 26.2983 44.4581 26.1407C44.8464 25.8852 45.2418 25.9518 45.484 26.3662C45.8332 26.9633 46.2083 27.5448 46.5658 28.1373C46.6221 28.2306 46.6437 28.346 46.6816 28.4515Z" fill="white"/>
</svg>
