<svg width="34" height="34" viewBox="0 0 34 34" fill="none" xmlns="http://www.w3.org/2000/svg"><circle cx="17" cy="17" r="17" fill="#ECF6FF"/><circle cx="17" cy="17" r="14" fill="#fff"/><path d="M24.714 12.446c-.318.281-.62.55-.922.814-1.46 1.28-2.921 2.556-4.381 3.832-.72.628-1.442 1.25-2.164 1.871-.312.268-.54.245-.843-.033-.967-.883-1.941-1.759-2.915-2.638l-4.18-3.77c-.039-.036-.077-.076-.13-.129.219-.215.476-.31.753-.37.086-.016.178-.023.268-.023h13.598c.363 0 .675.116.916.446Z" fill="#464EA3"/><path d="M24.104 23H9.878c.064-.06.1-.096.137-.129l4.82-3.977c.105-.09.17-.096.277.003.452.423.917.836 1.375 1.253.223.205.474.205.735-.017.382-.324.757-.654 1.136-.982.175-.152.35-.3.531-.456 1.73 1.432 3.455 2.854 5.215 4.305ZM24.963 13.379c.076.585.025 8.745-.06 8.96-1.744-1.438-3.478-2.87-5.234-4.322l5.294-4.638ZM9.038 22.296c-.013-.119-.038-.235-.038-.354v-8.415c0-.026.006-.052.013-.125l5.195 4.688-5.119 4.226-.05-.02Z" fill="#464EA3"/></svg>