<svg width="34" height="34" viewBox="0 0 34 34" fill="none" xmlns="http://www.w3.org/2000/svg"><circle cx="17" cy="17" r="17" fill="#ECF6FF"/><circle cx="17" cy="17" r="14" fill="#fff"/><path d="M14.399 9c.079.02.16.034.238.059.352.113.588.359.742.685.25.525.43 1.074.57 1.636.096.38.189.764.246 1.152.074.487-.126.859-.549 1.116-.305.186-.637.31-.964.448l-.529.22c-.215.088-.29.255-.216.476.334 1 .78 1.95 1.314 2.859a15.776 15.776 0 0 0 2.788 3.52c.07.068.143.128.244.138.145.015.25-.047.341-.156.189-.22.376-.44.577-.647.218-.225.468-.413.76-.534.353-.15.7-.15 1.033.06.789.494 1.518 1.06 2.14 1.756.12.136.227.287.32.444.255.43.227.86-.047 1.273a3.066 3.066 0 0 1-1.05.958c-1.05.604-2.15.68-3.295.32-.672-.21-1.267-.568-1.85-.95-1.197-.782-2.213-1.757-3.083-2.886-.977-1.265-1.782-2.63-2.344-4.13a12.646 12.646 0 0 1-.708-2.79 6.982 6.982 0 0 1-.056-1.536 3.78 3.78 0 0 1 1.091-2.367c.445-.455.96-.81 1.566-1.017.137-.048.285-.073.428-.107h.293Z" fill="#464EA3"/></svg>