<svg width="33" height="32" viewBox="0 0 33 32" fill="none" xmlns="http://www.w3.org/2000/svg"><path d="M16.42 32c-8.836 0-16-7.163-16-16s7.164-16 16-16c8.837 0 16 7.163 16 16s-7.163 16-16 16Z" fill="url(#a)"/><path d="M19.502 23.4c-.325-.185-.688-.325-.967-.564a42.904 42.904 0 0 1-2.006-1.843c-.262-.254-.456-.216-.704.002-.473.417-.951.828-1.448 1.215-.716.556-1.563.324-1.88-.532-.358-.97-.657-1.963-1.018-2.933-.08-.213-.273-.452-.477-.54-.796-.35-1.618-.637-2.427-.957-.617-.244-1.153-.585-1.154-1.334-.001-.743.455-1.146 1.119-1.421 4.165-1.726 8.323-3.469 12.484-5.204.206-.085.415-.166.63-.224 1.075-.294 1.942.445 1.736 1.538-.495 2.626-1.032 5.245-1.553 7.868-.234 1.175-.461 2.353-.706 3.527-.17.81-.823 1.336-1.63 1.402ZM9.426 15.863c.869.345 1.617.664 2.384.935.208.073.515.083.698-.018 2.13-1.19 4.246-2.41 6.37-3.613.144-.08.326-.093.49-.137l.157.277c-.628.573-1.267 1.136-1.884 1.722-.632.602-1.2 1.277-1.871 1.83-1.084.896-1.552 2.047-1.664 3.483.334-.271.611-.507.9-.73.9-.697 1.572-.68 2.433.075.69.608 1.366 1.232 2.133 1.927l2.182-10.894-12.328 5.143Z" fill="#fff"/><defs><linearGradient id="a" x1="16.421" y1="0" x2="16.421" y2="32" gradientUnits="userSpaceOnUse"><stop stop-color="#2FA6E2"/><stop offset="1" stop-color="#0A80BB"/></linearGradient></defs></svg>