<svg width="16" height="15" viewBox="0 0 16 15" fill="none" xmlns="http://www.w3.org/2000/svg"><path d="M12.08 14.4c-.323-.185-.687-.325-.966-.564a42.903 42.903 0 0 1-2.005-1.843c-.263-.254-.457-.216-.705.002-.472.417-.951.829-1.448 1.215-.716.556-1.563.324-1.88-.532-.358-.97-.657-1.963-1.018-2.933-.08-.213-.273-.452-.477-.54-.795-.35-1.618-.637-2.426-.957C.537 8.004 0 7.663 0 6.914c-.001-.743.455-1.146 1.119-1.421C5.284 3.767 9.442 2.024 13.604.289c.205-.085.415-.166.63-.224 1.074-.294 1.941.445 1.736 1.538-.496 2.626-1.033 5.245-1.554 7.868-.234 1.175-.461 2.353-.706 3.527-.17.81-.823 1.337-1.63 1.402ZM2.006 6.863c.869.345 1.617.664 2.384.935.208.073.515.083.698-.018 2.13-1.19 4.246-2.41 6.37-3.613.144-.08.326-.093.49-.138l.157.278c-.628.573-1.267 1.136-1.883 1.722-.633.602-1.2 1.277-1.872 1.83-1.084.896-1.552 2.047-1.664 3.483.334-.272.611-.507.9-.73.9-.697 1.572-.68 2.433.075.69.608 1.366 1.232 2.133 1.927L14.333 1.72 2.005 6.863Z" fill="#95B0DA"/></svg>