<svg width="24" height="14" viewBox="0 0 24 14" fill="none" xmlns="http://www.w3.org/2000/svg"><path d="M23.03.95c.162-.547 0-.95-.779-.95h-2.577c-.656 0-.958.346-1.12.73 0 0-1.312 3.199-3.167 5.273-.6.599-.875.791-1.203.791-.162 0-.411-.192-.411-.739V.949c0-.656-.184-.949-.727-.949H8.995c-.411 0-.656.306-.656.59 0 .622.927.766 1.024 2.516v3.798c0 .831-.15.984-.477.984-.875 0-3.002-3.211-4.262-6.886C4.371.289 4.121 0 3.461 0H.884C.149 0 0 .346 0 .73c0 .683.875 4.074 4.073 8.554C6.203 12.342 9.205 14 11.935 14c1.64 0 1.842-.367 1.842-1.002 0-2.922-.149-3.198.674-3.198.38 0 1.037.192 2.568 1.667 1.75 1.75 2.039 2.533 3.019 2.533h2.576c.735 0 1.107-.367.893-1.094-.49-1.527-3.802-4.668-3.95-4.878-.381-.49-.272-.709 0-1.146.004-.004 3.15-4.432 3.473-5.933Z" fill="#95B0DA"/></svg>