<svg width="18" height="18" viewBox="0 0 18 18" fill="none" xmlns="http://www.w3.org/2000/svg"><path fill-rule="evenodd" clip-rule="evenodd" d="M17.77 8.554C17.65 3.93 13.85.222 9.16.222 4.527.222.752 3.846.55 8.402c0 .127-.008.253-.008.38a8.48 8.48 0 0 0 1.236 4.413L.222 17.786l4.776-1.513A8.604 8.604 0 0 0 9.16 17.34c4.758 0 8.618-3.825 8.618-8.55 0-.084 0-.16-.009-.236Zm-8.61 7.407a7.196 7.196 0 0 1-3.986-1.193l-2.783.89.9-2.673a7.117 7.117 0 0 1-1.345-4.91c.353-3.64 3.455-6.49 7.205-6.49 3.8 0 6.928 2.925 7.223 6.625.016.185.025.37.025.563.008 3.968-3.246 7.188-7.24 7.188Z" fill="#95B0DA"/><path fill-rule="evenodd" clip-rule="evenodd" d="M13.111 10.505c-.21-.101-1.252-.614-1.446-.681-.193-.076-.336-.101-.48.1-.142.211-.546.682-.672.816-.126.143-.243.16-.462.05-.21-.1-.891-.319-1.698-1.042-.623-.555-1.051-1.236-1.178-1.446-.117-.21-.008-.32.093-.429.1-.1.21-.244.32-.37l.075-.1c.05-.076.084-.152.135-.253.075-.143.033-.26-.017-.37-.05-.1-.48-1.135-.656-1.555-.177-.42-.353-.345-.48-.345-.117 0-.26-.017-.403-.017a.77.77 0 0 0-.563.26c-.194.211-.74.716-.74 1.75 0 .244.042.487.11.714.21.74.672 1.346.756 1.455.1.134 1.463 2.32 3.607 3.17 2.152.832 2.152.555 2.54.521.386-.034 1.252-.505 1.42-1 .177-.488.177-.909.126-1.001-.042-.076-.176-.126-.387-.227Z" fill="#95B0DA"/></svg>