<svg width="33" height="32" viewBox="0 0 33 32" fill="none" xmlns="http://www.w3.org/2000/svg"><path d="M16.42 32c-8.836 0-16-7.163-16-16s7.164-16 16-16c8.837 0 16 7.163 16 16s-7.163 16-16 16Z" fill="#57CE63"/><path fill-rule="evenodd" clip-rule="evenodd" d="M25.19 15.554c-.118-4.624-3.918-8.332-8.61-8.332-4.632 0-8.407 3.624-8.609 8.18 0 .127-.008.253-.008.38a8.48 8.48 0 0 0 1.235 4.413l-1.555 4.591 4.776-1.513a8.604 8.604 0 0 0 4.162 1.067c4.758 0 8.617-3.825 8.617-8.55 0-.084 0-.16-.008-.236Zm-8.61 7.408a7.196 7.196 0 0 1-3.985-1.194l-2.783.89.9-2.673a7.117 7.117 0 0 1-1.345-4.91c.353-3.64 3.455-6.49 7.205-6.49 3.8 0 6.928 2.925 7.222 6.625.017.184.026.37.026.563.008 3.968-3.246 7.189-7.24 7.189Z" fill="#fff"/><path fill-rule="evenodd" clip-rule="evenodd" d="M20.532 17.505c-.21-.101-1.253-.614-1.446-.681-.193-.076-.336-.101-.48.1-.142.211-.546.682-.672.816-.126.143-.244.16-.462.05-.21-.1-.891-.319-1.699-1.042-.622-.555-1.05-1.236-1.177-1.446-.117-.21-.008-.32.093-.429.1-.1.21-.244.32-.37l.075-.1c.05-.076.084-.152.135-.253.075-.143.033-.26-.017-.37-.05-.1-.48-1.135-.656-1.555-.177-.42-.353-.345-.48-.345-.117 0-.26-.017-.403-.017a.77.77 0 0 0-.563.26c-.194.211-.74.716-.74 1.75 0 .244.042.487.11.714.21.74.672 1.346.756 1.455.1.134 1.463 2.32 3.607 3.17 2.152.832 2.152.555 2.539.521.387-.034 1.253-.505 1.42-1 .177-.488.177-.909.127-1.001-.042-.076-.177-.126-.387-.227Z" fill="#fff"/></svg>