<svg width="169" height="69" viewBox="0 0 169 69" fill="none" xmlns="http://www.w3.org/2000/svg"><mask id="a" style="mask-type:alpha" maskUnits="userSpaceOnUse" x="0" y="0" width="169" height="69"><path d="M39.702 1.914c.44.699.724 1.588.85 2.667.315 2.223.441 4.51.378 6.86 0 2.286.032 4.54.095 6.763v7.717c.063 2.54.094 5.113.094 7.717v8.097h4.064c.693 0 1.417.096 2.173.286a5.849 5.849 0 0 1 3.686 2.191c.44.572.693 1.27.756 2.096 0 2.032-.63 3.43-1.89 4.192-1.26.698-2.772 1.111-4.536 1.238-.126 0-.41.032-.85.096H41.78c-.378 0-.599-.064-.662-.191v8.86c0 .889-.063 1.778-.189 2.667a8.071 8.071 0 0 1-.756 2.382 3.848 3.848 0 0 1-1.512 1.81c-.315.19-.724.35-1.228.476-.441.064-.945.127-1.512.19-.567.064-1.134.096-1.701.096a6.87 6.87 0 0 1-1.323-.286c-1.134-.38-1.859-1.175-2.174-2.381a28.433 28.433 0 0 1-.661-3.525v-5.145c0-1.206-.032-2.286-.095-3.239-.063-.952-.157-1.429-.283-1.429H13.053c-1.827 0-3.749-.032-5.765-.095-2.016-.063-3.748-.635-5.197-1.715C.957 49.484.295 48.563.106 47.547a6.617 6.617 0 0 1 .19-3.144c.377-1.08.913-2.128 1.606-3.144a64.272 64.272 0 0 1 1.984-2.763 213.365 213.365 0 0 0 6.899-9.908c2.268-3.366 4.536-6.7 6.804-10.002a103.13 103.13 0 0 1 3.874-4.954 58.075 58.075 0 0 0 3.875-4.954 122.59 122.59 0 0 1 2.835-4.097 10.943 10.943 0 0 1 3.969-3.239C33.654.644 35.102.294 36.489.294c1.386 0 2.457.54 3.213 1.62Zm-9.356 17.148L14.66 41.354h15.687V19.062ZM84.583 68.124c-1.134 0-2.3-.063-3.497-.19a17.045 17.045 0 0 1-3.402-.953 23.657 23.657 0 0 1-4.914-2.763 31.086 31.086 0 0 1-4.158-4.001c-3.024-3.43-5.323-7.463-6.898-12.099-1.575-4.7-2.363-9.463-2.363-14.29 0-6.605 1.26-12.988 3.78-19.148a28.826 28.826 0 0 1 1.701-3.43 33.667 33.667 0 0 1 2.457-3.43 33.389 33.389 0 0 1 2.835-3.048c1.008-.89 2.016-1.556 3.024-2A82.578 82.578 0 0 1 77.684.865C79.7.231 81.968-.054 84.488.01c2.52.063 4.82.349 6.899.857 2.898.699 5.386 1.969 7.465 3.81 2.079 1.779 3.843 3.938 5.292 6.479 1.449 2.477 2.583 5.208 3.402 8.193a60.881 60.881 0 0 1 1.796 8.955c.252 2.032.346 4.064.283 6.097a65.892 65.892 0 0 1-.472 6.002 84.36 84.36 0 0 1-.945 5.525 36.648 36.648 0 0 1-1.323 5.335 28.797 28.797 0 0 1-2.174 4.954 21.069 21.069 0 0 1-3.307 4.287c-2.394 2.35-5.009 4.191-7.844 5.525-2.772 1.27-5.764 1.969-8.977 2.096Zm-.095-55.54a12.5 12.5 0 0 0-2.646.286c-.819.127-1.606.444-2.362.952-.882.572-1.67 1.27-2.363 2.096a17.182 17.182 0 0 0-1.795 2.572 23.436 23.436 0 0 0-2.74 7.336 41.516 41.516 0 0 0-.757 7.907c0 2.73.284 5.557.85 8.479.63 2.921 1.733 5.589 3.308 8.002a15.29 15.29 0 0 0 2.646 3.049c1.071.825 2.3 1.428 3.686 1.81 1.26.317 2.52.412 3.78.285a8.484 8.484 0 0 0 3.685-1.238 12.567 12.567 0 0 0 4.347-4.573 22.89 22.89 0 0 0 2.363-6.192c.567-2.223.882-4.51.945-6.86.126-2.35.126-4.477 0-6.382-.126-1.905-.441-3.906-.945-6.002-.504-2.096-1.26-4.001-2.268-5.716a11.731 11.731 0 0 0-3.875-4.192c-1.575-1.143-3.528-1.683-5.859-1.62ZM156.904 1.914c.441.699.725 1.588.851 2.667.315 2.223.441 4.51.378 6.86 0 2.286.031 4.54.094 6.763v7.717c.063 2.54.095 5.113.095 7.717v8.097h4.063c.693 0 1.418.096 2.174.286a5.849 5.849 0 0 1 3.685 2.191c.441.572.693 1.27.756 2.096 0 2.032-.63 3.43-1.89 4.192-1.26.698-2.772 1.111-4.536 1.238-.126 0-.409.032-.85.096H158.983c-.378 0-.598-.064-.661-.191v8.86c0 .889-.063 1.778-.189 2.667a8.071 8.071 0 0 1-.756 2.382 3.848 3.848 0 0 1-1.512 1.81c-.315.19-.725.35-1.229.476-.441.064-.945.127-1.512.19-.567.064-1.134.096-1.701.096a6.87 6.87 0 0 1-1.323-.286c-1.134-.38-1.858-1.175-2.173-2.381a28.44 28.44 0 0 1-.662-3.525v-5.145a49.6 49.6 0 0 0-.094-3.239c-.063-.952-.158-1.429-.284-1.429h-16.632c-1.827 0-3.749-.032-5.765-.095-2.016-.063-3.748-.635-5.197-1.715-1.134-.825-1.796-1.746-1.985-2.762a6.617 6.617 0 0 1 .189-3.144c.378-1.08.914-2.128 1.607-3.144a64.285 64.285 0 0 1 1.984-2.763 213.391 213.391 0 0 0 6.899-9.908c2.268-3.366 4.536-6.7 6.804-10.002a103.136 103.136 0 0 1 3.875-4.954 58.07 58.07 0 0 0 3.874-4.954 122.59 122.59 0 0 1 2.835-4.097 10.943 10.943 0 0 1 3.969-3.239c1.512-.698 2.961-1.048 4.347-1.048 1.386 0 2.457.54 3.213 1.62Zm-9.355 17.148-15.688 22.292h15.688V19.062Z" fill="#36427D"/></mask><g mask="url(#a)"><circle cx="32.425" cy="49.456" r="56.661" fill="#36427D"/><circle cx="165.397" cy="19.979" r="56.661" fill="#36427D"/><circle cx="116.925" cy="56.661" r="56.661" fill="#FF4B6B"/><circle cx="130.026" cy="95.307" r="56.661" fill="#2ABAF3"/><circle cx="-.327" cy="67.796" r="56.661" fill="#FF4B6B"/><circle cx="-3.603" cy="80.243" r="56.661" fill="#2ABAF3"/><circle cx="92.688" cy="-29.15" r="56.661" fill="#2ABAF3"/></g></svg>