<svg width="14" height="14" viewBox="0 0 14 14" fill="none" xmlns="http://www.w3.org/2000/svg">
                  <path
                    d="M.017 4.304h13.938c.01.201.026.392.026.583.002 2.095.004 4.19 0 6.286-.003 1.787-.982 2.802-2.765 2.814-2.855.019-5.709.015-8.563 0-1.525-.007-2.58-.933-2.62-2.437C-.03 9.153.017 6.752.017 4.304Zm3.623 1.93c-.485.013-.916.46-.912.95.003.53.494 1.01 1.007.982a.956.956 0 0 0 .898-.957c-.005-.566-.436-.99-.993-.975Zm7.593.995a.96.96 0 0 0-.913-.996c-.511-.024-.967.408-.982.93-.015.524.408.98.921.993a.94.94 0 0 0 .974-.927Zm-8.504 3.417a.954.954 0 0 0 .91 1.004c.503.03.98-.408 1-.92a.962.962 0 0 0-.907-1.008c-.501-.023-.976.415-1.003.924Zm5.215-3.44c.013-.496-.404-.94-.905-.964a.977.977 0 0 0-1.014.968c0 .487.438.926.938.938a.973.973 0 0 0 .981-.942Zm-.99 4.446c.483.028.987-.444 1-.938.015-.484-.4-.933-.903-.977-.512-.045-.974.367-1.014.904-.037.502.398.98.916 1.011ZM13.93 3.089H.066C-.23 1.544.773.129 2.294.057 3.896-.02 5.504.014 7.11.007c1.408-.004 2.816-.015 4.224.004 1.74.024 2.82 1.293 2.597 3.078Z"
                    fill="#464EA3"
                  />
                </svg>