<svg width="14" height="14" viewBox="0 0 14 14" fill="none" xmlns="http://www.w3.org/2000/svg">
<circle cx="7" cy="7" r="7" fill="#464EA3"/>
<path d="M7.27283 7.47836C7.90394 7.08462 8.51831 6.70555 9.13029 6.31426C9.66099 5.97677 10.3351 6.24823 10.4786 6.86941C10.5622 7.22891 10.3997 7.63243 10.0841 7.83052C9.01315 8.50306 7.93979 9.17559 6.86883 9.84813C6.56762 10.0364 6.25684 10.0536 5.95324 9.87747C5.64486 9.70384 5.50382 9.4177 5.50143 9.06065C5.50143 7.44901 5.50143 5.83982 5.50143 4.23063C5.50143 3.79776 5.49904 3.36734 5.50143 2.93447C5.50382 2.4478 5.80742 2.07852 6.25684 2.01004C6.78994 1.92933 7.26088 2.34508 7.26327 2.90268C7.26805 3.6657 7.26327 4.42627 7.26327 5.18929C7.26327 5.9303 7.26327 6.67376 7.26327 7.41477C7.26566 7.42945 7.26805 7.44412 7.27283 7.47836Z" fill="white"/>
</svg>
