<svg width="13" height="16" viewBox="0 0 13 16" fill="none" xmlns="http://www.w3.org/2000/svg">
    <path d="M6.2227 3.95508C8.00863 3.95508 9.79455 3.95508 11.5805 3.95508C12.3507 3.95508 12.5069 4.13367 12.4065 4.88153C11.9823 8.07387 11.5582 11.255 11.134 14.4474C11.0112 15.385 10.3973 15.9766 9.45969 15.9877C7.30542 15.9989 5.13998 16.0101 2.98571 15.9877C2.03693 15.9766 1.43418 15.4073 1.3114 14.4586C0.876082 11.2216 0.451925 7.99573 0.0166052 4.76991C-0.0615291 4.17832 0.128226 3.95508 0.7533 3.95508C2.58387 3.95508 4.40329 3.95508 6.2227 3.95508Z" fill="white"/>
    <path d="M10.8443 2.3471C7.60727 2.3471 4.52654 2.3471 1.28955 2.3471C2.41692 1.50995 3.41034 0.739766 4.44841 0.0477192C4.61584 -0.0639012 5.02883 0.0365571 5.25208 0.181664C5.75437 0.483039 6.20085 0.884872 6.70314 1.21973C6.85941 1.32019 7.16079 1.38716 7.29473 1.30903C8.3328 0.672794 9.22576 0.884872 10.0406 1.72203C10.2303 1.92294 10.4982 2.07921 10.8443 2.3471Z" fill="white"/>
</svg>
