<svg width="10" height="17" viewBox="0 0 10 17" fill="none" xmlns="http://www.w3.org/2000/svg">
    <path d="M8.13468 3.64242C9.16487 3.64242 10 2.82704 10 1.82121C10 0.815384 9.16487 0 8.13468 0C7.10449 0 6.26935 0.815384 6.26935 1.82121C6.26935 2.82704 7.10449 3.64242 8.13468 3.64242Z" fill="#B9CBE5"/>
    <path d="M8.13468 9.81821C9.16487 9.81821 10 9.00282 10 7.997C10 6.99117 9.16487 6.17578 8.13468 6.17578C7.10449 6.17578 6.26935 6.99117 6.26935 7.997C6.26935 9.00282 7.10449 9.81821 8.13468 9.81821Z" fill="#B9CBE5"/>
    <path d="M8.13468 16.0018C9.16487 16.0018 10 15.1864 10 14.1806C10 13.1748 9.16487 12.3594 8.13468 12.3594C7.10449 12.3594 6.26935 13.1748 6.26935 14.1806C6.26935 15.1864 7.10449 16.0018 8.13468 16.0018Z" fill="#B9CBE5"/>
    <path d="M1.86533 3.64242C2.89553 3.64242 3.73066 2.82704 3.73066 1.82121C3.73066 0.815384 2.89553 0 1.86533 0C0.835138 0 0 0.815384 0 1.82121C0 2.82704 0.835138 3.64242 1.86533 3.64242Z" fill="#B9CBE5"/>
    <path d="M1.86533 9.81821C2.89553 9.81821 3.73066 9.00282 3.73066 7.997C3.73066 6.99117 2.89553 6.17578 1.86533 6.17578C0.835138 6.17578 0 6.99117 0 7.997C0 9.00282 0.835138 9.81821 1.86533 9.81821Z" fill="#B9CBE5"/>
    <path d="M1.86533 16.0018C2.89553 16.0018 3.73066 15.1864 3.73066 14.1806C3.73066 13.1748 2.89553 12.3594 1.86533 12.3594C0.835138 12.3594 0 13.1748 0 14.1806C0 15.1864 0.835138 16.0018 1.86533 16.0018Z" fill="#B9CBE5"/>
</svg>
