<svg width="16" height="16" viewBox="0 0 16 16" fill="none" xmlns="http://www.w3.org/2000/svg">
    <path d="M0 15.895C0.0114286 15.8676 0.0261225 15.8403 0.0342858 15.8112C0.488165 14.2266 0.940412 12.6403 1.39429 11.0556C1.40898 11.0061 1.43837 10.9565 1.47266 10.9223C4.07348 8.31377 6.67431 5.70523 9.2784 3.0984C9.46779 2.90866 9.71269 2.8437 9.96575 2.81977C10.5388 2.76678 11.0596 2.94626 11.5396 3.25225C12.2221 3.68643 12.7478 4.27447 13.0498 5.05737C13.2213 5.50181 13.2637 5.95651 13.0939 6.41463C13.0335 6.57873 12.947 6.72061 12.8229 6.84369C10.2351 9.41634 7.64901 11.9941 5.06124 14.5685C5.02532 14.6026 4.97471 14.6283 4.92737 14.642C3.33716 15.083 1.74695 15.5223 0.155103 15.9633C0.124082 15.9719 0.0946942 15.9855 0.0653064 15.9975C0.0440818 15.9975 0.0212246 15.9975 0 15.9975C0 15.9633 0 15.9291 0 15.895ZM2.43103 14.4334C2.44409 14.43 2.46042 14.4283 2.47674 14.4232C3.07266 14.2403 3.67022 14.0573 4.26614 13.871C4.30042 13.8608 4.33308 13.8334 4.35593 13.8044C4.53389 13.5821 4.56491 13.3223 4.51267 13.0488C4.369 12.2984 3.67675 11.6095 2.95022 11.4881C2.68899 11.4454 2.43919 11.4676 2.22205 11.6437C2.1796 11.6779 2.14368 11.7309 2.12572 11.7839C1.98695 12.2197 1.85144 12.6591 1.71592 13.0967C1.66694 13.2556 1.61797 13.4146 1.57225 13.565C2.01633 13.6898 2.24817 14.0283 2.43103 14.4334Z" fill="#B9CBE5"/>
    <path d="M15.9992 2.68205C15.9698 2.84274 15.9519 3.00684 15.911 3.16581C15.7837 3.66154 15.5388 4.08547 15.1878 4.44103C14.809 4.82564 14.427 5.20684 14.0465 5.58975C14.0367 5.6 14.027 5.60684 14.0123 5.6188C14.0498 5.49573 14.0955 5.37949 14.12 5.25983C14.2163 4.8 14.1282 4.36752 13.9306 3.95385C13.7755 3.63077 13.5649 3.34701 13.3249 3.0906C13.0016 2.7453 12.6604 2.42564 12.2425 2.21026C11.6514 1.90427 11.0408 1.81197 10.4008 2.02564C10.3943 2.02735 10.3861 2.02735 10.3682 2.02735C10.5559 1.83932 10.7355 1.65812 10.9167 1.47692C11.142 1.24957 11.3641 1.0188 11.5943 0.798291C12.0792 0.331624 12.649 0.0666667 13.3086 0.0136752C13.3298 0.0119658 13.351 0.00512821 13.3723 0C13.4653 0 13.5567 0 13.6498 0C13.671 0.00512821 13.6906 0.0102564 13.7118 0.0153846C13.8751 0.0461539 14.0416 0.0581197 14.1984 0.107692C15.049 0.381197 15.6417 0.940171 15.911 1.84274C15.9568 1.99316 15.9714 2.15214 15.9992 2.30769C15.9992 2.43077 15.9992 2.55727 15.9992 2.68205Z" fill="#B9CBE5"/>
</svg>
