<svg width="16" height="16" viewBox="0 0 16 16" fill="none" xmlns="http://www.w3.org/2000/svg"><path d="M12.744 2.863c-.764 0-1.53-.022-2.293.015a.822.822 0 0 0-.566.313c-.995 1.495-2.795 1.503-3.781.02a.863.863 0 0 0-.608-.333c-1.389-.03-2.78-.016-4.17-.016-.138 0-.278.002-.417-.001-.572-.013-.92-.287-.909-.714.01-.407.352-.675.885-.687.278-.007.556-.003.835-.003 1.25 0 2.502-.009 3.752.006.312.003.497-.091.668-.365.914-1.456 2.774-1.466 3.685-.018.182.29.38.387.709.383 1.442-.016 2.884-.008 4.326-.007.138 0 .28-.01.416.009.408.058.701.284.688.709-.014.417-.303.667-.72.677-.833.02-1.667.007-2.5.007a.01.01 0 0 1 0 .005ZM5.069 8.7c-1.372 0-2.745.004-4.117-.001-.608-.002-.97-.285-.951-.724.018-.42.365-.677.946-.678 2.693-.003 5.386-.007 8.079.006.363.002.588-.086.797-.416.884-1.396 2.746-1.398 3.626-.003.208.33.428.448.796.419.327-.028.66-.018.99.002.414.025.687.25.737.669.042.363-.305.687-.737.724a2.651 2.651 0 0 1-.417.003c-.655-.05-1.14.05-1.607.689-.866 1.181-2.591.993-3.388-.274-.206-.33-.43-.426-.795-.42-1.32.016-2.64.005-3.96.005ZM10.914 14.54c-1.338 0-2.675.008-4.013-.005-.321-.003-.53.072-.716.37-.91 1.458-2.77 1.462-3.684.008-.183-.293-.383-.4-.712-.378a8.477 8.477 0 0 1-1.042-.002c-.444-.026-.78-.346-.74-.715.045-.422.317-.638.731-.677a2.65 2.65 0 0 1 .417-.004c.653.044 1.142-.046 1.612-.684.872-1.183 2.59-.997 3.386.27.207.33.429.422.795.42 2.57-.014 5.142-.007 7.713-.007.157 0 .313-.004.47.002.515.02.867.321.848.723-.018.39-.35.673-.842.676-1.41.006-2.817.001-4.223.002Z" fill="#464EA3"/></svg>