 <svg width="292" height="111" viewBox="0 0 292 111" fill="none" xmlns="http://www.w3.org/2000/svg">
            <path d="M146 0H0C36.5 0 45.1905 8.67188 73 55.5C100.81 102.328 109.5 111 146 111V0Z" fill="#36427D" />
            <path d="M146 0H292C255.5 0 246.81 8.67188 219 55.5C191.19 102.328 182.5 111 146 111V0Z" fill="#36427D" />
            <path
              d="M177.803 75.8964C174.435 75.8964 171.068 75.8769 167.702 75.9078C166.69 75.9175 165.751 75.6947 165.051 75.0197C163.982 73.9869 162.843 72.9524 162.053 71.7178C154.656 60.1662 147.341 48.5626 139.974 36.9915C136.298 31.2173 132.566 25.4789 128.86 19.7226C128.134 18.5954 128.541 16.9884 129.717 16.315C130.905 15.6351 132.737 16.0955 133.451 17.2519C142.136 31.3263 150.807 45.4087 159.527 59.462C160.466 60.9763 161.662 62.3393 162.8 63.7251C163.538 64.6229 164.499 65.0344 165.744 65.0231C171.328 64.9694 176.913 65.0344 182.496 64.9856C185.377 64.9596 187.302 66.2348 188.311 68.8552C188.845 70.2426 189.27 71.6723 189.692 73.0971C189.819 73.5265 189.811 74.0112 189.788 74.4667C189.735 75.5028 189.288 75.8948 188.232 75.8948C184.756 75.898 181.279 75.8964 177.803 75.8964Z"
              fill="#464EA3"
            />
            <path
              d="M144.295 48.1875C145.173 49.6123 146.003 50.9136 146.77 52.2506C146.885 52.4523 146.793 52.8752 146.648 53.1029C143.877 57.4864 141.083 61.8552 138.294 66.2273C137.156 68.0133 136.037 69.8122 134.871 71.5802C134.379 72.3252 133.819 73.0327 133.23 73.7061C131.915 75.2123 130.357 75.9767 128.216 75.9377C121.678 75.8173 115.137 75.8922 108.596 75.8905C107.453 75.8905 107.024 75.492 107.001 74.3372C106.965 72.4455 107.727 70.7409 108.414 69.0396C108.742 68.2231 109.211 67.4228 109.776 66.7462C110.855 65.4547 112.346 64.9912 114.017 64.9944C119.737 65.0058 125.455 64.9814 131.175 65.0188C132.283 65.0253 133.184 64.6756 133.855 63.8754C134.991 62.5237 136.163 61.1818 137.114 59.7066C139.439 56.1006 141.645 52.4214 143.899 48.7731C143.999 48.6153 144.111 48.4624 144.295 48.1875Z"
              fill="#464EA3"
            />
            <path
              d="M152.601 43.7251C151.719 42.284 150.867 40.9584 150.103 39.5856C149.96 39.3286 150.063 38.8097 150.239 38.5235C154.011 32.3638 157.809 26.2204 161.6 20.0738C162.212 19.0799 162.82 18.0829 163.441 17.094C164.341 15.6561 166.95 15.6333 167.844 17.0696C168.417 17.9918 168.545 18.8425 167.86 19.9013C162.893 27.5883 157.999 35.3208 153.079 43.0387C152.951 43.242 152.805 43.434 152.601 43.7251Z"
              fill="#464EA3"
            />
            <path
              d="M137.62 79.9423C138.688 81.3347 140.125 81.8389 141.642 82.1365C146.256 83.0474 150.88 83.049 155.483 82.0666C156.879 81.7689 158.201 81.2468 159.215 79.8887C159.215 81.7299 159.252 83.3955 159.18 85.0545C159.167 85.3603 158.758 85.7913 158.436 85.915C156.892 86.5054 155.353 87.2308 153.743 87.5008C149.51 88.21 145.252 88.1872 141.03 87.2682C140.685 87.1934 140.345 87.0844 140.009 86.9722C137.743 86.2045 137.583 85.98 137.579 83.6476C137.578 82.5106 137.578 81.3721 137.579 80.2351C137.579 80.1831 137.594 80.131 137.62 79.9423Z"
              fill="#464EA3"
            />
            <path
              d="M148.495 81.565C145.648 81.4267 142.841 81.2136 140.153 80.2654C139.422 80.0068 138.708 79.605 138.098 79.1268C137.376 78.5608 137.361 77.7979 138.105 77.2693C138.89 76.7114 139.779 76.1974 140.702 75.9502C145.883 74.566 151.085 74.5742 156.265 75.9892C156.94 76.173 157.602 76.487 158.2 76.8513C159.552 77.6759 159.594 78.7934 158.183 79.5188C156.964 80.1466 155.616 80.6216 154.269 80.8818C152.37 81.2462 150.422 81.3503 148.495 81.565Z"
              fill="#464EA3"
            />
</svg>