<svg width="36" height="36" viewBox="0 0 36 36" fill="none" xmlns="http://www.w3.org/2000/svg">
<rect width="36" height="36" rx="6" fill="#B9CBE5"/>
<rect width="33.6" height="33.6" rx="6" fill="#95B0DA"/>
<g clip-path="url(#clip0_1456_15629)">
<path d="M21.3115 11.9939C20.7299 12.6377 20.3111 13.1386 19.853 13.6015C19.2648 14.1955 18.5637 14.2178 18.0675 13.6998C17.5949 13.2042 17.6342 12.5315 18.2053 11.9624C18.6661 11.5034 19.1598 11.0773 19.7768 10.5095C19.1795 9.9771 18.6753 9.56273 18.2119 9.1064C17.6461 8.55042 17.6067 7.85281 18.0701 7.36239C18.548 6.85623 19.2779 6.88902 19.8674 7.45287C20.3085 7.8751 20.7378 8.31045 21.175 8.73662C21.2039 8.76547 21.2525 8.77596 21.4113 8.85201C21.8235 8.40618 22.2502 7.91182 22.711 7.45418C23.2729 6.89557 23.9714 6.85755 24.4545 7.32305C24.9639 7.81347 24.9363 8.52026 24.3587 9.11296C23.9175 9.56535 23.4528 9.99545 22.9382 10.4937C23.4856 11.051 24.0173 11.5546 24.5018 12.0988C24.9586 12.6115 24.9166 13.3051 24.4532 13.7431C23.9871 14.185 23.336 14.1706 22.8042 13.6959C22.5771 13.4927 22.3539 13.2789 22.1544 13.0494C21.8971 12.7557 21.6647 12.4397 21.3115 11.9939Z" fill="white"/>
<path d="M21.2386 23.0508C22.1839 22.0896 22.9834 21.2202 23.8512 20.4256C24.1427 20.1594 24.6206 19.926 24.9934 19.9522C25.9032 20.0152 26.3351 21.1599 25.6971 21.8405C24.5195 23.0993 23.2854 24.3083 22.0395 25.5002C21.5537 25.9644 20.9524 25.9172 20.4496 25.4386C19.6435 24.6702 18.8545 23.8834 18.0839 23.0783C17.6099 22.5826 17.6388 21.8746 18.093 21.4287C18.5657 20.9658 19.2182 20.9462 19.7315 21.4392C20.233 21.9231 20.6859 22.4555 21.2386 23.0508Z" fill="white"/>
<path d="M9.51785 24.6166C8.75377 24.6166 7.98969 24.6297 7.22561 24.6127C6.4589 24.5957 6.00334 24.1524 5.99809 23.4627C5.99284 22.7835 6.4589 22.2878 7.19935 22.2773C8.74852 22.255 10.299 22.255 11.8482 22.2786C12.5781 22.2891 13.0731 22.8123 13.0612 23.4693C13.0494 24.1315 12.5558 24.597 11.8088 24.6127C11.046 24.6297 10.2819 24.6166 9.51785 24.6166Z" fill="white"/>
<path d="M9.51849 9.38215C10.2826 9.38215 11.0466 9.3756 11.8094 9.38477C12.5407 9.39264 13.0067 9.79783 13.0553 10.4469C13.1052 11.0999 12.6405 11.6507 11.9118 11.7005C11.195 11.749 10.4716 11.7176 9.75218 11.7189C8.94477 11.7202 8.13737 11.7333 7.32996 11.7149C6.48186 11.6939 5.99479 11.2402 6.00004 10.5164C6.00529 9.77685 6.46873 9.3874 7.35884 9.38215C8.07829 9.37822 8.79904 9.38084 9.51849 9.38215Z" fill="white"/>
</g>
<defs>
<clipPath id="clip0_1456_15629">
<rect width="20" height="18.8235" fill="white" transform="translate(6 7)"/>
</clipPath>
</defs>
</svg>
