<svg width="82" height="85" viewBox="0 0 82 85" fill="none" xmlns="http://www.w3.org/2000/svg">
<path d="M74.9471 77.9066C74.9471 71.5053 74.9471 65.2462 74.9471 59.0346C74.9471 58.3233 74.8521 57.5646 75.0895 56.9008C75.7068 55.1464 76.9413 54.0558 78.888 54.3877C80.9297 54.7196 81.8319 56.1421 81.8319 58.1337C81.8794 63.4918 81.8319 68.8974 81.8319 74.2555C81.8319 75.5358 81.8794 76.7686 81.7844 78.0489C81.4995 82.1742 78.9355 84.7821 74.7571 84.9244C72.0507 85.0192 69.3917 84.9718 66.6852 84.9718C47.3602 84.9718 28.0352 84.9718 8.71023 84.9718C2.49015 84.9718 0.0211029 82.5535 0.0211029 76.3893C0.0211029 70.3199 -0.0263787 64.2031 0.0211029 58.1337C0.0211029 55.8102 1.44555 54.3877 3.3923 54.3877C5.38652 54.3877 6.71601 55.8102 6.81097 58.1337C6.85845 58.9872 6.81097 59.8881 6.81097 60.7416C6.81097 66.4317 6.81097 72.0743 6.81097 77.9541C29.6021 77.9066 52.1084 77.9066 74.9471 77.9066Z" fill="#ECF6FF"/>
<path d="M45.0815 55.953C47.4081 53.4873 49.6872 51.0216 52.0613 48.6508C53.2958 47.3705 54.8627 47.1334 56.3821 48.0818C57.8065 48.9827 58.3288 50.3578 57.7591 51.97C57.6166 52.3967 57.3792 52.8709 57.0468 53.1554C51.7289 58.4661 46.411 63.7295 40.9031 69.1824C40.1909 68.5186 39.5261 67.8548 38.8614 67.2383C34.4456 62.8285 30.0298 58.4187 25.614 54.0089C23.6673 52.0648 23.4299 49.9311 24.9018 48.4137C26.2788 46.9912 28.5104 47.3231 30.5046 49.2672C32.6888 51.401 34.8254 53.5348 37.3895 56.0953C37.4844 54.7202 37.5319 53.9141 37.5319 53.108C37.5319 45.8532 37.5319 38.5983 37.5319 31.2961C37.5319 28.6407 38.7189 27.2656 40.8081 27.2182C43.0872 27.1708 44.3218 28.6407 44.3692 31.5332C44.4167 38.6458 44.3692 45.7583 44.3692 52.8709C44.3692 53.7244 44.3692 54.5779 44.3692 55.4789C44.6541 55.6211 44.8915 55.8108 45.0815 55.953Z" fill="#ECF6FF"/>
<path d="M40.9023 20.2949C39.0506 20.2949 37.6736 18.8724 37.6261 16.9757C37.5786 15.1739 39.0506 13.6565 40.8549 13.6091C42.6592 13.5617 44.2261 15.079 44.2735 16.8335C44.321 18.7776 42.8491 20.2949 40.9023 20.2949Z" fill="#ECF6FF"/>
<path d="M40.9493 0C42.7536 0 44.3205 1.56477 44.3205 3.27179C44.3205 5.07364 42.6112 6.78066 40.8069 6.73324C39.0975 6.68582 37.5781 5.07364 37.5781 3.27179C37.6256 1.46993 39.0975 0 40.9493 0Z" fill="#ECF6FF"/>
</svg>
