<svg width="13" height="12" viewBox="0 0 13 12" fill="none" xmlns="http://www.w3.org/2000/svg">
<g clip-path="url(#clip0_3512_19560)">
<path d="M4.75707 5.96058C4.12632 5.35191 3.50503 4.75269 2.88375 4.15348C2.0417 3.33982 1.19649 2.5293 0.354443 1.71564C-0.039775 1.33403 -0.0555437 0.74113 0.310291 0.340604C0.68874 -0.0725366 1.34472 -0.122997 1.75786 0.258607C2.30346 0.760052 2.83013 1.28042 3.36312 1.79448C4.29032 2.68699 5.21436 3.58265 6.14157 4.47516C6.1668 4.50039 6.19518 4.52247 6.23302 4.55716C6.4664 4.3364 6.69978 4.11564 6.93 3.89803C8.16312 2.72484 9.39623 1.55164 10.6293 0.378449C11.0456 -0.0157692 11.4998 -0.10092 11.9476 0.132457C12.5342 0.441524 12.673 1.20788 12.1999 1.67779C11.6291 2.24547 11.0393 2.78791 10.4559 3.34297C9.56022 4.19448 8.66771 5.04599 7.77205 5.89435C7.74998 5.91643 7.7279 5.9385 7.75944 5.91643C8.05904 6.24442 8.34288 6.58817 8.66141 6.89724C9.82514 8.03574 11.0078 9.15848 12.1715 10.2938C12.7077 10.8173 12.509 11.6878 11.8025 11.9275C11.3894 12.0694 11.0109 11.9905 10.6956 11.6846C9.29216 10.3348 7.88874 8.97871 6.48532 7.62576C6.39702 7.5406 6.31187 7.45861 6.21726 7.36715C5.80096 7.76137 5.39097 8.15243 4.98099 8.54034C3.91817 9.54954 2.85852 10.5619 1.79255 11.5679C1.22172 12.1072 0.344982 11.9401 0.0674524 11.2463C-0.0839274 10.871 0.00753123 10.4673 0.322906 10.1677C1.0735 9.46123 1.82724 8.75164 2.57468 8.03574C3.29689 7.34823 4.01909 6.66071 4.75707 5.96058Z" fill="#B9CBE5"/>
</g>
<defs>
<clipPath id="clip0_3512_19560">
<rect width="12.4857" height="12" fill="white"/>
</clipPath>
</defs>
</svg>
