<svg width="12" height="19" viewBox="0 0 12 19" fill="none" xmlns="http://www.w3.org/2000/svg">
<path d="M8.59095 0C8.78442 0.114966 8.9998 0.208376 9.17136 0.352083C9.38309 0.531717 9.41594 0.797576 9.41959 1.05984C9.42324 1.28618 9.41959 1.51252 9.41959 1.76401C9.76272 1.76401 10.0913 1.76401 10.4161 1.76401C10.8177 1.76401 11.1827 1.86101 11.4894 2.13405C11.7814 2.39273 11.9749 2.71248 11.9822 3.10049C12.0004 3.96992 11.9968 4.83575 11.9968 5.70518C11.9968 8.838 11.9968 11.9672 11.9968 15.1001C11.9968 15.6928 12.0041 16.2856 11.9968 16.8784C11.9858 17.7802 11.3506 18.3945 10.4344 18.3981C8.85378 18.4017 7.26952 18.3981 5.68891 18.3981C4.31272 18.3981 2.94017 18.3981 1.56398 18.3981C0.801055 18.3981 0.235246 17.9778 0.0490773 17.27C0.0125735 17.1263 0.00527276 16.9754 0.00527276 16.8245C0.00162239 12.869 0.00162239 8.90986 0.00162239 4.95072C0.00162239 4.40463 -0.00202799 3.86214 0.00162239 3.31605C0.00892314 2.37836 0.629487 1.7676 1.58223 1.76401C1.90347 1.76401 2.2247 1.76401 2.57879 1.76401C2.57879 1.52689 2.57879 1.30414 2.57879 1.07781C2.57514 0.750871 2.65544 0.452678 2.92922 0.247895C3.07159 0.143707 3.24681 0.0826317 3.40742 0C5.1377 0 6.86433 0 8.59095 0ZM10.5038 16.9215C10.5038 12.3481 10.5038 7.79612 10.5038 3.24419C7.49584 3.24419 4.49888 3.24419 1.49828 3.24419C1.49828 7.8069 1.49828 12.3588 1.49828 16.9215C4.50253 16.9215 7.49584 16.9215 10.5038 16.9215Z" fill="#FF4B6B"/>
<path d="M9.26347 13.0195C9.26347 13.986 9.26347 14.9416 9.26347 15.908C7.08784 15.908 4.91951 15.908 2.74023 15.908C2.74023 14.9452 2.74023 13.9896 2.74023 13.0195C4.91221 13.0195 7.07689 13.0195 9.26347 13.0195Z" fill="#FF4B6B"/>
</svg>
