<svg width="1200" height="1080" fill="none" xmlns="http://www.w3.org/2000/svg"><g opacity=".5" filter="url(#a)"><path d="M326.541 860.047c185.984 71.49 279.914 288.313 148.617 350.053-131.296 61.73-538.74-209.6-600.475-340.893-61.734-131.296 148.947-189.103 280.244-250.838 131.296-61.734-14.37 170.188 171.614 241.678Z" fill="#8085BB"/></g><g opacity=".5" filter="url(#b)"><path d="M1217.45-342c0 244.11 56.11 688.699-188 688.699s-32-552-720-688.699c-687.999-136.699 221.891-442 466.001-442 244.109 0 441.999 197.89 441.999 442Z" fill="#2ABAF3"/></g><g opacity=".5" filter="url(#c)"><ellipse cx="301.046" cy="204.137" rx="177.349" ry="469.082" transform="rotate(-45.265 301.046 204.137)" fill="url(#d)"/></g><g opacity=".5" filter="url(#e)"><path d="M595.879 503.86C735.73 649.574 476.59 770 329.44 770 182.289 770 63 650.845 63 503.86 63 356.874 137.682 204 284.832 204c147.151 0 171.197 154.145 311.047 299.86Z" fill="#2ABAF3"/></g><g filter="url(#f)"><path fill="#F0EFF8" fill-opacity=".5" d="M0-4h1200v1087H0z"/></g><g style="mix-blend-mode:lighten" opacity=".2" fill="#fff"><path d="M.24 10.486a6.272 6.272 0 0 0 6.275-6.274A6.272 6.272 0 0 0 .24-2.063a6.272 6.272 0 0 0-6.276 6.275A6.272 6.272 0 0 0 .24 10.486ZM19.112 10.652a6.44 6.44 0 1 0 0-12.88 6.44 6.44 0 0 0 0 12.88ZM37.984 10.557a6.322 6.322 0 1 0-6.322-6.322c0 3.468 2.831 6.322 6.322 6.322ZM56.857 10.274a6.062 6.062 0 1 0 0-12.125 6.062 6.062 0 0 0 0 12.125ZM75.73 10.015a5.803 5.803 0 1 0 0-11.606 5.803 5.803 0 0 0 0 11.606ZM94.601 9.755a5.543 5.543 0 1 0 0-11.087 5.543 5.543 0 0 0 0 11.087ZM113.474 9.496a5.275 5.275 0 0 0 5.284-5.284 5.275 5.275 0 0 0-5.284-5.284 5.275 5.275 0 0 0-5.284 5.284 5.275 5.275 0 0 0 5.284 5.284ZM132.346 9.189a4.978 4.978 0 0 0 4.978-4.977 4.964 4.964 0 0 0-4.978-4.978 4.963 4.963 0 0 0-4.977 4.978 4.978 4.978 0 0 0 4.977 4.977ZM151.219 8.93c2.595 0 4.718-2.1 4.718-4.718 0-2.595-2.1-4.718-4.718-4.718a4.717 4.717 0 0 0-4.719 4.718c.024 2.595 2.124 4.718 4.719 4.718ZM170.091 8.623a4.38 4.38 0 0 0 4.388-4.388 4.38 4.38 0 0 0-4.388-4.387 4.38 4.38 0 0 0-4.388 4.387 4.395 4.395 0 0 0 4.388 4.388ZM188.963 8.34a4.129 4.129 0 1 0 0-8.258 4.129 4.129 0 0 0 0 8.258ZM207.836 8.033a3.821 3.821 0 1 0 0-7.643 3.821 3.821 0 0 0 0 7.643ZM226.708 7.774a3.562 3.562 0 1 0 0-7.125 3.562 3.562 0 0 0 0 7.125ZM245.58 7.467a3.256 3.256 0 1 0 0-6.512 3.256 3.256 0 0 0 0 6.512ZM264.453 7.184a2.972 2.972 0 1 0 0-5.945 2.972 2.972 0 0 0 0 5.945ZM283.325 6.877a2.666 2.666 0 1 0 0-5.332 2.666 2.666 0 0 0 0 5.332ZM302.198 6.57a2.36 2.36 0 1 0-.001-4.718 2.36 2.36 0 0 0 .001 4.719ZM321.07 6.311c1.156 0 2.1-.944 2.1-2.1 0-1.155-.944-2.099-2.1-2.099-1.156 0-2.1.944-2.1 2.1 0 1.155.944 2.099 2.1 2.099ZM339.942 6.004c.991 0 1.77-.802 1.77-1.769 0-.99-.802-1.769-1.77-1.769-.99 0-1.769.802-1.769 1.77 0 .966.802 1.768 1.769 1.768ZM358.815 5.721a1.51 1.51 0 1 0 0-3.02 1.51 1.51 0 0 0 0 3.02ZM377.687 5.415a1.203 1.203 0 1 0 0-2.406 1.203 1.203 0 0 0 0 2.406ZM396.56 5.155a.943.943 0 1 0 0-1.886.943.943 0 0 0 0 1.886ZM415.432 4.849a.637.637 0 1 0 0-1.274.637.637 0 0 0 0 1.274ZM434.304 4.518a.307.307 0 1 0 .001-.613.307.307 0 0 0-.001.613ZM453.177 4.26a.047.047 0 0 0 .047-.048.047.047 0 0 0-.047-.047.047.047 0 0 0-.047.047c0 .026.021.047.047.047ZM.24 29.523a6.44 6.44 0 1 0 0-12.88 6.44 6.44 0 0 0 0 12.88ZM19.112 29.688a6.61 6.61 0 0 0 6.605-6.605 6.594 6.594 0 0 0-6.605-6.605 6.594 6.594 0 0 0-6.605 6.605 6.61 6.61 0 0 0 6.605 6.605ZM37.984 29.523a6.44 6.44 0 1 0 0-12.88 6.44 6.44 0 0 0 0 12.88ZM56.857 29.263a6.18 6.18 0 1 0 0-12.36 6.18 6.18 0 0 0 0 12.36ZM75.73 28.933a5.85 5.85 0 1 0 0-11.7 5.85 5.85 0 0 0 0 11.7ZM94.602 28.697c3.09 0 5.59-2.5 5.59-5.59s-2.5-5.591-5.59-5.591-5.592 2.5-5.592 5.59 2.501 5.59 5.591 5.59ZM113.474 28.367a5.275 5.275 0 0 0 5.284-5.284 5.275 5.275 0 0 0-5.284-5.284 5.275 5.275 0 0 0-5.284 5.284 5.275 5.275 0 0 0 5.284 5.284ZM132.346 28.107a5.014 5.014 0 0 0 5.025-5.024 5.014 5.014 0 0 0-5.025-5.025 5.013 5.013 0 0 0-5.024 5.025 5.028 5.028 0 0 0 5.024 5.024ZM151.219 27.8a4.717 4.717 0 1 0 0-9.435 4.717 4.717 0 0 0-4.719 4.718c.024 2.595 2.124 4.718 4.719 4.718ZM170.091 27.541a4.458 4.458 0 1 0 0-8.917 4.458 4.458 0 0 0 0 8.917ZM188.963 27.21a4.129 4.129 0 1 0 0-8.257 4.129 4.129 0 0 0 0 8.258ZM207.836 26.904a3.821 3.821 0 1 0 0-7.643 3.821 3.821 0 0 0 0 7.643ZM226.708 26.645a3.562 3.562 0 1 0 0-7.124 3.562 3.562 0 0 0 0 7.124ZM245.58 26.338a3.256 3.256 0 1 0 0-6.512 3.256 3.256 0 0 0 0 6.512ZM264.453 26.055a2.972 2.972 0 1 0 0-5.945 2.972 2.972 0 0 0 0 5.945ZM283.325 25.748a2.666 2.666 0 1 0 0-5.332 2.666 2.666 0 0 0 0 5.332ZM302.198 25.489a2.416 2.416 0 0 0 2.406-2.406 2.416 2.416 0 0 0-2.406-2.406 2.417 2.417 0 0 0-2.407 2.406 2.417 2.417 0 0 0 2.407 2.406ZM321.07 25.182c1.156 0 2.1-.944 2.1-2.1 0-1.155-.944-2.099-2.1-2.099-1.156 0-2.1.944-2.1 2.1 0 1.155.944 2.1 2.1 2.1ZM339.942 24.876c.991 0 1.77-.802 1.77-1.77 0-.99-.802-1.769-1.77-1.769-.99 0-1.769.802-1.769 1.77 0 .967.802 1.769 1.769 1.769ZM358.815 24.592a1.51 1.51 0 1 0 0-3.02 1.51 1.51 0 0 0 0 3.02ZM377.687 24.286a1.203 1.203 0 1 0 0-2.405 1.203 1.203 0 0 0 0 2.405ZM396.56 24.027a.943.943 0 1 0 0-1.887.943.943 0 0 0 0 1.887ZM415.432 23.72a.637.637 0 1 0 0-1.274.637.637 0 0 0 0 1.274ZM434.304 23.46a.378.378 0 1 0 0-.755.378.378 0 0 0 0 .755ZM453.177 23.13a.047.047 0 0 0 .047-.047.047.047 0 0 0-.047-.047.047.047 0 0 0-.047.047c0 .026.021.047.047.047ZM.24 48.3a6.322 6.322 0 1 0-6.323-6.322c0 3.467 2.831 6.322 6.323 6.322ZM19.112 48.394a6.44 6.44 0 1 0 0-12.88 6.44 6.44 0 0 0 0 12.88ZM37.984 48.3a6.322 6.322 0 1 0-6.322-6.322c0 3.467 2.831 6.322 6.322 6.322ZM56.857 48.087a6.133 6.133 0 1 0 0-12.267 6.133 6.133 0 0 0 0 12.267ZM75.73 47.804a5.85 5.85 0 1 0 0-11.7 5.85 5.85 0 0 0 0 11.7ZM94.601 47.497a5.543 5.543 0 1 0 0-11.087 5.543 5.543 0 0 0 0 11.087ZM113.474 47.238a5.275 5.275 0 0 0 5.284-5.284 5.275 5.275 0 0 0-5.284-5.284 5.275 5.275 0 0 0-5.284 5.284 5.275 5.275 0 0 0 5.284 5.284ZM132.346 46.931a4.978 4.978 0 0 0 4.978-4.977 4.964 4.964 0 0 0-4.978-4.977 4.963 4.963 0 0 0-4.977 4.977 4.978 4.978 0 0 0 4.977 4.977ZM151.219 46.672c2.595 0 4.718-2.1 4.718-4.718 0-2.595-2.1-4.718-4.718-4.718a4.717 4.717 0 0 0-4.719 4.718c.024 2.595 2.124 4.718 4.719 4.718ZM170.091 46.365a4.38 4.38 0 0 0 4.388-4.388 4.38 4.38 0 0 0-4.388-4.387 4.38 4.38 0 0 0-4.388 4.387 4.395 4.395 0 0 0 4.388 4.388ZM188.963 46.082a4.129 4.129 0 1 0 0-8.258 4.129 4.129 0 0 0 0 8.258ZM207.836 45.775a3.821 3.821 0 1 0 0-7.643 3.821 3.821 0 0 0 0 7.643ZM226.708 45.516a3.562 3.562 0 1 0 0-7.124 3.562 3.562 0 0 0 0 7.124ZM245.58 45.209a3.256 3.256 0 1 0 0-6.512 3.256 3.256 0 0 0 0 6.512ZM264.453 44.926a2.972 2.972 0 1 0 0-5.944 2.972 2.972 0 0 0 0 5.944ZM283.325 44.62a2.666 2.666 0 1 0 0-5.333 2.666 2.666 0 0 0 0 5.332ZM302.198 44.36a2.416 2.416 0 0 0 2.406-2.406 2.416 2.416 0 0 0-2.406-2.406 2.417 2.417 0 0 0-2.407 2.406 2.417 2.417 0 0 0 2.407 2.406ZM321.07 44.053c1.156 0 2.1-.943 2.1-2.1 0-1.155-.944-2.099-2.1-2.099-1.156 0-2.1.944-2.1 2.1 0 1.156.944 2.1 2.1 2.1ZM339.942 43.747c.991 0 1.77-.802 1.77-1.77 0-.99-.802-1.769-1.77-1.769-.99 0-1.769.802-1.769 1.77 0 .967.802 1.769 1.769 1.769ZM358.815 43.464a1.51 1.51 0 1 0 0-3.02 1.51 1.51 0 0 0 0 3.02ZM377.687 43.157a1.203 1.203 0 1 0 0-2.405 1.203 1.203 0 0 0 0 2.405ZM396.56 42.898a.943.943 0 1 0 0-1.887.943.943 0 0 0 0 1.887ZM415.432 42.59a.637.637 0 1 0 0-1.273.637.637 0 0 0 0 1.274ZM434.304 42.331a.378.378 0 1 0 0-.755.378.378 0 0 0 0 .755ZM453.177 42.002a.047.047 0 0 0 .047-.048.047.047 0 0 0-.047-.047.047.047 0 0 0-.047.047c0 .026.021.047.047.047ZM.24 66.887a6.063 6.063 0 1 0 0-12.125 6.063 6.063 0 0 0 0 12.125ZM19.112 67.005a6.18 6.18 0 1 0 0-12.36 6.18 6.18 0 0 0 0 12.36ZM37.984 66.958a6.133 6.133 0 1 0 0-12.267 6.133 6.133 0 0 0 0 12.267ZM56.857 66.746a5.925 5.925 0 0 0 5.921-5.92 5.925 5.925 0 0 0-5.921-5.922 5.925 5.925 0 0 0-5.922 5.921c.024 3.279 2.666 5.92 5.922 5.92ZM75.729 66.534a5.709 5.709 0 1 0 0-11.418 5.709 5.709 0 0 0 0 11.418ZM94.602 66.274a5.45 5.45 0 1 0 0-10.899 5.45 5.45 0 0 0 0 10.899ZM113.474 66.015a5.19 5.19 0 1 0 0-10.38 5.19 5.19 0 0 0 0 10.38ZM132.346 65.755a4.93 4.93 0 1 0 0-9.861 4.93 4.93 0 0 0 0 9.861ZM151.219 65.496a4.641 4.641 0 0 0 4.647-4.647 4.641 4.641 0 0 0-4.647-4.647 4.641 4.641 0 0 0-4.648 4.647 4.656 4.656 0 0 0 4.648 4.647ZM170.091 65.165a4.33 4.33 0 0 0 4.341-4.34 4.33 4.33 0 0 0-4.341-4.34 4.33 4.33 0 0 0-4.341 4.34 4.344 4.344 0 0 0 4.341 4.34ZM188.963 64.906a4.082 4.082 0 1 0 0-8.163 4.082 4.082 0 0 0 0 8.163ZM207.836 64.6a3.774 3.774 0 1 0 0-7.55 3.774 3.774 0 0 0 0 7.55ZM226.708 64.34a3.515 3.515 0 1 0 0-7.03 3.515 3.515 0 0 0 0 7.03ZM245.581 64.01a3.185 3.185 0 1 0-.001-6.37 3.185 3.185 0 0 0 .001 6.37ZM264.453 63.75a2.925 2.925 0 1 0 0-5.85 2.925 2.925 0 0 0 0 5.85ZM283.325 63.49a2.666 2.666 0 1 0 0-5.332 2.666 2.666 0 0 0 0 5.332ZM302.198 63.184a2.36 2.36 0 1 0-.001-4.719 2.36 2.36 0 0 0 .001 4.719ZM321.07 62.877c1.132 0 2.052-.92 2.052-2.052 0-1.132-.92-2.052-2.052-2.052-1.132 0-2.052.92-2.052 2.052 0 1.132.92 2.052 2.052 2.052ZM339.942 62.618c.991 0 1.77-.802 1.77-1.77 0-.99-.802-1.768-1.77-1.768-.99 0-1.769.802-1.769 1.769 0 .967.802 1.769 1.769 1.769ZM358.815 62.287a1.47 1.47 0 0 0 1.462-1.462 1.47 1.47 0 0 0-1.462-1.463 1.47 1.47 0 0 0-1.463 1.463c0 .825.661 1.462 1.463 1.462ZM377.687 62.028a1.203 1.203 0 1 0 0-2.405 1.203 1.203 0 0 0 0 2.405ZM396.56 61.721a.896.896 0 1 0 0-1.792.896.896 0 0 0 0 1.792ZM415.432 61.462a.637.637 0 1 0 0-1.274.637.637 0 0 0 0 1.274ZM434.304 61.132a.306.306 0 1 0 .001-.613.306.306 0 0 0-.001.613ZM453.177 60.873a.047.047 0 0 0 .047-.048.047.047 0 0 0-.047-.047.047.047 0 0 0-.047.047c0 .026.021.048.047.048ZM.24 85.5a5.803 5.803 0 1 0 0-11.607 5.803 5.803 0 0 0 0 11.606ZM19.112 85.546a5.85 5.85 0 1 0 0-11.7 5.85 5.85 0 0 0 0 11.7ZM37.984 85.546a5.85 5.85 0 1 0 0-11.7 5.85 5.85 0 0 0 0 11.7ZM56.857 85.405a5.709 5.709 0 1 0 0-11.418 5.709 5.709 0 0 0 0 11.418ZM75.73 85.24a5.543 5.543 0 1 0 0-11.088 5.543 5.543 0 0 0 0 11.087ZM94.602 85.027a5.326 5.326 0 0 0 5.33-5.33 5.326 5.326 0 0 0-5.33-5.332 5.326 5.326 0 0 0-5.332 5.331 5.326 5.326 0 0 0 5.332 5.331ZM113.474 84.768a5.072 5.072 0 1 0 0-10.144 5.072 5.072 0 0 0 0 10.144ZM132.346 84.508a4.813 4.813 0 1 0 0-9.625 4.813 4.813 0 0 0 0 9.625ZM151.218 84.249a4.552 4.552 0 1 0 .001-9.105 4.552 4.552 0 0 0-.001 9.105ZM170.091 83.942a4.246 4.246 0 1 0 0-8.492 4.246 4.246 0 0 0 0 8.492ZM188.963 83.683a3.982 3.982 0 0 0 3.987-3.987 3.982 3.982 0 0 0-3.987-3.986 3.98 3.98 0 0 0-3.986 3.986c.023 2.194 1.792 3.987 3.986 3.987ZM207.836 83.423c2.052 0 3.727-1.675 3.727-3.703 0-2.029-1.675-3.727-3.727-3.727a3.735 3.735 0 0 0-3.728 3.727c0 2.052 1.675 3.703 3.728 3.703ZM226.708 83.14a3.444 3.444 0 1 0 0-6.888 3.444 3.444 0 0 0 0 6.888ZM245.58 82.833a3.138 3.138 0 1 0 0-6.275 3.138 3.138 0 0 0 0 6.275ZM264.453 82.574a2.878 2.878 0 1 0 0-5.756 2.878 2.878 0 0 0 0 5.756ZM283.325 82.267a2.572 2.572 0 1 0 0-5.144 2.572 2.572 0 0 0 0 5.144ZM302.198 82.008a2.312 2.312 0 1 0 0-4.625 2.312 2.312 0 0 0 0 4.625ZM321.07 81.678a1.982 1.982 0 1 0 0-3.965 1.982 1.982 0 0 0 0 3.965ZM339.942 81.418c.944 0 1.723-.778 1.723-1.722 0-.943-.779-1.722-1.723-1.722-.943 0-1.722.779-1.722 1.722 0 .944.779 1.722 1.722 1.722ZM358.815 81.111a1.42 1.42 0 0 0 1.415-1.415 1.42 1.42 0 0 0-1.415-1.415 1.42 1.42 0 0 0-1.416 1.415 1.42 1.42 0 0 0 1.416 1.415ZM377.687 80.852c.637 0 1.156-.519 1.156-1.156 0-.637-.519-1.156-1.156-1.156-.637 0-1.156.52-1.156 1.156 0 .637.519 1.156 1.156 1.156ZM396.56 80.592a.896.896 0 1 0 0-1.792.896.896 0 0 0 0 1.792ZM415.432 80.262a.566.566 0 1 0 0-1.131.566.566 0 0 0 0 1.131ZM434.304 80.003a.306.306 0 1 0 .001-.613.306.306 0 0 0-.001.613ZM453.177 79.744a.047.047 0 0 0 .047-.048.047.047 0 0 0-.047-.047.047.047 0 0 0-.047.047c0 .027.021.048.047.048ZM.24 104.111a5.544 5.544 0 1 0 0-11.087 5.544 5.544 0 0 0 0 11.087ZM19.112 104.181c3.09 0 5.59-2.5 5.59-5.59s-2.5-5.59-5.59-5.59-5.591 2.5-5.591 5.59 2.5 5.59 5.591 5.59ZM37.984 104.111a5.544 5.544 0 1 0 0-11.087 5.544 5.544 0 0 0 0 11.087ZM56.857 104.016a5.449 5.449 0 1 0 0-10.898 5.45 5.45 0 1 0 0 10.898ZM75.73 103.898a5.325 5.325 0 0 0 5.33-5.33 5.326 5.326 0 0 0-5.33-5.332 5.326 5.326 0 0 0-5.332 5.331 5.325 5.325 0 0 0 5.331 5.331ZM94.601 103.686a5.12 5.12 0 1 0 0-10.238 5.12 5.12 0 0 0 0 10.238ZM113.474 103.497a4.93 4.93 0 1 0 0-9.86 4.93 4.93 0 1 0 0 9.86ZM132.346 103.238a4.641 4.641 0 0 0 4.648-4.647 4.641 4.641 0 0 0-4.648-4.647 4.641 4.641 0 0 0-4.647 4.647 4.656 4.656 0 0 0 4.647 4.647ZM151.219 102.978a4.38 4.38 0 0 0 4.387-4.387 4.38 4.38 0 0 0-4.387-4.388 4.38 4.38 0 0 0-4.388 4.388 4.394 4.394 0 0 0 4.388 4.387ZM170.091 102.695a4.128 4.128 0 1 0 0-8.255 4.128 4.128 0 0 0 0 8.255ZM188.963 102.436a3.869 3.869 0 1 0 0-7.737 3.869 3.869 0 0 0 0 7.737ZM207.836 102.176a3.61 3.61 0 1 0 0-7.218 3.61 3.61 0 0 0 0 7.218ZM226.708 101.917c1.84 0 3.35-1.51 3.35-3.35s-1.51-3.35-3.35-3.35-3.35 1.51-3.35 3.35 1.51 3.35 3.35 3.35ZM245.58 101.657a3.1 3.1 0 0 0 3.091-3.09 3.101 3.101 0 0 0-3.091-3.09 3.1 3.1 0 0 0-3.09 3.09 3.1 3.1 0 0 0 3.09 3.09ZM264.453 101.351a2.79 2.79 0 0 0 2.784-2.784 2.79 2.79 0 0 0-2.784-2.783 2.789 2.789 0 0 0-2.784 2.783c.024 1.534 1.25 2.784 2.784 2.784ZM283.325 101.068a2.501 2.501 0 1 0 0-5.002 2.501 2.501 0 0 0 0 5.002ZM302.198 100.808a2.241 2.241 0 1 0 0-4.482 2.241 2.241 0 0 0 0 4.482ZM321.07 100.501a1.934 1.934 0 1 0 0-3.868 1.934 1.934 0 0 0 0 3.868ZM339.942 100.242a1.675 1.675 0 1 0 0-3.35 1.675 1.675 0 0 0 0 3.35ZM358.815 99.935a1.368 1.368 0 1 0 0-2.737 1.368 1.368 0 0 0 0 2.737ZM377.687 99.676a1.108 1.108 0 1 0 0-2.217c-.613 0-1.109.495-1.109 1.108.024.614.496 1.109 1.109 1.109ZM396.56 99.416a.82.82 0 0 0 .825-.825.835.835 0 0 0-.825-.826.82.82 0 0 0-.826.826c0 .448.377.825.826.825ZM415.432 99.086a.524.524 0 0 0 .519-.519.524.524 0 0 0-.519-.519.524.524 0 0 0-.519.52c0 .282.236.518.519.518ZM434.304 98.827a.26.26 0 1 0 .001-.52.26.26 0 0 0-.001.52ZM.24 122.722a5.275 5.275 0 0 0 5.284-5.284 5.275 5.275 0 0 0-5.284-5.283 5.275 5.275 0 0 0-5.285 5.283 5.276 5.276 0 0 0 5.285 5.284ZM19.112 122.722a5.275 5.275 0 0 0 5.284-5.284 5.275 5.275 0 0 0-5.284-5.283 5.275 5.275 0 0 0-5.284 5.283 5.276 5.276 0 0 0 5.284 5.284ZM37.984 122.722a5.276 5.276 0 0 0 5.285-5.284 5.275 5.275 0 0 0-5.285-5.283 5.275 5.275 0 0 0-5.284 5.283 5.275 5.275 0 0 0 5.284 5.284ZM56.857 122.628a5.19 5.19 0 1 0 0-10.379 5.19 5.19 0 0 0 0 10.379ZM75.73 122.51a5.071 5.071 0 1 0 0-10.143 5.072 5.072 0 0 0 0 10.143ZM94.602 122.368a4.93 4.93 0 1 0 0-9.86 4.93 4.93 0 0 0 0 9.86ZM113.474 122.156a4.717 4.717 0 1 0 0-9.435 4.716 4.716 0 0 0-4.718 4.717c.023 2.595 2.123 4.718 4.718 4.718ZM132.346 121.944a4.505 4.505 0 1 0 .001-9.01 4.505 4.505 0 0 0-.001 9.01ZM151.219 121.684a4.246 4.246 0 1 0 0-8.492 4.246 4.246 0 0 0 0 8.492ZM170.091 121.472a4.032 4.032 0 0 0 4.034-4.034 4.017 4.017 0 0 0-4.034-4.033 4.017 4.017 0 0 0-4.034 4.033 4.033 4.033 0 0 0 4.034 4.034ZM188.963 121.212a3.774 3.774 0 1 0 .002-7.548 3.774 3.774 0 0 0-.002 7.548ZM207.836 120.953a3.515 3.515 0 1 0 0-7.03 3.515 3.515 0 0 0 0 7.03ZM226.708 120.693a3.255 3.255 0 1 0 .001-6.51 3.255 3.255 0 0 0-.001 6.51ZM245.58 120.411a2.973 2.973 0 1 0 0-5.946 2.973 2.973 0 0 0 0 5.946ZM264.453 120.174a2.713 2.713 0 0 0 2.713-2.712 2.729 2.729 0 0 0-2.713-2.713 2.713 2.713 0 0 0-2.713 2.713 2.728 2.728 0 0 0 2.713 2.712ZM283.325 119.892a2.452 2.452 0 0 0 2.454-2.454 2.467 2.467 0 0 0-2.454-2.453 2.451 2.451 0 0 0-2.453 2.453 2.467 2.467 0 0 0 2.453 2.454ZM302.198 119.585a2.154 2.154 0 0 0 2.146-2.146c0-1.18-.967-2.147-2.146-2.147-1.18 0-2.147.967-2.147 2.147 0 1.179.967 2.146 2.147 2.146ZM321.07 119.325a1.887 1.887 0 1 0 0-3.773 1.887 1.887 0 0 0 0 3.773ZM339.942 119.019a1.581 1.581 0 1 0 0-3.162 1.581 1.581 0 0 0 0 3.162ZM358.815 118.736a1.298 1.298 0 1 0-.001-2.595 1.298 1.298 0 0 0 .001 2.595ZM377.687 118.476a1.037 1.037 0 1 0 .001-2.075 1.037 1.037 0 0 0-.001 2.075ZM396.559 118.17a.732.732 0 1 0 0-1.465.732.732 0 0 0 0 1.465ZM415.432 117.91a.474.474 0 0 0 .472-.472.473.473 0 1 0-.472.472ZM434.304 117.651a.213.213 0 1 0 0-.425.213.213 0 0 0 0 .425ZM.24 141.287a4.979 4.979 0 0 0 4.977-4.978 4.963 4.963 0 0 0-4.977-4.977 4.963 4.963 0 0 0-4.978 4.977 4.979 4.979 0 0 0 4.978 4.978ZM19.112 141.334a5.014 5.014 0 0 0 5.025-5.025 5.014 5.014 0 0 0-5.025-5.024 5.014 5.014 0 0 0-5.025 5.024 5.029 5.029 0 0 0 5.025 5.025ZM37.984 141.287a4.979 4.979 0 0 0 4.978-4.978 4.963 4.963 0 0 0-4.978-4.977 4.963 4.963 0 0 0-4.977 4.977 4.979 4.979 0 0 0 4.977 4.978ZM56.857 141.24a4.93 4.93 0 1 0-.001-9.862 4.93 4.93 0 0 0 0 9.862ZM75.73 141.122a4.813 4.813 0 1 0-.002-9.626 4.813 4.813 0 0 0 .001 9.626ZM94.601 140.98a4.641 4.641 0 0 0 4.648-4.647 4.641 4.641 0 0 0-4.648-4.647 4.641 4.641 0 0 0-4.647 4.647 4.656 4.656 0 0 0 4.647 4.647ZM113.474 140.815a4.506 4.506 0 1 0 0-9.012 4.506 4.506 0 0 0 0 9.012ZM132.346 140.603a4.295 4.295 0 0 0 0-8.587 4.294 4.294 0 0 0 0 8.587ZM151.219 140.39a4.08 4.08 0 1 0-4.082-4.08 4.081 4.081 0 0 0 4.082 4.08ZM170.091 140.131a3.822 3.822 0 1 0 0-7.644 3.822 3.822 0 0 0 0 7.644ZM188.963 139.919a3.61 3.61 0 1 0 0-7.22 3.61 3.61 0 0 0 0 7.22ZM207.836 139.659c1.84 0 3.35-1.509 3.35-3.349 0-1.84-1.51-3.35-3.35-3.35s-3.35 1.51-3.35 3.35 1.51 3.349 3.35 3.349ZM226.708 139.447a3.138 3.138 0 1 0 0-6.276 3.138 3.138 0 0 0 0 6.276ZM245.58 139.187a2.877 2.877 0 1 0 .002-5.754 2.877 2.877 0 0 0-.002 5.754ZM264.453 138.928a2.619 2.619 0 1 0-.001-5.237 2.619 2.619 0 0 0 .001 5.237ZM283.325 138.621a2.312 2.312 0 1 0 0-4.623 2.312 2.312 0 0 0 0 4.623ZM302.198 138.362a2.054 2.054 0 1 0-2.053-2.053c0 1.133.92 2.053 2.053 2.053ZM321.07 138.102c.991 0 1.769-.802 1.769-1.769 0-.991-.802-1.769-1.769-1.769-.991 0-1.769.802-1.769 1.769 0 .967.802 1.769 1.769 1.769ZM339.942 137.819a1.51 1.51 0 1 0 0-3.02 1.51 1.51 0 0 0 0 3.02ZM358.815 137.513a1.204 1.204 0 1 0-.001-2.407 1.204 1.204 0 0 0 .001 2.407ZM377.687 137.253a.944.944 0 1 0 0-1.887.944.944 0 0 0 0 1.887ZM396.559 136.994a.685.685 0 1 0 0-1.37.685.685 0 0 0 0 1.37ZM415.432 136.734a.425.425 0 1 0 0-.85.425.425 0 0 0 0 .85ZM434.305 136.405a.095.095 0 0 0 .094-.095.095.095 0 0 0-.094-.095.095.095 0 1 0 0 .19ZM.24 159.898a4.717 4.717 0 1 0 0-9.435 4.716 4.716 0 0 0-4.719 4.718c.024 2.594 2.124 4.717 4.719 4.717ZM19.112 159.898a4.717 4.717 0 1 0 0-9.435 4.716 4.716 0 0 0-4.718 4.718c.023 2.594 2.123 4.717 4.718 4.717ZM37.984 159.898a4.717 4.717 0 1 0 0-9.435 4.716 4.716 0 0 0-4.718 4.718c.024 2.594 2.123 4.717 4.718 4.717ZM56.857 159.851a4.641 4.641 0 0 0 4.647-4.647 4.641 4.641 0 0 0-4.647-4.647 4.641 4.641 0 0 0-4.648 4.647 4.656 4.656 0 0 0 4.648 4.647ZM75.729 159.733a4.552 4.552 0 1 0 0-9.105 4.552 4.552 0 0 0 0 9.105ZM94.602 159.592a4.38 4.38 0 0 0 4.387-4.388 4.379 4.379 0 0 0-4.388-4.387 4.379 4.379 0 0 0-4.387 4.387 4.395 4.395 0 0 0 4.388 4.388ZM113.474 159.427a4.246 4.246 0 1 0 0-8.492 4.246 4.246 0 0 0 0 8.492ZM132.346 159.262a4.081 4.081 0 1 0-.001-8.163 4.081 4.081 0 0 0 .001 8.163ZM151.219 159.049a3.87 3.87 0 1 0 0-7.739 3.87 3.87 0 0 0 0 7.739ZM170.091 158.86a3.659 3.659 0 0 0 3.656-3.656 3.674 3.674 0 0 0-3.656-3.656c-2.005 0-3.657 1.651-3.657 3.656a3.66 3.66 0 0 0 3.657 3.656ZM188.963 158.625a3.445 3.445 0 1 0 0-6.89 3.445 3.445 0 0 0 0 6.89ZM207.836 158.365a3.185 3.185 0 1 0 0-6.37 3.185 3.185 0 0 0 0 6.37ZM226.708 158.153a2.973 2.973 0 1 0 0-5.945 2.973 2.973 0 0 0 0 5.945ZM245.581 157.917a2.714 2.714 0 0 0 2.713-2.713 2.729 2.729 0 0 0-2.713-2.713 2.713 2.713 0 0 0-2.713 2.713 2.728 2.728 0 0 0 2.713 2.713ZM264.453 157.634a2.451 2.451 0 0 0 2.453-2.453 2.467 2.467 0 0 0-2.453-2.454 2.452 2.452 0 0 0-2.453 2.454 2.466 2.466 0 0 0 2.453 2.453ZM283.325 157.375a2.194 2.194 0 1 0 0-4.389 2.194 2.194 0 0 0 0 4.389ZM302.198 157.115a1.934 1.934 0 1 0 0-3.868 1.934 1.934 0 0 0 0 3.868ZM321.07 156.855a1.674 1.674 0 1 0 .002-3.348 1.674 1.674 0 0 0-.002 3.348ZM339.942 156.596a1.42 1.42 0 0 0 1.416-1.416 1.42 1.42 0 0 0-1.416-1.415 1.42 1.42 0 0 0-1.415 1.415 1.42 1.42 0 0 0 1.415 1.416ZM358.815 156.337c.637 0 1.156-.519 1.156-1.156 0-.637-.519-1.156-1.156-1.156-.637 0-1.156.519-1.156 1.156 0 .637.519 1.156 1.156 1.156ZM377.687 156.03a.821.821 0 0 0 .826-.826.836.836 0 0 0-.826-.825.82.82 0 0 0-.825.825c0 .448.377.826.825.826ZM396.56 155.747a.567.567 0 1 0-.002-1.134.567.567 0 0 0 .002 1.134ZM415.432 155.487a.307.307 0 1 0 0-.614.307.307 0 0 0 0 .614ZM434.304 155.228a.047.047 0 0 0 .048-.047.048.048 0 0 0-.048-.048.048.048 0 0 0-.047.048c0 .026.021.047.047.047ZM.24 178.463a4.38 4.38 0 0 0 4.387-4.388 4.38 4.38 0 0 0-4.387-4.387 4.38 4.38 0 0 0-4.388 4.387 4.395 4.395 0 0 0 4.388 4.388ZM19.112 178.51a4.458 4.458 0 1 0 0-8.917 4.458 4.458 0 0 0 0 8.917ZM37.984 178.463a4.38 4.38 0 0 0 4.388-4.388 4.38 4.38 0 0 0-4.388-4.387 4.38 4.38 0 0 0-4.387 4.387 4.395 4.395 0 0 0 4.387 4.388ZM56.857 178.392a4.329 4.329 0 0 0 4.34-4.34 4.33 4.33 0 0 0-4.34-4.341 4.33 4.33 0 0 0-4.341 4.341 4.344 4.344 0 0 0 4.34 4.34ZM75.73 178.298a4.246 4.246 0 1 0 0-8.492 4.246 4.246 0 0 0 0 8.492ZM94.602 178.18a4.128 4.128 0 1 0 0-8.256 4.128 4.128 0 0 0 0 8.256ZM113.474 178.086a4.033 4.033 0 0 0 4.034-4.034 4.017 4.017 0 0 0-4.034-4.034 4.017 4.017 0 0 0-4.034 4.034 4.032 4.032 0 0 0 4.034 4.034ZM132.346 177.873a3.822 3.822 0 1 0 0-7.643 3.822 3.822 0 0 0 0 7.643ZM151.219 177.732a3.66 3.66 0 0 0 3.656-3.657 3.674 3.674 0 0 0-3.656-3.656 3.674 3.674 0 0 0-3.657 3.656 3.66 3.66 0 0 0 3.657 3.657ZM170.091 177.496a3.444 3.444 0 1 0 0-6.888 3.444 3.444 0 0 0 0 6.888ZM188.963 177.307a3.256 3.256 0 1 0 0-6.512 3.256 3.256 0 0 0 0 6.512ZM207.836 177.095a3.05 3.05 0 0 0 3.043-3.043 3.05 3.05 0 0 0-3.043-3.043 3.05 3.05 0 0 0-3.043 3.043 3.05 3.05 0 0 0 3.043 3.043ZM226.708 176.883a2.832 2.832 0 1 0-.001-5.663 2.832 2.832 0 0 0 .001 5.663ZM245.58 176.623a2.571 2.571 0 1 0 .002-5.142 2.571 2.571 0 0 0-.002 5.142ZM264.453 176.363a2.312 2.312 0 1 0 0-4.623 2.312 2.312 0 0 0 0 4.623ZM283.325 176.104c1.133 0 2.053-.92 2.053-2.052 0-1.133-.92-2.053-2.053-2.053a2.054 2.054 0 0 0 0 4.105ZM302.198 175.845c.99 0 1.769-.802 1.769-1.77 0-.99-.802-1.769-1.769-1.769-.991 0-1.77.802-1.77 1.769 0 .968.802 1.77 1.77 1.77ZM321.07 175.561a1.51 1.51 0 1 0 0-3.02 1.51 1.51 0 0 0 0 3.02ZM339.942 175.302a1.25 1.25 0 1 0 0-2.501 1.25 1.25 0 0 0 0 2.501ZM358.815 175.043a.991.991 0 1 0 0-1.983.991.991 0 0 0 0 1.983ZM377.687 174.783a.73.73 0 1 0 0-1.461.73.73 0 0 0 0 1.461ZM396.56 174.524a.473.473 0 1 0-.472-.472c0 .259.212.472.472.472ZM415.432 174.264a.21.21 0 0 0 .212-.212.212.212 0 1 0-.424 0 .21.21 0 0 0 .212.212ZM.24 197.051a4.128 4.128 0 1 0 0-8.256 4.128 4.128 0 0 0 0 8.256ZM19.112 197.051a4.128 4.128 0 1 0 0-8.256 4.128 4.128 0 0 0 0 8.256ZM37.984 197.051a4.128 4.128 0 1 0 0-8.256 4.128 4.128 0 0 0 0 8.256ZM56.857 197.004a4.081 4.081 0 1 0 0-8.162 4.081 4.081 0 0 0 0 8.162ZM75.73 196.909a3.981 3.981 0 0 0 3.986-3.986 3.982 3.982 0 0 0-3.987-3.987 3.982 3.982 0 0 0-3.987 3.987c.024 2.194 1.793 3.986 3.987 3.986ZM94.602 196.791a3.869 3.869 0 1 0 0-7.737 3.869 3.869 0 0 0 0 7.737ZM113.474 196.697a3.774 3.774 0 1 0 0-7.549 3.774 3.774 0 0 0 0 7.549ZM132.346 196.532a3.609 3.609 0 1 0 0-7.217 3.609 3.609 0 0 0 0 7.217ZM151.219 196.367a3.444 3.444 0 1 0 0-6.888 3.444 3.444 0 0 0 0 6.888ZM170.091 196.178a3.255 3.255 0 1 0 0-6.511 3.256 3.256 0 0 0 0 6.511ZM188.963 195.966a3.05 3.05 0 0 0 3.043-3.043 3.05 3.05 0 0 0-3.043-3.043 3.05 3.05 0 0 0-3.043 3.043c.024 1.675 1.368 3.043 3.043 3.043ZM207.836 195.754a2.832 2.832 0 1 0-.001-5.663 2.832 2.832 0 0 0 .001 5.663ZM226.708 195.541a2.619 2.619 0 1 0 0-5.237 2.619 2.619 0 0 0 0 5.237ZM245.581 195.329a2.416 2.416 0 0 0 2.406-2.406 2.416 2.416 0 0 0-2.406-2.406 2.416 2.416 0 0 0-2.407 2.406 2.401 2.401 0 0 0 2.407 2.406ZM264.453 195.07a2.156 2.156 0 0 0 2.147-2.147 2.156 2.156 0 0 0-2.147-2.147c-1.18 0-2.147.968-2.147 2.147 0 1.179.967 2.147 2.147 2.147ZM283.325 194.81a1.887 1.887 0 1 0 .001-3.775 1.887 1.887 0 0 0-.001 3.775ZM302.198 194.598a1.675 1.675 0 1 0 0-3.35 1.675 1.675 0 0 0 0 3.35ZM321.07 194.338c.779 0 1.415-.637 1.415-1.415 0-.779-.636-1.416-1.415-1.416a1.42 1.42 0 0 0-1.415 1.416 1.42 1.42 0 0 0 1.415 1.415ZM339.942 194.079c.637 0 1.156-.519 1.156-1.156 0-.637-.519-1.156-1.156-1.156-.637 0-1.156.519-1.156 1.156 0 .637.519 1.156 1.156 1.156ZM358.815 193.819a.896.896 0 1 0 0-1.792.896.896 0 0 0 0 1.792ZM377.687 193.56a.637.637 0 1 0 0-1.274.637.637 0 0 0 0 1.274ZM396.56 193.3a.377.377 0 1 0 0-.755.377.377 0 0 0 0 .755ZM415.432 193.018a.095.095 0 1 0 0-.19.095.095 0 0 0-.094.095c0 .053.042.095.094.095ZM.24 215.615a3.821 3.821 0 1 0 0-7.643 3.821 3.821 0 0 0 0 7.643ZM19.112 215.615a3.821 3.821 0 1 0 0-7.643 3.821 3.821 0 0 0 0 7.643ZM37.984 215.615a3.822 3.822 0 1 0 0-7.643 3.822 3.822 0 0 0 0 7.643ZM56.857 215.568a3.774 3.774 0 1 0 0-7.549 3.774 3.774 0 0 0 0 7.549ZM75.73 215.521c2.051 0 3.703-1.675 3.703-3.727 0-2.052-1.675-3.727-3.704-3.727s-3.727 1.675-3.727 3.727c.023 2.052 1.675 3.727 3.727 3.727ZM94.602 215.403a3.61 3.61 0 1 0 0-7.219 3.61 3.61 0 0 0 0 7.219ZM113.474 215.309a3.515 3.515 0 1 0 0-7.03 3.515 3.515 0 0 0 0 7.03ZM132.346 215.144c1.84 0 3.35-1.51 3.35-3.35s-1.51-3.35-3.35-3.35-3.35 1.51-3.35 3.35c0 1.864 1.51 3.35 3.35 3.35ZM151.219 214.978a3.184 3.184 0 1 0 0-6.368 3.184 3.184 0 0 0 0 6.368ZM170.091 214.837a3.05 3.05 0 0 0 3.043-3.043 3.05 3.05 0 0 0-3.043-3.043 3.05 3.05 0 0 0-3.043 3.043c.023 1.675 1.368 3.043 3.043 3.043ZM188.963 214.625a2.831 2.831 0 1 0 0-5.662 2.831 2.831 0 0 0 0 5.662ZM207.836 214.412a2.618 2.618 0 1 0 0-5.236 2.618 2.618 0 0 0 0 5.236ZM226.708 214.247a2.451 2.451 0 0 0 2.453-2.453 2.45 2.45 0 0 0-2.453-2.453 2.45 2.45 0 0 0-2.453 2.453 2.45 2.45 0 0 0 2.453 2.453ZM245.58 213.988a2.194 2.194 0 1 0 0-4.387 2.194 2.194 0 0 0 0 4.387ZM264.453 213.775a1.981 1.981 0 1 0 0-3.962 1.981 1.981 0 0 0 0 3.962ZM283.325 213.516c.944 0 1.722-.778 1.722-1.722s-.778-1.722-1.722-1.722c-.943 0-1.722.778-1.722 1.722 0 .967.779 1.722 1.722 1.722ZM302.198 213.303a1.509 1.509 0 1 0 0-3.018 1.509 1.509 0 0 0 0 3.018ZM321.07 213.044a1.25 1.25 0 1 0 0-2.5 1.25 1.25 0 0 0 0 2.5ZM339.942 212.785a.99.99 0 1 0 0-1.982.99.99 0 0 0 0 1.982ZM358.815 212.572a.785.785 0 0 0 .778-.778.786.786 0 0 0-.778-.779.786.786 0 0 0-.779.779.77.77 0 0 0 .779.778ZM377.687 212.313a.524.524 0 0 0 .519-.519.524.524 0 0 0-.519-.519.524.524 0 0 0-.519.519c0 .283.236.519.519.519ZM396.56 212.053a.26.26 0 1 0 0-.518.26.26 0 0 0 0 .518ZM415.432 211.841a.047.047 0 1 0 0-.094.047.047 0 0 0 0 .094ZM.24 234.227a3.562 3.562 0 1 0 0-7.124 3.562 3.562 0 0 0 0 7.124ZM19.112 234.227a3.562 3.562 0 1 0 0-7.124 3.562 3.562 0 0 0 0 7.124ZM37.984 234.227a3.562 3.562 0 1 0 0-7.124 3.562 3.562 0 0 0 0 7.124ZM56.857 234.18a3.515 3.515 0 1 0 0-7.03 3.515 3.515 0 0 0 0 7.03ZM75.73 234.109a3.444 3.444 0 1 0 0-6.888 3.444 3.444 0 0 0 0 6.888ZM94.601 234.015c1.84 0 3.35-1.51 3.35-3.35s-1.51-3.349-3.35-3.349a3.362 3.362 0 0 0-3.35 3.349c0 1.864 1.51 3.35 3.35 3.35ZM113.474 233.921a3.255 3.255 0 1 0 0-6.51 3.255 3.255 0 0 0 0 6.51ZM132.346 233.802a3.137 3.137 0 1 0 .002-6.274 3.137 3.137 0 0 0-.002 6.274ZM151.219 233.637a2.972 2.972 0 1 0 0-5.944 2.972 2.972 0 0 0 0 5.944ZM170.091 233.496a2.832 2.832 0 1 0-.001-5.663 2.832 2.832 0 0 0 .001 5.663ZM188.963 233.283a2.618 2.618 0 1 0 .002-5.236 2.618 2.618 0 0 0-.002 5.236ZM207.836 233.118a2.45 2.45 0 0 0 2.453-2.453 2.451 2.451 0 0 0-2.453-2.453 2.451 2.451 0 0 0-2.454 2.453 2.452 2.452 0 0 0 2.454 2.453ZM226.708 232.906a2.24 2.24 0 1 0 0-4.481 2.24 2.24 0 0 0 0 4.481ZM245.58 232.646a1.981 1.981 0 1 0 .001-3.963 1.981 1.981 0 0 0-.001 3.963ZM264.453 232.458c.991 0 1.769-.802 1.769-1.769 0-.991-.802-1.769-1.769-1.769-.991 0-1.769.802-1.769 1.769 0 .967.802 1.769 1.769 1.769ZM283.325 232.246a1.581 1.581 0 1 0 0-3.162 1.581 1.581 0 0 0 0 3.162ZM302.198 231.962a1.297 1.297 0 1 0 0-2.594 1.297 1.297 0 0 0 0 2.594ZM321.07 231.774a1.108 1.108 0 1 0-1.109-1.109c.024.613.496 1.109 1.109 1.109ZM339.942 231.514a.82.82 0 0 0 .826-.825.82.82 0 0 0-.826-.826.82.82 0 0 0-.825.826c0 .448.377.825.825.825ZM358.815 231.302a.637.637 0 1 0 0-1.274.637.637 0 0 0 0 1.274ZM377.687 231.042a.377.377 0 1 0 .001-.755.377.377 0 0 0-.001.755ZM396.56 230.76a.095.095 0 0 0 .095-.095.095.095 0 0 0-.095-.094.095.095 0 0 0-.095.094c0 .053.043.095.095.095ZM.24 252.792a3.256 3.256 0 1 0-.001-6.512 3.256 3.256 0 0 0 0 6.512ZM19.112 252.792a3.256 3.256 0 1 0 0-6.512 3.256 3.256 0 0 0 0 6.512ZM37.984 252.792a3.256 3.256 0 1 0 0-6.512 3.256 3.256 0 0 0 0 6.512ZM56.857 252.721a3.185 3.185 0 1 0 0-6.37 3.185 3.185 0 0 0 0 6.37ZM75.73 252.673a3.137 3.137 0 1 0 0-6.274 3.137 3.137 0 0 0 0 6.274ZM94.602 252.626a3.1 3.1 0 0 0 3.09-3.09 3.101 3.101 0 0 0-3.09-3.09 3.101 3.101 0 0 0-3.09 3.09 3.1 3.1 0 0 0 3.09 3.09ZM113.474 252.508a2.971 2.971 0 1 0 0-5.944 2.973 2.973 0 1 0 0 5.944ZM132.346 252.414a2.877 2.877 0 1 0 .001-5.755 2.877 2.877 0 0 0-.001 5.755ZM151.219 252.272a2.712 2.712 0 0 0 0-5.425 2.728 2.728 0 0 0-2.713 2.713 2.727 2.727 0 0 0 2.713 2.712ZM170.091 252.107a2.57 2.57 0 1 0 0-5.142 2.57 2.57 0 0 0 0 5.142ZM188.963 251.942a2.417 2.417 0 0 0 2.407-2.406 2.417 2.417 0 0 0-2.407-2.406 2.416 2.416 0 0 0-2.406 2.406 2.416 2.416 0 0 0 2.406 2.406ZM207.836 251.73a2.194 2.194 0 1 0 0-4.389 2.194 2.194 0 0 0 0 4.389ZM226.708 251.518a1.982 1.982 0 1 0 0-3.964 1.982 1.982 0 0 0 0 3.964ZM245.581 251.329c.99 0 1.769-.802 1.769-1.769 0-.991-.802-1.769-1.769-1.769-.991 0-1.77.802-1.77 1.769 0 .967.802 1.769 1.77 1.769ZM264.453 251.117a1.58 1.58 0 1 0 0-3.16 1.58 1.58 0 0 0 0 3.16ZM283.325 250.904a1.368 1.368 0 1 0 .002-2.736 1.368 1.368 0 0 0-.002 2.736ZM302.198 250.692c.637 0 1.156-.519 1.156-1.156 0-.637-.519-1.156-1.156-1.156-.637 0-1.156.519-1.156 1.156 0 .637.519 1.156 1.156 1.156ZM321.07 250.48a.944.944 0 1 0 0-1.889.944.944 0 0 0 0 1.889ZM339.942 250.22a.684.684 0 1 0 0-1.367.684.684 0 0 0 0 1.367ZM358.815 250.008a.474.474 0 0 0 .472-.472.473.473 0 1 0-.472.472ZM377.687 249.748a.21.21 0 0 0 .212-.212.21.21 0 0 0-.212-.212.21.21 0 0 0-.212.212.21.21 0 0 0 .212.212ZM.24 271.38a2.973 2.973 0 1 0-.001-5.945 2.973 2.973 0 0 0 0 5.945ZM19.112 271.38a2.973 2.973 0 1 0 0-5.945 2.973 2.973 0 0 0 0 5.945ZM37.984 271.38a2.973 2.973 0 1 0 0-5.945 2.973 2.973 0 0 0 0 5.945ZM56.857 271.332a2.925 2.925 0 1 0 0-5.85 2.925 2.925 0 0 0 0 5.85ZM75.73 271.285a2.878 2.878 0 1 0 0-5.755 2.878 2.878 0 0 0 0 5.755ZM94.601 271.191a2.789 2.789 0 0 0 2.784-2.784 2.788 2.788 0 0 0-2.784-2.783 2.788 2.788 0 0 0-2.783 2.783c.023 1.534 1.25 2.784 2.783 2.784ZM113.474 271.143a2.713 2.713 0 1 0 0-5.425 2.729 2.729 0 0 0-2.713 2.713 2.728 2.728 0 0 0 2.713 2.712ZM132.346 271.026a2.62 2.62 0 1 0-.001-5.24 2.62 2.62 0 0 0 .001 5.24ZM151.219 270.86a2.45 2.45 0 0 0 2.453-2.453 2.451 2.451 0 0 0-2.453-2.453 2.467 2.467 0 0 0-2.454 2.453 2.452 2.452 0 0 0 2.454 2.453ZM170.091 270.719a2.312 2.312 0 1 0 0-4.624 2.312 2.312 0 0 0 0 4.624ZM188.963 270.554c1.18 0 2.147-.967 2.147-2.147a2.155 2.155 0 0 0-2.147-2.147 2.155 2.155 0 0 0-2.146 2.147c0 1.18.967 2.147 2.146 2.147ZM207.836 270.389a1.981 1.981 0 1 0 0-3.963 1.981 1.981 0 0 0 0 3.963ZM226.708 270.2c.991 0 1.769-.802 1.769-1.769 0-.991-.802-1.769-1.769-1.769-.991 0-1.769.802-1.769 1.769 0 .967.802 1.769 1.769 1.769ZM245.58 269.988a1.581 1.581 0 1 0 0-3.162 1.581 1.581 0 0 0 0 3.162ZM264.453 269.823a1.42 1.42 0 0 0 1.415-1.416 1.42 1.42 0 0 0-1.415-1.415 1.42 1.42 0 0 0-1.416 1.415 1.42 1.42 0 0 0 1.416 1.416ZM283.325 269.61a1.202 1.202 0 1 0 .002-2.404 1.202 1.202 0 0 0-.002 2.404ZM302.198 269.398a.99.99 0 1 0 0-1.98.99.99 0 0 0 0 1.98ZM321.07 269.139a.731.731 0 1 0-.001-1.463.731.731 0 0 0 .001 1.463ZM339.942 268.926a.523.523 0 0 0 .519-.519.523.523 0 0 0-.519-.519.524.524 0 0 0-.519.519c0 .283.236.519.519.519ZM358.815 268.714a.306.306 0 1 0 0-.612.306.306 0 0 0 0 .612ZM377.687 268.455a.047.047 0 0 0 .048-.048.047.047 0 0 0-.048-.047.047.047 0 0 0-.047.047c0 .027.021.048.047.048ZM.24 289.944a2.665 2.665 0 1 0 0-5.33 2.665 2.665 0 0 0 0 5.33ZM19.112 289.944a2.665 2.665 0 1 0 .001-5.33 2.665 2.665 0 0 0-.001 5.33ZM37.984 289.944a2.665 2.665 0 1 0 .001-5.33 2.665 2.665 0 0 0 0 5.33ZM56.857 289.944a2.665 2.665 0 1 0 0-5.33 2.665 2.665 0 0 0 0 5.33ZM75.73 289.849a2.571 2.571 0 1 0 0-5.142 2.571 2.571 0 0 0 0 5.142ZM94.601 289.779a2.501 2.501 0 1 0 0-5.002 2.501 2.501 0 0 0 0 5.002ZM113.474 289.732a2.452 2.452 0 0 0 2.453-2.454 2.45 2.45 0 0 0-2.453-2.453 2.467 2.467 0 0 0-2.454 2.453 2.452 2.452 0 0 0 2.454 2.454ZM132.346 289.59a2.312 2.312 0 1 0 0-4.624 2.312 2.312 0 0 0 0 4.624ZM151.219 289.472a2.193 2.193 0 1 0 0-4.386 2.193 2.193 0 0 0 0 4.386ZM170.091 289.331a2.054 2.054 0 0 0 0-4.105c-1.132 0-2.052.92-2.052 2.052.023 1.133.92 2.053 2.052 2.053ZM188.963 289.166a1.888 1.888 0 1 0 0-3.775 1.888 1.888 0 0 0 0 3.775ZM207.836 289c.943 0 1.722-.778 1.722-1.722 0-.943-.779-1.721-1.722-1.721a1.73 1.73 0 0 0-1.722 1.721c0 .968.778 1.722 1.722 1.722ZM226.708 288.859a1.581 1.581 0 1 0 0-3.162 1.581 1.581 0 0 0 0 3.162ZM245.58 288.647a1.37 1.37 0 1 0 0-2.738 1.37 1.37 0 0 0 0 2.738ZM264.453 288.481a1.203 1.203 0 1 0 0-2.406 1.203 1.203 0 0 0 0 2.406ZM283.325 288.269a.99.99 0 1 0 0-1.981.99.99 0 0 0 0 1.981ZM302.198 288.057a.786.786 0 0 0 .778-.779.785.785 0 0 0-.778-.778.786.786 0 0 0-.779.778c0 .448.354.779.779.779ZM321.07 287.845a.566.566 0 1 0 0-1.133.566.566 0 0 0 0 1.133ZM339.942 287.656a.378.378 0 1 0 0-.755.378.378 0 0 0 0 .755ZM358.815 287.374a.095.095 0 1 0 0-.19.095.095 0 0 0 0 .19ZM.24 308.508a2.359 2.359 0 1 0 0-4.717 2.359 2.359 0 0 0 0 4.717ZM19.112 308.556a2.417 2.417 0 0 0 2.406-2.406 2.417 2.417 0 0 0-2.406-2.407 2.417 2.417 0 0 0-2.406 2.407 2.417 2.417 0 0 0 2.406 2.406ZM37.984 308.556a2.417 2.417 0 0 0 2.407-2.406 2.417 2.417 0 0 0-2.407-2.407 2.417 2.417 0 0 0-2.406 2.407 2.417 2.417 0 0 0 2.406 2.406ZM56.857 308.508a2.359 2.359 0 1 0 0-4.717 2.359 2.359 0 0 0 0 4.717ZM75.73 308.461a2.312 2.312 0 1 0 0-4.623 2.312 2.312 0 0 0 0 4.623ZM94.602 308.391a2.241 2.241 0 1 0-.001-4.483 2.241 2.241 0 0 0 0 4.483ZM113.474 308.296a2.155 2.155 0 0 0 2.147-2.147 2.155 2.155 0 0 0-2.147-2.146c-1.18 0-2.147.967-2.147 2.146 0 1.18.967 2.147 2.147 2.147ZM132.346 308.202c1.133 0 2.053-.92 2.053-2.053a2.054 2.054 0 0 0-4.105 0c.024 1.133.92 2.053 2.052 2.053ZM151.219 308.084a1.934 1.934 0 1 0 0-3.869 1.934 1.934 0 0 0 0 3.869ZM170.091 307.942c.991 0 1.769-.802 1.769-1.769 0-.991-.802-1.769-1.769-1.769-.991 0-1.769.802-1.769 1.769 0 .967.802 1.769 1.769 1.769ZM188.963 307.824a1.674 1.674 0 1 0 .002-3.348 1.674 1.674 0 0 0-.002 3.348ZM207.836 307.659a1.51 1.51 0 1 0-.001-3.02 1.51 1.51 0 0 0 .001 3.02ZM226.708 307.447a1.298 1.298 0 1 0 0-2.596 1.298 1.298 0 0 0 0 2.596ZM245.58 307.305c.637 0 1.156-.519 1.156-1.155 0-.637-.519-1.156-1.156-1.156-.636 0-1.155.519-1.155 1.156 0 .636.519 1.155 1.155 1.155ZM264.453 307.14a.99.99 0 1 0 0-1.981.99.99 0 0 0 0 1.981ZM283.325 306.928a.786.786 0 0 0 .779-.779.786.786 0 0 0-.779-.778.785.785 0 0 0-.778.778.77.77 0 0 0 .778.779ZM302.198 306.716a.567.567 0 1 0-.002-1.134.567.567 0 0 0 .002 1.134ZM321.07 306.527a.377.377 0 1 0-.001-.755.377.377 0 0 0 .001.755ZM339.942 306.315a.162.162 0 0 0 .166-.166.162.162 0 0 0-.166-.165.161.161 0 0 0-.165.165c.024.095.095.166.165.166ZM.24 327.12c1.155 0 2.1-.944 2.1-2.1a2.104 2.104 0 0 0-2.1-2.099c-1.156 0-2.1.944-2.1 2.099 0 1.156.944 2.1 2.1 2.1ZM19.112 327.12c1.156 0 2.1-.944 2.1-2.1a2.104 2.104 0 0 0-2.1-2.099c-1.156 0-2.1.944-2.1 2.099 0 1.156.944 2.1 2.1 2.1ZM37.984 327.12c1.156 0 2.1-.944 2.1-2.1a2.104 2.104 0 0 0-2.1-2.099c-1.156 0-2.1.944-2.1 2.099 0 1.156.944 2.1 2.1 2.1ZM56.857 327.073a2.054 2.054 0 0 0 0-4.105c-1.133 0-2.053.92-2.053 2.052.024 1.133.92 2.053 2.053 2.053ZM75.73 327.002a1.981 1.981 0 1 0 0-3.963 1.981 1.981 0 0 0 0 3.963ZM94.601 326.955a1.934 1.934 0 1 0 0-3.868 1.934 1.934 0 0 0 0 3.868ZM113.474 326.908a1.887 1.887 0 1 0 0-3.774 1.887 1.887 0 0 0 0 3.774ZM132.346 326.813c.991 0 1.77-.802 1.77-1.769 0-.99-.803-1.769-1.77-1.769-.991 0-1.769.802-1.769 1.769 0 .967.802 1.769 1.769 1.769ZM151.219 326.696a1.674 1.674 0 1 0 0-3.348 1.674 1.674 0 0 0 0 3.348ZM170.091 326.53a1.51 1.51 0 1 0 0-3.02 1.51 1.51 0 0 0 0 3.02ZM188.963 326.436a1.42 1.42 0 0 0 1.416-1.415 1.42 1.42 0 0 0-1.416-1.416 1.42 1.42 0 0 0-1.415 1.416 1.42 1.42 0 0 0 1.415 1.415ZM207.836 326.271a1.25 1.25 0 1 0 0-2.5 1.25 1.25 0 0 0 0 2.5ZM226.708 326.129a1.107 1.107 0 1 0 0-2.217c-.613 0-1.109.495-1.109 1.109.024.613.496 1.108 1.109 1.108ZM245.581 325.964a.943.943 0 1 0 0-1.885.943.943 0 0 0 0 1.885ZM264.453 325.752a.731.731 0 1 0 0-1.463.731.731 0 0 0 0 1.463ZM283.325 325.587a.566.566 0 1 0 0-1.132.566.566 0 0 0 0 1.132ZM302.198 325.398a.377.377 0 1 0 0-.755.377.377 0 0 0 0 .755ZM321.07 325.186a.161.161 0 0 0 .165-.165.16.16 0 0 0-.165-.165.16.16 0 0 0-.165.165c.023.094.094.165.165.165ZM.24 345.685c.99 0 1.769-.802 1.769-1.77 0-.99-.802-1.769-1.77-1.769-.99 0-1.769.802-1.769 1.769 0 .968.802 1.77 1.77 1.77ZM19.112 345.685c.99 0 1.77-.802 1.77-1.77 0-.99-.803-1.769-1.77-1.769-.99 0-1.77.802-1.77 1.769 0 .968.803 1.77 1.77 1.77ZM37.984 345.685c.991 0 1.77-.802 1.77-1.77 0-.99-.802-1.769-1.77-1.769-.99 0-1.769.802-1.769 1.769 0 .968.802 1.77 1.77 1.77ZM56.857 345.685c.99 0 1.769-.802 1.769-1.77 0-.99-.802-1.769-1.77-1.769-.99 0-1.769.802-1.769 1.769 0 .968.802 1.77 1.77 1.77ZM75.73 345.614c.943 0 1.721-.779 1.721-1.722 0-.944-.778-1.722-1.722-1.722s-1.722.778-1.722 1.722c0 .967.778 1.722 1.722 1.722ZM94.602 345.567a1.675 1.675 0 1 0 0-3.35 1.675 1.675 0 0 0 0 3.35ZM113.474 345.472a1.58 1.58 0 1 0 0-3.161 1.581 1.581 0 0 0 0 3.161ZM132.346 345.401a1.51 1.51 0 1 0 0-3.02 1.51 1.51 0 0 0 0 3.02ZM151.219 345.307a1.42 1.42 0 0 0 1.415-1.415 1.42 1.42 0 0 0-1.415-1.416 1.42 1.42 0 0 0-1.416 1.416 1.42 1.42 0 0 0 1.416 1.415ZM170.091 345.142a1.25 1.25 0 1 0 0-2.5 1.25 1.25 0 0 0 0 2.5ZM188.963 345.048c.637 0 1.156-.519 1.156-1.156 0-.637-.519-1.156-1.156-1.156-.637 0-1.156.519-1.156 1.156 0 .637.519 1.156 1.156 1.156ZM207.836 344.883a.991.991 0 1 0 0-1.983.991.991 0 0 0 0 1.983ZM226.708 344.741a.821.821 0 0 0 .826-.826.82.82 0 0 0-.826-.825.82.82 0 0 0-.825.825c0 .448.377.826.825.826ZM245.58 344.576a.685.685 0 1 0 0-1.37.685.685 0 0 0 0 1.37ZM264.453 344.411a.524.524 0 0 0 .519-.519.524.524 0 0 0-.519-.519.524.524 0 0 0-.519.519c0 .283.236.519.519.519ZM283.325 344.269a.377.377 0 1 0 .001-.755.377.377 0 0 0-.001.755ZM302.198 344.057a.161.161 0 0 0 .165-.165.16.16 0 0 0-.165-.165.16.16 0 0 0-.165.165c.023.094.094.165.165.165ZM.24 364.272a1.51 1.51 0 1 0 0-3.02 1.51 1.51 0 0 0 0 3.02ZM19.112 364.272a1.51 1.51 0 1 0 0-3.02 1.51 1.51 0 0 0 0 3.02ZM37.984 364.272a1.51 1.51 0 1 0 0-3.02 1.51 1.51 0 0 0 0 3.02ZM56.857 364.225a1.47 1.47 0 0 0 1.462-1.462 1.47 1.47 0 0 0-1.462-1.463 1.47 1.47 0 0 0-1.463 1.463c0 .825.66 1.462 1.463 1.462ZM75.73 364.178a1.42 1.42 0 0 0 1.414-1.415 1.42 1.42 0 0 0-1.415-1.416 1.42 1.42 0 0 0-1.415 1.416 1.42 1.42 0 0 0 1.415 1.415ZM94.601 364.131a1.368 1.368 0 1 0 0-2.737 1.368 1.368 0 0 0 0 2.737ZM113.474 364.06a1.297 1.297 0 1 0 0-2.595 1.297 1.297 0 0 0 0 2.595ZM132.346 363.966a1.203 1.203 0 1 0 0-2.406 1.203 1.203 0 0 0 0 2.406ZM151.219 363.919c.637 0 1.156-.519 1.156-1.156 0-.637-.519-1.156-1.156-1.156-.637 0-1.156.519-1.156 1.156 0 .637.519 1.156 1.156 1.156ZM170.091 363.754a.991.991 0 1 0 0-1.983.991.991 0 0 0 0 1.983ZM188.963 363.659a.897.897 0 1 0 0-1.793.897.897 0 0 0 0 1.793ZM207.836 363.541a.785.785 0 0 0 .778-.778.786.786 0 0 0-.778-.779.786.786 0 0 0-.779.779.77.77 0 0 0 .779.778ZM226.708 363.4a.637.637 0 1 0 0-1.274.637.637 0 0 0 0 1.274ZM245.58 363.235a.473.473 0 0 0 0-.944.473.473 0 0 0 0 .944ZM264.453 363.07a.308.308 0 0 0 0-.614.307.307 0 0 0 0 .614ZM283.326 362.858a.095.095 0 0 0 .094-.095.095.095 0 0 0-.094-.095.095.095 0 1 0 0 .19ZM.24 382.837a1.203 1.203 0 1 0 0-2.407 1.203 1.203 0 0 0 0 2.407ZM19.112 382.837a1.203 1.203 0 1 0 0-2.407 1.203 1.203 0 0 0 0 2.407ZM37.984 382.837a1.203 1.203 0 1 0 0-2.407 1.203 1.203 0 0 0 0 2.407ZM56.857 382.837a1.203 1.203 0 1 0 0-2.407 1.203 1.203 0 0 0 0 2.407ZM75.73 382.79c.636 0 1.155-.519 1.155-1.156 0-.637-.519-1.156-1.156-1.156-.637 0-1.156.519-1.156 1.156 0 .637.52 1.156 1.156 1.156ZM94.601 382.743a1.108 1.108 0 1 0 0-2.218c-.613 0-1.108.496-1.108 1.109.023.613.495 1.109 1.108 1.109ZM113.474 382.672a1.038 1.038 0 1 0 0-2.077 1.038 1.038 0 0 0 0 2.077ZM132.346 382.578a.944.944 0 1 0 0-1.889.944.944 0 0 0 0 1.889ZM151.219 382.483a.82.82 0 0 0 .825-.825.82.82 0 0 0-.825-.826.835.835 0 0 0-.826.826c0 .448.377.825.826.825ZM170.091 382.365a.73.73 0 1 0 0-1.461.73.73 0 0 0 0 1.461ZM188.963 382.271a.637.637 0 1 0 0-1.274.637.637 0 0 0 0 1.274ZM207.836 382.153a.524.524 0 0 0 .519-.519.524.524 0 0 0-.519-.519.524.524 0 0 0-.519.519c0 .283.236.519.519.519ZM226.708 382.011a.377.377 0 1 0 .001-.755.377.377 0 0 0-.001.755ZM245.58 381.846a.212.212 0 1 0 0-.424.211.211 0 0 0-.212.212c0 .118.095.212.212.212ZM264.453 381.682a.048.048 0 0 0 .047-.048.047.047 0 1 0-.094 0c0 .026.021.048.047.048ZM.24 401.449a.944.944 0 1 0-.001-1.888.944.944 0 0 0 0 1.888ZM19.112 401.449a.944.944 0 1 0 0-1.888.944.944 0 0 0 0 1.888ZM37.984 401.449a.944.944 0 1 0 0-1.888.944.944 0 0 0 0 1.888ZM56.857 401.402a.897.897 0 1 0-.001-1.794.897.897 0 0 0 0 1.794ZM75.73 401.402a.897.897 0 1 0-.002-1.794.897.897 0 0 0 .001 1.794ZM94.601 401.354a.82.82 0 0 0 .826-.825.82.82 0 0 0-.826-.826.836.836 0 0 0-.825.826c0 .448.377.825.825.825ZM113.474 401.236a.73.73 0 1 0 0-1.461.73.73 0 0 0 0 1.461ZM132.346 401.189a.684.684 0 1 0 0-1.367.684.684 0 0 0 0 1.367ZM151.219 401.071a.566.566 0 1 0 0-1.132.566.566 0 0 0 0 1.132ZM170.091 400.977a.474.474 0 0 0 .472-.472.474.474 0 0 0-.472-.472.473.473 0 0 0 0 .944ZM188.963 400.882a.377.377 0 1 0 .001-.755.377.377 0 0 0-.001.755ZM207.836 400.765a.26.26 0 1 0-.002-.52.26.26 0 0 0 .002.52ZM226.708 400.6a.094.094 0 1 0 0-.189.094.094 0 0 0-.094.094c0 .053.042.095.094.095ZM.24 420.013a.637.637 0 1 0 0-1.274.637.637 0 0 0 0 1.274ZM19.112 420.013a.637.637 0 1 0 0-1.274.637.637 0 0 0 0 1.274ZM37.984 420.013a.637.637 0 1 0 0-1.274.637.637 0 0 0 0 1.274ZM56.857 420.013a.637.637 0 1 0 0-1.274.637.637 0 0 0 0 1.274ZM75.73 419.942a.566.566 0 1 0 0-1.132.566.566 0 0 0 0 1.132ZM94.602 419.895a.524.524 0 0 0 .519-.519.524.524 0 0 0-.52-.519.524.524 0 0 0-.519.519c0 .283.236.519.52.519ZM113.474 419.848a.474.474 0 0 0 .472-.472.473.473 0 1 0-.472.472ZM132.346 419.801a.425.425 0 1 0 0-.85.425.425 0 0 0 0 .85ZM151.219 419.683a.306.306 0 1 0 0-.612.306.306 0 0 0 0 .612ZM170.091 419.588a.21.21 0 0 0 .212-.212.21.21 0 0 0-.212-.212.21.21 0 0 0-.212.212.21.21 0 0 0 .212.212ZM188.964 419.471a.095.095 0 0 0 .095-.094.095.095 0 1 0-.19 0c0 .052.042.094.095.094ZM207.836 419.424a.047.047 0 0 0 .047-.048.047.047 0 1 0-.094 0c0 .027.021.048.047.048ZM.24 438.554a.307.307 0 1 0 0-.613.307.307 0 0 0 0 .613ZM19.112 438.625a.378.378 0 1 0 0-.755.378.378 0 0 0 0 .755ZM37.984 438.625a.378.378 0 1 0 0-.755.378.378 0 0 0 0 .755ZM56.857 438.554a.307.307 0 1 0 0-.613.307.307 0 0 0 0 .613ZM75.73 438.554a.307.307 0 1 0 0-.613.307.307 0 0 0 0 .613ZM94.602 438.507a.26.26 0 0 0 0-.519.26.26 0 1 0 0 .519ZM113.474 438.46a.212.212 0 0 0 .212-.213.21.21 0 0 0-.212-.212.213.213 0 1 0 0 .425ZM132.347 438.342a.094.094 0 0 0 .094-.094.094.094 0 1 0-.094.094ZM151.219 438.295a.047.047 0 0 0 .047-.047.047.047 0 0 0-.047-.048.048.048 0 0 0-.048.048c0 .026.022.047.048.047ZM.24 457.166a.047.047 0 0 0 .047-.047.047.047 0 1 0-.095 0c0 .026.022.047.048.047ZM19.112 457.166a.047.047 0 0 0 .047-.047.047.047 0 1 0-.094 0c0 .026.02.047.047.047ZM37.984 457.166a.047.047 0 0 0 .048-.047.047.047 0 1 0-.095 0c0 .026.021.047.047.047ZM56.857 457.166a.047.047 0 0 0 .047-.047.047.047 0 1 0-.094 0c0 .026.02.047.047.047ZM75.73 457.166a.047.047 0 0 0 .047-.047.047.047 0 1 0-.095 0c0 .026.021.047.047.047Z"/></g><g style="mix-blend-mode:multiply" opacity=".2" fill="#333876"><path d="M1183.01 740.966c.03 0 .05-.024.05-.047a.05.05 0 0 0-.05-.048c-.02 0-.04.024-.04.048-.03.023 0 .047.04.047ZM1145.27 759.885c.05 0 .09-.048.09-.095 0-.048-.04-.095-.09-.095-.05 0-.09.047-.09.095-.03.047.02.095.09.095ZM1164.14 759.931c.1 0 .17-.071.17-.165 0-.095-.07-.165-.17-.165a.16.16 0 0 0-.16.165c0 .094.07.165.16.165ZM1183.01 760.025c.15 0 .26-.118.26-.259a.255.255 0 1 0-.51 0c0 .141.11.259.25.259ZM1107.53 778.756c.04 0 .09-.048.09-.095s-.05-.095-.09-.095c-.05 0-.1.048-.1.095-.02.047.02.095.1.095ZM1126.4 778.85c.12 0 .21-.095.21-.213a.208.208 0 0 0-.21-.212c-.12 0-.21.094-.21.212s.09.213.21.213ZM1145.27 778.967c.16 0 .31-.141.31-.307a.318.318 0 0 0-.31-.306c-.17 0-.31.141-.31.306-.02.166.12.307.31.307ZM1164.14 779.109a.472.472 0 0 0 0-.944.472.472 0 0 0 0 .944ZM1183.01 779.18a.52.52 0 0 0 0-1.038c-.28 0-.51.236-.51.519-.03.283.21.519.51.519ZM1069.78 797.579c.02 0 .05-.023.05-.047s-.03-.048-.05-.048c-.02 0-.05.024-.05.048-.02.024 0 .047.05.047ZM1088.65 797.673c.1 0 .17-.071.17-.165 0-.094-.07-.165-.17-.165a.16.16 0 0 0-.16.165c0 .094.07.165.16.165ZM1107.52 797.838c.17 0 .31-.141.31-.307a.311.311 0 0 0-.31-.306.31.31 0 0 0-.3.306c-.03.166.12.307.3.307ZM1126.4 797.98a.471.471 0 1 0-.002-.942.471.471 0 0 0 .002.942ZM1145.27 798.098c.31 0 .57-.26.57-.566a.575.575 0 0 0-.57-.566c-.31 0-.57.259-.57.566-.02.306.24.566.57.566ZM1164.14 798.239c.4 0 .73-.33.73-.731a.734.734 0 0 0-.73-.731c-.4 0-.73.33-.73.731 0 .425.33.731.73.731ZM1183.01 798.357c.48 0 .83-.377.83-.825 0-.472-.38-.85-.83-.85-.44 0-.82.378-.82.85-.02.448.35.825.82.825ZM1050.91 816.498c.05 0 .09-.048.09-.095s-.04-.095-.09-.095c-.05 0-.1.048-.1.095-.02.047.03.095.1.095ZM1069.78 816.64c.14 0 .26-.119.26-.261a.263.263 0 0 0-.26-.259c-.14 0-.26.118-.26.259 0 .142.12.261.26.261ZM1088.65 816.804a.425.425 0 1 0 .01-.85.425.425 0 0 0-.01.85ZM1107.53 816.969c.3 0 .56-.259.56-.566a.573.573 0 0 0-.56-.566c-.31 0-.57.259-.57.566-.02.307.23.566.57.566ZM1126.4 817.11c.4 0 .73-.33.73-.731a.734.734 0 0 0-.73-.731c-.4 0-.73.33-.73.731 0 .425.33.731.73.731ZM1145.27 817.228c.47 0 .83-.377.83-.825 0-.472-.38-.85-.83-.85-.45 0-.83.378-.83.85-.02.448.36.825.83.825ZM1164.14 817.394c.54 0 .99-.449.99-.991a.998.998 0 0 0-.99-.991c-.54 0-.99.448-.99.991 0 .542.43.991.99.991ZM1183.01 817.488c.62 0 1.11-.495 1.11-1.109a1.104 1.104 0 1 0-2.21 0c0 .614.49 1.109 1.1 1.109ZM1032.04 835.369c.04 0 .09-.047.09-.095 0-.047-.05-.094-.09-.094-.05 0-.1.047-.1.094-.02.048.02.095.1.095ZM1050.91 835.58c.16 0 .3-.141.3-.306a.31.31 0 0 0-.3-.307c-.17 0-.31.142-.31.307-.02.165.12.306.31.306ZM1069.78 835.722a.471.471 0 1 0-.002-.942.471.471 0 0 0 .002.942ZM1088.65 835.934c.38 0 .69-.306.69-.684a.686.686 0 0 0-1.37 0c0 .378.31.684.68.684ZM1107.53 836.099c.47 0 .82-.377.82-.825 0-.472-.38-.849-.82-.849-.45 0-.83.377-.83.849-.02.448.35.825.83.825ZM1126.4 836.265c.54 0 .99-.448.99-.991a.998.998 0 0 0-.99-.991c-.55 0-.99.448-.99.991 0 .543.42.991.99.991ZM1145.27 836.359c.61 0 1.11-.495 1.11-1.109a1.11 1.11 0 0 0-2.22 0c0 .614.5 1.109 1.11 1.109ZM1164.14 836.524c.69 0 1.25-.566 1.25-1.25s-.56-1.25-1.25-1.25c-.68 0-1.25.566-1.25 1.25-.02.684.54 1.25 1.25 1.25ZM1183.01 836.618a1.367 1.367 0 1 0 0-2.736c-.75 0-1.36.613-1.36 1.368 0 .755.61 1.368 1.36 1.368ZM1013.16 854.286c.1 0 .17-.07.17-.165 0-.094-.07-.165-.17-.165a.16.16 0 0 0-.16.165c0 .095.07.165.16.165ZM1032.04 854.452c.16 0 .3-.142.3-.307a.31.31 0 0 0-.3-.307c-.17 0-.31.142-.31.307-.02.165.12.307.31.307ZM1050.91 854.664c.28 0 .52-.236.52-.519a.527.527 0 0 0-.52-.519.52.52 0 0 0-.52.519c-.02.283.21.519.52.519ZM1069.78 854.853c.4 0 .73-.331.73-.732a.734.734 0 0 0-.73-.731c-.4 0-.73.33-.73.731 0 .425.33.732.73.732ZM1088.65 855.018a.896.896 0 1 0 .008-1.792.896.896 0 0 0-.008 1.792ZM1107.53 855.183c.56 0 1.03-.472 1.03-1.038 0-.59-.47-1.038-1.03-1.038-.57 0-1.04.472-1.04 1.038-.03.566.45 1.038 1.04 1.038ZM1126.4 855.324c.66 0 1.2-.542 1.2-1.203 0-.66-.54-1.203-1.2-1.203-.66 0-1.21.543-1.21 1.203 0 .684.52 1.203 1.21 1.203ZM1145.27 855.49c.75 0 1.37-.614 1.37-1.369s-.62-1.368-1.37-1.368a1.368 1.368 0 1 0 0 2.737ZM1164.14 855.655c.85 0 1.51-.685 1.51-1.51 0-.849-.68-1.51-1.51-1.51-.82 0-1.51.684-1.51 1.51-.02.825.66 1.51 1.51 1.51ZM1183.01 855.749c.9 0 1.63-.731 1.63-1.627a1.63 1.63 0 0 0-1.63-1.628 1.628 1.628 0 0 0 0 3.255ZM994.291 873.111c.047 0 .095-.047.095-.095 0-.047-.048-.094-.095-.094s-.095.047-.095.094c-.023.048.024.095.095.095ZM1013.16 873.323c.17 0 .31-.142.31-.307a.312.312 0 0 0-.31-.307.31.31 0 0 0-.3.307c-.03.165.11.307.3.307ZM1032.04 873.535c.28 0 .51-.236.51-.519a.518.518 0 0 0-.51-.519.52.52 0 0 0-.52.519c-.03.283.21.519.52.519ZM1050.91 873.724c.4 0 .73-.331.73-.732a.734.734 0 0 0-.73-.731c-.4 0-.73.33-.73.731 0 .425.33.732.73.732ZM1069.78 873.936a.943.943 0 0 0 0-1.887.943.943 0 0 0 0 1.887ZM1088.65 874.101c.62 0 1.11-.495 1.11-1.108a1.11 1.11 0 0 0-2.22 0c0 .613.5 1.108 1.11 1.108ZM1107.53 874.313c.73 0 1.29-.589 1.29-1.297 0-.731-.59-1.297-1.29-1.297-.71 0-1.3.589-1.3 1.297-.03.708.56 1.297 1.3 1.297ZM1126.4 874.455c.8 0 1.46-.661 1.46-1.463s-.66-1.462-1.46-1.462c-.8 0-1.47.66-1.47 1.462 0 .826.64 1.463 1.47 1.463ZM1145.27 874.62c.9 0 1.63-.731 1.63-1.627a1.63 1.63 0 0 0-3.26 0c0 .896.73 1.627 1.63 1.627ZM1164.14 874.785c.99 0 1.77-.802 1.77-1.769 0-.991-.8-1.769-1.77-1.769s-1.77.802-1.77 1.769c-.02.967.78 1.769 1.77 1.769ZM1183.01 874.88c1.04 0 1.89-.85 1.89-1.888 0-1.037-.85-1.887-1.89-1.887-1.03 0-1.88.85-1.88 1.887 0 1.038.85 1.888 1.88 1.888ZM1201.89 874.997c1.11 0 1.98-.896 1.98-1.981a1.98 1.98 0 0 0-1.98-1.981c-1.09 0-1.98.896-1.98 1.981-.03 1.085.87 1.981 1.98 1.981ZM975.419 891.982a.101.101 0 0 0 .094-.094c0-.048-.047-.095-.094-.095a.101.101 0 0 0-.095.095c-.024.047.024.094.095.094ZM994.291 892.194a.312.312 0 0 0 .306-.307.312.312 0 0 0-.306-.307.312.312 0 0 0-.307.307c-.024.165.118.307.307.307ZM1013.16 892.406a.52.52 0 0 0 0-1.038c-.28 0-.52.236-.52.519-.02.283.22.519.52.519ZM1032.04 892.595c.4 0 .73-.33.73-.731a.735.735 0 0 0-1.47 0c0 .424.33.731.74.731ZM1050.91 892.807a.943.943 0 0 0 0-1.887c-.52 0-.95.425-.95.944 0 .519.43.943.95.943ZM1069.78 893.019c.64 0 1.16-.519 1.16-1.155a1.16 1.16 0 0 0-2.32 0c0 .636.52 1.155 1.16 1.155ZM1088.65 893.232a1.368 1.368 0 1 0 0-2.737c-.75 0-1.37.614-1.37 1.368 0 .755.62 1.369 1.37 1.369ZM1107.53 893.397c.84 0 1.5-.684 1.5-1.51a1.5 1.5 0 0 0-1.5-1.51c-.83 0-1.51.684-1.51 1.51-.03.826.66 1.51 1.51 1.51ZM1126.4 893.538c.92 0 1.67-.754 1.67-1.674 0-.92-.75-1.675-1.67-1.675-.92 0-1.68.755-1.68 1.675 0 .943.73 1.674 1.68 1.674ZM1145.27 893.751c1.04 0 1.89-.849 1.89-1.887s-.85-1.887-1.89-1.887-1.89.849-1.89 1.887.85 1.887 1.89 1.887ZM1164.14 893.869c1.11 0 1.98-.897 1.98-1.982 0-1.109-.89-1.981-1.98-1.981-1.08 0-1.98.896-1.98 1.981-.02 1.085.87 1.982 1.98 1.982ZM1183.01 894.01c1.18 0 2.15-.967 2.15-2.146 0-1.18-.97-2.147-2.15-2.147s-2.14.967-2.14 2.147a2.12 2.12 0 0 0 2.14 2.146ZM1201.89 894.175c1.27 0 2.31-1.038 2.31-2.311a2.317 2.317 0 0 0-2.31-2.312 2.31 2.31 0 0 0-2.31 2.312 2.31 2.31 0 0 0 2.31 2.311ZM956.546 910.806c.024 0 .048-.024.048-.047a.052.052 0 0 0-.048-.048c-.024 0-.047.024-.047.048-.024.023 0 .047.047.047ZM975.418 910.994c.142 0 .26-.118.26-.259a.262.262 0 0 0-.26-.26.262.262 0 0 0-.259.26c0 .141.118.259.259.259ZM994.291 911.207a.474.474 0 0 0 .472-.472.473.473 0 1 0-.472.472ZM1013.16 911.466c.4 0 .73-.33.73-.731a.735.735 0 0 0-.73-.732c-.4 0-.73.331-.73.732 0 .424.33.731.73.731ZM1032.04 911.678c.51 0 .94-.424.94-.943a.95.95 0 0 0-.94-.944c-.52 0-.95.425-.95.944 0 .519.43.943.95.943ZM1050.91 911.891a1.157 1.157 0 0 0 0-2.312c-.64 0-1.16.519-1.16 1.156 0 .637.52 1.156 1.16 1.156ZM1069.78 912.103a1.368 1.368 0 1 0 0-2.737c-.75 0-1.37.614-1.37 1.369 0 .754.62 1.368 1.37 1.368ZM1088.65 912.315c.88 0 1.58-.707 1.58-1.58 0-.873-.7-1.581-1.58-1.581a1.581 1.581 0 0 0 0 3.161ZM1107.53 912.48c.94 0 1.72-.778 1.72-1.722 0-.943-.78-1.722-1.72-1.722-.95 0-1.73.779-1.73 1.722-.02.944.76 1.722 1.73 1.722ZM1126.4 912.669a1.94 1.94 0 0 0 1.93-1.934 1.94 1.94 0 0 0-1.93-1.935 1.95 1.95 0 0 0-1.94 1.935c0 1.085.85 1.934 1.94 1.934ZM1145.27 912.834c1.16 0 2.1-.943 2.1-2.099 0-1.156-.94-2.1-2.1-2.1-1.16 0-2.1.944-2.1 2.1 0 1.156.94 2.099 2.1 2.099ZM1164.14 912.999a2.24 2.24 0 0 0 2.24-2.241c0-1.25-1.01-2.241-2.24-2.241a2.26 2.26 0 0 0-2.24 2.241c-.02 1.227.99 2.241 2.24 2.241ZM1183.01 913.141c1.33 0 2.41-1.085 2.41-2.406a2.414 2.414 0 0 0-2.41-2.406c-1.32 0-2.4 1.085-2.4 2.406a2.384 2.384 0 0 0 2.4 2.406ZM1201.89 913.306a2.58 2.58 0 0 0 2.57-2.571 2.58 2.58 0 0 0-2.57-2.571 2.573 2.573 0 0 0-2.57 2.571 2.573 2.573 0 0 0 2.57 2.571ZM956.546 929.771a.161.161 0 0 0 .165-.165.16.16 0 0 0-.165-.165.16.16 0 0 0-.165.165c0 .094.071.165.165.165ZM975.418 930.031a.423.423 0 0 0 .425-.425.423.423 0 0 0-.425-.425.423.423 0 0 0-.424.425c0 .236.188.425.424.425ZM994.291 930.29a.685.685 0 1 0-.002-1.37.685.685 0 0 0 .002 1.37ZM1013.16 930.502a.896.896 0 1 0 .008-1.792.896.896 0 0 0-.008 1.792ZM1032.04 930.715c.61 0 1.1-.496 1.1-1.109s-.49-1.109-1.1-1.109c-.62 0-1.11.496-1.11 1.109s.49 1.109 1.11 1.109ZM1050.91 930.974c.75 0 1.37-.613 1.37-1.368 0-.755-.62-1.368-1.37-1.368a1.367 1.367 0 1 0 0 2.736ZM1069.78 931.186c.87 0 1.58-.707 1.58-1.58 0-.873-.71-1.58-1.58-1.58-.87 0-1.58.707-1.58 1.58 0 .873.71 1.58 1.58 1.58ZM1088.65 931.399c.99 0 1.77-.802 1.77-1.769 0-.991-.8-1.77-1.77-1.77-.96 0-1.77.802-1.77 1.77-.02.967.78 1.769 1.77 1.769ZM1107.53 931.611c1.1 0 1.98-.897 1.98-1.982a1.98 1.98 0 0 0-1.98-1.981c-1.09 0-1.99.896-1.99 1.981-.02 1.085.88 1.982 1.99 1.982ZM1126.4 931.753a2.15 2.15 0 0 0 2.14-2.147 2.15 2.15 0 0 0-2.14-2.147c-1.18 0-2.15.968-2.15 2.147 0 1.203.94 2.147 2.15 2.147ZM1145.27 931.965c1.3 0 2.36-1.062 2.36-2.359a2.365 2.365 0 0 0-2.36-2.359c-1.3 0-2.36 1.061-2.36 2.359a2.365 2.365 0 0 0 2.36 2.359ZM1164.14 932.13a2.5 2.5 0 0 0 0-5.001c-1.37 0-2.5 1.132-2.5 2.5-.02 1.369 1.11 2.501 2.5 2.501ZM1183.01 932.271c1.47 0 2.67-1.203 2.67-2.665 0-1.463-1.2-2.666-2.67-2.666a2.675 2.675 0 0 0-2.66 2.666 2.647 2.647 0 0 0 2.66 2.665ZM1201.89 932.437c1.55 0 2.83-1.274 2.83-2.831a2.843 2.843 0 0 0-2.83-2.831 2.837 2.837 0 0 0-2.83 2.831 2.81 2.81 0 0 0 2.83 2.831ZM937.674 948.596c.047 0 .095-.048.095-.095s-.048-.095-.095-.095c-.048 0-.095.048-.095.095-.024.047.024.095.095.095ZM956.546 948.807a.312.312 0 0 0 .307-.306.312.312 0 0 0-.307-.307.312.312 0 0 0-.307.307c-.023.165.118.306.307.306ZM975.418 949.067c.307 0 .566-.26.566-.566a.574.574 0 0 0-.566-.567.575.575 0 0 0-.566.567c-.023.306.236.566.566.566ZM994.291 949.326a.82.82 0 0 0 .825-.826.84.84 0 0 0-.825-.849c-.472 0-.826.378-.826.849-.024.449.354.826.826.826ZM1013.16 949.539c.57 0 1.04-.472 1.04-1.038 0-.59-.47-1.038-1.04-1.038-.56 0-1.03.472-1.03 1.038-.03.566.44 1.038 1.03 1.038ZM1032.04 949.798c.73 0 1.29-.59 1.29-1.297 0-.732-.59-1.298-1.29-1.298-.71 0-1.3.59-1.3 1.298-.03.707.56 1.297 1.3 1.297ZM1050.91 950.01c.85 0 1.51-.684 1.51-1.51 0-.849-.69-1.509-1.51-1.509-.83 0-1.51.684-1.51 1.509-.03.826.66 1.51 1.51 1.51ZM1069.78 950.27c.99 0 1.77-.802 1.77-1.769 0-.991-.8-1.77-1.77-1.77s-1.77.802-1.77 1.77c-.02.967.78 1.769 1.77 1.769ZM1088.65 950.482c1.11 0 1.98-.896 1.98-1.982 0-1.108-.89-1.981-1.98-1.981-1.08 0-1.98.896-1.98 1.981-.02 1.086.87 1.982 1.98 1.982ZM1107.52 950.694c1.21 0 2.2-.99 2.2-2.193s-.99-2.194-2.2-2.194c-1.2 0-2.19.991-2.19 2.194-.02 1.203.97 2.193 2.19 2.193ZM1126.4 950.883c1.32 0 2.4-1.085 2.4-2.406a2.412 2.412 0 0 0-2.4-2.406 2.42 2.42 0 0 0-2.41 2.406 2.386 2.386 0 0 0 2.41 2.406ZM1145.27 951.095c1.44 0 2.62-1.179 2.62-2.618a2.628 2.628 0 0 0-2.62-2.618 2.628 2.628 0 0 0-2.62 2.618 2.6 2.6 0 0 0 2.62 2.618ZM1164.14 951.26a2.79 2.79 0 0 0 2.79-2.783 2.79 2.79 0 0 0-2.79-2.783c-1.53 0-2.78 1.25-2.78 2.783a2.788 2.788 0 0 0 2.78 2.783ZM1183.01 951.426a2.925 2.925 0 1 0 0-5.85c-1.6 0-2.92 1.321-2.92 2.925-.02 1.604 1.3 2.925 2.92 2.925ZM1201.89 951.567a3.1 3.1 0 0 0 3.09-3.09 3.1 3.1 0 0 0-3.09-3.09 3.1 3.1 0 0 0-3.09 3.09c0 1.722 1.36 3.09 3.09 3.09ZM937.674 967.561a.212.212 0 0 0 .213-.213.212.212 0 0 0-.213-.212.212.212 0 0 0-.213.212c0 .119.095.213.213.213ZM956.546 967.82a.473.473 0 0 0 0-.944.473.473 0 0 0 0 .944ZM975.418 968.079c.401 0 .732-.33.732-.731a.735.735 0 0 0-.732-.731.735.735 0 0 0-.731.731c0 .425.33.731.731.731ZM994.291 968.363a.998.998 0 0 0 .991-.991.997.997 0 0 0-.991-.991.997.997 0 0 0-.991.991c0 .542.425.991.991.991ZM1013.16 968.551c.66 0 1.21-.542 1.21-1.203 0-.66-.55-1.203-1.21-1.203-.66 0-1.2.543-1.2 1.203 0 .684.52 1.203 1.2 1.203ZM1032.04 968.81c.8 0 1.46-.66 1.46-1.462a1.47 1.47 0 0 0-1.46-1.463c-.81 0-1.47.661-1.47 1.463 0 .826.64 1.462 1.47 1.462ZM1050.91 969.023c.92 0 1.67-.755 1.67-1.675s-.75-1.675-1.67-1.675c-.92 0-1.68.755-1.68 1.675 0 .944.73 1.675 1.68 1.675ZM1069.78 969.282a1.94 1.94 0 0 0 1.93-1.934 1.94 1.94 0 0 0-1.93-1.934 1.94 1.94 0 0 0-1.93 1.934c0 1.085.85 1.934 1.93 1.934ZM1088.65 969.495c1.18 0 2.15-.967 2.15-2.147 0-1.179-.97-2.146-2.15-2.146s-2.14.967-2.14 2.146c0 1.203.94 2.147 2.14 2.147ZM1107.52 969.754c1.33 0 2.41-1.085 2.41-2.406a2.414 2.414 0 0 0-2.41-2.406c-1.32 0-2.4 1.085-2.4 2.406a2.384 2.384 0 0 0 2.4 2.406ZM1126.4 969.966c1.44 0 2.62-1.179 2.62-2.618a2.628 2.628 0 0 0-2.62-2.618 2.628 2.628 0 0 0-2.62 2.618 2.594 2.594 0 0 0 2.62 2.618ZM1145.27 970.179c1.56 0 2.83-1.274 2.83-2.831s-1.27-2.83-2.83-2.83a2.836 2.836 0 0 0-2.83 2.83 2.809 2.809 0 0 0 2.83 2.831ZM1164.14 970.344a2.971 2.971 0 0 0 0-5.944 2.973 2.973 0 0 0-2.97 2.972c-.02 1.627 1.32 2.972 2.97 2.972ZM1183.01 970.556a3.19 3.19 0 0 0 3.19-3.184c0-1.77-1.44-3.185-3.19-3.185-1.74 0-3.18 1.439-3.18 3.185-.02 1.745 1.42 3.184 3.18 3.184ZM1201.89 970.698c1.84 0 3.35-1.51 3.35-3.35s-1.51-3.349-3.35-3.349a3.362 3.362 0 0 0-3.35 3.349c0 1.864 1.48 3.35 3.35 3.35ZM918.802 986.338c.047 0 .094-.047.094-.095 0-.047-.047-.095-.094-.095-.048 0-.095.048-.095.095-.024.048.023.095.095.095ZM937.673 986.549a.311.311 0 0 0 .307-.306.312.312 0 0 0-.307-.307.312.312 0 0 0-.306.307c-.024.165.118.306.306.306ZM956.546 986.809c.307 0 .566-.26.566-.566a.573.573 0 0 0-.566-.566.573.573 0 0 0-.566.566c-.024.306.236.566.566.566ZM975.418 987.068a.82.82 0 0 0 .826-.825.842.842 0 0 0-.826-.85c-.472 0-.825.378-.825.85-.024.448.353.825.825.825ZM994.291 987.328a1.108 1.108 0 1 0 0-2.217c-.614 0-1.109.495-1.109 1.108 0 .614.495 1.109 1.109 1.109ZM1013.16 987.587a1.367 1.367 0 1 0 0-2.736c-.75 0-1.37.613-1.37 1.368 0 .755.62 1.368 1.37 1.368ZM1032.04 987.847a1.628 1.628 0 0 0 0-3.255c-.9 0-1.63.731-1.63 1.627 0 .897.73 1.628 1.63 1.628ZM1050.91 988.106c1.04 0 1.89-.849 1.89-1.887s-.85-1.887-1.89-1.887-1.89.849-1.89 1.887.85 1.887 1.89 1.887ZM1069.78 988.319c1.16 0 2.1-.944 2.1-2.1 0-1.156-.94-2.099-2.1-2.099-1.16 0-2.1.943-2.1 2.099 0 1.156.94 2.1 2.1 2.1ZM1088.65 988.578c1.3 0 2.36-1.061 2.36-2.359a2.365 2.365 0 0 0-2.36-2.359 2.372 2.372 0 0 0-2.36 2.359 2.371 2.371 0 0 0 2.36 2.359ZM1107.53 988.837c1.43 0 2.61-1.179 2.61-2.618a2.626 2.626 0 0 0-2.61-2.618 2.628 2.628 0 0 0-2.62 2.618 2.594 2.594 0 0 0 2.62 2.618ZM1126.4 989.05c1.55 0 2.83-1.274 2.83-2.831s-1.28-2.83-2.83-2.83a2.836 2.836 0 0 0-2.83 2.83 2.809 2.809 0 0 0 2.83 2.831ZM1145.27 989.262a3.05 3.05 0 0 0 3.04-3.043 3.05 3.05 0 0 0-3.04-3.043 3.044 3.044 0 0 0-3.04 3.043 3.044 3.044 0 0 0 3.04 3.043ZM1164.14 989.474c1.79 0 3.26-1.462 3.26-3.255a3.267 3.267 0 0 0-3.26-3.255 3.259 3.259 0 0 0-3.25 3.255 3.259 3.259 0 0 0 3.25 3.255ZM1183.01 989.64a3.396 3.396 0 1 0 0-6.794c-1.86 0-3.39 1.533-3.39 3.397-.03 1.863 1.51 3.397 3.39 3.397ZM1201.89 989.781c1.95 0 3.56-1.604 3.56-3.562a3.577 3.577 0 0 0-3.56-3.562c-1.96 0-3.57 1.604-3.57 3.562a3.551 3.551 0 0 0 3.57 3.562ZM918.801 1005.26c.095 0 .165-.08.165-.17a.16.16 0 0 0-.165-.16.16.16 0 0 0-.165.16c0 .09.071.17.165.17ZM937.674 1005.56a.47.47 0 1 0 0-.942.47.47 0 0 0 0 .942ZM956.546 1005.82c.401 0 .731-.33.731-.73 0-.4-.33-.73-.731-.73a.734.734 0 0 0-.731.73c0 .42.33.73.731.73ZM975.418 1006.1c.543 0 .991-.44.991-.99 0-.54-.448-.99-.991-.99-.542 0-.99.45-.99.99 0 .55.424.99.99.99ZM994.291 1006.36c.684 0 1.25-.56 1.25-1.25 0-.68-.566-1.25-1.25-1.25s-1.25.57-1.25 1.25c-.024.69.542 1.25 1.25 1.25ZM1013.16 1006.62c.85 0 1.51-.68 1.51-1.51 0-.85-.68-1.51-1.51-1.51-.85 0-1.51.69-1.51 1.51-.02.83.66 1.51 1.51 1.51ZM1032.04 1006.88c.99 0 1.76-.8 1.76-1.77 0-.99-.8-1.77-1.76-1.77-.97 0-1.77.81-1.77 1.77-.03.97.77 1.77 1.77 1.77ZM1050.91 1007.1c1.11 0 1.98-.9 1.98-1.99 0-1.1-.9-1.98-1.98-1.98-1.09 0-1.98.9-1.98 1.98-.03 1.09.87 1.99 1.98 1.99ZM1069.78 1007.35c1.25 0 2.24-1.01 2.24-2.24 0-1.25-1.01-2.24-2.24-2.24-1.23 0-2.24 1.02-2.24 2.24-.02 1.23.99 2.24 2.24 2.24ZM1088.65 1007.61a2.5 2.5 0 0 0 0-5 2.52 2.52 0 0 0-2.5 2.5c-.02 1.37 1.11 2.5 2.5 2.5ZM1107.53 1007.87c1.53 0 2.78-1.25 2.78-2.78 0-1.53-1.25-2.78-2.78-2.78-1.54 0-2.79 1.25-2.79 2.78 0 1.53 1.25 2.78 2.79 2.78ZM1126.4 1008.09c1.65 0 2.97-1.35 2.97-2.98a2.97 2.97 0 0 0-2.97-2.97c-1.65 0-2.98 1.35-2.98 2.97-.02 1.63 1.33 2.98 2.98 2.98ZM1145.27 1008.35c1.79 0 3.26-1.47 3.26-3.26 0-1.79-1.47-3.26-3.26-3.26-1.79 0-3.26 1.47-3.26 3.26 0 1.79 1.47 3.26 3.26 3.26ZM1164.14 1008.56c1.91 0 3.45-1.56 3.45-3.45 0-1.91-1.56-3.44-3.45-3.44-1.89 0-3.44 1.56-3.44 3.44-.03 1.89 1.53 3.45 3.44 3.45ZM1183.01 1008.7c2.01 0 3.61-1.63 3.61-3.61 0-2-1.62-3.61-3.61-3.61-1.98 0-3.6 1.63-3.6 3.61 0 2.01 1.6 3.61 3.6 3.61ZM1201.89 1008.91c2.1 0 3.82-1.72 3.82-3.82 0-2.1-1.7-3.82-3.82-3.82-2.13 0-3.82 1.72-3.82 3.82a3.8 3.8 0 0 0 3.82 3.82ZM899.929 1024.03c.024 0 .047-.02.047-.04 0-.03-.023-.05-.047-.05a.048.048 0 0 0-.047.05c-.024.02 0 .04.047.04ZM918.801 1024.22c.142 0 .26-.12.26-.26s-.118-.26-.26-.26a.263.263 0 0 0-.259.26c0 .14.118.26.259.26ZM937.673 1024.5c.284 0 .52-.23.52-.51a.52.52 0 0 0-1.039 0c-.023.28.213.51.519.51ZM956.546 1024.81c.472 0 .825-.38.825-.83 0-.47-.377-.84-.825-.84a.82.82 0 0 0-.826.84c-.023.45.354.83.826.83ZM975.418 1025.07a1.11 1.11 0 0 0 0-2.22 1.11 1.11 0 0 0 0 2.22ZM994.291 1025.33c.755 0 1.368-.61 1.368-1.37 0-.75-.613-1.37-1.368-1.37-.755 0-1.369.62-1.369 1.37 0 .76.614 1.37 1.369 1.37ZM1013.16 1025.59c.9 0 1.63-.73 1.63-1.63 0-.89-.73-1.63-1.63-1.63-.89 0-1.62.74-1.62 1.63 0 .9.73 1.63 1.62 1.63ZM1032.04 1025.85c1.03 0 1.88-.85 1.88-1.89s-.85-1.89-1.88-1.89c-1.04 0-1.89.85-1.89 1.89s.85 1.89 1.89 1.89ZM1050.91 1026.11a2.151 2.151 0 0 0 0-4.3c-1.18 0-2.15.97-2.15 2.15 0 1.2.94 2.15 2.15 2.15ZM1069.78 1026.37c1.32 0 2.41-1.09 2.41-2.41s-1.09-2.4-2.41-2.4-2.41 1.08-2.41 2.4c0 1.35 1.07 2.41 2.41 2.41ZM1088.65 1026.63c1.47 0 2.67-1.21 2.67-2.67s-1.2-2.66-2.67-2.66c-1.46 0-2.66 1.2-2.66 2.66 0 1.49 1.18 2.67 2.66 2.67ZM1107.53 1026.91a2.926 2.926 0 0 0 0-5.85 2.94 2.94 0 0 0-2.93 2.93c-.02 1.6 1.3 2.92 2.93 2.92ZM1126.4 1027.17c1.77 0 3.18-1.44 3.18-3.19 0-1.76-1.44-3.18-3.18-3.18-1.75 0-3.19 1.44-3.19 3.18-.02 1.75 1.42 3.19 3.19 3.19ZM1145.27 1027.38c1.89 0 3.4-1.53 3.4-3.39 0-1.89-1.54-3.4-3.4-3.4-1.86 0-3.4 1.53-3.4 3.4-.02 1.86 1.51 3.39 3.4 3.39ZM1164.14 1027.57c2.01 0 3.61-1.63 3.61-3.61 0-2-1.63-3.61-3.61-3.61s-3.61 1.63-3.61 3.61c0 2.01 1.61 3.61 3.61 3.61ZM1183.01 1027.78c2.1 0 3.83-1.72 3.83-3.82 0-2.1-1.7-3.82-3.83-3.82a3.82 3.82 0 0 0-3.82 3.82c0 2.12 1.7 3.82 3.82 3.82ZM1201.89 1028c2.21 0 4.03-1.8 4.03-4.04 0-2.22-1.79-4.03-4.03-4.03a4.02 4.02 0 0 0-4.04 4.03c0 2.24 1.8 4.04 4.04 4.04ZM899.929 1042.95c.048 0 .095-.05.095-.09 0-.05-.047-.1-.095-.1-.047 0-.094.05-.094.1-.024.04.023.09.094.09ZM918.801 1043.21c.212 0 .378-.17.378-.38s-.166-.37-.378-.37a.368.368 0 0 0-.377.37c0 .21.165.38.377.38ZM937.674 1043.47c.353 0 .637-.28.637-.64 0-.35-.284-.63-.637-.63a.63.63 0 0 0-.637.63c0 .36.283.64.637.64ZM956.546 1043.73a.896.896 0 1 0 0-1.792.896.896 0 0 0 0 1.792ZM975.418 1044.04c.661 0 1.203-.55 1.203-1.21 0-.66-.542-1.2-1.203-1.2-.66 0-1.203.54-1.203 1.2 0 .69.519 1.21 1.203 1.21ZM994.291 1044.29c.802 0 1.462-.66 1.462-1.46 0-.8-.66-1.46-1.462-1.46a1.47 1.47 0 0 0-1.463 1.46c0 .83.637 1.46 1.463 1.46ZM1013.16 1044.58c.95 0 1.73-.78 1.73-1.72 0-.95-.78-1.73-1.73-1.73-.94 0-1.72.78-1.72 1.73-.02.94.76 1.72 1.72 1.72ZM1032.04 1044.84a1.985 1.985 0 0 0 0-3.97c-1.09 0-1.99.9-1.99 1.99-.02 1.08.88 1.98 1.99 1.98ZM1050.91 1045.14c1.27 0 2.31-1.03 2.31-2.31 0-1.27-1.04-2.31-2.31-2.31a2.311 2.311 0 0 0 0 4.62ZM1069.78 1045.4a2.57 2.57 0 1 0 .002-5.138 2.57 2.57 0 0 0-.002 5.138ZM1088.65 1045.66c1.56 0 2.83-1.27 2.83-2.83a2.84 2.84 0 0 0-2.83-2.83c-1.55 0-2.83 1.28-2.83 2.83 0 1.58 1.25 2.83 2.83 2.83ZM1107.53 1045.92c1.69 0 3.09-1.39 3.09-3.09s-1.4-3.09-3.09-3.09c-1.7 0-3.1 1.39-3.1 3.09 0 1.72 1.37 3.09 3.1 3.09ZM1126.4 1046.18c1.84 0 3.35-1.51 3.35-3.35s-1.51-3.35-3.35-3.35-3.35 1.51-3.35 3.35c0 1.87 1.48 3.35 3.35 3.35ZM1145.27 1046.39c1.96 0 3.56-1.6 3.56-3.56s-1.6-3.56-3.56-3.56-3.56 1.6-3.56 3.56c0 1.98 1.58 3.56 3.56 3.56ZM1164.14 1046.65c2.1 0 3.82-1.72 3.82-3.82 0-2.1-1.69-3.82-3.82-3.82a3.82 3.82 0 0 0-3.82 3.82 3.8 3.8 0 0 0 3.82 3.82ZM1183.01 1046.87c2.22 0 4.04-1.8 4.04-4.04 0-2.21-1.79-4.03-4.04-4.03-2.24 0-4.03 1.79-4.03 4.03a4.02 4.02 0 0 0 4.03 4.04ZM1201.89 1047.08c2.33 0 4.24-1.89 4.24-4.25 0-2.33-1.88-4.24-4.24-4.24-2.34 0-4.25 1.88-4.25 4.24 0 2.36 1.89 4.25 4.25 4.25ZM899.929 1061.87c.094 0 .165-.07.165-.17a.16.16 0 0 0-.165-.16.16.16 0 0 0-.165.16c0 .1.07.17.165.17ZM918.801 1062.13a.425.425 0 1 0 0-.85.425.425 0 0 0 0 .85ZM937.674 1062.43c.401 0 .731-.33.731-.73 0-.4-.33-.73-.731-.73a.735.735 0 0 0-.732.73c0 .43.331.73.732.73ZM956.546 1062.72c.543 0 .991-.45.991-.99a.991.991 0 1 0-.991.99ZM975.418 1062.98c.685 0 1.251-.57 1.251-1.25 0-.69-.566-1.25-1.251-1.25-.684 0-1.25.56-1.25 1.25-.024.68.543 1.25 1.25 1.25ZM994.291 1063.28c.872 0 1.58-.7 1.58-1.58 0-.87-.708-1.58-1.58-1.58-.873 0-1.581.71-1.581 1.58 0 .88.708 1.58 1.581 1.58ZM1013.16 1063.54c1.02 0 1.84-.82 1.84-1.84 0-1.01-.82-1.84-1.84-1.84-1.01 0-1.84.83-1.84 1.84 0 1.02.83 1.84 1.84 1.84ZM1032.04 1063.8c1.15 0 2.1-.94 2.1-2.1 0-1.15-.95-2.1-2.1-2.1a2.1 2.1 0 1 0 0 4.2ZM1050.91 1064.11c1.32 0 2.4-1.09 2.4-2.41s-1.08-2.4-2.4-2.4c-1.32 0-2.41 1.08-2.41 2.4 0 1.35 1.06 2.41 2.41 2.41ZM1069.78 1064.37c1.46 0 2.67-1.2 2.67-2.67 0-1.46-1.21-2.66-2.67-2.66s-2.67 1.2-2.67 2.66a2.65 2.65 0 0 0 2.67 2.67ZM1088.65 1064.65a2.926 2.926 0 1 0 0-5.85c-1.6 0-2.92 1.32-2.92 2.93-.03 1.6 1.29 2.92 2.92 2.92ZM1107.53 1064.91c1.76 0 3.18-1.44 3.18-3.18a3.19 3.19 0 0 0-3.18-3.19c-1.75 0-3.19 1.44-3.19 3.19-.02 1.74 1.42 3.18 3.19 3.18ZM1126.4 1065.17c1.91 0 3.44-1.56 3.44-3.44 0-1.91-1.56-3.45-3.44-3.45a3.47 3.47 0 0 0-3.45 3.45c-.02 1.88 1.54 3.44 3.45 3.44ZM1145.27 1065.43c2.05 0 3.73-1.67 3.73-3.73 0-2.05-1.68-3.72-3.73-3.72s-3.73 1.67-3.73 3.72c0 2.06 1.68 3.73 3.73 3.73ZM1164.14 1065.69c2.2 0 3.99-1.77 3.99-3.99a3.98 3.98 0 0 0-3.99-3.98c-2.22 0-3.98 1.77-3.98 3.98 0 2.2 1.79 3.99 3.98 3.99ZM1183.01 1065.9c2.32 0 4.18-1.86 4.18-4.17 0-2.31-1.86-4.18-4.18-4.18a4.17 4.17 0 0 0-4.17 4.18c-.02 2.29 1.86 4.17 4.17 4.17ZM1201.89 1066.16a4.456 4.456 0 1 0 0-8.91c-2.48 0-4.46 1.98-4.46 4.45 0 2.46 2 4.46 4.46 4.46ZM937.674 1081.38a.79.79 0 0 0 .778-.78c0-.43-.354-.78-.778-.78a.783.783 0 0 0-.779.78c-.023.42.33.78.779.78ZM956.546 1081.64c.566 0 1.038-.48 1.038-1.04 0-.59-.472-1.04-1.038-1.04-.566 0-1.038.47-1.038 1.04-.024.56.448 1.04 1.038 1.04ZM975.418 1081.94a1.366 1.366 0 1 0 0-2.73 1.365 1.365 0 1 0 0 2.73ZM994.291 1082.2a1.63 1.63 0 0 0 1.627-1.63 1.628 1.628 0 0 0-3.255 0c0 .9.731 1.63 1.628 1.63ZM1013.16 1082.51c1.06 0 1.94-.87 1.94-1.94 0-1.06-.88-1.93-1.94-1.93s-1.93.87-1.93 1.93c0 1.09.85 1.94 1.93 1.94ZM1032.04 1082.79c1.2 0 2.19-.99 2.19-2.19s-.99-2.2-2.19-2.2c-1.21 0-2.2 1-2.2 2.2-.02 1.2.97 2.19 2.2 2.19ZM1050.91 1083.1a2.5 2.5 0 0 0 0-5c-1.37 0-2.5 1.13-2.5 2.5-.03 1.37 1.11 2.5 2.5 2.5ZM1069.78 1083.36c1.53 0 2.78-1.25 2.78-2.79 0-1.53-1.25-2.78-2.78-2.78-1.53 0-2.78 1.25-2.78 2.78 0 1.54 1.25 2.79 2.78 2.79ZM1088.65 1083.62c1.68 0 3.05-1.37 3.05-3.05 0-1.67-1.37-3.04-3.05-3.04-1.67 0-3.04 1.37-3.04 3.04 0 1.68 1.37 3.05 3.04 3.05ZM1107.52 1083.88a3.32 3.32 0 0 0 3.31-3.31c0-1.81-1.49-3.3-3.31-3.3-1.81 0-3.3 1.49-3.3 3.3 0 1.84 1.46 3.31 3.3 3.31ZM1126.4 1084.14c1.96 0 3.56-1.61 3.56-3.57 0-1.95-1.6-3.56-3.56-3.56s-3.56 1.61-3.56 3.56c0 1.99 1.58 3.57 3.56 3.57ZM1145.27 1084.47a3.86 3.86 0 0 0 3.87-3.87c0-2.15-1.72-3.87-3.87-3.87-2.15 0-3.87 1.72-3.87 3.87 0 2.12 1.72 3.87 3.87 3.87ZM1164.14 1084.66c2.27 0 4.08-1.82 4.08-4.09 0-2.26-1.81-4.08-4.08-4.08-2.26 0-4.08 1.82-4.08 4.08 0 2.27 1.82 4.09 4.08 4.09ZM1183.01 1084.92a4.34 4.34 0 0 0 4.35-4.35c0-2.4-1.94-4.34-4.35-4.34-2.4 0-4.34 1.94-4.34 4.34 0 2.41 1.94 4.35 4.34 4.35ZM1201.89 1085.25a4.64 4.64 0 0 0 4.64-4.65 4.64 4.64 0 0 0-4.64-4.65c-2.57 0-4.65 2.08-4.65 4.65-.02 2.55 2.08 4.65 4.65 4.65Z"/></g><defs><filter id="a" x="-236.387" y="508.031" width="872.767" height="811.068" filterUnits="userSpaceOnUse" color-interpolation-filters="sRGB"><feFlood flood-opacity="0" result="BackgroundImageFix"/><feBlend in="SourceGraphic" in2="BackgroundImageFix" result="shape"/><feGaussianBlur stdDeviation="50" result="effect1_foregroundBlur_2_61"/></filter><filter id="b" x="-43" y="-884" width="1366.02" height="1330.7" filterUnits="userSpaceOnUse" color-interpolation-filters="sRGB"><feFlood flood-opacity="0" result="BackgroundImageFix"/><feBlend in="SourceGraphic" in2="BackgroundImageFix" result="shape"/><feGaussianBlur stdDeviation="50" result="effect1_foregroundBlur_2_61"/></filter><filter id="c" x="-154.885" y="-249.331" width="911.862" height="906.937" filterUnits="userSpaceOnUse" color-interpolation-filters="sRGB"><feFlood flood-opacity="0" result="BackgroundImageFix"/><feBlend in="SourceGraphic" in2="BackgroundImageFix" result="shape"/><feGaussianBlur stdDeviation="50" result="effect1_foregroundBlur_2_61"/></filter><filter id="e" x="-37" y="104" width="773" height="766" filterUnits="userSpaceOnUse" color-interpolation-filters="sRGB"><feFlood flood-opacity="0" result="BackgroundImageFix"/><feBlend in="SourceGraphic" in2="BackgroundImageFix" result="shape"/><feGaussianBlur stdDeviation="50" result="effect1_foregroundBlur_2_61"/></filter><filter id="f" x="-100" y="-104" width="1400" height="1287" filterUnits="userSpaceOnUse" color-interpolation-filters="sRGB"><feFlood flood-opacity="0" result="BackgroundImageFix"/><feGaussianBlur in="BackgroundImage" stdDeviation="50"/><feComposite in2="SourceAlpha" operator="in" result="effect1_backgroundBlur_2_61"/><feBlend in="SourceGraphic" in2="effect1_backgroundBlur_2_61" result="shape"/></filter><linearGradient id="d" x1="301.046" y1="-264.945" x2="301.046" y2="673.22" gradientUnits="userSpaceOnUse"><stop stop-color="#fff"/><stop offset="1" stop-color="#fff" stop-opacity="0"/></linearGradient></defs></svg>