<svg width="19" height="20" viewBox="0 0 19 20" fill="none" xmlns="http://www.w3.org/2000/svg">
    <path
            d="M14.7984 0C14.9766 0.0441568 15.1563 0.0842533 15.3334 0.13247C17.4651 0.715138 18.6401 2.89405 17.9635 5.01002C17.5321 6.35858 16.7632 7.51833 15.9222 8.63596C15.6476 9.00038 15.3633 9.35922 15.0634 9.70232C14.6731 10.149 14.0351 10.1784 13.6565 9.73734C12.5353 8.43142 11.5146 7.05545 10.8675 5.44043C10.3234 4.08222 10.3863 2.77579 11.2598 1.56681C11.8658 0.727826 12.6997 0.230428 13.7204 0.0497399C13.7762 0.0400964 13.83 0.0167491 13.8849 0C14.1894 0 14.4939 0 14.7984 0ZM14.3417 5.18411C15.1009 5.18411 15.7125 4.57252 15.709 3.81677C15.7054 3.07524 15.0999 2.46669 14.3543 2.45654C13.6062 2.44639 12.9779 3.0656 12.9743 3.81677C12.9708 4.57353 13.5818 5.18411 14.3417 5.18411Z"
            fill="#95B0DA"
    />
    <path
            d="M11.4704 10.1565C11.978 10.7315 12.4393 11.2583 12.9058 11.7806C13.1839 12.0922 13.5296 12.2993 13.9397 12.3826C14.6314 12.5227 15.2375 12.3384 15.7212 11.8309C16.1465 11.3842 16.5393 10.9071 16.9459 10.4427C17.0174 10.361 17.086 10.2772 17.1895 10.1539C17.1981 10.2712 17.2083 10.3412 17.2083 10.4107C17.2093 12.4151 17.2108 14.4199 17.2083 16.4242C17.2073 17.3992 16.7901 18.0154 15.8886 18.3793C14.6832 18.866 13.4753 19.3456 12.2708 19.8344C11.7536 20.044 11.243 20.0532 10.7137 19.874C9.13062 19.338 7.54453 18.8112 5.95641 18.291C5.84271 18.2534 5.68944 18.2641 5.57625 18.3082C4.60835 18.6838 3.64705 19.0766 2.68017 19.4558C1.34227 19.9811 0.0124897 19.102 0.00792176 17.6636C-0.00425943 13.9169 -0.000199035 10.1702 0.00690666 6.42342C0.00842931 5.53521 0.447967 4.916 1.26969 4.58305C2.5137 4.07905 3.76328 3.58774 5.00881 3.08679C5.46713 2.90255 5.92697 2.88225 6.39544 3.03807C7.07657 3.26392 7.75922 3.48522 8.43782 3.71818C8.50583 3.74153 8.5982 3.83035 8.60023 3.89126C8.62155 4.54853 8.76772 5.17942 8.96973 5.80066C8.97684 5.82248 8.97481 5.84685 8.9809 5.90775C8.61241 5.79 8.26271 5.67885 7.91352 5.56617C7.59985 5.46517 7.28923 5.35452 6.97303 5.26316C6.36346 5.08704 5.79856 5.48243 5.74628 6.11483C5.73867 6.20721 5.73968 6.3006 5.73968 6.39348C5.73917 9.35351 5.73917 12.314 5.73968 15.2741C5.73968 16.0115 5.9224 16.2618 6.6284 16.4937C7.78308 16.8734 8.93775 17.254 10.0929 17.6322C10.8867 17.892 11.4684 17.4794 11.4699 16.6475C11.473 14.5924 11.4704 12.5374 11.4704 10.4818C11.4704 10.3909 11.4704 10.3006 11.4704 10.1565Z"
            fill="#95B0DA"
    />
</svg>
