<svg width="11" height="15" viewBox="0 0 11 15" fill="none" xmlns="http://www.w3.org/2000/svg">
    <path d="M5.35239 0C9.12593 0.0857623 11.6045 3.6792 10.3866 7.34125C9.69196 9.42528 8.50844 11.2434 7.23916 13.0101C6.84466 13.559 6.44157 14.0907 6.02134 14.6139C5.64398 15.0942 5.10368 15.137 4.74348 14.6825C2.95105 12.4355 1.26153 10.1114 0.326723 7.34983C-0.676695 4.35672 0.695501 1.39793 3.55996 0.377354C4.13457 0.180101 4.75206 0.120067 5.35239 0ZM3.43989 5.4116C3.43989 6.51794 4.26321 7.35841 5.34382 7.35841C6.39869 7.35841 7.27347 6.50078 7.27347 5.47164C7.27347 4.39961 6.41585 3.52483 5.35239 3.52483C4.30609 3.51625 3.43989 4.37388 3.43989 5.4116Z" fill="#464EA3"/>
</svg>
