<svg width="38" height="45" viewBox="0 0 38 45" fill="none" xmlns="http://www.w3.org/2000/svg">
<path d="M30.4086 37.9988C30.7431 38.1953 30.8393 38.4786 30.8347 38.8396C30.821 39.7445 30.8026 40.6539 30.8347 41.5541C30.908 43.373 29.4969 45.0181 27.3847 44.9999C24.6082 44.9724 21.8317 44.9907 19.0552 44.9907C13.8596 44.9907 8.66396 44.9861 3.47291 44.9953C2.25877 44.9953 1.27371 44.5611 0.57271 43.5558C0.160359 42.9754 0 42.3219 0 41.6181C0 35.202 0 28.7904 0 22.3743C0 18.3573 0 14.3404 0 10.3234C0 8.7011 1.0263 7.40782 2.59323 7.06507C2.81315 7.0148 3.04682 6.99652 3.27132 6.99195C4.34801 6.98281 5.42013 6.98738 6.53806 6.98738C6.53806 6.89599 6.53806 6.80916 6.53806 6.72233C6.53806 5.57528 6.53347 4.42367 6.53806 3.27662C6.54722 1.69543 7.60559 0.397582 9.14503 0.0731185C9.37412 0.0228495 9.61236 0.0045699 9.85061 0.0045699C15.7335 0 21.6118 0.0045699 27.4947 0C27.7558 0 27.962 0.0868282 28.1453 0.274194C31.1371 3.33603 34.1289 6.39787 37.1253 9.45513C37.2949 9.62879 37.3728 9.82529 37.3728 10.0675C37.3682 18.2842 37.3728 26.5009 37.3682 34.7176C37.3682 36.5638 35.9433 37.9759 34.0648 37.9896C32.9285 37.9988 31.7923 37.9896 30.656 37.9942C30.5735 37.9988 30.4911 37.9988 30.4086 37.9988ZM36.0807 10.6159C35.9433 10.6159 35.8471 10.6159 35.7508 10.6159C33.098 10.6159 30.4407 10.6159 27.7879 10.6159C27.1831 10.6159 26.9586 10.3874 26.9586 9.78874C26.9586 7.05593 26.9586 4.3277 26.9586 1.5949C26.9586 1.49893 26.9586 1.40296 26.9586 1.29328C26.8624 1.28871 26.7937 1.27957 26.7295 1.27957C21.1078 1.27957 15.4861 1.275 9.86436 1.27957C8.69145 1.27957 7.84383 2.13415 7.84383 3.30404C7.84383 13.7646 7.84383 24.2296 7.84383 34.6901C7.84383 35.8783 8.68686 36.71 9.8781 36.71C17.9327 36.71 25.9919 36.71 34.0465 36.71C34.1839 36.71 34.3214 36.71 34.4542 36.6826C35.4668 36.4815 36.0853 35.7001 36.0853 34.617C36.0853 26.7202 36.0853 18.8189 36.0853 10.9221C36.0807 10.8352 36.0807 10.7438 36.0807 10.6159ZM29.9596 37.9988C29.868 37.9988 29.7763 37.9988 29.6847 37.9988C23.1192 37.9988 16.549 37.9988 9.98348 37.9988C9.51615 37.9988 9.05798 37.9485 8.61814 37.7748C7.32152 37.2676 6.54264 36.0748 6.54264 34.6079C6.54264 25.9342 6.54264 17.2605 6.54264 8.59142C6.54264 8.48631 6.54264 8.38577 6.54264 8.27153C5.47511 8.27153 4.43965 8.27153 3.40419 8.27153C3.32172 8.27153 3.23467 8.27153 3.1522 8.28067C2.04343 8.3812 1.29662 9.19008 1.29662 10.3006C1.29662 20.7611 1.29662 31.2216 1.29662 41.6821C1.29662 41.8192 1.29662 41.9563 1.32411 42.0888C1.51654 43.0668 2.30458 43.702 3.33088 43.702C11.3992 43.702 19.4721 43.702 27.5405 43.702C27.655 43.702 27.7696 43.702 27.8841 43.6791C28.8829 43.5009 29.5381 42.7103 29.5427 41.6592C29.5472 40.7407 29.5518 39.8176 29.5381 38.899C29.5335 38.5197 29.5839 38.1998 29.9596 37.9988ZM28.2644 9.29976C30.569 9.29976 32.8461 9.29976 35.169 9.29976C32.8598 6.93712 30.5781 4.60646 28.2644 2.23925C28.2644 4.63845 28.2644 6.9691 28.2644 9.29976Z" fill="#95B0DA"/>
</svg>
