<svg width="13" height="12" viewBox="0 0 13 12" fill="none" xmlns="http://www.w3.org/2000/svg">
    <path d="M7.89604 6.91825C7.89549 6.95764 7.89474 6.98714 7.89474 7.0166C7.89467 8.36171 7.8945 9.70686 7.89505 11.052C7.89508 11.1536 7.88697 11.2539 7.85438 11.3502C7.73348 11.7076 7.48576 11.92 7.11571 11.9906C6.57212 12.065 6.15792 11.685 6.07954 11.2567C6.06789 11.1931 6.06473 11.1294 6.06473 11.0652C6.06473 10.3342 6.06473 9.60322 6.06473 8.87224C6.06473 8.25123 6.06476 7.63022 6.06463 7.00924C6.06463 6.98212 6.06332 6.955 6.06256 6.92392C6.04623 6.92113 6.03348 6.9177 6.02059 6.91708C5.99773 6.91601 5.97477 6.91663 5.95187 6.91663C4.61365 6.91663 3.27539 6.91653 1.93717 6.9168C1.83579 6.91684 1.73607 6.90714 1.63833 6.87892C1.31981 6.787 1.02778 6.50614 0.984021 6.09933C0.929879 5.59603 1.28175 5.17409 1.74535 5.0965C1.80599 5.08636 1.86855 5.08416 1.93022 5.08413C3.27305 5.08344 4.61585 5.08365 5.95868 5.08337C5.99041 5.08337 6.02276 5.08836 6.05723 5.07677C6.05957 5.06474 6.06363 5.05188 6.06425 5.03882C6.06545 5.01366 6.06473 4.98842 6.06473 4.96322C6.06473 3.62038 6.06504 2.27757 6.06421 0.934718C6.06414 0.811616 6.07944 0.691814 6.12771 0.57875C6.26425 0.258809 6.50395 0.0596659 6.84826 0.010095C7.39972 -0.0693145 7.82014 0.332237 7.8827 0.776243C7.89099 0.834958 7.89419 0.894841 7.89422 0.954175C7.89484 2.29702 7.8947 3.63983 7.8947 4.98268C7.8947 5.01218 7.8947 5.04171 7.8947 5.07443C7.91144 5.07801 7.92406 5.08241 7.93685 5.08306C7.96198 5.08437 7.98724 5.08365 8.01244 5.08365C9.35527 5.08365 10.6981 5.08378 12.0409 5.08347C12.1996 5.08344 12.3513 5.11345 12.4905 5.1908C12.7672 5.3446 12.9305 5.57794 12.9721 5.89345C13.0315 6.34395 12.7253 6.81141 12.2193 6.90185C12.1566 6.91306 12.0917 6.91588 12.0278 6.91605C11.5488 6.91718 11.0699 6.91667 10.591 6.91667C9.72481 6.91667 8.85864 6.91667 7.9925 6.91673C7.96308 6.91667 7.93372 6.91759 7.89604 6.91825Z" fill="white"/>
</svg>
