<svg width="16" height="16" viewBox="0 0 16 16" fill="none" xmlns="http://www.w3.org/2000/svg">
    <path d="M8.80982 8.80164V15.1984C8.80982 15.6401 8.4499 16 8.00818 16C7.56646 16 7.20654 15.6401 7.20654 15.1984V8.818H0.801636C0.359918 8.818 0 8.45808 0 8.01636V8.00818C0 7.56646 0.359918 7.20654 0.801636 7.20654H7.182V0.801636C7.182 0.359918 7.54192 0 7.98364 0H7.99182C8.43354 0 8.79346 0.359918 8.79346 0.801636V7.182H15.1984C15.6401 7.182 16 7.54192 16 7.98364V8C16 8.44172 15.6401 8.80164 15.1984 8.80164H8.80982Z" fill="#464EA3"/>
</svg>
