<svg width="36" height="36" viewBox="0 0 36 36" fill="none" xmlns="http://www.w3.org/2000/svg">
<rect width="36" height="36" rx="6" fill="#FF4B6B"/>
<rect width="36" height="36" rx="6" fill="white" fill-opacity="0.5"/>
<rect width="33.6" height="33.6" rx="6" fill="#FF4B6B"/>
<g clip-path="url(#clip0_1046_29124)">
<path d="M22.7699 12.601C23.1684 12.1397 23.5447 11.6944 23.9315 11.2587C24.3555 10.7826 24.9199 10.7124 25.3343 11.0727C25.7818 11.4606 25.8094 11.9697 25.3896 12.4819C24.9964 12.9602 24.5851 13.4225 24.1504 13.9273C25.9401 16.1973 26.5437 18.7554 25.8561 21.5536C25.3471 23.6217 24.1579 25.2658 22.4033 26.4859C18.8802 28.9355 14.1148 28.3616 11.1784 25.1372C8.377 22.0606 8.27073 17.2452 10.8989 14.0293C13.5686 10.7613 18.571 9.58912 22.7699 12.601ZM18.4987 16.0921C18.4987 15.6851 18.4987 15.278 18.4987 14.871C18.4987 14.8359 18.4987 14.7998 18.4976 14.7647C18.4668 14.0984 18.1203 13.7147 17.5539 13.7179C16.9875 13.7211 16.6389 14.1037 16.6261 14.7754C16.6123 15.5363 16.6059 16.2983 16.6282 17.0582C16.6399 17.4822 16.5634 17.7989 16.2138 18.1167C15.4571 18.8043 15.4794 20.0073 16.184 20.7417C16.8801 21.4675 18.0693 21.5132 18.8218 20.8437C19.587 20.1635 19.7262 18.9509 18.9961 18.2346C18.5401 17.7883 18.4626 17.3366 18.4976 16.7818C18.5114 16.5534 18.4998 16.3227 18.4987 16.0921Z" fill="white"/>
<path d="M17.5918 8.00344C18.2103 8.00344 18.8288 7.99388 19.4473 8.00663C20.0244 8.01832 20.3932 8.3786 20.4081 8.91529C20.423 9.44773 20.0712 9.88665 19.5143 9.8994C18.2071 9.92916 16.8978 9.92916 15.5906 9.89834C15.0327 9.88452 14.6926 9.44454 14.7128 8.9036C14.7319 8.36478 15.0964 8.01726 15.6831 8.00663C16.3186 7.99494 16.9552 8.00344 17.5918 8.00344Z" fill="white"/>
</g>
<defs>
<clipPath id="clip0_1046_29124">
<rect width="17.1337" height="20" fill="white" transform="translate(9 8)"/>
</clipPath>
</defs>
</svg>
