<svg width="18" height="20" viewBox="0 0 18 20" fill="none" xmlns="http://www.w3.org/2000/svg">
<path d="M13.7699 4.60097C14.1684 4.13973 14.5447 3.69444 14.9315 3.25871C15.3555 2.78259 15.9199 2.71245 16.3343 3.07272C16.7818 3.46063 16.8094 3.96969 16.3896 4.48194C15.9964 4.96018 15.5851 5.42248 15.1504 5.92729C16.9401 8.19733 17.5437 10.7554 16.8561 13.5536C16.3471 15.6217 15.1579 17.2658 13.4033 18.4859C9.88022 20.9355 5.11482 20.3616 2.17843 17.1372C-0.622995 14.0606 -0.729271 9.24521 1.89892 6.02931C4.56857 2.76134 9.57096 1.58912 13.7699 4.60097ZM9.49869 8.09212C9.49869 7.68508 9.49869 7.27805 9.49869 6.87101C9.49869 6.83594 9.49869 6.79981 9.49763 6.76474C9.46681 6.09839 9.12035 5.71473 8.5539 5.71792C7.98745 5.72111 7.63887 6.1037 7.62611 6.77536C7.6123 7.5363 7.60592 8.29829 7.62824 9.05817C7.63993 9.4822 7.56341 9.79891 7.21376 10.1167C6.45708 10.8043 6.4794 12.0073 7.18401 12.7417C7.88011 13.4675 9.06933 13.5132 9.82177 12.8437C10.587 12.1635 10.7262 10.9509 9.99606 10.2346C9.54014 9.78828 9.46256 9.33661 9.49763 8.78185C9.51144 8.55336 9.49975 8.32274 9.49869 8.09212Z" fill="white"/>
<path d="M8.59177 0.00344333C9.2103 0.00344333 9.82882 -0.00612147 10.4473 0.00663159C11.0244 0.0183219 11.3932 0.378596 11.4081 0.915287C11.423 1.44773 11.0712 1.88665 10.5143 1.8994C9.20711 1.92916 7.89779 1.92916 6.5906 1.89834C6.03266 1.88452 5.69257 1.44454 5.71277 0.903597C5.7319 0.36478 6.09642 0.0172591 6.68306 0.00663159C7.31859 -0.00505872 7.95518 0.00344333 8.59177 0.00344333Z" fill="white"/>
</svg>
