<svg width="21" height="16" viewBox="0 0 21 16" fill="none" xmlns="http://www.w3.org/2000/svg">
    <path d="M9.55774 8.00377C9.55774 10.1095 9.55774 12.2162 9.55774 14.322C9.55774 14.6827 9.56787 15.0589 9.13345 15.2162C8.71726 15.3666 8.43777 15.1265 8.16436 14.8641C6.90464 13.6545 5.62062 12.4661 4.38116 11.2381C3.9994 10.859 3.61865 10.6584 3.06372 10.7143C2.67994 10.7529 2.28805 10.7288 1.90021 10.7172C0.908839 10.6873 0.133161 10.0642 0.0501254 9.13333C-0.0167085 8.38383 -0.0167085 7.62082 0.0501254 6.87132C0.133161 5.9395 0.915927 5.3154 1.90021 5.28743C1.91742 5.28743 1.93464 5.28453 1.95084 5.28743C3.33815 5.53533 4.32749 4.9884 5.21253 3.99003C6.06922 3.02252 7.07983 2.17849 8.02259 1.28043C8.09449 1.21195 8.16639 1.14442 8.23727 1.07594C8.48638 0.832854 8.77093 0.657295 9.1375 0.789447C9.52028 0.927386 9.55774 1.25439 9.55774 1.59007C9.55673 2.84407 9.55774 4.09806 9.55774 5.35206C9.55774 6.23564 9.55774 7.11922 9.55774 8.00377Z" fill="#464EA3"/>
    <path d="M20.9996 7.97768C20.9661 10.9381 19.912 13.5039 17.7409 15.6405C17.4017 15.9743 17.0159 16.1209 16.5602 15.8846C16.1642 15.6791 15.9728 15.3415 16.0772 14.9171C16.1247 14.7271 16.2523 14.5312 16.3982 14.3894C19.992 10.9111 19.9859 5.08095 16.3941 1.61317C15.9323 1.16656 15.9344 0.625413 16.3546 0.254038C16.7738 -0.115408 17.2812 -0.0845404 17.7389 0.364004C19.9019 2.48325 20.955 5.03465 20.9996 7.97768Z" fill="#464EA3"/>
    <path d="M17.1959 7.8858C17.1341 9.8729 16.4921 11.5378 15.1382 12.9326C14.6512 13.4342 14.1124 13.4931 13.6811 13.1082C13.2385 12.7137 13.2639 12.2304 13.753 11.7143C15.762 9.59702 15.7681 6.47458 13.7935 4.22704C13.5838 3.98781 13.3732 3.62319 13.4127 3.34828C13.4512 3.07818 13.76 2.77144 14.0345 2.62192C14.3798 2.43479 14.7545 2.5843 15.0319 2.87369C16.1408 4.03122 16.8354 5.38071 17.0876 6.93084C17.1453 7.28099 17.1686 7.63404 17.1959 7.8858Z" fill="#464EA3"/>
</svg>
