<svg width="19" height="17" viewBox="0 0 19 17" fill="none" xmlns="http://www.w3.org/2000/svg">
    <path d="M8.65157 8.85341C8.65157 10.6992 8.65157 12.4207 8.65157 14.1431C8.65157 14.2945 8.69466 14.4623 8.64149 14.5929C8.54615 14.826 8.43798 15.1507 8.25005 15.2233C8.06029 15.2968 7.69818 15.1834 7.53225 15.0274C6.55869 14.1113 5.56497 13.2052 4.68675 12.203C3.89836 11.3041 3.04948 10.8642 1.80915 10.9921C0.747588 11.101 0.0462945 10.3291 0.0123758 9.25793C-0.00412525 8.72915 -0.00412525 8.19946 0.0123758 7.67158C0.0462945 6.57955 0.744837 5.92106 1.85682 5.91108C1.99433 5.91017 2.13734 5.88659 2.26843 5.91471C3.3355 6.14418 3.97629 5.54284 4.55565 4.76009C3.45925 3.67985 2.34819 2.5996 1.26095 1.49668C1.08311 1.31619 0.899764 1.03048 0.913514 0.80464C0.930015 0.544329 1.10328 0.199667 1.31779 0.0735929C1.53322 -0.0533879 1.88799 0.0137305 2.17309 0.0554528C2.30052 0.0744999 2.41144 0.233226 2.5187 0.339346C7.58542 5.34965 12.6512 10.3618 17.7161 15.3739C17.8023 15.4591 17.8921 15.5435 17.9627 15.6405C18.2231 15.9952 18.1846 16.4577 17.8775 16.7552C17.5685 17.0546 17.1056 17.0836 16.7499 16.8169C16.6289 16.7262 16.5244 16.6138 16.4171 16.5067C13.9759 14.0923 11.5347 11.6769 9.09343 9.26247C8.97884 9.15 8.85784 9.04388 8.65157 8.85341Z" fill="#464EA3"/>
    <path d="M17.795 13.1072C17.4403 12.7236 17.0708 12.3462 16.7326 11.9417C16.6611 11.8565 16.6592 11.6624 16.7005 11.5435C17.883 8.15225 17.2643 5.13374 14.8084 2.4871C14.4041 2.05173 14.394 1.55288 14.7708 1.20187C15.1255 0.87172 15.6123 0.890767 16.0028 1.24994C19.0399 4.04442 19.9163 9.34043 17.9408 12.9666C17.9289 12.9893 17.9023 13.0056 17.795 13.1072Z" fill="#464EA3"/>
    <path d="M15.1979 10.4983C14.7331 10.0185 14.3151 9.60219 13.9209 9.16502C13.8347 9.06887 13.799 8.89473 13.8035 8.75868C13.8512 7.27119 13.3919 5.97508 12.356 4.88395C11.9701 4.47671 11.9646 3.98057 12.3139 3.635C12.6586 3.29397 13.1518 3.29941 13.5423 3.6477C15.2593 5.17873 16.0294 8.2435 15.1979 10.4983Z" fill="#464EA3"/>
    <path d="M7.11786 2.25219C7.23978 2.14063 7.39563 1.93565 7.60372 1.8259C7.79899 1.7225 8.07767 1.63634 8.2656 1.69892C8.43061 1.75334 8.61029 2.01909 8.62679 2.20503C8.67537 2.73925 8.64421 3.28074 8.64421 3.75419C8.16384 3.28164 7.66606 2.79186 7.11786 2.25219Z" fill="#464EA3"/>
</svg>
