<svg width="6" height="7" viewBox="0 0 6 7" fill="none" xmlns="http://www.w3.org/2000/svg">
    <path d="M2.28738 2.98539C1.98434 2.68096 1.68585 2.38126 1.38736 2.08155C0.982798 1.67459 0.576725 1.26921 0.172167 0.862243C-0.0172329 0.67138 -0.0248089 0.374834 0.150954 0.174507C0.332778 -0.0321294 0.647939 -0.0573675 0.84643 0.133495C1.10856 0.384298 1.3616 0.644565 1.61767 0.901677C2.06313 1.34807 2.50709 1.79605 2.95256 2.24245C2.96468 2.25507 2.97831 2.26611 2.9965 2.28346C3.10862 2.17304 3.22075 2.06263 3.33136 1.95379C3.9238 1.367 4.51624 0.780219 5.10868 0.193435C5.30869 -0.00373666 5.52688 -0.0463258 5.74204 0.0704C6.02386 0.224983 6.09053 0.608285 5.86325 0.843314C5.589 1.12724 5.30566 1.39855 5.02535 1.67617C4.59503 2.10206 4.16623 2.52795 3.73591 2.95227C3.72531 2.96331 3.7147 2.97435 3.72985 2.96331C3.8738 3.12736 4.01017 3.29929 4.1632 3.45387C4.72231 4.0233 5.29051 4.58485 5.84962 5.15271C6.1072 5.41455 6.01174 5.84991 5.67234 5.96979C5.47385 6.04077 5.29202 6.00133 5.1405 5.84833C4.46624 5.17321 3.79198 4.49494 3.11771 3.81825C3.07529 3.77566 3.03438 3.73465 2.98892 3.6889C2.78892 3.88607 2.59194 4.08167 2.39496 4.27568C1.88434 4.78045 1.37523 5.28678 0.863098 5.78997C0.588847 6.0597 0.167621 5.9761 0.0342838 5.62907C-0.0384457 5.44137 0.00549507 5.23946 0.157015 5.08961C0.517632 4.73628 0.879765 4.38137 1.23887 4.0233C1.58585 3.67944 1.93283 3.33557 2.28738 2.98539Z" fill="white"/>
</svg>
