<svg width="13" height="13" viewBox="0 0 13 13" fill="none" xmlns="http://www.w3.org/2000/svg">
    <path d="M7.45318 6.30867L11.9763 10.8318C12.2887 11.1442 12.2887 11.6532 11.9763 11.9655C11.664 12.2779 11.155 12.2779 10.8427 11.9655L6.33106 7.45392L1.80211 11.9829C1.48977 12.2952 0.980764 12.2952 0.668422 11.9829L0.662638 11.9771C0.350297 11.6647 0.350296 11.1557 0.662638 10.8434L5.17424 6.33181L0.645286 1.80285C0.332944 1.49051 0.332944 0.981509 0.645286 0.669167L0.65107 0.663384C0.963411 0.351042 1.47241 0.351041 1.78475 0.663383L6.29636 5.17498L10.8253 0.646031C11.1377 0.333689 11.6467 0.333689 11.959 0.646031L11.9706 0.657599C12.2829 0.969941 12.2829 1.47894 11.9706 1.79128L7.45318 6.30867Z" fill="#B9CBE5"/>
</svg>
