<svg width="25" height="25" viewBox="0 0 25 25" fill="none" xmlns="http://www.w3.org/2000/svg"><circle cx="12.5" cy="12.023" r="12" fill="#FFA217"/><path d="M12.964 12.845c1.082-.675 2.135-1.325 3.184-1.996.91-.579 2.066-.113 2.312.952a1.57 1.57 0 0 1-.676 1.647c-1.836 1.153-3.676 2.306-5.512 3.46-.517.322-1.05.351-1.57.05-.528-.298-.77-.789-.774-1.4v-8.28c0-.743-.005-1.48 0-2.223.004-.834.524-1.467 1.295-1.585.913-.138 1.72.575 1.725 1.53.008 1.309 0 2.612 0 3.92v3.816l.016.109Z" fill="#fff"/></svg>