<svg width="24" height="25" viewBox="0 0 24 25" fill="none" xmlns="http://www.w3.org/2000/svg"><circle cx="12" cy="12.023" r="12" fill="#64C048"/><path d="M18.646 8.68c-.076.471-.341.824-.607 1.177l-5.799 8.12c-.417.589-.985.903-1.705.903-.569 0-1.062-.235-1.44-.706-1.176-1.373-2.389-2.707-3.564-4.08-.758-.942-.34-2.315.758-2.628.607-.157 1.137 0 1.554.51.531.627 1.1 1.255 1.63 1.882l.796.942c.152.196.266.196.417-.04l5.117-7.178c.645-.902 1.857-.942 2.502-.079.151.197.227.432.303.667 0 .04 0 .04.038.079v.431Z" fill="#fff"/></svg>