<?xml version="1.0" standalone="no"?>
<!DOCTYPE svg PUBLIC "-//W3C//DTD SVG 20010904//EN"
 "http://www.w3.org/TR/2001/REC-SVG-20010904/DTD/svg10.dtd">
<svg version="1.0" xmlns="http://www.w3.org/2000/svg"
 width="260.000000pt" height="260.000000pt" viewBox="0 0 260.000000 260.000000"
 preserveAspectRatio="xMidYMid meet">
<metadata>
Created by potrace 1.14, written by Peter Selinger 2001-2017
</metadata>
<g transform="translate(0.000000,260.000000) scale(0.100000,-0.100000)"
fill="#000000" stroke="none">
<path d="M704 2559 c-95 -24 -116 -33 -183 -78 -114 -78 -177 -174 -235 -359
-50 -160 -55 -460 -11 -666 14 -69 15 -80 1 -95 -22 -25 -91 -150 -116 -211
-12 -30 -26 -64 -31 -75 -4 -11 -15 -45 -24 -75 -68 -235 -71 -466 -8 -615 66
-156 216 -284 384 -329 54 -14 225 -16 279 -2 14 4 41 9 60 12 164 27 435 157
555 265 105 95 90 89 200 90 104 0 116 1 226 19 84 13 255 68 344 111 266 128
417 411 372 699 -15 98 -59 198 -124 284 -57 74 -83 99 -192 181 -106 80 -212
134 -371 189 -76 27 -128 51 -135 62 -139 245 -327 430 -548 539 -151 75 -295
92 -443 54z m265 -328 c71 -38 158 -106 231 -180 78 -79 83 -86 60 -89 -20 -2
-103 -17 -201 -37 -110 -22 -412 -169 -452 -220 -7 -10 0 165 8 195 2 8 7 31
10 50 16 97 84 260 135 322 l31 37 79 -34 c44 -19 88 -39 99 -44z m498 -691
c19 -100 10 -317 -17 -415 -28 -106 -99 -253 -156 -324 -6 -7 -128 40 -184 72
-87 48 -160 104 -232 180 -66 67 -178 222 -178 242 1 17 34 50 107 107 167
129 387 205 588 203 l60 0 12 -65z m450 -71 c73 -44 157 -111 212 -169 52 -54
139 -175 146 -202 14 -57 -190 -212 -367 -278 -54 -20 -180 -51 -185 -46 -2 1
11 40 28 86 34 94 74 252 86 339 4 31 8 113 8 183 0 71 1 128 2 128 2 0 33
-19 70 -41z m-1282 -662 c86 -86 219 -186 307 -231 36 -19 64 -37 60 -40 -18
-19 -184 -89 -247 -105 -85 -21 -291 -36 -314 -22 -15 10 -29 131 -26 236 3
93 27 228 55 300 l11 30 42 -50 c23 -27 73 -80 112 -118z"/>
<path d="M1103 1420 c-177 -38 -201 -289 -35 -362 96 -43 200 -4 250 92 28 55
28 97 1 160 -38 88 -121 130 -216 110z"/>
</g>
</svg>
