<svg width="35" height="21" viewBox="0 0 35 21" fill="none" xmlns="http://www.w3.org/2000/svg"><path d="M14.567 18.817a3.06 3.06 0 0 1-.445-1.003l-.034-.146c-.039-.197-.12-.32-.329-.377-.667-.196-1.336-.407-2.001-.612-.986-.304-1.966-.605-2.95-.92-.507-.164-.822-.848-.663-1.36a1.112 1.112 0 0 1 1.384-.74c.818.243 1.635.504 2.448.762.822.258 1.65.511 2.478.774.156.052.258.036.38-.094a2.873 2.873 0 0 1 4.164.064 2.878 2.878 0 0 1-.258 4.16 2.873 2.873 0 0 1-4.122-.433l-.052-.075Zm1.704-2.45a1.147 1.147 0 0 0-.057 1.614c.426.457 1.16.493 1.618.078.467-.426.501-1.17.064-1.636-.43-.45-1.178-.479-1.625-.055ZM20.418 6.876a10.704 10.704 0 0 1 4.933 3.439l5.152-3.672A17.044 17.044 0 0 0 22.398.868l-1.98 6.008ZM30.863 7.13l-5.145 3.667a10.673 10.673 0 0 1 1.989 5.658h6.32a16.967 16.967 0 0 0-3.164-9.324ZM8.601 10.41a10.71 10.71 0 0 1 4.8-3.463L11.421.941a17.043 17.043 0 0 0-7.97 5.8l5.15 3.668ZM3.094 7.229A16.997 16.997 0 0 0 0 16.455h6.32a10.677 10.677 0 0 1 1.922-5.558L3.094 7.229ZM21.818.688A17.047 17.047 0 0 0 17.015 0c-1.747 0-3.432.263-5.017.753l1.978 6.007a10.697 10.697 0 0 1 3.039-.437c.978 0 1.923.133 2.823.379l1.98-6.014Z" fill="#DCE5F2"/></svg>