<svg width="35" height="21" viewBox="0 0 35 21" fill="none" xmlns="http://www.w3.org/2000/svg"><path d="M14.945 15.326a3.146 3.146 0 0 1 .98-.789c.18-.093.277-.206.274-.425.002-.7.018-1.41.03-2.112.018-1.041.033-2.076.061-3.119.017-.537.591-1.036 1.133-1.025A1.124 1.124 0 0 1 18.53 8.99c-.004.862-.03 1.728-.049 2.586-.018.87-.03 1.744-.052 2.62-.005.167.038.26.198.343a2.9 2.9 0 0 1 1.11 4.053 2.905 2.905 0 0 1-4.106.921 2.902 2.902 0 0 1-.741-4.117 1.89 1.89 0 0 1 .055-.07Zm2.854.962a1.158 1.158 0 0 0-1.58.399 1.18 1.18 0 0 0 .378 1.59 1.168 1.168 0 0 0 1.604-.398c.318-.544.135-1.279-.402-1.591Z" fill="#FFC700"/><path d="M20.609 6.94a10.804 10.804 0 0 1 4.98 3.471l5.2-3.706A17.203 17.203 0 0 0 22.608.876l-2 6.064ZM31.151 7.197l-5.193 3.7a10.774 10.774 0 0 1 2.008 5.71h6.38a17.126 17.126 0 0 0-3.195-9.41Z" fill="#DCE5F2"/><path d="M8.682 10.506a10.81 10.81 0 0 1 4.845-3.494l-2-6.062a17.202 17.202 0 0 0-8.044 5.854l5.199 3.702ZM3.123 7.296A17.155 17.155 0 0 0 0 16.608h6.38a10.777 10.777 0 0 1 1.94-5.61L3.122 7.296ZM22.022.695A17.206 17.206 0 0 0 17.174 0C15.41 0 13.71.266 12.11.76l1.997 6.063c.971-.287 2-.441 3.067-.441.987 0 1.94.134 2.85.382l1.998-6.07Z" fill="#FFC700"/></svg>