<svg width="35" height="20" viewBox="0 0 35 20" fill="none" xmlns="http://www.w3.org/2000/svg"><path d="M18.143 14.38a3.062 3.062 0 0 1 1.059.659c.146.139.285.19.488.116.658-.228 1.326-.446 1.99-.665.98-.325 1.955-.653 2.94-.968.51-.16 1.165.214 1.334.725a1.115 1.115 0 0 1-.699 1.409c-.807.28-1.627.54-2.438.803-.82.27-1.644.544-2.47.812-.16.05-.233.12-.256.297a2.878 2.878 0 0 1-3.431 2.371 2.885 2.885 0 1 1 1.4-5.59c.026.01.054.021.083.03Zm.036 2.99a1.149 1.149 0 0 0-.893-1.349 1.17 1.17 0 0 0-1.366.877c-.132.62.273 1.246.9 1.373.613.117 1.24-.296 1.359-.9ZM20.458 6.89a10.725 10.725 0 0 1 4.943 3.445l5.162-3.679A17.077 17.077 0 0 0 22.442.87l-1.984 6.02ZM30.923 7.145l-5.155 3.673a10.695 10.695 0 0 1 1.993 5.669h6.333a17 17 0 0 0-3.17-9.342ZM8.618 10.43a10.73 10.73 0 0 1 4.81-3.47L11.444.944a17.077 17.077 0 0 0-7.986 5.81l5.16 3.677ZM3.1 7.242A17.03 17.03 0 0 0 0 16.486h6.333c.113-2.066.81-3.975 1.925-5.568L3.1 7.242ZM21.861.69A17.08 17.08 0 0 0 17.048 0c-1.75 0-3.438.264-5.026.754l1.982 6.02a10.728 10.728 0 0 1 5.873-.059L21.861.69Z" fill="#FF4B6B"/></svg>