<svg width="35" height="21" viewBox="0 0 35 21" fill="none" xmlns="http://www.w3.org/2000/svg"><path d="M14.21 17.042c.02-.372.108-.736.257-1.077.02-.047.042-.092.063-.139.09-.18.099-.33-.034-.504-.415-.564-.824-1.144-1.234-1.715-.605-.848-1.21-1.686-1.806-2.543-.307-.441-.142-1.185.3-1.499a1.125 1.125 0 0 1 1.564.253c.51.695 1.005 1.404 1.501 2.107.503.709 1.013 1.418 1.518 2.136.095.139.184.187.362.158a2.9 2.9 0 0 1 3.304 2.597A2.905 2.905 0 0 1 17.256 20a2.9 2.9 0 0 1-3.047-2.866c0-.033 0-.061.002-.092Zm2.866-.926a1.156 1.156 0 0 0-1.032 1.26c.061.627.63 1.104 1.252 1.052a1.169 1.169 0 0 0 1.052-1.275c-.068-.624-.654-1.104-1.271-1.037Z" fill="#64C048"/><path d="M20.609 6.94a10.804 10.804 0 0 1 4.98 3.471l5.2-3.706A17.203 17.203 0 0 0 22.608.876l-2 6.064ZM31.151 7.197l-5.193 3.7a10.774 10.774 0 0 1 2.008 5.71h6.38a17.126 17.126 0 0 0-3.195-9.41Z" fill="#DCE5F2"/><path d="M8.682 10.506a10.81 10.81 0 0 1 4.845-3.494l-2-6.062a17.202 17.202 0 0 0-8.044 5.854l5.199 3.702ZM3.123 7.296A17.155 17.155 0 0 0 0 16.608h6.38a10.777 10.777 0 0 1 1.94-5.61L3.122 7.296Z" fill="#64C048"/><path d="M22.022.695A17.206 17.206 0 0 0 17.174 0C15.41 0 13.71.266 12.11.76l1.997 6.063c.971-.287 2-.441 3.067-.441.987 0 1.94.134 2.85.382l1.998-6.07Z" fill="#DCE5F2"/></svg>