<svg width="35" height="20" viewBox="0 0 35 20" fill="none" xmlns="http://www.w3.org/2000/svg"><path d="M16.35 14.352c.355-.108.73-.147 1.102-.122.05.004.1.007.15.013.201.023.345-.018.463-.203.391-.581.798-1.16 1.198-1.736.594-.854 1.178-1.706 1.781-2.556.312-.438 1.066-.533 1.51-.222.504.356.639 1.03.29 1.555-.482.713-.984 1.418-1.477 2.12-.499.712-.994 1.43-1.498 2.145-.096.134-.113.236-.025.394a2.898 2.898 0 0 1-1.329 3.982 2.9 2.9 0 0 1-3.919-1.514 2.897 2.897 0 0 1 1.67-3.829c.025-.009.054-.02.084-.027Zm1.835 2.382a1.157 1.157 0 0 0-1.533-.547c-.569.269-.827.963-.569 1.532.267.579.972.837 1.553.56.565-.275.82-.985.55-1.545ZM20.584 6.932a10.791 10.791 0 0 1 4.974 3.467l5.194-3.702A17.183 17.183 0 0 0 22.581.875l-1.997 6.057Z" fill="#FFA217"/><path d="m31.115 7.188-5.187 3.697a10.76 10.76 0 0 1 2.005 5.704h6.373a17.106 17.106 0 0 0-3.191-9.4Z" fill="#DCE5F2"/><path d="M8.672 10.494a10.796 10.796 0 0 1 4.839-3.49L11.515.949a17.182 17.182 0 0 0-8.036 5.847l5.193 3.698ZM3.119 7.287A17.135 17.135 0 0 0 0 16.59h6.373c.113-2.08.814-4 1.937-5.604L3.119 7.287ZM21.996.694A17.186 17.186 0 0 0 17.154 0c-1.762 0-3.46.265-5.058.759l1.994 6.057a10.794 10.794 0 0 1 5.91-.06L21.996.694Z" fill="#FFA217"/></svg>