<svg width="100" height="100" viewBox="0 0 100 100" fill="none" xmlns="http://www.w3.org/2000/svg"><mask id="a" style="mask-type:alpha" maskUnits="userSpaceOnUse" x="0" y="0" width="100" height="100"><circle cx="50" cy="50.204" r="49.276" fill="#ECF6FF"/></mask><g mask="url(#a)" fill="#95B0DA"><circle cx="50.421" cy="33.872" r="9.714"/><circle cx="70.871" cy="36.3" r="7.286"/><path fill-rule="evenodd" clip-rule="evenodd" d="M74.333 67.87c9.047-.022 12.143-.302 12.143-3.884 0-3.886-2.732-8.742-5.464-11.657-2.733-2.914-5.465-3.885-9.107-3.885-2.377 0-4.354.4-6.208 1.496 2.141 2.157 4.222 4.948 5.795 7.92 1.557 2.94 2.84 6.48 2.84 10.01Z"/><ellipse rx="7.499" ry="7.391" transform="matrix(-1 0 0 1 30.195 36.477)"/><path fill-rule="evenodd" clip-rule="evenodd" d="M26.945 67.87c-9.047-.022-12.143-.302-12.143-3.884 0-3.886 2.732-8.742 5.464-11.657 2.732-2.914 5.465-3.885 9.107-3.885 2.377 0 4.354.4 6.208 1.496-2.14 2.157-4.221 4.948-5.794 7.92-1.557 2.94-2.84 6.48-2.842 10.01Z"/><path d="M63.269 53.301c-3.643-3.642-7.286-4.857-12.143-4.857-4.857 0-8.463 1.176-12.143 4.857-3.68 3.681-7.286 9.715-7.286 14.572 0 4.857 4.858 4.858 19.429 4.858 14.571-.001 19.428-.001 19.428-4.858 0-4.857-3.643-10.929-7.285-14.572Z"/></g></svg>