<svg width="140" height="140" viewBox="0 0 140 140" fill="none" xmlns="http://www.w3.org/2000/svg"><mask id="a" style="mask-type:alpha" maskUnits="userSpaceOnUse" x="0" y="0" width="140" height="140"><circle cx="70" cy="70" r="69" fill="#6E65AE" stroke="#ACA3DD" stroke-width="2"/></mask><g mask="url(#a)"><path d="M15.556 139.999c-.057-13.136 6.444-21.517 17.645-26.714 4.43-2.054 8.802-4.256 13.329-6.048 6.86-2.709 7.293-11.573 4.421-17.408-3.303-6.711-6.485-13.496-9.234-20.445-.669-1.686.555-4.117.84-6.212.155-1.12.36-2.308.18-3.404-1.24-7.407-2.374-14.79-.318-22.245 2.7-9.87 10.547-16.418 20.614-17.662 7.398-.917 14.34-.786 19.863 5.221.334.36.946.516 1.46.647 9.3 2.324 12.946 11.204 12.8 18.652-.099 5.14-1.029 10.255-1.534 15.387-.115 1.162-.4 2.512.04 3.478 2.113 4.616.8 8.765-1.386 12.833-2.782 5.189-5.808 10.247-8.403 15.526-2.137 4.354.172 12.285 4.414 14.633 6.37 3.528 13.231 6.212 19.472 9.944 8.712 5.214 12.774 13.341 12.733 23.817H15.556Z" fill="#95B0DA"/></g></svg>