<svg width="16" height="16" viewBox="0 0 16 16" fill="none" xmlns="http://www.w3.org/2000/svg"><path d="M10.567 11.295c-.03-.002-.061.002-.089-.007-.572-.178-.985.016-1.41.438-.647.64-1.566.59-2.238-.087-.336-.338-.649-.452-1.131-.383-1.08.154-1.737-.354-1.911-1.449-.066-.408-.209-.644-.596-.833-.993-.486-1.273-1.336-.788-2.347.195-.403.19-.73-.012-1.125-.479-.94-.197-1.79.755-2.285.378-.196.572-.425.637-.866C3.952 1.233 4.69.711 5.821.89c.4.063.66-.044.937-.324C7.5-.19 8.5-.188 9.25.57c.277.28.539.382.937.319 1.146-.18 1.872.359 2.041 1.512.056.383.213.597.553.774 1.053.549 1.32 1.36.787 2.412-.186.366-.143.654.02 1.002.505 1.082.217 1.92-.856 2.434-.328.158-.45.358-.498.7-.152 1.036-.762 1.594-1.667 1.572Z" fill="#464EA3"/><path d="M9.893 12.345c.233.013.466.047.696.032.496-.032 1.026.007 1.477-.159.646-.236.945-.83 1.065-1.499l.14-.792c.11.08.196.128.262.194.74.736 1.48 1.473 2.212 2.215.395.4.332.649-.198.838-.084.03-.169.058-.254.087-1.276.44-1.276.44-1.684 1.748-.036.114-.063.232-.11.34-.136.315-.399.404-.633.172-1.014-1-2.012-2.019-3.015-3.031l.042-.145ZM2.722 9.892l.132.744c.221 1.27 1.116 1.934 2.39 1.772.193-.024.383-.065.576-.073.1-.005.204.043.306.067l.086.16c-.837.798-1.676 1.595-2.512 2.395-.172.164-.326.348-.5.51-.307.286-.57.227-.712-.165-.163-.447-.291-.908-.468-1.35a.694.694 0 0 0-.346-.348c-.44-.18-.902-.307-1.347-.475-.344-.13-.433-.41-.187-.66.827-.85 1.677-1.68 2.582-2.577Z" fill="#464EA3"/></svg>