<svg width="15" height="16" viewBox="0 0 15 16" fill="none" xmlns="http://www.w3.org/2000/svg"><path d="M9.232 8c1.03 0 1.977-.014 2.922.004 1.422.028 2.35.806 2.59 2.145.109.613-.09 1.153-.387 1.68a1.424 1.424 0 0 0-.193.628c-.024.714-.001 1.43-.01 2.145-.013.909-.486 1.39-1.399 1.393-3.575.007-7.15.006-10.727 0-.91-.002-1.38-.483-1.397-1.394-.009-.465-.008-.93 0-1.395.01-.622-.057-1.187-.378-1.78-.762-1.406.298-3.248 1.9-3.372.96-.074 1.929-.059 2.893-.046.404.005.542-.121.511-.522-.031-.41-.01-.822-.004-1.233.005-.42.197-.687.64-.696.803-.015 1.608-.03 2.41-.012.433.011.625.306.63.718.005.553 0 1.104 0 1.738Zm1.86 3.057c.227.167.417.33.629.458.58.35 1.366.104 1.682-.515.3-.587.04-1.39-.565-1.631-.257-.102-.557-.128-.838-.128-3.054-.009-6.108-.008-9.16-.002a2.7 2.7 0 0 0-.74.086c-.572.165-.887.665-.837 1.27.045.555.452 1.064 1.02 1.036.492-.025.972-.287 1.547-.473 1.044.746 1.105.746 2.343-.088 1.069.817 1.114.817 2.474.002 1.06.82 1.296.82 2.446-.015ZM7.393 4.296c-1.04.008-1.797-.943-1.433-1.92.274-.74.697-1.428 1.089-2.12.146-.26.431-.395.63-.05.409.705.85 1.404 1.14 2.159.372.964-.387 1.924-1.426 1.931Z" fill="#464EA3"/></svg>