<svg width="13" height="16" viewBox="0 0 13 16" fill="none" xmlns="http://www.w3.org/2000/svg"><path d="M4.805 0v7.993l2.396-1.591 2.4 1.594V.012c.883 0 1.716-.025 2.545.012.352.015.58.28.633.645.023.153.015.31.015.466l.005 10.75c0 .64-.288.916-.99.917-3.003.003-6.005 0-9.008.002-.17 0-.342-.005-.509.017-.438.057-.709.387-.69.82.018.415.3.71.723.748.14.012.283.007.425.007 2.975 0 5.948 0 8.923.003.196 0 .402.002.587.058.387.12.56.413.539.813a.766.766 0 0 1-.665.718c-.126.018-.254.011-.382.011-3.059 0-6.118.002-9.177 0-1.578 0-2.57-.988-2.572-2.57a6645.13 6645.13 0 0 1 0-11.642C.003.616.617.004 1.78.001c.988-.002 1.976 0 3.025 0Z" fill="#464EA3"/></svg>