<svg width="15" height="15" viewBox="0 0 15 15" fill="none" xmlns="http://www.w3.org/2000/svg"><path d="M.018 4.611h14.934c.01.216.027.42.027.625.003 2.245.005 4.49 0 6.735-.003 1.914-1.052 3.003-2.962 3.015-3.058.02-6.116.017-9.175 0-1.634-.008-2.764-1-2.807-2.61C-.032 9.806.018 7.235.018 4.61ZM3.9 6.68c-.52.014-.982.492-.978 1.017.003.568.53 1.082 1.079 1.053.537-.028.967-.486.962-1.026-.005-.606-.468-1.06-1.063-1.044Zm8.134 1.066a1.029 1.029 0 0 0-.978-1.067c-.548-.026-1.036.436-1.052.995-.016.562.437 1.051.987 1.065a1.008 1.008 0 0 0 1.043-.993Zm-9.111 3.66c-.03.569.4 1.042.974 1.076.54.033 1.05-.436 1.072-.986a1.031 1.031 0 0 0-.972-1.08c-.537-.024-1.045.445-1.074.99ZM8.51 7.72c.014-.53-.433-1.006-.97-1.032a1.046 1.046 0 0 0-1.085 1.037c0 .522.469.992 1.004 1.005a1.043 1.043 0 0 0 1.051-1.01ZM7.45 12.486c.518.03 1.058-.476 1.073-1.006.015-.518-.43-.999-.969-1.046-.548-.048-1.043.393-1.086.968-.039.538.427 1.051.982 1.084ZM14.924 3.31H.07C-.248 1.653.828.138 2.457.06c1.717-.08 3.44-.045 5.16-.052 1.508-.005 3.016-.017 4.524.004 1.864.026 3.022 1.386 2.783 3.297Z" fill="#464EA3"/></svg>