<svg width="16" height="14" viewBox="0 0 16 14" fill="none" xmlns="http://www.w3.org/2000/svg"><path d="M7.989 8.752c-2.055 0-4.11.002-6.166 0C.644 8.748.018 8.127.01 6.94 0 5.534.029 4.127 0 2.72-.022 1.486.777.74 1.912.81c1.052.065 2.11.005 3.165.019.305.004.476-.071.651-.356.137-.22.477-.427.736-.44C7.461-.019 8.462 0 9.462.017c.381.006.707.125.89.536.06.137.325.256.5.26C11.98.836 13.11.82 14.24.826c1.05.006 1.709.62 1.726 1.668.025 1.499.027 2.999 0 4.498-.022 1.171-.655 1.758-1.81 1.758l-6.167.001Zm.023-3.145a.778.778 0 1 0-.018 1.558c.405.001.77-.36.78-.775.01-.408-.349-.776-.762-.783ZM.01 10.168c1.051.073 2.051.198 3.053.204 3.517.025 7.035.025 10.553-.002.761-.005 1.52-.163 2.384-.262-.037.708-.016 1.532-.143 2.332-.103.64-.777 1.087-1.438 1.088-4.259.006-8.517.008-12.776 0C.697 13.524.065 12.9.015 11.93c-.03-.629-.005-1.259-.005-1.762Z" fill="#464EA3"/></svg>