<svg width="16" height="16" viewBox="0 0 16 16" fill="none" xmlns="http://www.w3.org/2000/svg"><path d="M16 8.022A7.99 7.99 0 0 1 7.988 16 7.989 7.989 0 0 1 0 7.956C.017 3.54 3.605-.013 8.033 0a7.987 7.987 0 0 1 7.966 8.022Zm-7.204 2.356c-.025-.945.338-1.711 1.027-2.333.252-.228.52-.458.7-.738.25-.384.52-.797.61-1.234.322-1.56-.963-3.284-2.626-3.61-1.505-.295-3.09.65-3.544 2.112-.11.355-.085.68.25.906.447.302 1.035.116 1.267-.406.306-.689.807-1.088 1.577-1.069.674.017 1.159.361 1.416.98.296.713.085 1.325-.45 1.85-.322.32-.645.637-.952.971-.666.725-.947 1.576-.84 2.571h1.565Zm-.792 1.623c-.76 0-.8.037-.8.777 0 .79.036.828.75.83.81 0 .841-.03.841-.779.001-.797-.029-.828-.791-.828Z" fill="#464EA3"/></svg>