<svg width="20" height="17" viewBox="0 0 20 17" fill="none" xmlns="http://www.w3.org/2000/svg"><path d="M7.673 7.086c-.964 1.026-.95 2.233-.926 3.452.02 1.037-.216 1.258-1.252 1.258-1.475.001-2.95.003-4.425 0-.775-.002-1.055-.282-1.061-1.043-.003-.357.017-.716-.004-1.072-.053-.906.384-1.537 1.106-2.004.953-.618 2.033-.826 3.14-.911 1.118-.086 2.227-.018 3.422.32ZM18.274 8.429c-.992 0-1.912-.002-2.831 0-1.207.004-1.874.677-1.878 1.889-.006 1.358-.126 1.478-1.482 1.478-.82 0-1.64.002-2.461 0-.836-.003-1.104-.268-1.109-1.089-.002-.328.018-.657-.003-.984-.064-.963.406-1.618 1.185-2.097.94-.577 1.991-.782 3.069-.861 1.35-.099 2.681.012 3.96.503.736.284 1.145.588 1.55 1.16ZM5.128 5.041c-1.425-.001-2.516-1.1-2.514-2.527C2.617 1.084 3.708-.002 5.14 0c1.427.002 2.517 1.096 2.516 2.525-.002 1.423-1.102 2.518-2.528 2.516ZM13.573 5.041c-1.424.002-2.525-1.095-2.526-2.516C11.044 1.097 12.136.002 13.563 0c1.433-.002 2.52 1.083 2.524 2.514C16.09 3.943 15 5.04 13.573 5.041Z" fill="#464EA3"/><path d="M15.259 12.646c0-.598-.007-1.118.002-1.64.008-.53.322-.876.796-.896.494-.022.866.321.886.859.02.535.004 1.07.004 1.674.526 0 1.027-.003 1.528 0 .63.005.992.31.996.833.003.526-.36.849-.98.858-.492.008-.982.002-1.543.002 0 .555.009 1.085-.003 1.614-.01.482-.265.812-.66.896-.537.114-1.006-.257-1.023-.834-.015-.535-.003-1.07-.003-1.676-.467 0-.907.003-1.346-.002-.179-.001-.361.003-.533-.034a.811.811 0 0 1-.654-.885.805.805 0 0 1 .79-.762c.563-.022 1.127-.007 1.743-.007Z" fill="#464EA3"/></svg>