<svg width="16" height="16" viewBox="0 0 16 16" fill="none" xmlns="http://www.w3.org/2000/svg"><g clip-path="url(#a)" fill="#95B0DA"><path d="M9.077 4.467c-.77-.424-1.55-.583-2.431-.421.064-.088.1-.154.152-.207.867-.87 1.727-1.745 2.606-2.603 1.49-1.456 3.643-1.644 5.164-.469 1.734 1.34 1.936 3.93.368 5.628a61.369 61.369 0 0 1-3.57 3.548c-1.49 1.37-3.73 1.37-5.135.086-.51-.468-.578-1.07-.171-1.524.389-.435.999-.438 1.506-.008.658.558 1.553.594 2.292.088a2.39 2.39 0 0 0 .35-.284c1.043-1.047 2.089-2.092 3.12-3.15.476-.487.75-1.066.6-1.769-.228-1.08-1.282-1.647-2.303-1.209-.324.14-.626.369-.884.613-.572.542-1.11 1.119-1.664 1.68Z"/><path d="M6.933 11.534c.789.43 1.569.585 2.44.415-.055.076-.083.128-.124.169-.904.903-1.795 1.82-2.717 2.705-1.282 1.229-3.096 1.52-4.54.76-2.13-1.118-2.665-3.91-1.053-5.82.789-.936 1.704-1.767 2.57-2.636.425-.425.84-.867 1.309-1.24 1.503-1.193 3.637-1.139 4.968.094.49.454.559 1.055.17 1.5-.385.44-.998.453-1.505.031-.698-.581-1.61-.619-2.35-.06-.307.231-.575.52-.85.793-.85.85-1.7 1.701-2.54 2.563-.493.506-.795 1.093-.63 1.83.237 1.06 1.273 1.615 2.285 1.19.325-.137.63-.363.89-.607.574-.54 1.114-1.115 1.677-1.687Z"/></g><defs><clipPath id="a"><path fill="#fff" d="M0 0h16v16H0z"/></clipPath></defs></svg>