 <svg width="16" height="18" viewBox="0 0 16 18" fill="none" xmlns="http://www.w3.org/2000/svg"><path d="M0 8.628c.253-5 3.819-8.54 8.557-8.626 3.028-.055 5.41 1.277 7.202 3.69.354.475.308.988-.068 1.291-.382.31-.957.22-1.304-.254-1.117-1.522-2.562-2.5-4.43-2.886-3.853-.798-7.813 2.079-8.18 5.983-.357 3.796 1.983 6.992 5.726 7.622 2.66.448 4.909-.43 6.605-2.574.585-.74 1.106-.949 1.584-.568.452.36.393.842-.2 1.622-3.155 4.164-9.404 4.514-13.03.738C.776 12.91-.012 10.813 0 8.628Z" fill="#464EA3"/><path d="M9.518 7.774h4.441c.202 0 .402-.006.603.002.622.024.98.32.999.819.02.524-.35.896-.971.904-1.267.018-2.534.007-3.801.007H9.521c0 .625.028 1.184-.015 1.738-.015.203-.153.473-.317.563-.119.066-.423-.058-.558-.187a72.625 72.625 0 0 1-2.222-2.215c-.427-.443-.48-.952-.07-1.407A44.474 44.474 0 0 1 8.707 5.59c.395-.375.776-.193.805.356.032.579.007 1.158.007 1.827Z" fill="#464EA3"/></svg>