<svg width="34" height="34" viewBox="0 0 34 34" fill="none" xmlns="http://www.w3.org/2000/svg"><circle cx="17" cy="17" r="17" fill="#ECF6FF"/><circle cx="17" cy="17" r="14" fill="#fff"/><path d="M16.903 9c.13.015.26.028.392.044a5.29 5.29 0 0 1 2.62 1.087c1.218.937 1.945 2.17 2.192 3.676.098.593.081 1.185.004 1.781-.104.805-.28 1.593-.542 2.364a14.829 14.829 0 0 1-1.729 3.467c-.818 1.223-1.786 2.32-2.832 3.354-.09.09-.173.191-.311.216-.171.03-.326 0-.446-.126-.498-.526-1.006-1.041-1.484-1.585-1.233-1.404-2.233-2.954-2.927-4.693a12.138 12.138 0 0 1-.763-2.86c-.112-.817-.12-1.634.097-2.437.455-1.684 1.454-2.941 3.03-3.735a5.255 5.255 0 0 1 1.902-.533c.062-.005.125-.013.188-.02h.609Zm2.252 5.787c-.003-.533-.102-.94-.303-1.324-.777-1.476-2.755-1.925-4.077-.604a2.6 2.6 0 0 0-.317 3.273c.599.915 1.748 1.363 2.78 1.082 1.128-.305 1.917-1.345 1.917-2.427Z" fill="#464EA3"/></svg>