<svg width="20" height="16" viewBox="0 0 20 16" fill="none" xmlns="http://www.w3.org/2000/svg"><path d="M10.046 15.923c-2.594 0-5.188.003-7.782-.001-1.426-.003-2.247-.797-2.251-2.22C0 9.927.025 6.152 0 2.376-.01.884.936-.016 2.41 0c5.049.06 10.097.022 15.147.024 1.663 0 2.429.752 2.43 2.394.003 3.66-.026 7.32.014 10.978.018 1.556-.759 2.604-2.519 2.547-2.477-.08-4.957-.02-7.435-.02ZM8.944 11.95c.139-1.265-.138-1.713-1.268-2.088a5.09 5.09 0 0 0-3.456.057c-1.06.39-1.341.872-1.105 2.031h5.829ZM6.057 4.012c-1.17.005-2.063.885-2.038 2.002A2.015 2.015 0 0 0 6.04 7.969c1.058-.01 1.992-.966 1.971-2.017-.02-1.069-.905-1.946-1.955-1.94Zm7.974.976v.01c-.67 0-1.34-.028-2.007.01-.653.037-1.055.438-1.015.996.042.593.417.94.995.952 1.316.032 2.633.038 3.948.008.643-.015 1.022-.443 1.014-1.003-.007-.516-.45-.943-1.064-.968-.624-.025-1.248-.005-1.87-.005Zm-.022 3.984c-.646 0-1.294-.017-1.94.004-.618.02-1.035.42-1.057.97-.022.527.396.99 1 1.002 1.294.025 2.586.027 3.88-.007.71-.02 1.088-.427 1.057-1.012-.03-.57-.457-.938-1.137-.955-.602-.015-1.202-.004-1.803-.002Z" fill="#36427D"/></svg>