<svg width="19" height="16" viewBox="0 0 19 16" fill="none" xmlns="http://www.w3.org/2000/svg"><path d="M13.623 2.679c.904 0 1.721-.009 2.539.002 1.246.016 1.99.678 2 1.904.03 3.177.028 6.356.002 9.533-.01 1.172-.769 1.871-1.97 1.874-4.697.01-9.393.012-14.089 0-1.369-.004-2.074-.675-2.084-2.019C-.004 10.877 0 7.783.02 4.687.029 3.37.78 2.684 2.118 2.68c.758-.004 1.516-.006 2.273-.013.037 0 .074-.03.172-.075 0-.216-.004-.457 0-.699C4.58.818 5.254.054 6.33.032c1.81-.04 3.622-.044 5.431.002 1.229.03 1.846.73 1.86 1.949.005.204.002.408.002.696Zm-4.556 10.65c2.476 0 4.555-2.018 4.555-4.418 0-2.387-2.037-4.424-4.469-4.465C6.68 4.404 4.532 6.494 4.564 8.91c.032 2.41 2.082 4.42 4.503 4.42Zm7.25-7.953a.88.88 0 0 0-.882-.92c-.442-.003-.896.436-.898.869-.004.464.386.858.868.875.478.02.899-.362.911-.824Z" fill="#525BBA"/><path d="M9.08 6.251c1.468-.005 2.702 1.148 2.725 2.543.024 1.524-1.166 2.738-2.702 2.758-1.438.019-2.72-1.21-2.727-2.618-.008-1.488 1.19-2.678 2.703-2.683Z" fill="#525BBA"/></svg>