<svg width="20" height="16" viewBox="0 0 20 16" fill="none" xmlns="http://www.w3.org/2000/svg"><path d="M10.625 15.95c.275-2.33-.404-4.173-2.475-5.272.23-.667.51-1.268.637-1.9.312-1.553-.193-2.866-1.3-3.988-.2-.204-.34-.544-.362-.833-.052-.677-.036-1.362-.011-2.043C7.158.677 7.838.013 9.064.008c2.788-.01 5.576-.011 8.364 0 1.513.006 2.116.64 2.116 2.17v11.769c0 1.335-.676 2.039-1.995 2.046-2.106.011-4.212.004-6.318.001-.162 0-.324-.022-.606-.044ZM15.13 3.56c-.836 0-.915.074-.916.845 0 .836.089.928.91.93.801 0 .868-.068.867-.892-.002-.837-.048-.885-.861-.884ZM10.66 7.972c.001.837.073.916.844.916.838.001.93-.089.931-.91.001-.802-.067-.869-.89-.867-.839.002-.886.048-.885.861Zm4.446 2.694c-.816-.005-.892.068-.893.862-.002.848.047.907.772.913.913.008 1.002-.063 1.005-.818.003-.857-.085-.952-.884-.957Zm-3.51-7.108c-.858-.005-.933.06-.937.813-.004.88.073.96.927.962.777.003.848-.073.85-.907 0-.764-.096-.863-.84-.868Zm-.076 8.884c.83 0 .91-.08.915-.914.005-.784-.073-.86-.892-.862-.789-.003-.883.091-.883.886 0 .825.06.889.86.89Zm3.606-5.33c-.845-.003-.91.057-.913.848-.004.859.054.923.833.928.877.006.943-.056.944-.879 0-.835-.057-.896-.864-.897ZM4.47 15.997c-1.072 0-2.145.006-3.216-.002C.267 15.988 0 15.71 0 14.742c0-1.267.698-2.043 1.765-2.59 1.9-.972 4.698-.717 6.231.592.761.65.982 1.506.867 2.447-.07.57-.476.816-1.055.808-1.112-.012-2.225-.004-3.338-.002ZM7.089 8.098c-.1 1.524-1.326 2.648-2.775 2.543-1.494-.11-2.61-1.323-2.52-2.738.1-1.524 1.327-2.648 2.776-2.543 1.495.11 2.61 1.323 2.519 2.738Z" fill="#464EA3"/></svg>