<svg width="18" height="16" viewBox="0 0 18 16" fill="none" xmlns="http://www.w3.org/2000/svg"><path d="M4.41 12.43v1.782c.552 0 1.078-.009 1.606.002.61.013 1 .348 1.018.854.019.528-.382.906-1.018.92-.74.016-1.481.016-2.22 0-.913-.019-1.178-.284-1.182-1.197-.007-2.4-.01-4.8.004-7.2.002-.408-.068-.643-.505-.825C.405 6.053-.354 4.31.157 2.42.585.842 2.218-.175 4.005.025 5.647.21 6.98 1.738 7.03 3.49c.039 1.378-.835 2.742-2.183 3.296-.376.154-.486.339-.474.723.028.827.037 1.657-.002 2.483-.023.506.12.685.645.674.842-.018 1.21.37 1.093 1.03-.097.555-.488.72-.983.735-.222.006-.446 0-.717 0ZM1.747 3.512c-.006.986.764 1.782 1.733 1.789.974.007 1.753-.768 1.763-1.756.011-.99-.766-1.789-1.732-1.783-1.011.008-1.757.748-1.764 1.75ZM13.27 2.641c1.09 0 2.182-.006 3.272.003.754.005 1.103.333 1.124 1.083.021.766.025 1.532-.001 2.298-.025.728-.356 1.057-1.084 1.062-2.242.013-4.484.011-6.727.002-.701-.003-1.026-.322-1.044-1.022a50.175 50.175 0 0 1-.001-2.36c.014-.733.336-1.053 1.067-1.06 1.132-.014 2.263-.006 3.395-.006ZM13.206 13.322c-1.067 0-2.134.005-3.202-.001-.885-.005-1.193-.31-1.2-1.178-.004-.744-.012-1.487.003-2.23.014-.678.3-1.02.965-1.027 2.32-.024 4.639-.021 6.958-.005.586.004.901.394.925.953.034.825.038 1.654.002 2.478-.03.685-.38.998-1.066 1.006-1.126.013-2.255.004-3.385.004Z" fill="#464EA3"/></svg>