<svg width="18" height="18" viewBox="0 0 18 18" fill="none" xmlns="http://www.w3.org/2000/svg"><path d="M0 11.743c.209-.247.384-.574.663-.76.7-.471.916-1.027.927-1.876.011-.97-.186-1.662-1.052-2.195-.547-.336-.576-.848-.256-1.377.426-.705.85-1.41 1.279-2.113.293-.48.733-.704 1.265-.444.95.464 1.72.305 2.628-.232.705-.416 1.063-.825 1.177-1.59C6.78.145 7.029.002 8.116 0 8.836 0 9.557 0 10.276.002c.635.003 1.076.275 1.115.903.06.964.558 1.49 1.452 1.964.795.422 1.408.503 2.213.165.783-.33 1.118-.167 1.554.548.397.649.784 1.302 1.177 1.953.318.528.292 1.04-.254 1.378-.864.533-1.064 1.225-1.053 2.196.009.85.247 1.384.927 1.873.72.52.743.858.294 1.613-.388.653-.784 1.301-1.174 1.954-.306.509-.762.733-1.317.461-.93-.455-1.673-.288-2.568.225-.739.423-1.09.862-1.211 1.639-.151.973-.4 1.12-1.448 1.122-.72.001-1.441.01-2.16-.003-.735-.013-1.059-.234-1.147-.936-.11-.886-.479-1.434-1.366-1.884-.828-.421-1.471-.58-2.33-.202-.742.326-1.087.15-1.506-.531A92.99 92.99 0 0 1 .3 12.486c-.113-.196-.171-.42-.3-.743ZM9.028 5.4c-2.05.005-3.747 1.627-3.755 3.59-.007 1.956 1.684 3.592 3.735 3.612 2.06.021 3.809-1.651 3.789-3.624-.02-1.965-1.723-3.583-3.769-3.578Z" fill="#464EA3"/></svg>