<svg width="21" height="20" viewBox="0 0 21 20" fill="none" xmlns="http://www.w3.org/2000/svg"><path fill-rule="evenodd" clip-rule="evenodd" d="M13.84.925c-.309-.921-1.65-.921-1.958 0l-1.216 3.638a1.027 1.027 0 0 1-.978.69H5.752c-.996 0-1.41 1.24-.604 1.81l.604.427c1.684.336 4.64 2.21 2.994 7.01l.587.5 2.923-2.064c.36-.255.849-.255 1.21 0l3.183 2.248c.806.57 1.891-.197 1.583-1.118l-1.216-3.637a.984.984 0 0 1 .374-1.118l3.184-2.248c.806-.57.392-1.81-.605-1.81h-3.935c-.446 0-.841-.278-.979-.69L13.84.925Z" fill="#464EA3"/><path d="M4.599 19.998c-1.103 0-2.206.006-3.308-.002C.274 19.989 0 19.71 0 18.744c0-1.266.718-2.042 1.816-2.59 1.954-.972 4.834-.717 6.412.592.783.65 1.01 1.506.891 2.447-.071.57-.49.816-1.085.808-1.144-.012-2.29-.003-3.435-.002ZM7.294 12.098c-.102 1.524-1.364 2.648-2.855 2.543-1.537-.11-2.686-1.323-2.592-2.738.102-1.524 1.365-2.648 2.856-2.543 1.538.11 2.686 1.323 2.591 2.739Z" fill="#464EA3"/></svg>