<svg width="19" height="16" viewBox="0 0 19 16" fill="none" xmlns="http://www.w3.org/2000/svg"><circle cx="6.4" cy="3.2" r="3.2" fill="#464EA3"/><circle cx="13.6" cy="4" r="2.4" fill="#464EA3"/><path fill-rule="evenodd" clip-rule="evenodd" d="m10.001 9.556.044.044c1.2 1.2 2.4 3.2 2.4 4.8 0-1.6-1.2-3.6-2.4-4.8a5.386 5.386 0 0 0-.044-.044Zm1.2-1.063c.705.71 1.39 1.63 1.908 2.608.513.97.936 2.135.936 3.298 2.98-.007 4-.1 4-1.28 0-1.28-.9-2.88-1.8-3.84-.9-.959-1.8-1.279-3-1.279-.782 0-1.434.132-2.044.493Z" fill="#464EA3"/><path d="M10.4 9.6C9.2 8.4 8 8 6.4 8s-2.788.387-4 1.6C1.188 10.813 0 12.8 0 14.4 0 16 1.6 16 6.4 16c4.8 0 6.4 0 6.4-1.6s-1.2-3.6-2.4-4.8Z" fill="#464EA3"/></svg>