<svg width="18" height="18" viewBox="0 0 18 18" fill="none" xmlns="http://www.w3.org/2000/svg"><g clip-path="url(#a)" fill="#464EA3"><path d="M7.788 8.623c-1.98 0-3.96.004-5.94-.002C.608 8.618.012 8.018.011 6.793.008 5.377.006 3.962.009 2.548.011 1.455.622.828 1.72.814 2.83.799 3.937.825 5.044.795c.178-.004.348-.21.527-.311.282-.161.563-.43.857-.448C7.369-.022 8.316 0 9.26.017c.373.008.69.133.875.527.064.135.318.25.489.254 1.053.023 2.106.006 3.16.014 1.294.01 1.86.577 1.863 1.862.003 1.36.006 2.722.001 4.082-.004 1.276-.582 1.858-1.868 1.864-1.996.01-3.994.003-5.992.003Zm.02-3.108a.753.753 0 0 0-.739.773c0 .409.361.772.754.76.43-.011.803-.396.78-.803a.784.784 0 0 0-.795-.73ZM6.592 14.549c0 .625.013 1.166-.003 1.705-.019.628-.32.968-.804.952-.475-.016-.75-.374-.754-1-.004-.69.015-1.38-.009-2.07-.011-.338.092-.508.425-.636 2.03-.782 4.042-1.61 6.078-2.373.336-.127.805-.104 1.147.023 1.56.578 3.092 1.223 4.639 1.835.398.159.701.358.69.853-.01.48-.345.638-.702.794a2 2 0 0 1-.257.087c-.774.22-1.215.608-1.091 1.532.088.663-.29.958-.958.96-1.963.006-3.926.006-5.89 0-.588-.001-.985-.257-.91-.762.146-.983-.42-1.36-1.156-1.68-.115-.047-.224-.11-.445-.22ZM9.366 10.292c-1.733.689-3.464 1.378-5.196 2.065-.69.274-1.38.55-2.073.813-.968.366-1.986-.233-2.07-1.258-.053-.68-.01-1.367-.01-1.916 1.015.064 1.995.168 2.976.18 2.12.027 4.242.008 6.363.008l.01.108ZM15.607 10.63l-1.11-.44 1.11-.377v.818Z"/></g><defs><clipPath id="a"><path fill="#fff" d="M0 0h18v17.217H0z"/></clipPath></defs></svg>