<svg width="15" height="16" viewBox="0 0 15 16" fill="none" xmlns="http://www.w3.org/2000/svg"><path d="M1.606 13.592c-.301 0-.55.01-.798-.003-.473-.025-.803-.353-.807-.783-.004-.428.321-.769.79-.804.267-.02.536.001.803-.012.457-.023.772-.32.8-.742.029-.408-.26-.775-.703-.838-.277-.04-.563-.017-.846-.026-.485-.015-.815-.304-.844-.737-.029-.427.275-.782.75-.837.293-.034.594-.01.89-.033.452-.034.756-.357.755-.778 0-.42-.306-.74-.758-.773-.267-.02-.537.003-.803-.02-.528-.043-.865-.4-.834-.856.031-.445.369-.722.892-.73.239-.003.478.014.713-.01.467-.045.794-.395.79-.815-.004-.446-.35-.77-.85-.787-.253-.01-.507.009-.758-.01C.316 3.96-.006 3.623 0 3.194c.006-.431.336-.756.81-.78.248-.013.497-.004.796-.004 0-.315-.005-.578.001-.841C1.626.723 2.28.015 3.126.01 6.37-.005 9.61-.004 12.853.01a1.548 1.548 0 0 1 1.53 1.546c.007 4.298.008 8.595 0 12.892-.002.876-.71 1.543-1.621 1.547-2.156.008-4.312.003-6.469.003-.981 0-1.963.002-2.944-.001-1.098-.004-1.738-.646-1.743-1.745l.001-.66Zm6.391-9.585c-.758 0-1.517-.005-2.275.002-.564.004-.89.284-.907.76-.018.499.317.843.882.848 1.531.011 3.063.011 4.595 0 .566-.005.9-.347.884-.845-.016-.479-.338-.758-.904-.763-.758-.007-1.516-.002-2.275-.002Z" fill="#464EA3"/></svg>