<svg width="16" height="16" viewBox="0 0 16 16" fill="none" xmlns="http://www.w3.org/2000/svg"><path d="M.013 4.896h15.96c.01.178.025.339.025.499 0 2.517.003 5.033 0 7.55-.002 1.857-1.183 3.049-3.028 3.05-3.31.005-6.62.005-9.928 0-1.818-.001-3.024-1.199-3.027-3.004C.01 10.442.013 7.893.013 5.342v-.446Zm4.192 8.425c.633.008 1.157-.498 1.147-1.106-.01-.596-.518-1.084-1.127-1.084a1.115 1.115 0 0 0-1.12 1.087c-.007.597.491 1.096 1.1 1.103Zm3.789-2.189c-.607.005-1.114.506-1.113 1.098.001.613.525 1.104 1.163 1.091.603-.012 1.109-.53 1.09-1.117-.019-.598-.528-1.077-1.14-1.072Zm3.803-1.796a1.139 1.139 0 0 0 1.11-1.106c.005-.617-.515-1.111-1.154-1.097-.613.015-1.104.518-1.088 1.114a1.145 1.145 0 0 0 1.132 1.089Zm-7.583 0c.591.006 1.117-.495 1.138-1.084.02-.592-.474-1.102-1.086-1.118-.637-.016-1.162.477-1.161 1.092.002.587.518 1.104 1.109 1.11Zm3.797 0c.59-.001 1.114-.514 1.124-1.101.01-.59-.495-1.094-1.106-1.102-.636-.008-1.162.5-1.147 1.109.014.588.536 1.096 1.129 1.094ZM15.95 3.54H.1C-.392 1.818.995.02 2.845.01 6.286-.007 9.728.002 13.168.011c.292.001.599.048.874.144 1.416.492 2.13 1.755 1.908 3.385Z" fill="#464EA3"/></svg>