<svg width="13" height="14" viewBox="0 0 13 14" fill="none" xmlns="http://www.w3.org/2000/svg"><path d="M1.3 8.687H.111L.005 6.24c-.074-1.752.654-3.09 2.112-4.037.779-.506 1.661-.638 2.567-.661 1.271-.034 2.542-.06 3.813-.092.086-.002.172-.018.292-.03V0l3.395 2.421L8.81 4.83V3.308H5.477c-.492 0-.987-.027-1.478.004-1.423.092-2.454 1.264-2.551 2.609-.057.774-.072 1.553-.11 2.33-.005.131-.022.263-.039.436ZM3.963 12.536v1.465L.592 11.595 3.945 9.2v1.51h3.327c.492 0 .987.022 1.478-.005 1.469-.079 2.514-1.319 2.585-2.675.038-.747.066-1.495.102-2.242.007-.146.027-.29.042-.452h1.2c-.048 1.42.37 2.837-.173 4.223-.637 1.626-1.812 2.637-3.55 2.825-1.306.14-2.63.11-3.946.15-.328.011-.656.002-1.047.002Z" fill="#464EA3"/></svg>