<svg width="16" height="16" viewBox="0 0 16 16" fill="none" xmlns="http://www.w3.org/2000/svg"><g clip-path="url(#a)" fill="#464EA3"><path d="M15.997 8.048v6.805c-.001.889-.26 1.142-1.162 1.143-1.622 0-3.245.002-4.868-.001-.746-.001-1.081-.302-1.083-1.041-.008-4.636-.008-9.273 0-13.909 0-.737.339-1.043 1.08-1.044 1.657-.003 3.312-.003 4.969 0 .783.002 1.062.289 1.063 1.093.002 2.319 0 4.637 0 6.954ZM13.32 6.231c0-1.272.006-2.545-.007-3.818-.002-.18-.077-.504-.16-.518-.43-.072-.888-.14-1.3-.047-.153.035-.29.511-.292.789-.023 2.297-.013 4.594-.013 6.89 0 1.15 0 1.138 1.159 1.134.441-.002.626-.159.619-.612-.017-1.272-.006-2.545-.006-3.818Zm0 7.119c0-.876-.024-.903-.824-.904-.865-.001-.947.072-.948.858-.002.852.064.921.878.922.894 0 .894 0 .894-.876ZM0 7.95V1.143C.003.278.27.003 1.118.002 2.739 0 4.362 0 5.985.002c.836.001 1.138.313 1.139 1.193.003 4.372 0 8.743 0 13.115 0 .265.015.531-.011.794-.06.597-.378.889-.98.891a684.41 684.41 0 0 1-5.166 0c-.655-.003-.962-.32-.964-.99C-.002 12.652 0 10.3 0 7.949Zm2.68-1.728c0 1.288.007 2.578-.004 3.866-.002.398.155.589.558.568.132-.007.264 0 .396-.001.753-.001.821-.067.821-.819v-6.94c0-1.127-.015-1.14-1.125-1.122-.563.01-.645.093-.646.68-.002 1.255 0 2.512 0 3.768Zm.884 6.223c-.84 0-.884.039-.885.795 0 .978.005.985.835.986.87 0 .936-.06.937-.86.001-.842-.074-.92-.887-.92Z"/></g><defs><clipPath id="a"><path fill="#fff" d="M0 0h15.997v16H0z"/></clipPath></defs></svg>