<svg width="20" height="14" viewBox="0 0 20 14" fill="none" xmlns="http://www.w3.org/2000/svg"><g clip-path="url(#a)" fill="#464EA3"><path d="M9.807.053c2.52-.068 4.519.95 5.844 3.089 1.413 2.28 1.426 4.676.043 6.972-1.311 2.175-3.319 3.224-5.891 3.172 3.483-1.213 5.463-3.548 5.13-7.327-.271-3.113-2.22-4.962-5.126-5.906Z"/><path d="M13.11 13.241c3.319-1.087 5.215-3.25 5.215-6.822 0-2.28-1.465-5.265-5.18-6.306 1.854-.417 4.32.934 5.483 2.48 1.645 2.187 1.839 5.227.425 7.52-1.306 2.118-3.924 3.506-5.943 3.128Z"/><path d="M6.61 0C2.949.022-.011 3.018 0 6.692c.012 3.689 3.025 6.656 6.735 6.632 3.664-.024 6.625-3.023 6.605-6.691A6.654 6.654 0 0 0 6.61 0Z"/></g><defs><clipPath id="a"><path fill="#fff" d="M0 0h20v13.323H0z"/></clipPath></defs></svg>