<svg width="16" height="16" viewBox="0 0 16 16" fill="none" xmlns="http://www.w3.org/2000/svg"><g clip-path="url(#a)"><path d="M11.81.005c.829 0 1.659-.008 2.488.002.99.01 1.679.695 1.685 1.688.009 1.675 0 3.35.003 5.025.001.481-.17.884-.506 1.22-2.497 2.5-4.99 5.004-7.495 7.496-.766.76-1.727.747-2.494-.015a932.555 932.555 0 0 1-4.91-4.914c-.779-.785-.774-1.743.01-2.53 2.462-2.47 4.932-4.933 7.396-7.4C8.371.191 8.815-.012 9.37 0c.814.017 1.627.004 2.44.004Zm1.263 1.68a1.266 1.266 0 0 0-1.285 1.224c-.025.685.576 1.3 1.268 1.299a1.267 1.267 0 0 0 1.252-1.258 1.244 1.244 0 0 0-1.235-1.265Z" fill="#464EA3"/></g><defs><clipPath id="a"><path fill="#fff" d="M0 0h15.987v16H0z"/></clipPath></defs></svg>