<svg width="16" height="16" viewBox="0 0 16 16" fill="none" xmlns="http://www.w3.org/2000/svg"><g clip-path="url(#a)"><path d="m10.766 4.093 1.128-1.132a5.914 5.914 0 0 0-2.556-1.208C5.59.973 2.105 3.474 1.63 7.278c-.41 3.28 1.966 6.433 5.227 7.013a6.395 6.395 0 0 0 7.506-5.599c.104-.894-.011-1.776-.269-2.642-.177-.596 0-1.007.475-1.16.465-.15.852.108 1.043.697 1.472 4.532-1.457 9.438-6.142 10.285-4.345.785-8.522-2.08-9.335-6.404C-.675 5.168 2.243.899 6.537.136c2.177-.388 4.188.06 6.014 1.314.158.108.313.221.566.4.292-.325.576-.664.884-.98.564-.58 1.034-.674 1.41-.303.386.38.297.85-.267 1.415-1.756 1.755-3.508 3.513-5.27 5.26-.214.213-.314.407-.294.73.053.877-.664 1.598-1.544 1.622a1.594 1.594 0 0 1-1.632-1.59c-.003-.882.7-1.628 1.577-1.582.382.02.603-.115.839-.362.244-.256.526-.476.789-.71-.545-.599-2.055-.675-2.92-.273a3.234 3.234 0 0 0-1.806 3.656c.315 1.437 1.594 2.446 3.102 2.45A3.154 3.154 0 0 0 11.11 8.65c.15-.71.509-1.042 1-.922.544.131.728.565.567 1.281-.477 2.124-2.456 3.87-4.861 3.779-2.182-.083-4.056-1.646-4.53-3.901-.59-2.809 1.663-5.613 4.53-5.67a4.94 4.94 0 0 1 2.949.876Z" fill="#464EA3"/></g><defs><clipPath id="a"><path fill="#fff" d="M0 0h15.995v16H0z"/></clipPath></defs></svg>