<svg width="15" height="16" viewBox="0 0 15 16" fill="none" xmlns="http://www.w3.org/2000/svg"><g clip-path="url(#a)" fill="#464EA3"><path d="M6.866 2.303c3.834-.003 6.918 3.02 6.92 6.782.003 3.844-3.03 6.9-6.862 6.915C3.12 16.014 0 12.956 0 9.21c0-3.854 3.032-6.903 6.866-6.907Zm.798 4.978h-.002c0-.631.015-1.263-.005-1.894-.015-.48-.28-.795-.77-.792-.492.002-.754.323-.759.802a188.785 188.785 0 0 0-.002 3.668c.004.483.269.783.747.829.454.044.771-.297.789-.84.018-.59.002-1.182.002-1.773ZM6.907 1.51c-.494-.002-.99.013-1.484-.005-.471-.017-.82-.238-.814-.745.008-.492.33-.746.813-.75.97-.011 1.939-.017 2.907.003.565.012.9.32.85.77-.059.519-.399.737-.907.728-.455-.006-.91 0-1.365-.001ZM12.18 1.697c.605.02 1.916 1.068 1.95 1.508.018.237-.089.575-.262.712-.172.138-.57.2-.744.093a6.711 6.711 0 0 1-1.37-1.11c-.151-.164-.162-.577-.072-.812.08-.203.393-.315.498-.39Z"/></g><defs><clipPath id="a"><path fill="#fff" d="M0 0h14.133v16H0z"/></clipPath></defs></svg>