<svg width="226" height="226" viewBox="0 0 226 226" fill="none" xmlns="http://www.w3.org/2000/svg">
    <g clip-path="url(#clip0)">
        <path d="M113 226C175.408 226 226 175.408 226 113C226 50.5918 175.408 0 113 0C50.5918 0 0 50.5918 0 113C0 175.408 50.5918 226 113 226Z" fill="white" fill-opacity="0.1"/>
        <path d="M113 225.5C175.132 225.5 225.5 175.132 225.5 113C225.5 50.868 175.132 0.5 113 0.5C50.868 0.5 0.5 50.868 0.5 113C0.5 175.132 50.868 225.5 113 225.5Z" stroke="white" stroke-opacity="0.5"/>
        <path d="M123 214C171.601 214 211 174.601 211 126C211 77.3989 171.601 38 123 38C74.3989 38 35 77.3989 35 126C35 174.601 74.3989 214 123 214Z" fill="#79C54C" fill-opacity="0.9"/>
        <path d="M123 213.5C171.325 213.5 210.5 174.325 210.5 126C210.5 77.6751 171.325 38.5 123 38.5C74.6751 38.5 35.5 77.6751 35.5 126C35.5 174.325 74.6751 213.5 123 213.5Z" stroke="white" stroke-opacity="0.5"/>
        <path d="M108 206C156.601 206 196 166.601 196 118C196 69.3989 156.601 30 108 30C59.3989 30 20 69.3989 20 118C20 166.601 59.3989 206 108 206Z" fill="#FF4B6C" fill-opacity="0.8"/>
        <path d="M108 205.5C156.325 205.5 195.5 166.325 195.5 118C195.5 69.6751 156.325 30.5 108 30.5C59.6751 30.5 20.5 69.6751 20.5 118C20.5 166.325 59.6751 205.5 108 205.5Z" stroke="white" stroke-opacity="0.5"/>
        <path d="M113 179C161.601 179 201 139.601 201 91C201 42.3989 161.601 3 113 3C64.3989 3 25 42.3989 25 91C25 139.601 64.3989 179 113 179Z" fill="#26F2FF" fill-opacity="0.5"/>
        <path d="M113 178.5C161.325 178.5 200.5 139.325 200.5 91C200.5 42.6751 161.325 3.5 113 3.5C64.6751 3.5 25.5 42.6751 25.5 91C25.5 139.325 64.6751 178.5 113 178.5Z" stroke="white" stroke-opacity="0.5"/>
        <path d="M113 193C157.183 193 193 157.183 193 113C193 68.8172 157.183 33 113 33C68.8172 33 33 68.8172 33 113C33 157.183 68.8172 193 113 193Z" fill="#30295F"/>
        <path d="M58.2214 102H60.1324V94.889H65.4494C65.6227 94.889 65.8264 94.8803 66.0604 94.863C66.2944 94.8457 66.5284 94.8197 66.7624 94.785C68.2184 94.5597 69.3407 93.9183 70.1294 92.861C70.9267 91.8037 71.3254 90.547 71.3254 89.091C71.3254 87.6263 70.931 86.3653 70.1424 85.308C69.3537 84.2507 68.227 83.6093 66.7624 83.384C66.5284 83.3407 66.2944 83.3147 66.0604 83.306C65.835 83.2887 65.6314 83.28 65.4494 83.28H58.2214V102ZM60.1324 93.069V85.113H65.3974C65.5534 85.113 65.7354 85.1217 65.9434 85.139C66.16 85.1477 66.3637 85.1737 66.5544 85.217C67.5164 85.425 68.2227 85.906 68.6734 86.66C69.1327 87.4053 69.3624 88.2157 69.3624 89.091C69.3624 89.9577 69.1327 90.768 68.6734 91.522C68.2227 92.276 67.5164 92.7527 66.5544 92.952C66.3637 92.9953 66.16 93.0257 65.9434 93.043C65.7354 93.0603 65.5534 93.069 65.3974 93.069H60.1324ZM77.9298 102.39C80.3824 102.39 82.1634 101.484 83.2728 99.673V102H84.9758V93.277C84.9758 92.757 84.9498 92.2457 84.8978 91.743C84.8458 91.2403 84.7331 90.7853 84.5598 90.378C84.1871 89.468 83.5501 88.7747 82.6488 88.298C81.7561 87.8127 80.6684 87.57 79.3858 87.57C77.8431 87.57 76.5864 87.9167 75.6158 88.61C74.6451 89.3033 73.9951 90.2783 73.6658 91.535L75.5248 92.081C75.7934 91.145 76.2571 90.4603 76.9158 90.027C77.5831 89.5937 78.3978 89.377 79.3598 89.377C80.6944 89.377 81.6478 89.689 82.2198 90.313C82.7918 90.9283 83.0864 91.8687 83.1038 93.134C82.4798 93.2207 81.7908 93.3117 81.0368 93.407C80.2914 93.5023 79.5418 93.6107 78.7878 93.732C78.0338 93.8533 77.3404 93.992 76.7078 94.148C75.6591 94.4253 74.8011 94.889 74.1338 95.539C73.4664 96.1803 73.1328 97.0773 73.1328 98.23C73.1328 98.9753 73.3104 99.6643 73.6658 100.297C74.0211 100.93 74.5541 101.437 75.2648 101.818C75.9841 102.199 76.8724 102.39 77.9298 102.39ZM78.1508 100.739C77.3968 100.739 76.7901 100.618 76.3308 100.375C75.8801 100.124 75.5508 99.8073 75.3428 99.426C75.1434 99.036 75.0438 98.6373 75.0438 98.23C75.0438 97.4673 75.2994 96.8953 75.8108 96.514C76.3221 96.1327 76.8768 95.8553 77.4748 95.682C78.2461 95.474 79.1431 95.305 80.1658 95.175C81.1884 95.045 82.1591 94.9237 83.0778 94.811C83.0778 95.1317 83.0648 95.5 83.0388 95.916C83.0214 96.3233 82.9738 96.7003 82.8958 97.047C82.7138 98.1043 82.2111 98.984 81.3878 99.686C80.5731 100.388 79.4941 100.739 78.1508 100.739ZM93.417 102.39C94.405 102.39 95.2934 102.217 96.082 101.87C96.8794 101.515 97.5077 101.016 97.967 100.375C98.435 99.725 98.669 98.9537 98.669 98.061C98.669 97.385 98.5174 96.7307 98.214 96.098C97.9107 95.4567 97.4427 94.98 96.81 94.668C97.2867 94.304 97.655 93.8707 97.915 93.368C98.175 92.8567 98.305 92.2717 98.305 91.613C98.305 90.7637 98.0884 90.04 97.655 89.442C97.2304 88.8353 96.6497 88.3717 95.913 88.051C95.185 87.7303 94.3704 87.57 93.469 87.57C92.325 87.57 91.2807 87.7737 90.336 88.181C89.4 88.5797 88.581 89.1647 87.879 89.936L89.101 91.223C89.6124 90.6857 90.2364 90.248 90.973 89.91C91.7097 89.5633 92.494 89.39 93.326 89.39C94.1494 89.39 94.8557 89.585 95.445 89.975C96.043 90.3563 96.342 90.9457 96.342 91.743C96.342 92.5057 96.0474 93.0603 95.458 93.407C94.8687 93.7537 94.0844 93.927 93.105 93.927H91.467V95.565H93.131C94.327 95.565 95.224 95.7383 95.822 96.085C96.42 96.423 96.719 97.021 96.719 97.879C96.719 98.711 96.407 99.3653 95.783 99.842C95.159 100.319 94.3314 100.557 93.3 100.557C91.324 100.557 89.8117 99.673 88.763 97.905L87.229 98.88C87.8357 99.9807 88.6634 100.843 89.712 101.467C90.7694 102.082 92.0044 102.39 93.417 102.39ZM101.525 102H108.064C108.419 102 108.796 101.987 109.195 101.961C109.602 101.935 109.979 101.874 110.326 101.779C111.097 101.554 111.712 101.138 112.172 100.531C112.631 99.9243 112.861 99.14 112.861 98.178C112.861 96.7913 112.349 95.7903 111.327 95.175C111.015 94.9843 110.716 94.863 110.43 94.811C110.75 94.6723 111.045 94.4557 111.314 94.161C111.591 93.875 111.803 93.537 111.951 93.147C112.107 92.7483 112.185 92.2977 112.185 91.795C112.185 90.8937 111.942 90.1267 111.457 89.494C110.98 88.8527 110.347 88.4237 109.559 88.207C109.195 88.1117 108.8 88.0467 108.376 88.012C107.96 87.9773 107.604 87.96 107.31 87.96H101.525V102ZM103.449 94.161V89.598H107.115C107.21 89.598 107.435 89.6067 107.791 89.624C108.155 89.6413 108.493 89.7063 108.805 89.819C109.264 89.9663 109.606 90.2307 109.832 90.612C110.066 90.9847 110.183 91.4137 110.183 91.899C110.183 92.3497 110.074 92.7657 109.858 93.147C109.65 93.5283 109.32 93.797 108.87 93.953C108.653 94.031 108.406 94.0873 108.129 94.122C107.851 94.148 107.6 94.161 107.375 94.161H103.449ZM103.449 100.375V95.799H107.7C107.873 95.799 108.068 95.8033 108.285 95.812C108.51 95.8207 108.718 95.8467 108.909 95.89C109.498 95.9767 109.975 96.2193 110.339 96.618C110.703 97.008 110.885 97.5107 110.885 98.126C110.885 98.594 110.763 99.0273 110.521 99.426C110.287 99.816 109.914 100.076 109.403 100.206C109.186 100.267 108.939 100.31 108.662 100.336C108.384 100.362 108.155 100.375 107.973 100.375H103.449ZM126.606 87.96H125.007L117.298 98.802V87.96H115.439V102H117.051L124.747 91.067V102H126.606V87.96ZM130.242 102H136.781C137.136 102 137.513 101.987 137.912 101.961C138.319 101.935 138.696 101.874 139.043 101.779C139.814 101.554 140.429 101.138 140.889 100.531C141.348 99.9243 141.578 99.14 141.578 98.178C141.578 96.7913 141.066 95.7903 140.044 95.175C139.732 94.9843 139.433 94.863 139.147 94.811C139.467 94.6723 139.762 94.4557 140.031 94.161C140.308 93.875 140.52 93.537 140.668 93.147C140.824 92.7483 140.902 92.2977 140.902 91.795C140.902 90.8937 140.659 90.1267 140.174 89.494C139.697 88.8527 139.064 88.4237 138.276 88.207C137.912 88.1117 137.517 88.0467 137.093 88.012C136.677 87.9773 136.321 87.96 136.027 87.96H130.242V102ZM132.166 94.161V89.598H135.832C135.927 89.598 136.152 89.6067 136.508 89.624C136.872 89.6413 137.21 89.7063 137.522 89.819C137.981 89.9663 138.323 90.2307 138.549 90.612C138.783 90.9847 138.9 91.4137 138.9 91.899C138.9 92.3497 138.791 92.7657 138.575 93.147C138.367 93.5283 138.037 93.797 137.587 93.953C137.37 94.031 137.123 94.0873 136.846 94.122C136.568 94.148 136.317 94.161 136.092 94.161H132.166ZM132.166 100.375V95.799H136.417C136.59 95.799 136.785 95.8033 137.002 95.812C137.227 95.8207 137.435 95.8467 137.626 95.89C138.215 95.9767 138.692 96.2193 139.056 96.618C139.42 97.008 139.602 97.5107 139.602 98.126C139.602 98.594 139.48 99.0273 139.238 99.426C139.004 99.816 138.631 100.076 138.12 100.206C137.903 100.267 137.656 100.31 137.379 100.336C137.101 100.362 136.872 100.375 136.69 100.375H132.166ZM148.186 102.39C150.638 102.39 152.419 101.484 153.529 99.673V102H155.232V93.277C155.232 92.757 155.206 92.2457 155.154 91.743C155.102 91.2403 154.989 90.7853 154.816 90.378C154.443 89.468 153.806 88.7747 152.905 88.298C152.012 87.8127 150.924 87.57 149.642 87.57C148.099 87.57 146.842 87.9167 145.872 88.61C144.901 89.3033 144.251 90.2783 143.922 91.535L145.781 92.081C146.049 91.145 146.513 90.4603 147.172 90.027C147.839 89.5937 148.654 89.377 149.616 89.377C150.95 89.377 151.904 89.689 152.476 90.313C153.048 90.9283 153.342 91.8687 153.36 93.134C152.736 93.2207 152.047 93.3117 151.293 93.407C150.547 93.5023 149.798 93.6107 149.044 93.732C148.29 93.8533 147.596 93.992 146.964 94.148C145.915 94.4253 145.057 94.889 144.39 95.539C143.722 96.1803 143.389 97.0773 143.389 98.23C143.389 98.9753 143.566 99.6643 143.922 100.297C144.277 100.93 144.81 101.437 145.521 101.818C146.24 102.199 147.128 102.39 148.186 102.39ZM148.407 100.739C147.653 100.739 147.046 100.618 146.587 100.375C146.136 100.124 145.807 99.8073 145.599 99.426C145.399 99.036 145.3 98.6373 145.3 98.23C145.3 97.4673 145.555 96.8953 146.067 96.514C146.578 96.1327 147.133 95.8553 147.731 95.682C148.502 95.474 149.399 95.305 150.422 95.175C151.444 95.045 152.415 94.9237 153.334 94.811C153.334 95.1317 153.321 95.5 153.295 95.916C153.277 96.3233 153.23 96.7003 153.152 97.047C152.97 98.1043 152.467 98.984 151.644 99.686C150.829 100.388 149.75 100.739 148.407 100.739ZM164.44 86.296C165.064 86.296 165.627 86.1487 166.13 85.854C166.641 85.5507 167.044 85.1433 167.339 84.632C167.642 84.1207 167.794 83.5573 167.794 82.942H166.208C166.208 83.4273 166.035 83.8433 165.688 84.19C165.35 84.5367 164.934 84.71 164.44 84.71C163.955 84.71 163.539 84.5367 163.192 84.19C162.845 83.8433 162.672 83.4273 162.672 82.942H161.086C161.086 83.5573 161.233 84.1207 161.528 84.632C161.831 85.1433 162.239 85.5507 162.75 85.854C163.261 86.1487 163.825 86.296 164.44 86.296ZM169.77 87.96H168.171L160.462 98.802V87.96H158.603V102H160.215L167.911 91.067V102H169.77V87.96ZM88.7921 138H90.7031V125.728H95.6821V123.96H83.8131V125.728H88.7921V138ZM104.102 138.39C105.462 138.39 106.68 138.056 107.755 137.389C108.838 136.722 109.657 135.773 110.212 134.542L108.431 133.853C107.538 135.656 106.069 136.557 104.024 136.557C102.62 136.557 101.519 136.119 100.722 135.244C99.9332 134.369 99.4998 133.125 99.4218 131.513H110.485C110.554 129.034 110.012 127.093 108.86 125.689C107.716 124.276 106.104 123.57 104.024 123.57C102.672 123.57 101.497 123.873 100.501 124.48C99.5128 125.087 98.7458 125.949 98.1998 127.067C97.6538 128.185 97.3808 129.511 97.3808 131.045C97.3808 132.527 97.6538 133.818 98.1998 134.919C98.7545 136.02 99.5345 136.873 100.54 137.48C101.554 138.087 102.741 138.39 104.102 138.39ZM104.076 125.325C106.719 125.325 108.188 126.855 108.483 129.914H99.4608C99.6082 128.432 100.076 127.297 100.865 126.508C101.653 125.719 102.724 125.325 104.076 125.325ZM112.07 138C112.954 138.173 113.647 138.186 114.15 138.039C114.652 137.892 115.034 137.588 115.294 137.129C115.554 136.67 115.757 136.054 115.905 135.283C116.043 134.598 116.173 133.749 116.295 132.735C116.416 131.721 116.529 130.616 116.633 129.42C116.737 128.224 116.832 127.015 116.919 125.793H122.795V138H124.693V123.96H115.151C115.012 126.187 114.869 128.142 114.722 129.823C114.583 131.504 114.405 132.978 114.189 134.243C114.059 135.006 113.868 135.578 113.617 135.959C113.374 136.34 112.858 136.462 112.07 136.323V138ZM134.188 138.39C135.575 138.39 136.762 138.078 137.75 137.454C138.747 136.83 139.509 135.963 140.038 134.854C140.575 133.736 140.844 132.44 140.844 130.967C140.844 129.52 140.58 128.241 140.051 127.132C139.531 126.014 138.773 125.143 137.776 124.519C136.788 123.886 135.592 123.57 134.188 123.57C132.819 123.57 131.636 123.882 130.639 124.506C129.651 125.121 128.888 125.984 128.351 127.093C127.814 128.202 127.545 129.494 127.545 130.967C127.545 132.414 127.805 133.697 128.325 134.815C128.854 135.933 129.612 136.808 130.6 137.441C131.597 138.074 132.793 138.39 134.188 138.39ZM134.188 136.557C132.671 136.557 131.523 136.05 130.743 135.036C129.963 134.013 129.573 132.657 129.573 130.967C129.573 129.329 129.95 127.994 130.704 126.963C131.458 125.923 132.619 125.403 134.188 125.403C135.739 125.403 136.896 125.91 137.659 126.924C138.43 127.929 138.816 129.277 138.816 130.967C138.816 132.622 138.435 133.97 137.672 135.01C136.909 136.041 135.748 136.557 134.188 136.557ZM145.012 133.32H146.923V119.28H145.012V133.32ZM145.012 138H146.923V135.855H145.012V138Z" fill="white"/>
    </g>
    <defs>
        <clipPath id="clip0">
            <rect width="226" height="226" fill="white"/>
        </clipPath>
    </defs>
</svg>
