<svg width="226" height="226" viewBox="0 0 226 226" fill="none" xmlns="http://www.w3.org/2000/svg">
    <g clip-path="url(#clip0)">
        <path d="M113 226C175.408 226 226 175.408 226 113C226 50.5918 175.408 0 113 0C50.5918 0 0 50.5918 0 113C0 175.408 50.5918 226 113 226Z" fill="white" fill-opacity="0.1"/>
        <path d="M113 225.5C175.132 225.5 225.5 175.132 225.5 113C225.5 50.868 175.132 0.5 113 0.5C50.868 0.5 0.5 50.868 0.5 113C0.5 175.132 50.868 225.5 113 225.5Z" stroke="white" stroke-opacity="0.5"/>
        <path d="M123 214C171.601 214 211 174.601 211 126C211 77.3989 171.601 38 123 38C74.3989 38 35 77.3989 35 126C35 174.601 74.3989 214 123 214Z" fill="#79C54C" fill-opacity="0.9"/>
        <path d="M123 213.5C171.325 213.5 210.5 174.325 210.5 126C210.5 77.6751 171.325 38.5 123 38.5C74.6751 38.5 35.5 77.6751 35.5 126C35.5 174.325 74.6751 213.5 123 213.5Z" stroke="white" stroke-opacity="0.5"/>
        <path d="M108 206C156.601 206 196 166.601 196 118C196 69.3989 156.601 30 108 30C59.3989 30 20 69.3989 20 118C20 166.601 59.3989 206 108 206Z" fill="#FF4B6C" fill-opacity="0.8"/>
        <path d="M108 205.5C156.325 205.5 195.5 166.325 195.5 118C195.5 69.6751 156.325 30.5 108 30.5C59.6751 30.5 20.5 69.6751 20.5 118C20.5 166.325 59.6751 205.5 108 205.5Z" stroke="white" stroke-opacity="0.5"/>
        <path d="M113 179C161.601 179 201 139.601 201 91C201 42.3989 161.601 3 113 3C64.3989 3 25 42.3989 25 91C25 139.601 64.3989 179 113 179Z" fill="#26F2FF" fill-opacity="0.5"/>
        <path d="M113 178.5C161.325 178.5 200.5 139.325 200.5 91C200.5 42.6751 161.325 3.5 113 3.5C64.6751 3.5 25.5 42.6751 25.5 91C25.5 139.325 64.6751 178.5 113 178.5Z" stroke="white" stroke-opacity="0.5"/>
        <path d="M113 193C157.183 193 193 157.183 193 113C193 68.8172 157.183 33 113 33C68.8172 33 33 68.8172 33 113C33 157.183 68.8172 193 113 193Z" fill="#30295F"/>
        <path d="M58.2214 102H60.1324V94.889H65.4494C65.6227 94.889 65.8264 94.8803 66.0604 94.863C66.2944 94.8457 66.5284 94.8197 66.7624 94.785C68.2184 94.5597 69.3407 93.9183 70.1294 92.861C70.9267 91.8037 71.3254 90.547 71.3254 89.091C71.3254 87.6263 70.931 86.3653 70.1424 85.308C69.3537 84.2507 68.227 83.6093 66.7624 83.384C66.5284 83.3407 66.2944 83.3147 66.0604 83.306C65.835 83.2887 65.6314 83.28 65.4494 83.28H58.2214V102ZM60.1324 93.069V85.113H65.3974C65.5534 85.113 65.7354 85.1217 65.9434 85.139C66.16 85.1477 66.3637 85.1737 66.5544 85.217C67.5164 85.425 68.2227 85.906 68.6734 86.66C69.1327 87.4053 69.3624 88.2157 69.3624 89.091C69.3624 89.9577 69.1327 90.768 68.6734 91.522C68.2227 92.276 67.5164 92.7527 66.5544 92.952C66.3637 92.9953 66.16 93.0257 65.9434 93.043C65.7354 93.0603 65.5534 93.069 65.3974 93.069H60.1324ZM77.9298 102.39C80.3824 102.39 82.1634 101.484 83.2728 99.673V102H84.9758V93.277C84.9758 92.757 84.9498 92.2457 84.8978 91.743C84.8458 91.2403 84.7331 90.7853 84.5598 90.378C84.1871 89.468 83.5501 88.7747 82.6488 88.298C81.7561 87.8127 80.6684 87.57 79.3858 87.57C77.8431 87.57 76.5864 87.9167 75.6158 88.61C74.6451 89.3033 73.9951 90.2783 73.6658 91.535L75.5248 92.081C75.7934 91.145 76.2571 90.4603 76.9158 90.027C77.5831 89.5937 78.3978 89.377 79.3598 89.377C80.6944 89.377 81.6478 89.689 82.2198 90.313C82.7918 90.9283 83.0864 91.8687 83.1038 93.134C82.4798 93.2207 81.7908 93.3117 81.0368 93.407C80.2914 93.5023 79.5418 93.6107 78.7878 93.732C78.0338 93.8533 77.3404 93.992 76.7078 94.148C75.6591 94.4253 74.8011 94.889 74.1338 95.539C73.4664 96.1803 73.1328 97.0773 73.1328 98.23C73.1328 98.9753 73.3104 99.6643 73.6658 100.297C74.0211 100.93 74.5541 101.437 75.2648 101.818C75.9841 102.199 76.8724 102.39 77.9298 102.39ZM78.1508 100.739C77.3968 100.739 76.7901 100.618 76.3308 100.375C75.8801 100.124 75.5508 99.8073 75.3428 99.426C75.1434 99.036 75.0438 98.6373 75.0438 98.23C75.0438 97.4673 75.2994 96.8953 75.8108 96.514C76.3221 96.1327 76.8768 95.8553 77.4748 95.682C78.2461 95.474 79.1431 95.305 80.1658 95.175C81.1884 95.045 82.1591 94.9237 83.0778 94.811C83.0778 95.1317 83.0648 95.5 83.0388 95.916C83.0214 96.3233 82.9738 96.7003 82.8958 97.047C82.7138 98.1043 82.2111 98.984 81.3878 99.686C80.5731 100.388 79.4941 100.739 78.1508 100.739ZM93.417 102.39C94.405 102.39 95.2934 102.217 96.082 101.87C96.8794 101.515 97.5077 101.016 97.967 100.375C98.435 99.725 98.669 98.9537 98.669 98.061C98.669 97.385 98.5174 96.7307 98.214 96.098C97.9107 95.4567 97.4427 94.98 96.81 94.668C97.2867 94.304 97.655 93.8707 97.915 93.368C98.175 92.8567 98.305 92.2717 98.305 91.613C98.305 90.7637 98.0884 90.04 97.655 89.442C97.2304 88.8353 96.6497 88.3717 95.913 88.051C95.185 87.7303 94.3704 87.57 93.469 87.57C92.325 87.57 91.2807 87.7737 90.336 88.181C89.4 88.5797 88.581 89.1647 87.879 89.936L89.101 91.223C89.6124 90.6857 90.2364 90.248 90.973 89.91C91.7097 89.5633 92.494 89.39 93.326 89.39C94.1494 89.39 94.8557 89.585 95.445 89.975C96.043 90.3563 96.342 90.9457 96.342 91.743C96.342 92.5057 96.0474 93.0603 95.458 93.407C94.8687 93.7537 94.0844 93.927 93.105 93.927H91.467V95.565H93.131C94.327 95.565 95.224 95.7383 95.822 96.085C96.42 96.423 96.719 97.021 96.719 97.879C96.719 98.711 96.407 99.3653 95.783 99.842C95.159 100.319 94.3314 100.557 93.3 100.557C91.324 100.557 89.8117 99.673 88.763 97.905L87.229 98.88C87.8357 99.9807 88.6634 100.843 89.712 101.467C90.7694 102.082 92.0044 102.39 93.417 102.39ZM101.525 102H108.064C108.419 102 108.796 101.987 109.195 101.961C109.602 101.935 109.979 101.874 110.326 101.779C111.097 101.554 111.712 101.138 112.172 100.531C112.631 99.9243 112.861 99.14 112.861 98.178C112.861 96.7913 112.349 95.7903 111.327 95.175C111.015 94.9843 110.716 94.863 110.43 94.811C110.75 94.6723 111.045 94.4557 111.314 94.161C111.591 93.875 111.803 93.537 111.951 93.147C112.107 92.7483 112.185 92.2977 112.185 91.795C112.185 90.8937 111.942 90.1267 111.457 89.494C110.98 88.8527 110.347 88.4237 109.559 88.207C109.195 88.1117 108.8 88.0467 108.376 88.012C107.96 87.9773 107.604 87.96 107.31 87.96H101.525V102ZM103.449 94.161V89.598H107.115C107.21 89.598 107.435 89.6067 107.791 89.624C108.155 89.6413 108.493 89.7063 108.805 89.819C109.264 89.9663 109.606 90.2307 109.832 90.612C110.066 90.9847 110.183 91.4137 110.183 91.899C110.183 92.3497 110.074 92.7657 109.858 93.147C109.65 93.5283 109.32 93.797 108.87 93.953C108.653 94.031 108.406 94.0873 108.129 94.122C107.851 94.148 107.6 94.161 107.375 94.161H103.449ZM103.449 100.375V95.799H107.7C107.873 95.799 108.068 95.8033 108.285 95.812C108.51 95.8207 108.718 95.8467 108.909 95.89C109.498 95.9767 109.975 96.2193 110.339 96.618C110.703 97.008 110.885 97.5107 110.885 98.126C110.885 98.594 110.763 99.0273 110.521 99.426C110.287 99.816 109.914 100.076 109.403 100.206C109.186 100.267 108.939 100.31 108.662 100.336C108.384 100.362 108.155 100.375 107.973 100.375H103.449ZM126.606 87.96H125.007L117.298 98.802V87.96H115.439V102H117.051L124.747 91.067V102H126.606V87.96ZM130.242 102H136.781C137.136 102 137.513 101.987 137.912 101.961C138.319 101.935 138.696 101.874 139.043 101.779C139.814 101.554 140.429 101.138 140.889 100.531C141.348 99.9243 141.578 99.14 141.578 98.178C141.578 96.7913 141.066 95.7903 140.044 95.175C139.732 94.9843 139.433 94.863 139.147 94.811C139.467 94.6723 139.762 94.4557 140.031 94.161C140.308 93.875 140.52 93.537 140.668 93.147C140.824 92.7483 140.902 92.2977 140.902 91.795C140.902 90.8937 140.659 90.1267 140.174 89.494C139.697 88.8527 139.064 88.4237 138.276 88.207C137.912 88.1117 137.517 88.0467 137.093 88.012C136.677 87.9773 136.321 87.96 136.027 87.96H130.242V102ZM132.166 94.161V89.598H135.832C135.927 89.598 136.152 89.6067 136.508 89.624C136.872 89.6413 137.21 89.7063 137.522 89.819C137.981 89.9663 138.323 90.2307 138.549 90.612C138.783 90.9847 138.9 91.4137 138.9 91.899C138.9 92.3497 138.791 92.7657 138.575 93.147C138.367 93.5283 138.037 93.797 137.587 93.953C137.37 94.031 137.123 94.0873 136.846 94.122C136.568 94.148 136.317 94.161 136.092 94.161H132.166ZM132.166 100.375V95.799H136.417C136.59 95.799 136.785 95.8033 137.002 95.812C137.227 95.8207 137.435 95.8467 137.626 95.89C138.215 95.9767 138.692 96.2193 139.056 96.618C139.42 97.008 139.602 97.5107 139.602 98.126C139.602 98.594 139.48 99.0273 139.238 99.426C139.004 99.816 138.631 100.076 138.12 100.206C137.903 100.267 137.656 100.31 137.379 100.336C137.101 100.362 136.872 100.375 136.69 100.375H132.166ZM148.186 102.39C150.638 102.39 152.419 101.484 153.529 99.673V102H155.232V93.277C155.232 92.757 155.206 92.2457 155.154 91.743C155.102 91.2403 154.989 90.7853 154.816 90.378C154.443 89.468 153.806 88.7747 152.905 88.298C152.012 87.8127 150.924 87.57 149.642 87.57C148.099 87.57 146.842 87.9167 145.872 88.61C144.901 89.3033 144.251 90.2783 143.922 91.535L145.781 92.081C146.049 91.145 146.513 90.4603 147.172 90.027C147.839 89.5937 148.654 89.377 149.616 89.377C150.95 89.377 151.904 89.689 152.476 90.313C153.048 90.9283 153.342 91.8687 153.36 93.134C152.736 93.2207 152.047 93.3117 151.293 93.407C150.547 93.5023 149.798 93.6107 149.044 93.732C148.29 93.8533 147.596 93.992 146.964 94.148C145.915 94.4253 145.057 94.889 144.39 95.539C143.722 96.1803 143.389 97.0773 143.389 98.23C143.389 98.9753 143.566 99.6643 143.922 100.297C144.277 100.93 144.81 101.437 145.521 101.818C146.24 102.199 147.128 102.39 148.186 102.39ZM148.407 100.739C147.653 100.739 147.046 100.618 146.587 100.375C146.136 100.124 145.807 99.8073 145.599 99.426C145.399 99.036 145.3 98.6373 145.3 98.23C145.3 97.4673 145.555 96.8953 146.067 96.514C146.578 96.1327 147.133 95.8553 147.731 95.682C148.502 95.474 149.399 95.305 150.422 95.175C151.444 95.045 152.415 94.9237 153.334 94.811C153.334 95.1317 153.321 95.5 153.295 95.916C153.277 96.3233 153.23 96.7003 153.152 97.047C152.97 98.1043 152.467 98.984 151.644 99.686C150.829 100.388 149.75 100.739 148.407 100.739ZM164.44 86.296C165.064 86.296 165.627 86.1487 166.13 85.854C166.641 85.5507 167.044 85.1433 167.339 84.632C167.642 84.1207 167.794 83.5573 167.794 82.942H166.208C166.208 83.4273 166.035 83.8433 165.688 84.19C165.35 84.5367 164.934 84.71 164.44 84.71C163.955 84.71 163.539 84.5367 163.192 84.19C162.845 83.8433 162.672 83.4273 162.672 82.942H161.086C161.086 83.5573 161.233 84.1207 161.528 84.632C161.831 85.1433 162.239 85.5507 162.75 85.854C163.261 86.1487 163.825 86.296 164.44 86.296ZM169.77 87.96H168.171L160.462 98.802V87.96H158.603V102H160.215L167.911 91.067V102H169.77V87.96ZM76.9847 144.24H78.9087V136.323C79.4114 136.964 80.0311 137.471 80.7677 137.844C81.5044 138.208 82.3494 138.39 83.3027 138.39C84.6201 138.39 85.7424 138.065 86.6697 137.415C87.5971 136.756 88.3034 135.868 88.7887 134.75C89.2827 133.632 89.5297 132.371 89.5297 130.967C89.5297 129.572 89.2827 128.315 88.7887 127.197C88.3034 126.079 87.6014 125.195 86.6827 124.545C85.7641 123.895 84.6634 123.57 83.3807 123.57C82.3407 123.57 81.4264 123.778 80.6377 124.194C79.8577 124.601 79.2121 125.169 78.7007 125.897V123.96H76.9847V144.24ZM83.1077 136.609C82.1111 136.609 81.2877 136.366 80.6377 135.881C79.9877 135.387 79.5024 134.715 79.1817 133.866C78.8611 133.017 78.7007 132.05 78.7007 130.967C78.7007 129.312 79.0604 127.964 79.7797 126.924C80.5077 125.875 81.6041 125.351 83.0687 125.351C84.0741 125.351 84.9017 125.598 85.5517 126.092C86.2104 126.586 86.7001 127.258 87.0207 128.107C87.3414 128.956 87.5017 129.91 87.5017 130.967C87.5017 132.033 87.3371 132.991 87.0077 133.84C86.6871 134.689 86.2017 135.365 85.5517 135.868C84.9017 136.362 84.0871 136.609 83.1077 136.609ZM96.4015 138.39C98.8541 138.39 100.635 137.484 101.744 135.673V138H103.447V129.277C103.447 128.757 103.421 128.246 103.369 127.743C103.317 127.24 103.205 126.785 103.031 126.378C102.659 125.468 102.022 124.775 101.12 124.298C100.228 123.813 99.1401 123.57 97.8575 123.57C96.3148 123.57 95.0581 123.917 94.0875 124.61C93.1168 125.303 92.4668 126.278 92.1375 127.535L93.9965 128.081C94.2651 127.145 94.7288 126.46 95.3875 126.027C96.0548 125.594 96.8695 125.377 97.8315 125.377C99.1661 125.377 100.119 125.689 100.691 126.313C101.263 126.928 101.558 127.869 101.575 129.134C100.951 129.221 100.262 129.312 99.5085 129.407C98.7631 129.502 98.0135 129.611 97.2595 129.732C96.5055 129.853 95.8121 129.992 95.1795 130.148C94.1308 130.425 93.2728 130.889 92.6055 131.539C91.9381 132.18 91.6045 133.077 91.6045 134.23C91.6045 134.975 91.7821 135.664 92.1375 136.297C92.4928 136.93 93.0258 137.437 93.7365 137.818C94.4558 138.199 95.3441 138.39 96.4015 138.39ZM96.6225 136.739C95.8685 136.739 95.2618 136.618 94.8025 136.375C94.3518 136.124 94.0225 135.807 93.8145 135.426C93.6151 135.036 93.5155 134.637 93.5155 134.23C93.5155 133.467 93.7711 132.895 94.2825 132.514C94.7938 132.133 95.3485 131.855 95.9465 131.682C96.7178 131.474 97.6148 131.305 98.6375 131.175C99.6601 131.045 100.631 130.924 101.549 130.811C101.549 131.132 101.536 131.5 101.51 131.916C101.493 132.323 101.445 132.7 101.367 133.047C101.185 134.104 100.683 134.984 99.8595 135.686C99.0448 136.388 97.9658 136.739 96.6225 136.739ZM111.889 138.39C112.877 138.39 113.765 138.217 114.554 137.87C115.351 137.515 115.979 137.016 116.439 136.375C116.907 135.725 117.141 134.954 117.141 134.061C117.141 133.385 116.989 132.731 116.686 132.098C116.382 131.457 115.914 130.98 115.282 130.668C115.758 130.304 116.127 129.871 116.387 129.368C116.647 128.857 116.777 128.272 116.777 127.613C116.777 126.764 116.56 126.04 116.127 125.442C115.702 124.835 115.121 124.372 114.385 124.051C113.657 123.73 112.842 123.57 111.941 123.57C110.797 123.57 109.752 123.774 108.808 124.181C107.872 124.58 107.053 125.165 106.351 125.936L107.573 127.223C108.084 126.686 108.708 126.248 109.445 125.91C110.181 125.563 110.966 125.39 111.798 125.39C112.621 125.39 113.327 125.585 113.917 125.975C114.515 126.356 114.814 126.946 114.814 127.743C114.814 128.506 114.519 129.06 113.93 129.407C113.34 129.754 112.556 129.927 111.577 129.927H109.939V131.565H111.603C112.799 131.565 113.696 131.738 114.294 132.085C114.892 132.423 115.191 133.021 115.191 133.879C115.191 134.711 114.879 135.365 114.255 135.842C113.631 136.319 112.803 136.557 111.772 136.557C109.796 136.557 108.283 135.673 107.235 133.905L105.701 134.88C106.307 135.981 107.135 136.843 108.184 137.467C109.241 138.082 110.476 138.39 111.889 138.39ZM122.011 144.24H123.922L131.462 123.96H129.512L125.261 135.504L120.646 123.96H118.618L124.325 137.961L122.011 144.24ZM133.707 138H135.566V128.042L140.285 138H141.494L146.213 128.042V138H148.059V123.96H146.369L140.883 135.452L135.41 123.96H133.707V138ZM152.997 133.32H154.908V119.28H152.997V133.32ZM152.997 138H154.908V135.855H152.997V138Z" fill="white"/>
    </g>
    <defs>
        <clipPath id="clip0">
            <rect width="226" height="226" fill="white"/>
        </clipPath>
    </defs>
</svg>
