<svg width="20" height="18" viewBox="0 0 20 18" fill="none" xmlns="http://www.w3.org/2000/svg"><path d="M14.635 4.777c-.556.616-.956 1.095-1.394 1.538-.562.568-1.232.59-1.706.094-.452-.474-.414-1.118.132-1.662.44-.44.912-.847 1.501-1.39-.57-.51-1.052-.906-1.495-1.343-.54-.532-.578-1.199-.136-1.668.457-.484 1.155-.453 1.718.086.421.404.832.82 1.25 1.229.027.027.073.037.225.11.394-.427.802-.9 1.242-1.337.537-.535 1.205-.571 1.666-.126.487.47.46 1.146-.091 1.713-.422.432-.866.844-1.358 1.32.523.534 1.032 1.016 1.494 1.536.437.49.397 1.154-.045 1.573-.445.423-1.067.41-1.575-.045a7.04 7.04 0 0 1-.621-.618c-.248-.281-.47-.584-.807-1.01ZM14.555 15.383c.957-.978 1.766-1.821 2.595-2.647.388-.385.847-.528 1.368-.24.487.27.656.702.544 1.216-.049.23-.195.467-.362.638a206.724 206.724 0 0 1-3.185 3.194c-.622.608-1.185.603-1.803.002a105.056 105.056 0 0 1-2.083-2.081c-.515-.53-.53-1.218-.059-1.67.473-.453 1.08-.433 1.616.065.245.228.486.46.709.708.207.23.393.483.66.815ZM3.367 16.853c-.73 0-1.46.012-2.19-.004-.733-.017-1.168-.44-1.174-1.1-.007-.649.439-1.125 1.146-1.135 1.48-.02 2.962-.02 4.442.002.698.01 1.17.51 1.16 1.138-.01.633-.48 1.08-1.195 1.095-.729.016-1.459.004-2.189.004ZM3.364 2.278c.73 0 1.46-.006 2.19.001.72.009 1.186.436 1.199 1.077.011.622-.452 1.124-1.16 1.144-1.207.034-2.418.015-3.627.011-.353-.001-.714.013-1.058-.051-.632-.118-.96-.594-.902-1.22.054-.57.473-.948 1.105-.958.75-.014 1.502-.004 2.253-.004Z" fill="#fff"/></svg>