<svg width="20" height="20" viewBox="0 0 20 20" fill="none" xmlns="http://www.w3.org/2000/svg"><path d="M17.841 14.99c-.35-.134-.575.082-.777.382-.155.23-.349.434-.513.66-.387.528-.797.949-.621 1.789.247 1.178-.73 2.158-1.885 2.178-1.188.02-2.04-.91-2.024-2.164.003-.2-.122-.442-.265-.592-.241-.253-.543-.449-.819-.67-.519-.416-.957-.892-1.787-.638-.379.116-.939-.138-1.331-.368-.3-.175-.521-.259-.852-.157-.868.266-1.75.484-2.61.772-.196.065-.384.308-.469.513-.346.847-1.123 1.353-2.065 1.293-.84-.053-1.575-.714-1.78-1.598-.18-.772.22-1.663.943-2.1.72-.434 1.579-.354 2.298.16.179.128.477.209.682.159.9-.221 1.79-.482 2.669-.77.187-.062.383-.268.462-.455.442-1.046 1.33-1.546 2.407-1.316.904.193 1.486 1.039 1.483 2.089 0 .2.124.436.261.596.178.208.468.323.635.537.667.85 1.566.87 2.508.742.107-.014.216-.123.296-.214.16-.18.305-.375.447-.569.507-.685 1.126-1.224.907-2.315-.206-1.03.934-1.961 2-1.932a2.014 2.014 0 0 1 1.957 2.078c-.037 1.11-.961 1.944-2.157 1.91ZM17.771 3.897c-.191.137-.406.251-.57.416-.222.224-.404.485-.604.729-.437.531-.825.984-.663 1.833.217 1.14-.68 2.04-1.83 2.133-1.013.082-1.872-.67-2.077-1.773-.034-.181-.193-.39-.354-.49-.394-.24-.823-.424-1.237-.63-.595-.298-1.116-.67-1.882-.237-.36.203-1.001.003-1.479-.137-.284-.082-.486-.153-.762 0-.534.296-1.076.587-1.642.818-.436.179-.643.443-.746.907a1.935 1.935 0 0 1-1.926 1.546C1.104 9.006.34 8.417.087 7.505-.137 6.71.109 6.03.716 5.502c.651-.567 1.416-.666 2.174-.27.346.183.588.17.907-.004.602-.329 1.237-.599 1.829-.941a.924.924 0 0 0 .403-.56c.177-.992.966-1.702 1.966-1.706 1.004-.005 1.834.682 1.969 1.68.042.318.16.494.446.62.424.187.836.402 1.244.622.582.313 1.15.681 1.808.15a.424.424 0 0 1 .32-.062c.693.167 1.053-.251 1.386-.747a4.83 4.83 0 0 1 .485-.61c.385-.408.575-.795.386-1.421-.274-.9.512-1.928 1.53-2.196.972-.256 2.027.373 2.34 1.395.3.983-.21 2.05-1.17 2.405-.274.102-.57.14-.857.209a7.016 7.016 0 0 1-.11-.169Z" fill="#fff"/></svg>