<svg width="19" height="18" viewBox="0 0 19 18" fill="none" xmlns="http://www.w3.org/2000/svg"><path d="M7.207 14.233c-.23-.011-.398-.027-.568-.027-1.218-.002-2.437.005-3.655-.003-1.251-.009-2.013-.768-2.015-2.01C.964 9.283.968 6.374.967 3.465v-.581c-.123-.044-.224-.076-.32-.115-.453-.184-.729-.613-.626-1.037.117-.476.414-.777.933-.78C2.243.948 3.532.95 4.82.95H8.54c.096-.582.394-.956.974-.949.55.008.863.346.94.95h.576c2.243 0 4.485-.002 6.728 0 .747 0 1.153.267 1.232.804.074.501-.22.864-.954 1.136v9.218c-.002 1.36-.73 2.09-2.09 2.094-1.356.004-2.711 0-4.154 0 .335.853.643 1.632.947 2.41.247.63.112 1.09-.379 1.303-.514.225-.988-.01-1.242-.63-.353-.863-.7-1.728-1.041-2.595-.105-.267-.173-.498-.562-.503-.416-.005-.484.248-.596.531-.334.851-.678 1.699-1.023 2.546-.256.628-.712.87-1.23.659-.494-.201-.646-.67-.404-1.292.303-.78.615-1.56.946-2.398Zm1.354-6.319c.708.727 1.363 1.413 2.034 2.084.548.547 1.058.55 1.602.013.967-.954 1.926-1.915 2.884-2.877.11-.11.21-.239.287-.374.24-.418.115-.793-.204-1.098-.328-.313-.724-.363-1.116-.115-.176.11-.325.269-.473.42-.707.726-1.409 1.457-2.145 2.221-.734-.744-1.373-1.399-2.02-2.046-.621-.623-1.094-.624-1.717.005-.654.66-1.293 1.333-2.016 2.082-.23-.279-.365-.493-.546-.656-.418-.375-.965-.357-1.329.016-.38.39-.387.888.012 1.322.333.364.691.705 1.043 1.051.602.594 1.088.602 1.68.013.66-.658 1.307-1.33 2.024-2.06Z" fill="#fff"/></svg>